<svg width="194" height="102" viewBox="0 0 194 102" fill="none" xmlns="http://www.w3.org/2000/svg">
<rect width="194" height="102" fill="white"/>
<path d="M152 58.3531C152 58.6763 151.889 58.9569 151.668 59.195C151.447 59.4161 151.175 59.5266 150.852 59.5266H150.138C149.815 59.5266 149.543 59.4161 149.321 59.195C149.1 58.9569 148.99 58.6763 148.99 58.3531V49.7053C148.99 49.6033 148.947 49.5182 148.862 49.4502C148.794 49.3822 148.718 49.3482 148.633 49.3482H146.158C146.073 49.3482 145.988 49.3822 145.903 49.4502C145.835 49.5182 145.801 49.6033 145.801 49.7053V58.3531C145.801 58.6763 145.691 58.9569 145.47 59.195C145.249 59.4161 144.976 59.5266 144.653 59.5266H143.939C143.616 59.5266 143.335 59.4161 143.097 59.195C142.876 58.9569 142.766 58.6763 142.766 58.3531V49.1696C142.766 48.6424 142.893 48.1662 143.148 47.741C143.42 47.2989 143.769 46.9502 144.194 46.6951C144.619 46.44 145.095 46.3125 145.623 46.3125H149.168C149.696 46.3125 150.172 46.44 150.597 46.6951C151.022 46.9502 151.362 47.2989 151.617 47.741C151.872 48.1662 152 48.6424 152 49.1696V58.3531Z" fill="black"/>
<path d="M140.69 56.6695C140.69 57.4688 140.409 58.1491 139.848 58.7103C139.304 59.2545 138.641 59.5266 137.859 59.5266H134.313C133.531 59.5266 132.859 59.2545 132.298 58.7103C131.736 58.1491 131.456 57.4688 131.456 56.6695V49.1696C131.456 48.6424 131.583 48.1662 131.838 47.741C132.111 47.2989 132.459 46.9502 132.884 46.6951C133.309 46.44 133.786 46.3125 134.313 46.3125H137.859C138.386 46.3125 138.862 46.44 139.287 46.6951C139.712 46.9502 140.052 47.2989 140.307 47.741C140.563 48.1662 140.69 48.6424 140.69 49.1696V56.6695ZM137.68 56.1848V49.7053C137.68 49.6033 137.637 49.5182 137.552 49.4502C137.484 49.3822 137.408 49.3482 137.323 49.3482H134.849C134.763 49.3482 134.678 49.3822 134.593 49.4502C134.525 49.5182 134.491 49.6033 134.491 49.7053V56.1848C134.491 56.2698 134.525 56.3464 134.593 56.4144C134.678 56.4824 134.763 56.5164 134.849 56.5164H137.323C137.408 56.5164 137.484 56.4824 137.552 56.4144C137.637 56.3464 137.68 56.2698 137.68 56.1848Z" fill="black"/>
<path d="M129.404 43.9132C129.404 44.4404 129.208 44.8996 128.817 45.2908C128.443 45.6649 128.001 45.852 127.491 45.852C126.963 45.852 126.504 45.6649 126.113 45.2908C125.739 44.8996 125.552 44.4404 125.552 43.9132C125.552 43.403 125.739 42.9609 126.113 42.5867C126.504 42.1956 126.963 42 127.491 42C128.001 42 128.443 42.1956 128.817 42.5867C129.208 42.9609 129.404 43.403 129.404 43.9132ZM128.996 58.3518C128.996 58.6749 128.877 58.9555 128.639 59.1936C128.418 59.4147 128.145 59.5253 127.822 59.5253H127.134C126.81 59.5253 126.53 59.4147 126.292 59.1936C126.071 58.9555 125.96 58.6749 125.96 58.3518V47.7652C125.96 47.4421 126.071 47.17 126.292 46.9489C126.53 46.7108 126.81 46.5918 127.134 46.5918H127.822C128.145 46.5918 128.418 46.7108 128.639 46.9489C128.877 47.17 128.996 47.4421 128.996 47.7652V58.3518Z" fill="black"/>
<path d="M123.476 56.6695C123.476 57.4688 123.196 58.1491 122.635 58.7103C122.09 59.2545 121.427 59.5266 120.645 59.5266H117.099C116.317 59.5266 115.645 59.2545 115.084 58.7103C114.523 58.1491 114.242 57.4688 114.242 56.6695V55.6236C114.242 55.3005 114.353 55.0284 114.574 54.8073C114.812 54.5692 115.092 54.4501 115.416 54.4501H116.13C116.453 54.4501 116.725 54.5692 116.946 54.8073C117.167 55.0284 117.278 55.3005 117.278 55.6236V56.1848C117.278 56.4059 117.397 56.5164 117.635 56.5164H120.109C120.194 56.5164 120.271 56.4824 120.339 56.4144C120.424 56.3464 120.466 56.2698 120.466 56.1848V55.2409C120.466 55.1049 120.398 55.0114 120.262 54.9603L116.564 53.7869C115.883 53.5488 115.322 53.1406 114.88 52.5624C114.455 51.9842 114.242 51.3294 114.242 50.5982V49.1696C114.242 48.6424 114.37 48.1662 114.625 47.741C114.897 47.3159 115.246 46.9758 115.671 46.7207C116.096 46.4486 116.572 46.3125 117.099 46.3125H120.645C121.172 46.3125 121.648 46.4486 122.073 46.7207C122.499 46.9758 122.839 47.3159 123.094 47.741C123.349 48.1662 123.476 48.6424 123.476 49.1696V50.19C123.476 50.5131 123.366 50.7937 123.145 51.0318C122.924 51.2529 122.652 51.3634 122.329 51.3634H121.614C121.291 51.3634 121.019 51.2529 120.798 51.0318C120.577 50.7937 120.466 50.5131 120.466 50.19V49.7053C120.466 49.6033 120.424 49.5182 120.339 49.4502C120.271 49.3822 120.194 49.3482 120.109 49.3482H117.635C117.397 49.3482 117.278 49.4672 117.278 49.7053V50.5982C117.278 50.7682 117.346 50.8703 117.482 50.9043L121.181 52.0777C121.878 52.2988 122.431 52.6985 122.839 53.2767C123.264 53.8549 123.476 54.5097 123.476 55.2409V56.6695Z" fill="black"/>
<path d="M112.19 43.9132C112.19 44.4404 111.995 44.8996 111.604 45.2908C111.229 45.6649 110.787 45.852 110.277 45.852C109.75 45.852 109.291 45.6649 108.9 45.2908C108.525 44.8996 108.338 44.4404 108.338 43.9132C108.338 43.403 108.525 42.9609 108.9 42.5867C109.291 42.1956 109.75 42 110.277 42C110.787 42 111.229 42.1956 111.604 42.5867C111.995 42.9609 112.19 43.403 112.19 43.9132ZM111.782 58.3518C111.782 58.6749 111.663 58.9555 111.425 59.1936C111.204 59.4147 110.932 59.5253 110.609 59.5253H109.92C109.597 59.5253 109.316 59.4147 109.078 59.1936C108.857 58.9555 108.747 58.6749 108.747 58.3518V47.7652C108.747 47.4421 108.857 47.17 109.078 46.9489C109.316 46.7108 109.597 46.5918 109.92 46.5918H110.609C110.932 46.5918 111.204 46.7108 111.425 46.9489C111.663 47.17 111.782 47.4421 111.782 47.7652V58.3518Z" fill="black"/>
<path d="M106.256 43.8118L101.307 58.7351C101.239 58.9562 101.095 59.1433 100.874 59.2963C100.669 59.4494 100.448 59.5259 100.21 59.5259H99.1644C98.9263 59.5259 98.7052 59.4494 98.5012 59.2963C98.3141 59.1433 98.1781 58.9562 98.093 58.7351L93.1443 43.8118C93.0082 43.4377 93.0592 43.0891 93.2973 42.7659C93.5184 42.4428 93.833 42.2812 94.2412 42.2812H94.9809C95.5421 42.2812 95.9163 42.5449 96.1033 43.0721L99.547 53.5821C99.6491 53.7012 99.7426 53.7012 99.8276 53.5821C100.185 52.4767 100.55 51.3457 100.925 50.1893C101.316 49.0158 101.681 47.9189 102.021 46.8985C102.362 45.8611 102.642 45.0023 102.863 44.322L103.271 43.0721C103.356 42.834 103.501 42.6469 103.705 42.5108C103.926 42.3578 104.156 42.2812 104.394 42.2812H105.134C105.542 42.2812 105.856 42.4428 106.077 42.7659C106.315 43.0721 106.375 43.4207 106.256 43.8118Z" fill="black"/>
<path d="M92.2741 48.2002C92.2741 48.5234 92.1635 48.7955 91.9424 49.0165C91.7214 49.2376 91.4493 49.3482 91.1262 49.3482H88.0906C87.8695 49.3482 87.759 49.4672 87.759 49.7053V58.3531C87.759 58.6763 87.6399 58.9569 87.4018 59.195C87.1808 59.4161 86.9087 59.5266 86.5855 59.5266H85.8713C85.5482 59.5266 85.2761 59.4161 85.055 59.195C84.8339 58.9569 84.7234 58.6763 84.7234 58.3531V49.1696C84.7234 48.6424 84.8509 48.1662 85.106 47.741C85.3611 47.2989 85.7012 46.9502 86.1264 46.6951C86.5515 46.44 87.0277 46.3125 87.5549 46.3125H91.1262C91.4493 46.3125 91.7214 46.4315 91.9424 46.6696C92.1635 46.8907 92.2741 47.1713 92.2741 47.5115V48.2002Z" fill="black"/>
<path d="M82.6225 56.6695C82.6225 57.4688 82.3419 58.1491 81.7807 58.7103C81.2365 59.2545 80.5732 59.5266 79.791 59.5266H76.2452C75.4629 59.5266 74.7912 59.2545 74.23 58.7103C73.6688 58.1491 73.3882 57.4688 73.3882 56.6695V53.8889C73.3882 53.3617 73.5157 52.894 73.7708 52.4859C74.0429 52.0607 74.3915 51.7206 74.8167 51.4655C75.2418 51.2104 75.718 51.0828 76.2452 51.0828H79.2553C79.3403 51.0828 79.4168 51.0488 79.4848 50.9808C79.5699 50.9128 79.6124 50.8277 79.6124 50.7257V49.7053C79.6124 49.6033 79.5699 49.5182 79.4848 49.4502C79.4168 49.3822 79.3403 49.3482 79.2553 49.3482H76.2452C75.9221 49.3482 75.6415 49.2376 75.4034 49.0165C75.1823 48.7955 75.0718 48.5234 75.0718 48.2002V47.5115C75.0718 47.1713 75.1823 46.8907 75.4034 46.6696C75.6415 46.4315 75.9221 46.3125 76.2452 46.3125H79.791C80.3181 46.3125 80.7943 46.44 81.2195 46.6951C81.6446 46.9502 81.9847 47.2989 82.2398 47.741C82.4949 48.1662 82.6225 48.6424 82.6225 49.1696V56.6695ZM79.6124 56.1848V54.4246C79.6124 54.3396 79.5699 54.2631 79.4848 54.195C79.4168 54.127 79.3403 54.093 79.2553 54.093H76.7809C76.6959 54.093 76.6108 54.127 76.5258 54.195C76.4578 54.2631 76.4238 54.3396 76.4238 54.4246V56.1848C76.4238 56.2698 76.4578 56.3464 76.5258 56.4144C76.6108 56.4824 76.6959 56.5164 76.7809 56.5164H79.2553C79.3403 56.5164 79.4168 56.4824 79.4848 56.4144C79.5699 56.3464 79.6124 56.2698 79.6124 56.1848Z" fill="black"/>
<path d="M71.3126 51.9502C71.3126 52.4604 71.1851 52.9366 70.93 53.3787C70.6749 53.8039 70.3348 54.1525 69.9096 54.4246C69.4845 54.6797 69.0083 54.8073 68.4811 54.8073H65.4711C65.386 54.8073 65.301 54.8413 65.216 54.9093C65.148 54.9603 65.1139 55.0284 65.1139 55.1134V56.1848C65.1139 56.2698 65.148 56.3464 65.216 56.4144C65.301 56.4824 65.386 56.5164 65.4711 56.5164H68.4811C68.8043 56.5164 69.0763 56.627 69.2974 56.8481C69.5355 57.0691 69.6546 57.3498 69.6546 57.6899V58.3531C69.6546 58.6763 69.5355 58.9569 69.2974 59.195C69.0763 59.4161 68.8043 59.5266 68.4811 59.5266H64.9354C64.1531 59.5266 63.4814 59.2545 62.9202 58.7103C62.359 58.1491 62.0784 57.4688 62.0784 56.6695V49.1696C62.0784 48.6424 62.2059 48.1662 62.461 47.741C62.7331 47.3159 63.0817 46.9758 63.5069 46.7207C63.932 46.4486 64.4082 46.3125 64.9354 46.3125H68.4811C69.0083 46.3125 69.4845 46.4486 69.9096 46.7207C70.3348 46.9758 70.6749 47.3159 70.93 47.741C71.1851 48.1662 71.3126 48.6424 71.3126 49.1696V51.9502ZM68.3026 51.44V49.7053C68.3026 49.6033 68.2601 49.5182 68.175 49.4502C68.107 49.3822 68.0305 49.3482 67.9454 49.3482H65.4711C65.386 49.3482 65.301 49.3822 65.216 49.4502C65.148 49.5182 65.1139 49.6033 65.1139 49.7053V51.44C65.1139 51.508 65.148 51.576 65.216 51.6441C65.301 51.7121 65.386 51.7461 65.4711 51.7461H67.9454C68.0305 51.7461 68.107 51.7121 68.175 51.6441C68.2601 51.576 68.3026 51.508 68.3026 51.44Z" fill="black"/>
<path d="M60.0698 58.3524C60.0698 58.6756 59.9507 58.9562 59.7126 59.1943C59.4916 59.4154 59.2195 59.5259 58.8963 59.5259H58.2586C57.4763 59.5259 56.8046 59.2538 56.2434 58.7096C55.6822 58.1484 55.4016 57.4681 55.4016 56.6688V43.4547C55.4016 43.1146 55.5122 42.834 55.7332 42.6129C55.9713 42.3918 56.2519 42.2812 56.575 42.2812H57.2893C57.6124 42.2812 57.8845 42.3918 58.1056 42.6129C58.3437 42.834 58.4627 43.1146 58.4627 43.4547V56.1841C58.4627 56.4052 58.5647 56.5157 58.7688 56.5157H58.8963C59.2195 56.5157 59.4916 56.6263 59.7126 56.8474C59.9507 57.0685 60.0698 57.3491 60.0698 57.6892V58.3524Z" fill="black"/>
<path d="M53.3515 56.1586C53.3515 56.7708 53.1985 57.3321 52.8924 57.8423C52.5862 58.3524 52.1781 58.7606 51.6679 59.0667C51.1577 59.3728 50.5965 59.5259 49.9843 59.5259H45.3927C44.7805 59.5259 44.2108 59.3728 43.6836 59.0667C43.1734 58.7606 42.7653 58.3524 42.4592 57.8423C42.1531 57.3321 42 56.7708 42 56.1586V45.6741C42 45.0448 42.1531 44.4751 42.4592 43.9649C42.7653 43.4547 43.1734 43.0465 43.6836 42.7404C44.2108 42.4343 44.7805 42.2812 45.3927 42.2812H49.9843C50.5965 42.2812 51.1577 42.4343 51.6679 42.7404C52.1781 43.0465 52.5862 43.4547 52.8924 43.9649C53.1985 44.4751 53.3515 45.0448 53.3515 45.6741V46.3628C53.3515 46.6859 53.241 46.9581 53.0199 47.1791C52.7988 47.4002 52.5182 47.5108 52.1781 47.5108H51.4894C51.1662 47.5108 50.8856 47.4002 50.6476 47.1791C50.4265 46.9581 50.3159 46.6859 50.3159 46.3628V45.6741C50.3159 45.436 50.2054 45.3169 49.9843 45.3169H45.3927C45.1716 45.3169 45.0611 45.436 45.0611 45.6741V56.1586C45.0611 56.2436 45.0951 56.3287 45.1631 56.4137C45.2311 56.4817 45.3077 56.5157 45.3927 56.5157H49.9843C50.0694 56.5157 50.1459 56.4817 50.2139 56.4137C50.2819 56.3287 50.3159 56.2436 50.3159 56.1586V55.3933C50.3159 55.0702 50.4265 54.7981 50.6476 54.577C50.8856 54.3389 51.1662 54.2199 51.4894 54.2199H52.1781C52.5182 54.2199 52.7988 54.3389 53.0199 54.577C53.241 54.7981 53.3515 55.0702 53.3515 55.3933V56.1586Z" fill="black"/>
</svg>
