<svg width="270" height="160" viewBox="0 0 270 160" fill="none" xmlns="http://www.w3.org/2000/svg">
<rect x="0.550049" y="0.650024" width="269" height="159" fill="#0E900E"/>
<circle cx="210.168" cy="100.263" r="59.3838" fill="url(#paint0_radial_114_10)"/>
<path d="M210.168 77.6974C224.927 77.6974 236.891 89.6615 236.891 104.42C236.891 111.443 234.181 117.832 229.751 122.601C226.282 126.335 225.014 132.579 225.014 137.675V137.675C225.014 145.874 218.367 152.521 210.168 152.521C201.969 152.521 195.323 145.874 195.323 137.675V137.675C195.323 132.579 194.053 126.335 190.585 122.601C186.155 117.832 183.446 111.443 183.446 104.42C183.446 89.6615 195.41 77.6974 210.168 77.6974Z" fill="url(#paint1_linear_114_10)"/>
<path d="M42.2071 88.6667C45.2476 88.6667 47.4773 88.5147 48.8961 88.2107L50.4164 99.3083C49.6562 99.0549 48.6934 98.8776 47.5279 98.7762C46.3624 98.6242 44.4875 98.5482 41.9031 98.5482H35.4421V103.565C35.4421 109.342 35.5181 113.168 35.6702 115.043C35.8729 116.867 36.3036 118.869 36.9624 121.048H21C21.7094 118.919 22.1402 116.968 22.2922 115.195C22.4442 113.37 22.5202 109.494 22.5202 103.565V83.802C22.5202 80.1535 22.4949 77.1384 22.4442 74.7567C22.3935 72.375 22.2669 70.6774 22.0642 69.6639C21.9121 68.5998 21.5828 67.4596 21.076 66.2434H41.6751C44.0061 66.2434 45.8303 66.2181 47.1479 66.1674C48.4654 66.1167 49.7322 65.9647 50.9484 65.7113L54.521 77.5691C53.2034 77.0117 51.8099 76.657 50.3403 76.5049C48.8708 76.3022 46.1597 76.2009 42.2071 76.2009H35.6702C35.5181 78.2785 35.4421 82.4338 35.4421 88.6667H42.2071Z" fill="white"/>
<path d="M59.8946 77.7971C59.8946 74.554 59.7679 72.0963 59.5145 70.424C59.3118 68.7518 58.8811 67.3329 58.2223 66.1674L71.9804 63.355C71.9804 67.561 72.0057 71.5135 72.0564 75.2128V106.529C72.0564 111.293 72.1577 114.561 72.3604 116.335C72.5631 118.058 73.0192 119.654 73.7286 121.124H58.2223C58.9318 119.654 59.3879 118.058 59.5905 116.335C59.7932 114.561 59.8946 111.293 59.8946 106.529V77.7971Z" fill="white"/>
<path d="M98.6669 121.808C94.7143 121.808 91.2431 120.972 88.2533 119.299C85.2635 117.627 82.9325 115.321 81.2603 112.382C79.6387 109.392 78.8279 105.972 78.8279 102.121C78.8279 98.2695 79.6387 94.849 81.2603 91.8592C82.9325 88.8694 85.2635 86.5638 88.2533 84.9422C91.2431 83.2699 94.7143 82.4338 98.6669 82.4338C102.619 82.4338 106.091 83.2699 109.08 84.9422C112.07 86.5638 114.376 88.8694 115.997 91.8592C117.619 94.7983 118.43 98.2188 118.43 102.121C118.43 105.972 117.619 109.392 115.997 112.382C114.376 115.321 112.07 117.627 109.08 119.299C106.091 120.972 102.619 121.808 98.6669 121.808ZM99.1989 112.838C101.327 112.838 103.025 111.901 104.292 110.026C105.609 108.151 106.268 105.744 106.268 102.805C106.268 99.2576 105.533 96.4706 104.064 94.4436C102.645 92.4166 100.719 91.4031 98.2868 91.4031C96.0571 91.4031 94.2835 92.2899 92.966 94.0635C91.6485 95.8371 90.9897 98.2442 90.9897 101.285C90.9897 104.781 91.7498 107.594 93.2701 109.722C94.7903 111.8 96.7666 112.838 99.1989 112.838Z" fill="white"/>
<path d="M175.71 83.1179C174.645 85.7023 173.607 89.1988 172.593 93.6075L170.009 105.085C168.337 112.382 167.323 117.703 166.968 121.048H152.83C152.577 118.514 151.741 114.029 150.322 107.594L149.258 102.653C148.751 100.423 148.27 97.8134 147.813 94.8236L146.445 102.653L145.305 107.822C144.089 113.497 143.354 117.906 143.101 121.048H128.127C127.823 117.754 126.834 112.509 125.162 105.313L122.502 93.5315C121.944 91.0484 121.438 89.0721 120.982 87.6026C120.576 86.133 120.069 84.6381 119.461 83.1179H132.839C132.789 83.6753 132.763 84.5115 132.763 85.6263C132.763 87.5519 133.042 90.2883 133.599 93.8355L134.512 99.5363C134.866 101.513 135.069 102.805 135.12 103.413C135.778 107.264 136.158 109.823 136.26 111.09C136.564 108.86 137.273 104.958 138.388 99.3843L139.756 92.9994L140.516 89.1228C141.175 85.6263 141.555 83.6247 141.657 83.1179H154.046C154.452 85.905 155.06 89.3255 155.871 93.3794L157.239 99.4603C158.303 104.426 158.987 108.176 159.291 110.71C159.747 107.264 160.305 103.54 160.963 99.5363L161.952 93.1514C162.408 89.9589 162.636 87.5266 162.636 85.8543C162.636 84.6382 162.585 83.726 162.484 83.1179H175.71Z" fill="white"/>
<path d="M82.4978 36.143C82.4978 30.2648 82.4218 26.4389 82.2698 24.6653C82.1178 22.841 81.7124 20.8394 81.0536 18.6604H97.016C96.5092 20.2313 96.1545 21.5742 95.9518 22.689C95.7491 23.7531 95.5971 25.248 95.4958 27.1737C95.4451 29.0486 95.4198 32.0384 95.4198 36.143V56.0579C95.4198 61.8348 95.4958 65.6607 95.6478 67.5356C95.8505 69.3599 96.2812 71.3615 96.94 73.5405H80.9776C81.6871 71.4122 82.1178 69.4612 82.2698 67.6876C82.4218 65.8634 82.4978 61.9868 82.4978 56.0579V36.143Z" fill="white"/>
<path d="M142.529 61.7588C142.529 63.3803 142.707 64.5712 143.062 65.3313C143.416 66.0914 144.1 66.4715 145.114 66.4715C145.57 66.4715 146.254 66.3448 147.166 66.0914L145.722 73.6165C143.29 74.2753 140.908 74.6047 138.577 74.6047C135.79 74.6047 133.712 73.8699 132.344 72.4003C131.026 70.8801 130.368 68.7265 130.368 65.9394V63.355C129.456 66.9529 128.011 69.6893 126.035 71.5642C124.109 73.3885 121.424 74.3006 117.978 74.3006C115.444 74.3006 113.113 73.5912 110.985 72.1723C108.857 70.7534 107.159 68.6505 105.892 65.8634C104.625 63.0256 103.992 59.6051 103.992 55.6019C103.992 51.1932 104.853 47.4433 106.576 44.3522C108.299 41.2104 110.605 38.854 113.493 37.2831C116.432 35.7122 119.701 34.9268 123.299 34.9268C124.464 34.9268 125.579 35.0535 126.643 35.3069C127.707 35.5096 128.949 35.8896 130.368 36.447L130.444 30.2901C130.444 27.047 130.317 24.5893 130.064 22.917C129.861 21.2448 129.456 19.8259 128.847 18.6604L142.606 16V27.7817L142.529 61.7588ZM123.299 64.3432C124.718 64.3432 126.06 64.0644 127.327 63.507C128.594 62.9496 129.608 62.3415 130.368 61.6828V44.7322C128.442 44.1748 126.618 43.8961 124.895 43.8961C122.463 43.8961 120.41 44.7322 118.738 46.4045C117.066 48.0767 116.23 50.8385 116.23 54.6897C116.23 57.8315 116.888 60.2385 118.206 61.9108C119.523 63.5324 121.221 64.3432 123.299 64.3432Z" fill="white"/>
<path d="M162.399 54.9938C162.601 58.4903 163.59 61.1 165.363 62.8229C167.137 64.4952 169.569 65.3313 172.66 65.3313C174.535 65.3313 176.233 65.1033 177.753 64.6472C179.324 64.1405 181.047 63.3297 182.922 62.2148L181.478 72.0203C179.501 72.7297 177.601 73.2871 175.777 73.6925C173.952 74.0979 171.824 74.3006 169.392 74.3006C165.743 74.3006 162.449 73.5152 159.51 71.9443C156.622 70.3734 154.342 68.1184 152.669 65.1793C151.048 62.2402 150.237 58.8197 150.237 54.9178C150.237 50.7625 151.048 47.1899 152.669 44.2002C154.342 41.1597 156.622 38.854 159.51 37.2831C162.449 35.7122 165.769 34.9268 169.468 34.9268C174.282 34.9268 177.905 36.2443 180.337 38.8794C182.82 41.4638 184.062 44.9603 184.062 49.3689C184.062 50.3317 183.935 51.4212 183.682 52.6374C183.479 53.8536 183.2 54.9431 182.846 55.9059L162.399 54.9938ZM169.088 43.8961C167.263 43.8961 165.693 44.7576 164.375 46.4805C163.108 48.1528 162.449 50.4584 162.399 53.3975L173.8 51.4972C173.902 50.7371 173.952 49.8757 173.952 48.9129C173.952 47.4433 173.547 46.2525 172.736 45.3403C171.925 44.3775 170.709 43.8961 169.088 43.8961Z" fill="white"/>
<path d="M220.471 63.583C220.471 65.5593 221.257 66.5475 222.828 66.5475C223.537 66.5475 224.323 66.3701 225.184 66.0154L223.588 73.5405C221.459 74.2499 219.356 74.6047 217.279 74.6047C211.553 74.6047 208.69 72.071 208.69 67.0035V65.0273C208.031 67.9157 206.764 70.196 204.889 71.8683C203.014 73.4898 200.506 74.3006 197.364 74.3006C194.425 74.3006 192.094 73.4898 190.371 71.8683C188.648 70.2467 187.786 68.1184 187.786 65.4833C187.786 61.8855 189.205 59.2757 192.043 57.6542C194.932 55.9819 198.656 55.1458 203.217 55.1458C205.142 55.1458 207.043 55.4245 208.918 55.9819C208.968 54.6644 208.994 52.7641 208.994 50.2811C208.994 47.8487 208.386 46.1765 207.169 45.2643C205.953 44.3522 204.332 43.8961 202.305 43.8961C200.075 43.8961 198.048 44.1495 196.224 44.6562C194.45 45.163 192.727 45.9231 191.055 46.9366L192.955 36.523C197.415 35.4589 201.773 34.9268 206.029 34.9268C211.451 34.9268 215.303 36.067 217.583 38.3473C219.863 40.577 221.003 43.9468 221.003 48.4568C221.003 49.5716 220.978 50.8638 220.927 52.3334C220.877 53.8029 220.826 54.9178 220.775 55.6779C220.573 59.0224 220.471 61.6574 220.471 63.583ZM203.369 66.3955C204.534 66.3955 205.598 66.1674 206.561 65.7114C207.524 65.2553 208.259 64.5712 208.766 63.659C208.766 62.3415 208.816 60.1625 208.918 57.1221C205.472 57.3248 203.065 57.9329 201.697 58.9464C200.328 59.9598 199.644 61.328 199.644 63.051C199.644 64.1658 199.974 65.0019 200.632 65.5593C201.291 66.1167 202.203 66.3955 203.369 66.3955Z" fill="white"/>
<defs>
<radialGradient id="paint0_radial_114_10" cx="0" cy="0" r="1" gradientUnits="userSpaceOnUse" gradientTransform="translate(210.168 100.263) rotate(90) scale(59.3838)">
<stop stop-color="#FBBB13"/>
<stop offset="1" stop-color="#FBBB13" stop-opacity="0"/>
</radialGradient>
<linearGradient id="paint1_linear_114_10" x1="210.168" y1="77.6974" x2="210.168" y2="152.521" gradientUnits="userSpaceOnUse">
<stop stop-color="#FFDD83"/>
<stop offset="1" stop-color="#FBBB13"/>
</linearGradient>
</defs>
</svg>
