<svg width="75" height="70" viewBox="0 0 75 70" fill="none" xmlns="http://www.w3.org/2000/svg">
<path d="M75 35C75 15.6715 58.2091 0 37.5 0C16.7909 0 0 15.6715 0 35C0 52.468 13.7112 66.9484 31.6411 69.5767V45.1195H22.1171V35H31.6411V27.2873C31.6411 18.5164 37.2416 13.6683 45.8058 13.6683C49.9086 13.6683 54.2012 14.3524 54.2012 14.3524V22.9658H49.4709C44.8144 22.9658 43.3589 25.6631 43.3589 28.4341V35H53.7583L52.0971 45.1195H43.3589V69.5767C61.2888 66.9533 75 52.4729 75 35Z" fill="black"/>
<path d="M52.0971 45.1195L53.7583 35H43.3589V28.4341C43.3589 25.6679 44.8091 22.9658 49.4709 22.9658H54.2013V14.3524C54.2013 14.3524 49.9086 13.6682 45.8058 13.6682C37.2416 13.6682 31.6412 18.5114 31.6412 27.2873V35H22.1172V45.1195H31.6412V69.5767C33.5502 69.8572 35.5067 70 37.5 70C39.4934 70 41.4499 69.8523 43.3589 69.5767V45.1195H52.0971Z" fill="#FEFEFE"/>
</svg>
