<svg width="75" height="71" viewBox="0 0 75 71" fill="none" xmlns="http://www.w3.org/2000/svg">
<path d="M61.9422 17.2312C61.9422 14.9077 59.9245 13.0315 57.4443 13.0315C54.964 13.0315 52.9446 14.9077 52.9446 17.2312C52.9446 19.5462 54.964 21.4223 57.4443 21.4223C59.9245 21.4223 61.9422 19.5462 61.9422 17.2312Z" fill="black"/>
<path d="M67.9355 50.0132C67.769 53.4219 67.1581 55.2737 66.6511 56.5037C65.9698 58.1345 65.1573 59.3007 63.8395 60.5237C62.5364 61.7469 61.2869 62.5035 59.5396 63.1323C58.2218 63.6126 56.2302 64.1844 52.5782 64.3468C48.6302 64.5093 47.4604 64.5439 37.4486 64.5439C27.4461 64.5439 26.2669 64.5093 22.3188 64.3468C18.667 64.1844 16.6846 63.6126 15.3666 63.1323C13.6101 62.5035 12.37 61.7469 11.0595 60.5237C9.73973 59.3007 8.92721 58.1345 8.25531 56.5037C7.74805 55.2737 7.12808 53.4219 6.97065 50.0132C6.77824 46.3284 6.74299 45.2193 6.74299 35.8939C6.74299 26.5496 6.77824 25.4491 6.97065 21.7642C7.12808 18.3558 7.74805 16.5056 8.25531 15.2652C8.92721 13.6361 9.73973 12.4769 11.0595 11.2537C12.37 10.0325 13.6101 9.27396 15.3666 8.63831C16.6846 8.15632 18.667 7.5931 22.3188 7.43075C26.2669 7.26826 27.4461 7.2268 37.4486 7.2268C47.4604 7.2268 48.6302 7.26826 52.5782 7.43075C56.2302 7.5931 58.2218 8.15632 59.5396 8.63831C61.2869 9.27396 62.5364 10.0325 63.8395 11.2537C65.1573 12.4769 65.9698 13.6361 66.6511 15.2652C67.1581 16.5056 67.769 18.3558 67.9355 21.7642C68.1188 25.4491 68.1632 26.5496 68.1632 35.8939C68.1632 45.2193 68.1188 46.3284 67.9355 50.0132ZM74.6786 21.4775C74.4955 17.7528 73.866 15.2082 72.9313 12.9917C71.9801 10.6923 70.7046 8.74364 68.6167 6.79495C66.5382 4.85496 64.4503 3.66463 61.9867 2.76633C59.6027 1.90251 56.8854 1.30819 52.8928 1.14584C48.9003 0.966132 47.6251 0.93335 37.4486 0.93335C27.2812 0.93335 25.9968 0.966132 22.0042 1.14584C18.0209 1.30819 15.3055 1.90251 12.9104 2.76633C10.4561 3.66463 8.36817 4.85496 6.28959 6.79495C4.20171 8.74364 2.92636 10.6923 1.96572 12.9917C1.04019 15.2082 0.410912 17.7528 0.218367 21.4775C0.0444229 25.2039 0 26.3958 0 35.8939C0 45.3835 0.0444229 46.5737 0.218367 50.3C0.410912 54.0178 1.04019 56.5607 1.96572 58.7876C2.92636 61.0783 4.20171 63.0357 6.28959 64.9757C8.36817 66.9157 10.4561 68.1146 12.9104 69.0113C15.3055 69.875 18.0209 70.4624 22.0042 70.6335C25.9968 70.8045 27.2812 70.846 37.4486 70.846C47.6251 70.846 48.9003 70.8045 52.8928 70.6335C56.8854 70.4624 59.6027 69.875 61.9867 69.0113C64.4503 68.1146 66.5382 66.9157 68.6167 64.9757C70.7046 63.0357 71.9801 61.0783 72.9313 58.7876C73.866 56.5607 74.4955 54.0178 74.6786 50.3C74.8619 46.5737 74.9063 45.3835 74.9063 35.8939C74.9063 26.3958 74.8619 25.2039 74.6786 21.4775Z" fill="black"/>
<path d="M37.4485 47.5361C30.5573 47.5361 24.9656 42.3257 24.9656 35.8939C24.9656 29.4518 30.5573 24.2347 37.4485 24.2347C44.3416 24.2347 49.9406 29.4518 49.9406 35.8939C49.9406 42.3257 44.3416 47.5361 37.4485 47.5361ZM37.4485 17.9326C26.8259 17.9326 18.2227 25.9795 18.2227 35.8939C18.2227 45.7998 26.8259 53.8382 37.4485 53.8382C48.0711 53.8382 56.6836 45.7998 56.6836 35.8939C56.6836 25.9795 48.0711 17.9326 37.4485 17.9326Z" fill="black"/>
</svg>
