<svg width="637" height="473" viewBox="0 0 637 473" fill="none" xmlns="http://www.w3.org/2000/svg">
<rect width="637" height="473" fill="#FFFDF6"/>
<path d="M176.844 297V271.8H187.5C189.036 271.8 190.44 272.148 191.712 272.844C192.984 273.54 193.992 274.512 194.736 275.76C195.504 276.984 195.888 278.412 195.888 280.044C195.888 281.628 195.516 283.044 194.772 284.292C194.052 285.54 193.044 286.512 191.748 287.208C190.476 287.904 189.012 288.252 187.356 288.252H179.436V297H176.844ZM179.436 285.948H187.068C188.22 285.948 189.264 285.72 190.2 285.264C191.136 284.784 191.88 284.112 192.432 283.248C193.008 282.36 193.296 281.292 193.296 280.044C193.296 278.796 193.008 277.74 192.432 276.876C191.88 275.988 191.136 275.304 190.2 274.824C189.288 274.344 188.28 274.104 187.176 274.104H179.436V285.948ZM200.255 297V283.86C200.255 282.228 200.711 280.956 201.623 280.044C202.559 279.108 203.843 278.64 205.475 278.64H208.643V280.836H205.979C204.923 280.836 204.119 281.124 203.567 281.7C203.039 282.276 202.775 283.092 202.775 284.148V297H200.255ZM221.217 297C219.249 297 217.485 296.64 215.925 295.92C214.389 295.176 213.165 294.12 212.253 292.752C211.365 291.384 210.921 289.74 210.921 287.82C210.921 286.044 211.281 284.436 212.001 282.996C212.721 281.532 213.729 280.368 215.025 279.504C216.345 278.64 217.881 278.208 219.633 278.208C221.433 278.208 222.957 278.604 224.205 279.396C225.453 280.188 226.401 281.256 227.049 282.6C227.697 283.944 228.021 285.456 228.021 287.136C228.021 287.376 228.009 287.64 227.985 287.928C227.961 288.216 227.925 288.468 227.877 288.684H213.585C213.657 290.028 214.041 291.156 214.737 292.068C215.433 292.98 216.333 293.664 217.437 294.12C218.565 294.576 219.777 294.804 221.073 294.804H225.717V297H221.217ZM213.585 286.884H225.465C225.465 286.404 225.417 285.876 225.321 285.3C225.225 284.7 225.045 284.112 224.781 283.536C224.541 282.96 224.193 282.432 223.737 281.952C223.305 281.472 222.741 281.088 222.045 280.8C221.373 280.488 220.545 280.332 219.561 280.332C218.649 280.332 217.821 280.524 217.077 280.908C216.333 281.292 215.709 281.808 215.205 282.456C214.701 283.08 214.305 283.776 214.017 284.544C213.753 285.312 213.609 286.092 213.585 286.884ZM232.53 297V285.912C232.53 284.496 232.842 283.212 233.466 282.06C234.114 280.884 235.026 279.948 236.202 279.252C237.378 278.556 238.782 278.208 240.414 278.208C241.254 278.208 242.106 278.34 242.97 278.604C243.858 278.844 244.674 279.276 245.418 279.9C246.186 280.5 246.786 281.34 247.218 282.42H247.254C247.686 281.34 248.286 280.5 249.054 279.9C249.822 279.276 250.65 278.844 251.538 278.604C252.426 278.34 253.278 278.208 254.094 278.208C255.75 278.208 257.166 278.556 258.342 279.252C259.518 279.948 260.418 280.884 261.042 282.06C261.666 283.212 261.978 284.496 261.978 285.912V297H259.494V285.912C259.494 284.832 259.254 283.884 258.774 283.068C258.294 282.252 257.646 281.604 256.83 281.124C256.038 280.62 255.126 280.368 254.094 280.368C253.038 280.368 252.09 280.62 251.25 281.124C250.41 281.604 249.738 282.264 249.234 283.104C248.754 283.944 248.514 284.88 248.514 285.912V297H245.994V285.912C245.994 284.88 245.742 283.944 245.238 283.104C244.734 282.264 244.062 281.604 243.222 281.124C242.406 280.62 241.47 280.368 240.414 280.368C239.406 280.368 238.482 280.62 237.642 281.124C236.826 281.604 236.178 282.252 235.698 283.068C235.242 283.884 235.014 284.832 235.014 285.912V297H232.53ZM267.51 297V278.64H270.03V297H267.51ZM268.77 275.328C268.29 275.328 267.87 275.148 267.51 274.788C267.15 274.428 266.97 274.008 266.97 273.528C266.97 273.024 267.15 272.604 267.51 272.268C267.87 271.908 268.29 271.728 268.77 271.728C269.274 271.728 269.694 271.908 270.03 272.268C270.39 272.604 270.57 273.024 270.57 273.528C270.57 274.008 270.39 274.428 270.03 274.788C269.694 275.148 269.274 275.328 268.77 275.328ZM283.949 297.468C282.413 297.468 281.009 297.144 279.737 296.496C278.465 295.824 277.445 294.876 276.677 293.652C275.933 292.428 275.561 290.988 275.561 289.332V278.64H278.081V289.224C278.081 290.496 278.357 291.588 278.909 292.5C279.485 293.412 280.217 294.108 281.105 294.588C281.993 295.044 282.941 295.272 283.949 295.272C284.981 295.272 285.941 295.032 286.829 294.552C287.741 294.072 288.473 293.388 289.025 292.5C289.577 291.588 289.853 290.496 289.853 289.224V278.64H292.373V289.332C292.373 290.988 292.001 292.428 291.257 293.652C290.513 294.876 289.505 295.824 288.233 296.496C286.961 297.144 285.533 297.468 283.949 297.468ZM297.92 297V285.912C297.92 284.496 298.232 283.212 298.856 282.06C299.504 280.884 300.416 279.948 301.592 279.252C302.768 278.556 304.172 278.208 305.804 278.208C306.644 278.208 307.496 278.34 308.36 278.604C309.248 278.844 310.064 279.276 310.808 279.9C311.576 280.5 312.176 281.34 312.608 282.42H312.644C313.076 281.34 313.676 280.5 314.444 279.9C315.212 279.276 316.04 278.844 316.928 278.604C317.816 278.34 318.668 278.208 319.484 278.208C321.14 278.208 322.556 278.556 323.732 279.252C324.908 279.948 325.808 280.884 326.432 282.06C327.056 283.212 327.368 284.496 327.368 285.912V297H324.884V285.912C324.884 284.832 324.644 283.884 324.164 283.068C323.684 282.252 323.036 281.604 322.22 281.124C321.428 280.62 320.516 280.368 319.484 280.368C318.428 280.368 317.48 280.62 316.64 281.124C315.8 281.604 315.128 282.264 314.624 283.104C314.144 283.944 313.904 284.88 313.904 285.912V297H311.384V285.912C311.384 284.88 311.132 283.944 310.628 283.104C310.124 282.264 309.452 281.604 308.612 281.124C307.796 280.62 306.86 280.368 305.804 280.368C304.796 280.368 303.872 280.62 303.032 281.124C302.216 281.604 301.568 282.252 301.088 283.068C300.632 283.884 300.404 284.832 300.404 285.912V297H297.92ZM351.644 297.468C349.964 297.468 348.416 297.096 347 296.352C345.584 295.608 344.456 294.516 343.616 293.076C342.776 291.636 342.356 289.896 342.356 287.856V270.72H344.876V282.42H344.948C345.356 281.604 345.92 280.884 346.64 280.26C347.36 279.612 348.176 279.108 349.088 278.748C350 278.388 350.96 278.208 351.968 278.208C353.624 278.208 355.124 278.592 356.468 279.36C357.836 280.128 358.928 281.22 359.744 282.636C360.56 284.028 360.968 285.708 360.968 287.676C360.968 289.212 360.728 290.592 360.248 291.816C359.768 293.016 359.096 294.036 358.232 294.876C357.392 295.716 356.408 296.364 355.28 296.82C354.152 297.252 352.94 297.468 351.644 297.468ZM351.608 295.272C352.832 295.272 353.96 294.984 354.992 294.408C356.024 293.808 356.852 292.956 357.476 291.852C358.1 290.724 358.412 289.38 358.412 287.82C358.412 286.308 358.1 285 357.476 283.896C356.852 282.768 356.024 281.904 354.992 281.304C353.984 280.704 352.88 280.404 351.68 280.404C350.48 280.404 349.364 280.704 348.332 281.304C347.3 281.88 346.472 282.72 345.848 283.824C345.224 284.928 344.912 286.272 344.912 287.856C344.912 289.44 345.212 290.784 345.812 291.888C346.436 292.992 347.252 293.832 348.26 294.408C349.292 294.984 350.408 295.272 351.608 295.272ZM373.374 297.468C371.526 297.468 369.942 297.036 368.622 296.172C367.302 295.308 366.294 294.156 365.598 292.716C364.902 291.252 364.554 289.62 364.554 287.82C364.554 285.996 364.938 284.364 365.706 282.924C366.474 281.46 367.566 280.308 368.982 279.468C370.422 278.628 372.126 278.208 374.094 278.208C375.99 278.208 377.622 278.628 378.99 279.468C380.382 280.308 381.45 281.436 382.194 282.852C382.962 284.268 383.346 285.864 383.346 287.64V297H380.862V292.896H380.754C380.418 293.616 379.914 294.336 379.242 295.056C378.57 295.752 377.742 296.328 376.758 296.784C375.798 297.24 374.67 297.468 373.374 297.468ZM373.914 295.308C375.258 295.308 376.446 294.984 377.478 294.336C378.51 293.664 379.314 292.764 379.89 291.636C380.49 290.484 380.79 289.188 380.79 287.748C380.79 286.332 380.514 285.072 379.962 283.968C379.41 282.864 378.63 281.988 377.622 281.34C376.614 280.692 375.414 280.368 374.022 280.368C372.582 280.368 371.346 280.704 370.314 281.376C369.282 282.024 368.49 282.924 367.938 284.076C367.386 285.204 367.11 286.488 367.11 287.928C367.11 289.272 367.374 290.508 367.902 291.636C368.43 292.764 369.198 293.664 370.206 294.336C371.238 294.984 372.474 295.308 373.914 295.308ZM388.905 297V270.72H391.425V286.668H397.509L402.513 278.64H405.357L400.029 287.028C401.853 287.484 403.269 288.408 404.277 289.8C405.285 291.192 405.789 292.848 405.789 294.768V297H403.305V294.768C403.305 293.64 403.053 292.632 402.549 291.744C402.045 290.856 401.349 290.16 400.461 289.656C399.597 289.128 398.577 288.864 397.401 288.864H391.425V297H388.905ZM420.237 297C418.269 297 416.505 296.64 414.945 295.92C413.409 295.176 412.185 294.12 411.273 292.752C410.385 291.384 409.941 289.74 409.941 287.82C409.941 286.044 410.301 284.436 411.021 282.996C411.741 281.532 412.749 280.368 414.045 279.504C415.365 278.64 416.901 278.208 418.653 278.208C420.453 278.208 421.977 278.604 423.225 279.396C424.473 280.188 425.421 281.256 426.069 282.6C426.717 283.944 427.041 285.456 427.041 287.136C427.041 287.376 427.029 287.64 427.005 287.928C426.981 288.216 426.945 288.468 426.897 288.684H412.605C412.677 290.028 413.061 291.156 413.757 292.068C414.453 292.98 415.353 293.664 416.457 294.12C417.585 294.576 418.797 294.804 420.093 294.804H424.737V297H420.237ZM412.605 286.884H424.485C424.485 286.404 424.437 285.876 424.341 285.3C424.245 284.7 424.065 284.112 423.801 283.536C423.561 282.96 423.213 282.432 422.757 281.952C422.325 281.472 421.761 281.088 421.065 280.8C420.393 280.488 419.565 280.332 418.581 280.332C417.669 280.332 416.841 280.524 416.097 280.908C415.353 281.292 414.729 281.808 414.225 282.456C413.721 283.08 413.325 283.776 413.037 284.544C412.773 285.312 412.629 286.092 412.605 286.884ZM431.477 297V283.86C431.477 282.228 431.933 280.956 432.845 280.044C433.781 279.108 435.065 278.64 436.697 278.64H439.865V280.836H437.201C436.145 280.836 435.341 281.124 434.789 281.7C434.261 282.276 433.997 283.092 433.997 284.148V297H431.477ZM450.28 304.308V297.36C448.936 297.192 447.724 296.772 446.644 296.1C445.564 295.404 444.7 294.48 444.052 293.328C443.428 292.176 443.116 290.844 443.116 289.332V278.64H445.636V289.224C445.636 290.496 445.912 291.588 446.464 292.5C447.04 293.412 447.772 294.108 448.66 294.588C449.548 295.044 450.496 295.272 451.504 295.272C452.536 295.272 453.496 295.032 454.384 294.552C455.296 294.072 456.028 293.388 456.58 292.5C457.156 291.588 457.444 290.496 457.444 289.224V278.64H459.928V289.332C459.928 290.868 459.604 292.212 458.956 293.364C458.332 294.492 457.48 295.404 456.4 296.1C455.32 296.772 454.12 297.18 452.8 297.324V304.308H450.28Z" fill="#672E13"/>
<mask id="path-3-outside-1_169_37" maskUnits="userSpaceOnUse" x="203" y="169" width="232" height="92" fill="black">
<rect fill="white" x="203" y="169" width="232" height="92"/>
<path d="M219.816 232V187.2H247.336C249.768 187.2 251.965 187.712 253.928 188.736C255.933 189.76 257.533 191.189 258.728 193.024C259.923 194.859 260.52 197.013 260.52 199.488C260.52 200.725 260.285 201.92 259.816 203.072C259.389 204.224 258.771 205.291 257.96 206.272C257.192 207.211 256.275 208.043 255.208 208.768C256.488 209.493 257.597 210.411 258.536 211.52C259.517 212.587 260.264 213.803 260.776 215.168C261.331 216.491 261.608 217.899 261.608 219.392C261.608 221.909 260.989 224.128 259.752 226.048C258.557 227.925 256.936 229.397 254.888 230.464C252.84 231.488 250.579 232 248.104 232H219.816ZM233.64 221.504H244.968C245.651 221.504 246.227 221.355 246.696 221.056C247.165 220.757 247.528 220.352 247.784 219.84C248.083 219.285 248.232 218.688 248.232 218.048C248.232 217.408 248.083 216.853 247.784 216.384C247.528 215.872 247.165 215.467 246.696 215.168C246.227 214.869 245.651 214.72 244.968 214.72H233.64V221.504ZM233.64 204.48H243.368C244.008 204.48 244.563 204.331 245.032 204.032C245.501 203.691 245.864 203.285 246.12 202.816C246.376 202.304 246.504 201.771 246.504 201.216C246.504 200.619 246.376 200.085 246.12 199.616C245.864 199.147 245.501 198.763 245.032 198.464C244.605 198.165 244.051 198.016 243.368 198.016H233.64V204.48ZM280.078 232.832C277.304 232.832 274.808 232.128 272.59 230.72C270.371 229.312 268.622 227.371 267.342 224.896C266.062 222.379 265.422 219.456 265.422 216.128C265.422 212.587 266.211 209.472 267.79 206.784C269.368 204.053 271.544 201.92 274.318 200.384C277.134 198.848 280.398 198.08 284.11 198.08C287.736 198.08 290.894 198.827 293.582 200.32C296.27 201.771 298.36 203.819 299.854 206.464C301.39 209.067 302.158 212.096 302.158 215.552V232H290.51V227.072H290.126C289.571 228.224 288.824 229.248 287.886 230.144C286.99 230.997 285.902 231.659 284.622 232.128C283.342 232.597 281.827 232.832 280.078 232.832ZM283.854 222.08C285.006 222.08 286.008 221.803 286.862 221.248C287.758 220.693 288.44 219.925 288.91 218.944C289.422 217.92 289.678 216.768 289.678 215.488C289.678 214.251 289.422 213.163 288.91 212.224C288.44 211.285 287.758 210.539 286.862 209.984C286.008 209.429 285.006 209.152 283.854 209.152C282.744 209.152 281.742 209.429 280.846 209.984C279.95 210.539 279.246 211.285 278.734 212.224C278.264 213.163 278.03 214.251 278.03 215.488C278.03 216.768 278.264 217.92 278.734 218.944C279.246 219.925 279.95 220.693 280.846 221.248C281.742 221.803 282.744 222.08 283.854 222.08ZM312.81 244.992V234.496H328.49C329.258 234.496 329.876 234.283 330.346 233.856C330.815 233.472 331.05 232.939 331.05 232.256V226.496H330.666C330.111 227.221 329.407 227.925 328.554 228.608C327.743 229.248 326.74 229.76 325.546 230.144C324.394 230.528 323.007 230.72 321.385 230.72C318.484 230.72 315.946 230.037 313.77 228.672C311.594 227.264 309.908 225.387 308.714 223.04C307.519 220.693 306.922 218.112 306.922 215.296C306.922 212.267 307.604 209.451 308.97 206.848C310.335 204.203 312.362 202.091 315.05 200.512C317.738 198.891 321.023 198.08 324.906 198.08C328.575 198.08 331.775 198.848 334.506 200.384C337.279 201.877 339.434 203.968 340.97 206.656C342.548 209.344 343.338 212.459 343.338 216V234.752C343.338 237.909 342.399 240.405 340.522 242.24C338.644 244.075 336.02 244.992 332.65 244.992H312.81ZM325.162 220.864C326.228 220.864 327.188 220.608 328.042 220.096C328.895 219.584 329.556 218.901 330.026 218.048C330.538 217.152 330.794 216.192 330.794 215.168C330.794 214.059 330.538 213.056 330.026 212.16C329.556 211.264 328.895 210.56 328.042 210.048C327.188 209.493 326.228 209.216 325.162 209.216C324.095 209.216 323.114 209.472 322.218 209.984C321.364 210.496 320.682 211.2 320.17 212.096C319.7 212.992 319.466 213.995 319.466 215.104C319.466 216.171 319.7 217.152 320.17 218.048C320.682 218.901 321.364 219.584 322.218 220.096C323.114 220.608 324.095 220.864 325.162 220.864ZM367.25 232C363.538 232 360.231 231.36 357.33 230.08C354.428 228.8 352.124 226.944 350.418 224.512C348.754 222.037 347.922 219.029 347.922 215.488C347.922 211.605 348.754 208.384 350.418 205.824C352.082 203.264 354.236 201.344 356.882 200.064C359.57 198.741 362.386 198.08 365.33 198.08C368.359 198.08 371.068 198.72 373.458 200C375.89 201.237 377.81 203.029 379.218 205.376C380.668 207.723 381.394 210.539 381.394 213.824C381.394 214.635 381.351 215.573 381.266 216.64C381.18 217.664 381.052 218.539 380.882 219.264H360.53C360.7 219.989 361.02 220.608 361.49 221.12C361.959 221.589 362.599 221.931 363.41 222.144C364.22 222.357 365.138 222.464 366.162 222.464H378.002V232H367.25ZM359.954 212.48H370.066C370.066 211.968 370.002 211.477 369.874 211.008C369.746 210.539 369.532 210.112 369.234 209.728C368.978 209.301 368.658 208.939 368.274 208.64C367.89 208.299 367.42 208.043 366.866 207.872C366.354 207.701 365.778 207.616 365.138 207.616C364.327 207.616 363.602 207.744 362.962 208C362.364 208.256 361.852 208.597 361.426 209.024C360.999 209.451 360.658 209.963 360.402 210.56C360.188 211.157 360.039 211.797 359.954 212.48ZM386.127 232V185.28H398.351V232H386.127ZM405.431 208.32L408.823 199.04C407.671 198.485 406.732 197.675 406.007 196.608C405.324 195.541 404.983 194.411 404.983 193.216C404.983 191.211 405.623 189.568 406.903 188.288C408.225 187.008 409.761 186.368 411.51 186.368C413.516 186.368 415.137 187.051 416.375 188.416C417.655 189.781 418.295 191.424 418.295 193.344C418.295 194.496 418.145 195.627 417.847 196.736C417.591 197.845 417.207 199.04 416.695 200.32L413.687 208.32H405.431Z"/>
</mask>
<path d="M219.816 232V187.2H247.336C249.768 187.2 251.965 187.712 253.928 188.736C255.933 189.76 257.533 191.189 258.728 193.024C259.923 194.859 260.52 197.013 260.52 199.488C260.52 200.725 260.285 201.92 259.816 203.072C259.389 204.224 258.771 205.291 257.96 206.272C257.192 207.211 256.275 208.043 255.208 208.768C256.488 209.493 257.597 210.411 258.536 211.52C259.517 212.587 260.264 213.803 260.776 215.168C261.331 216.491 261.608 217.899 261.608 219.392C261.608 221.909 260.989 224.128 259.752 226.048C258.557 227.925 256.936 229.397 254.888 230.464C252.84 231.488 250.579 232 248.104 232H219.816ZM233.64 221.504H244.968C245.651 221.504 246.227 221.355 246.696 221.056C247.165 220.757 247.528 220.352 247.784 219.84C248.083 219.285 248.232 218.688 248.232 218.048C248.232 217.408 248.083 216.853 247.784 216.384C247.528 215.872 247.165 215.467 246.696 215.168C246.227 214.869 245.651 214.72 244.968 214.72H233.64V221.504ZM233.64 204.48H243.368C244.008 204.48 244.563 204.331 245.032 204.032C245.501 203.691 245.864 203.285 246.12 202.816C246.376 202.304 246.504 201.771 246.504 201.216C246.504 200.619 246.376 200.085 246.12 199.616C245.864 199.147 245.501 198.763 245.032 198.464C244.605 198.165 244.051 198.016 243.368 198.016H233.64V204.48ZM280.078 232.832C277.304 232.832 274.808 232.128 272.59 230.72C270.371 229.312 268.622 227.371 267.342 224.896C266.062 222.379 265.422 219.456 265.422 216.128C265.422 212.587 266.211 209.472 267.79 206.784C269.368 204.053 271.544 201.92 274.318 200.384C277.134 198.848 280.398 198.08 284.11 198.08C287.736 198.08 290.894 198.827 293.582 200.32C296.27 201.771 298.36 203.819 299.854 206.464C301.39 209.067 302.158 212.096 302.158 215.552V232H290.51V227.072H290.126C289.571 228.224 288.824 229.248 287.886 230.144C286.99 230.997 285.902 231.659 284.622 232.128C283.342 232.597 281.827 232.832 280.078 232.832ZM283.854 222.08C285.006 222.08 286.008 221.803 286.862 221.248C287.758 220.693 288.44 219.925 288.91 218.944C289.422 217.92 289.678 216.768 289.678 215.488C289.678 214.251 289.422 213.163 288.91 212.224C288.44 211.285 287.758 210.539 286.862 209.984C286.008 209.429 285.006 209.152 283.854 209.152C282.744 209.152 281.742 209.429 280.846 209.984C279.95 210.539 279.246 211.285 278.734 212.224C278.264 213.163 278.03 214.251 278.03 215.488C278.03 216.768 278.264 217.92 278.734 218.944C279.246 219.925 279.95 220.693 280.846 221.248C281.742 221.803 282.744 222.08 283.854 222.08ZM312.81 244.992V234.496H328.49C329.258 234.496 329.876 234.283 330.346 233.856C330.815 233.472 331.05 232.939 331.05 232.256V226.496H330.666C330.111 227.221 329.407 227.925 328.554 228.608C327.743 229.248 326.74 229.76 325.546 230.144C324.394 230.528 323.007 230.72 321.385 230.72C318.484 230.72 315.946 230.037 313.77 228.672C311.594 227.264 309.908 225.387 308.714 223.04C307.519 220.693 306.922 218.112 306.922 215.296C306.922 212.267 307.604 209.451 308.97 206.848C310.335 204.203 312.362 202.091 315.05 200.512C317.738 198.891 321.023 198.08 324.906 198.08C328.575 198.08 331.775 198.848 334.506 200.384C337.279 201.877 339.434 203.968 340.97 206.656C342.548 209.344 343.338 212.459 343.338 216V234.752C343.338 237.909 342.399 240.405 340.522 242.24C338.644 244.075 336.02 244.992 332.65 244.992H312.81ZM325.162 220.864C326.228 220.864 327.188 220.608 328.042 220.096C328.895 219.584 329.556 218.901 330.026 218.048C330.538 217.152 330.794 216.192 330.794 215.168C330.794 214.059 330.538 213.056 330.026 212.16C329.556 211.264 328.895 210.56 328.042 210.048C327.188 209.493 326.228 209.216 325.162 209.216C324.095 209.216 323.114 209.472 322.218 209.984C321.364 210.496 320.682 211.2 320.17 212.096C319.7 212.992 319.466 213.995 319.466 215.104C319.466 216.171 319.7 217.152 320.17 218.048C320.682 218.901 321.364 219.584 322.218 220.096C323.114 220.608 324.095 220.864 325.162 220.864ZM367.25 232C363.538 232 360.231 231.36 357.33 230.08C354.428 228.8 352.124 226.944 350.418 224.512C348.754 222.037 347.922 219.029 347.922 215.488C347.922 211.605 348.754 208.384 350.418 205.824C352.082 203.264 354.236 201.344 356.882 200.064C359.57 198.741 362.386 198.08 365.33 198.08C368.359 198.08 371.068 198.72 373.458 200C375.89 201.237 377.81 203.029 379.218 205.376C380.668 207.723 381.394 210.539 381.394 213.824C381.394 214.635 381.351 215.573 381.266 216.64C381.18 217.664 381.052 218.539 380.882 219.264H360.53C360.7 219.989 361.02 220.608 361.49 221.12C361.959 221.589 362.599 221.931 363.41 222.144C364.22 222.357 365.138 222.464 366.162 222.464H378.002V232H367.25ZM359.954 212.48H370.066C370.066 211.968 370.002 211.477 369.874 211.008C369.746 210.539 369.532 210.112 369.234 209.728C368.978 209.301 368.658 208.939 368.274 208.64C367.89 208.299 367.42 208.043 366.866 207.872C366.354 207.701 365.778 207.616 365.138 207.616C364.327 207.616 363.602 207.744 362.962 208C362.364 208.256 361.852 208.597 361.426 209.024C360.999 209.451 360.658 209.963 360.402 210.56C360.188 211.157 360.039 211.797 359.954 212.48ZM386.127 232V185.28H398.351V232H386.127ZM405.431 208.32L408.823 199.04C407.671 198.485 406.732 197.675 406.007 196.608C405.324 195.541 404.983 194.411 404.983 193.216C404.983 191.211 405.623 189.568 406.903 188.288C408.225 187.008 409.761 186.368 411.51 186.368C413.516 186.368 415.137 187.051 416.375 188.416C417.655 189.781 418.295 191.424 418.295 193.344C418.295 194.496 418.145 195.627 417.847 196.736C417.591 197.845 417.207 199.04 416.695 200.32L413.687 208.32H405.431Z" fill="#F0B66C"/>
<path d="M219.816 232H203.816C203.816 240.837 210.979 248 219.816 248V232ZM219.816 187.2V171.2C210.979 171.2 203.816 178.363 203.816 187.2H219.816ZM253.928 188.736L246.527 202.921C246.568 202.943 246.61 202.964 246.652 202.986L253.928 188.736ZM259.816 203.072L244.999 197.035C244.934 197.194 244.872 197.354 244.812 197.515L259.816 203.072ZM257.96 206.272L245.625 196.082C245.609 196.101 245.593 196.121 245.577 196.14L257.96 206.272ZM255.208 208.768L246.211 195.537C241.639 198.646 238.996 203.896 239.221 209.421C239.447 214.946 242.509 219.962 247.32 222.688L255.208 208.768ZM258.536 211.52L246.322 221.855C246.465 222.024 246.611 222.19 246.761 222.353L258.536 211.52ZM260.776 215.168L245.795 220.786C245.866 220.977 245.942 221.167 246.021 221.356L260.776 215.168ZM259.752 226.048L246.303 217.381C246.286 217.406 246.27 217.432 246.253 217.458L259.752 226.048ZM254.888 230.464L262.043 244.775C262.122 244.735 262.201 244.695 262.279 244.655L254.888 230.464ZM233.64 221.504H217.64C217.64 230.341 224.803 237.504 233.64 237.504V221.504ZM247.784 219.84L233.696 212.254C233.62 212.397 233.545 212.54 233.473 212.685L247.784 219.84ZM247.784 216.384L233.473 223.539C233.719 224.031 233.99 224.51 234.285 224.974L247.784 216.384ZM233.64 214.72V198.72C224.803 198.72 217.64 205.883 217.64 214.72H233.64ZM233.64 204.48H217.64C217.64 213.317 224.803 220.48 233.64 220.48V204.48ZM245.032 204.032L253.622 217.531C253.901 217.353 254.175 217.166 254.443 216.972L245.032 204.032ZM246.12 202.816L260.166 210.478C260.258 210.31 260.346 210.142 260.431 209.971L246.12 202.816ZM246.12 199.616L232.074 207.278L232.074 207.278L246.12 199.616ZM245.032 198.464L235.857 211.572C236.049 211.706 236.244 211.837 236.442 211.963L245.032 198.464ZM233.64 198.016V182.016C224.803 182.016 217.64 189.179 217.64 198.016H233.64ZM219.816 232H235.816V187.2H219.816H203.816V232H219.816ZM219.816 187.2V203.2H247.336V187.2V171.2H219.816V187.2ZM247.336 187.2V203.2C247.424 203.2 247.357 203.209 247.177 203.167C246.991 203.123 246.761 203.044 246.527 202.921L253.928 188.736L261.329 174.551C256.862 172.22 252.086 171.2 247.336 171.2V187.2ZM253.928 188.736L246.652 202.986C246.492 202.904 246.246 202.752 245.973 202.508C245.698 202.263 245.478 201.997 245.32 201.755L258.728 193.024L272.136 184.293C269.37 180.046 265.627 176.745 261.204 174.486L253.928 188.736ZM258.728 193.024L245.32 201.755C245.004 201.269 244.783 200.759 244.654 200.29C244.528 199.836 244.52 199.543 244.52 199.488H260.52H276.52C276.52 194.33 275.236 189.054 272.136 184.293L258.728 193.024ZM260.52 199.488H244.52C244.52 198.644 244.691 197.79 244.999 197.035L259.816 203.072L274.633 209.109C275.879 206.05 276.52 202.806 276.52 199.488H260.52ZM259.816 203.072L244.812 197.515C245.031 196.923 245.334 196.434 245.625 196.082L257.96 206.272L270.295 216.462C272.207 214.148 273.748 211.525 274.82 208.629L259.816 203.072ZM257.96 206.272L245.577 196.14C245.843 195.815 246.087 195.622 246.211 195.537L255.208 208.768L264.205 221.999C266.463 220.464 268.541 218.606 270.343 216.404L257.96 206.272ZM255.208 208.768L247.32 222.688C246.978 222.495 246.618 222.205 246.322 221.855L258.536 211.52L270.75 201.185C268.577 198.617 265.998 196.492 263.096 194.848L255.208 208.768ZM258.536 211.52L246.761 222.353C246.339 221.894 246.001 221.337 245.795 220.786L260.776 215.168L275.757 209.55C274.527 206.268 272.695 203.279 270.311 200.687L258.536 211.52ZM260.776 215.168L246.021 221.356C245.72 220.638 245.608 219.934 245.608 219.392H261.608H277.608C277.608 215.863 276.941 212.343 275.531 208.98L260.776 215.168ZM261.608 219.392H245.608C245.608 219.332 245.617 219.059 245.732 218.646C245.85 218.222 246.044 217.782 246.303 217.381L259.752 226.048L273.201 234.715C276.272 229.951 277.608 224.658 277.608 219.392H261.608ZM259.752 226.048L246.253 217.458C246.409 217.214 246.623 216.952 246.885 216.714C247.144 216.478 247.37 216.34 247.497 216.273L254.888 230.464L262.279 244.655C266.721 242.341 270.489 238.978 273.251 234.638L259.752 226.048ZM254.888 230.464L247.733 216.153C247.874 216.082 248.014 216.036 248.123 216.011C248.227 215.988 248.232 216 248.104 216V232V248C252.858 248 257.598 246.998 262.043 244.775L254.888 230.464ZM248.104 232V216H219.816V232V248H248.104V232ZM233.64 221.504V237.504H244.968V221.504V205.504H233.64V221.504ZM244.968 221.504V237.504C248 237.504 251.721 236.823 255.286 234.555L246.696 221.056L238.106 207.557C240.732 205.886 243.301 205.504 244.968 205.504V221.504ZM246.696 221.056L255.286 234.555C258.275 232.652 260.581 230.022 262.095 226.995L247.784 219.84L233.473 212.685C234.475 210.682 236.055 208.862 238.106 207.557L246.696 221.056ZM247.784 219.84L261.872 227.426C263.446 224.501 264.232 221.292 264.232 218.048H248.232H232.232C232.232 216.084 232.719 214.07 233.696 212.254L247.784 219.84ZM248.232 218.048H264.232C264.232 214.833 263.449 211.199 261.283 207.794L247.784 216.384L234.285 224.974C232.716 222.508 232.232 219.983 232.232 218.048H248.232ZM247.784 216.384L262.095 209.229C260.581 206.202 258.275 203.572 255.286 201.669L246.696 215.168L238.106 228.667C236.055 227.362 234.475 225.542 233.473 223.539L247.784 216.384ZM246.696 215.168L255.286 201.669C251.721 199.401 248 198.72 244.968 198.72V214.72V230.72C243.301 230.72 240.732 230.338 238.106 228.667L246.696 215.168ZM244.968 214.72V198.72H233.64V214.72V230.72H244.968V214.72ZM233.64 214.72H217.64V221.504H233.64H249.64V214.72H233.64ZM233.64 204.48V220.48H243.368V204.48V188.48H233.64V204.48ZM243.368 204.48V220.48C246.583 220.48 250.217 219.697 253.622 217.531L245.032 204.032L236.442 190.533C238.908 188.964 241.433 188.48 243.368 188.48V204.48ZM245.032 204.032L254.443 216.972C256.663 215.357 258.681 213.201 260.166 210.478L246.12 202.816L232.074 195.154C233.047 193.369 234.34 192.024 235.621 191.092L245.032 204.032ZM246.12 202.816L260.431 209.971C261.761 207.311 262.504 204.336 262.504 201.216H246.504H230.504C230.504 199.206 230.991 197.297 231.809 195.661L246.12 202.816ZM246.504 201.216H262.504C262.504 198.261 261.849 195.039 260.166 191.954L246.12 199.616L232.074 207.278C230.903 205.131 230.504 202.976 230.504 201.216H246.504ZM246.12 199.616L260.166 191.954C258.561 189.011 256.278 186.656 253.622 184.965L245.032 198.464L236.442 211.963C234.724 210.87 233.167 209.282 232.074 207.278L246.12 199.616ZM245.032 198.464L254.207 185.356C250.367 182.668 246.322 182.016 243.368 182.016V198.016V214.016C241.779 214.016 238.843 213.662 235.857 211.572L245.032 198.464ZM243.368 198.016V182.016H233.64V198.016V214.016H243.368V198.016ZM233.64 198.016H217.64V204.48H233.64H249.64V198.016H233.64ZM267.341 224.896L253.079 232.148C253.096 232.181 253.113 232.214 253.13 232.247L267.341 224.896ZM267.79 206.784L281.586 214.887C281.605 214.855 281.623 214.824 281.641 214.792L267.79 206.784ZM274.318 200.384L266.656 186.338C266.626 186.354 266.596 186.371 266.566 186.387L274.318 200.384ZM293.581 200.32L285.811 214.307C285.868 214.338 285.925 214.369 285.983 214.4L293.581 200.32ZM299.854 206.464L285.92 214.33C285.971 214.419 286.022 214.508 286.074 214.596L299.854 206.464ZM302.158 232V248C310.994 248 318.158 240.837 318.158 232H302.158ZM290.509 232H274.509C274.509 240.837 281.673 248 290.509 248V232ZM290.509 227.072H306.509C306.509 218.235 299.346 211.072 290.509 211.072V227.072ZM290.126 227.072V211.072C283.979 211.072 278.376 214.593 275.709 220.131L290.126 227.072ZM287.885 230.144L298.92 241.73C298.924 241.726 298.929 241.722 298.933 241.718L287.885 230.144ZM284.622 232.128L290.13 247.15L284.622 232.128ZM286.862 221.248L278.44 207.644C278.34 207.706 278.24 207.769 278.142 207.833L286.862 221.248ZM288.91 218.944L274.599 211.789C274.557 211.872 274.516 211.956 274.475 212.041L288.91 218.944ZM288.91 212.224L274.599 219.379C274.684 219.55 274.772 219.718 274.863 219.886L288.91 212.224ZM286.862 209.984L278.142 223.399C278.24 223.463 278.34 223.526 278.44 223.588L286.862 209.984ZM280.846 209.984L289.267 223.588L289.267 223.588L280.846 209.984ZM278.734 212.224L264.687 204.562C264.596 204.73 264.508 204.898 264.423 205.069L278.734 212.224ZM278.734 218.944L264.188 225.61C264.302 225.858 264.422 226.103 264.548 226.345L278.734 218.944ZM280.846 221.248L289.267 207.644L289.267 207.644L280.846 221.248ZM280.077 232.832V216.832C280.058 216.832 280.209 216.832 280.469 216.905C280.735 216.98 280.979 217.094 281.163 217.211L272.59 230.72L264.016 244.229C268.943 247.356 274.444 248.832 280.077 248.832V232.832ZM272.59 230.72L281.163 217.211C281.273 217.281 281.397 217.383 281.5 217.497C281.599 217.607 281.606 217.648 281.553 217.545L267.341 224.896L253.13 232.247C255.63 237.08 259.261 241.211 264.016 244.229L272.59 230.72ZM267.341 224.896L281.604 217.644C281.653 217.741 281.422 217.384 281.422 216.128H265.422H249.422C249.422 221.528 250.47 227.016 253.079 232.148L267.341 224.896ZM265.422 216.128H281.422C281.422 215.549 281.485 215.216 281.523 215.067C281.558 214.928 281.585 214.888 281.586 214.887L267.79 206.784L253.993 198.681C250.784 204.145 249.422 210.133 249.422 216.128H265.422ZM267.79 206.784L281.641 214.792C281.731 214.636 281.789 214.579 281.807 214.561C281.825 214.543 281.892 214.479 282.069 214.381L274.318 200.384L266.566 186.387C261.267 189.322 256.977 193.519 253.938 198.776L267.79 206.784ZM274.318 200.384L281.979 214.43C282.099 214.365 282.651 214.08 284.109 214.08V198.08V182.08C278.144 182.08 272.168 183.331 266.656 186.338L274.318 200.384ZM284.109 198.08V214.08C284.826 214.08 285.275 214.154 285.515 214.211C285.636 214.239 285.711 214.265 285.752 214.281C285.792 214.296 285.809 214.305 285.811 214.307L293.581 200.32L301.352 186.333C295.893 183.301 289.966 182.08 284.109 182.08V198.08ZM293.581 200.32L285.983 214.4C286.031 214.427 286.045 214.438 286.034 214.43C286.022 214.421 285.998 214.402 285.969 214.374C285.94 214.345 285.918 214.319 285.905 214.303C285.893 214.286 285.899 214.292 285.92 214.33L299.854 206.464L313.787 198.598C310.801 193.31 306.508 189.115 301.18 186.24L293.581 200.32ZM299.854 206.464L286.074 214.596C286.043 214.543 286.049 214.53 286.072 214.62C286.098 214.722 286.158 215.012 286.158 215.552H302.158H318.158C318.158 209.653 316.821 203.735 313.633 198.332L299.854 206.464ZM302.158 215.552H286.158V232H302.158H318.158V215.552H302.158ZM302.158 232V216H290.509V232V248H302.158V232ZM290.509 232H306.509V227.072H290.509H274.509V232H290.509ZM290.509 227.072V211.072H290.126V227.072V243.072H290.509V227.072ZM290.126 227.072L275.709 220.131C276.002 219.522 276.405 218.983 276.838 218.57L287.885 230.144L298.933 241.718C301.243 239.513 303.139 236.926 304.542 234.013L290.126 227.072ZM287.885 230.144L276.851 218.558C277.697 217.752 278.546 217.314 279.113 217.106L284.622 232.128L290.13 247.15C293.257 246.003 296.282 244.243 298.92 241.73L287.885 230.144ZM284.622 232.128L279.113 217.106C279.578 216.936 279.917 216.869 280.076 216.845C280.233 216.82 280.244 216.832 280.077 216.832V232.832V248.832C283.2 248.832 286.665 248.42 290.13 247.15L284.622 232.128ZM283.854 222.08V238.08C287.68 238.08 291.801 237.12 295.581 234.663L286.862 221.248L278.142 207.833C280.215 206.485 282.331 206.08 283.854 206.08V222.08ZM286.862 221.248L295.283 234.852C298.871 232.631 301.598 229.498 303.344 225.847L288.91 218.944L274.475 212.041C275.282 210.353 276.644 208.755 278.44 207.644L286.862 221.248ZM288.91 218.944L303.22 226.099C304.969 222.603 305.678 218.956 305.678 215.488H289.678H273.678C273.678 214.58 273.874 213.237 274.599 211.789L288.91 218.944ZM289.678 215.488H305.678C305.678 211.998 304.939 208.197 302.956 204.562L288.91 212.224L274.863 219.886C273.904 218.128 273.678 216.504 273.678 215.488H289.678ZM288.91 212.224L303.22 205.069C301.418 201.464 298.691 198.49 295.283 196.38L286.862 209.984L278.44 223.588C276.824 222.588 275.462 221.106 274.599 219.379L288.91 212.224ZM286.862 209.984L295.581 196.569C291.801 194.112 287.68 193.152 283.854 193.152V209.152V225.152C282.331 225.152 280.215 224.747 278.142 223.399L286.862 209.984ZM283.854 209.152V193.152C279.933 193.152 275.986 194.175 272.424 196.38L280.846 209.984L289.267 223.588C287.497 224.684 285.555 225.152 283.854 225.152V209.152ZM280.846 209.984L272.424 196.38C269.134 198.417 266.507 201.226 264.687 204.562L278.734 212.224L292.78 219.886C291.984 221.344 290.765 222.661 289.267 223.588L280.846 209.984ZM278.734 212.224L264.423 205.069C262.66 208.593 262.03 212.209 262.03 215.488H278.03H294.03C294.03 216.292 293.868 217.732 293.044 219.379L278.734 212.224ZM278.03 215.488H262.03C262.03 218.755 262.638 222.227 264.188 225.61L278.734 218.944L293.279 212.278C293.891 213.613 294.03 214.781 294.03 215.488H278.03ZM278.734 218.944L264.548 226.345C266.32 229.74 268.959 232.707 272.424 234.852L280.846 221.248L289.267 207.644C290.94 208.679 292.171 210.11 292.919 211.543L278.734 218.944ZM280.846 221.248L272.424 234.852C275.986 237.057 279.933 238.08 283.854 238.08V222.08V206.08C285.555 206.08 287.497 206.548 289.267 207.644L280.846 221.248ZM312.81 244.992H296.81C296.81 253.829 303.973 260.992 312.81 260.992V244.992ZM312.81 234.496V218.496C303.973 218.496 296.81 225.659 296.81 234.496H312.81ZM330.346 233.856L320.214 221.473C319.999 221.649 319.788 221.83 319.583 222.017L330.346 233.856ZM331.049 226.496H347.049C347.049 217.659 339.886 210.496 331.049 210.496V226.496ZM330.665 226.496V210.496C325.682 210.496 320.983 212.818 317.956 216.777L330.665 226.496ZM328.553 228.608L338.468 241.166C338.495 241.145 338.522 241.123 338.549 241.102L328.553 228.608ZM325.546 230.144L320.649 214.912C320.595 214.929 320.54 214.947 320.486 214.965L325.546 230.144ZM313.77 228.672L305.077 242.105C305.14 242.146 305.203 242.185 305.266 242.225L313.77 228.672ZM308.714 223.04L294.455 230.299L308.714 223.04ZM308.969 206.848L323.138 214.281C323.155 214.249 323.171 214.218 323.187 214.186L308.969 206.848ZM315.049 200.512L323.152 214.309C323.206 214.277 323.26 214.245 323.313 214.213L315.049 200.512ZM334.506 200.384L326.661 214.329C326.747 214.377 326.833 214.425 326.92 214.472L334.506 200.384ZM340.969 206.656L327.078 214.594C327.109 214.649 327.141 214.704 327.173 214.759L340.969 206.656ZM340.521 242.24L351.704 253.683L351.704 253.683L340.521 242.24ZM328.042 220.096L336.273 233.816L336.273 233.816L328.042 220.096ZM330.025 218.048L316.134 210.11C316.09 210.185 316.048 210.261 316.006 210.337L330.025 218.048ZM330.025 212.16L315.852 219.584C315.943 219.757 316.037 219.929 316.134 220.098L330.025 212.16ZM328.042 210.048L319.322 223.463C319.482 223.568 319.645 223.669 319.81 223.768L328.042 210.048ZM322.217 209.984L314.279 196.092C314.181 196.148 314.083 196.206 313.986 196.264L322.217 209.984ZM320.17 212.096L306.278 204.158C306.181 204.327 306.087 204.499 305.996 204.672L320.17 212.096ZM320.17 218.048L305.996 225.472C306.14 225.746 306.291 226.015 306.45 226.28L320.17 218.048ZM322.217 220.096L313.986 233.816C314.083 233.874 314.181 233.932 314.279 233.988L322.217 220.096ZM312.81 244.992H328.81V234.496H312.81H296.81V244.992H312.81ZM312.81 234.496V250.496H328.49V234.496V218.496H312.81V234.496ZM328.49 234.496V250.496C332.355 250.496 337.1 249.339 341.108 245.695L330.346 233.856L319.583 222.017C322.652 219.226 326.16 218.496 328.49 218.496V234.496ZM330.346 233.856L340.477 246.239C345.158 242.41 347.049 237.056 347.049 232.256H331.049H315.049C315.049 230.755 315.312 228.807 316.228 226.724C317.168 224.588 318.579 222.81 320.214 221.473L330.346 233.856ZM331.049 232.256H347.049V226.496H331.049H315.049V232.256H331.049ZM331.049 226.496V210.496H330.665V226.496V242.496H331.049V226.496ZM330.665 226.496L317.956 216.777C318.327 216.292 318.59 216.089 318.558 216.114L328.553 228.608L338.549 241.102C340.224 239.761 341.895 238.151 343.375 236.215L330.665 226.496ZM328.553 228.608L318.639 216.05C319.612 215.282 320.404 214.99 320.649 214.912L325.546 230.144L330.442 245.376C333.076 244.53 335.874 243.214 338.468 241.166L328.553 228.608ZM325.546 230.144L320.486 214.965C320.971 214.803 321.311 214.746 321.447 214.727C321.584 214.708 321.574 214.72 321.385 214.72V230.72V246.72C324.187 246.72 327.378 246.398 330.605 245.323L325.546 230.144ZM321.385 230.72V214.72C321.194 214.72 321.243 214.698 321.46 214.757C321.691 214.819 321.983 214.937 322.273 215.119L313.77 228.672L305.266 242.225C310.309 245.389 315.876 246.72 321.385 246.72V230.72ZM313.77 228.672L322.462 215.239C322.529 215.282 322.651 215.377 322.78 215.52C322.907 215.661 322.966 215.768 322.972 215.781L308.714 223.04L294.455 230.299C296.907 235.116 300.495 239.14 305.077 242.105L313.77 228.672ZM308.714 223.04L322.972 215.781C322.968 215.774 322.965 215.769 322.958 215.737C322.949 215.701 322.922 215.566 322.922 215.296H306.922H290.922C290.922 220.456 292.037 225.549 294.455 230.299L308.714 223.04ZM306.922 215.296H322.922C322.922 214.773 323.014 214.519 323.138 214.281L308.969 206.848L294.801 199.415C292.195 204.383 290.922 209.76 290.922 215.296H306.922ZM308.969 206.848L323.187 214.186C323.186 214.19 323.172 214.215 323.145 214.253C323.118 214.291 323.087 214.327 323.058 214.358C323.029 214.388 323.013 214.4 323.02 214.395C323.027 214.389 323.068 214.358 323.152 214.309L315.049 200.512L306.947 186.715C301.78 189.75 297.571 194.047 294.752 199.51L308.969 206.848ZM315.049 200.512L323.313 214.213C323.178 214.294 323.159 214.272 323.363 214.222C323.583 214.168 324.071 214.08 324.906 214.08V198.08V182.08C318.797 182.08 312.496 183.367 306.786 186.811L315.049 200.512ZM324.906 198.08V214.08C325.624 214.08 326.077 214.155 326.324 214.214C326.558 214.27 326.648 214.322 326.661 214.329L334.506 200.384L342.35 186.439C336.843 183.341 330.849 182.08 324.906 182.08V198.08ZM334.506 200.384L326.92 214.472C327.001 214.515 327.044 214.545 327.059 214.556C327.073 214.566 327.071 214.566 327.06 214.555C327.048 214.544 327.04 214.534 327.038 214.532C327.037 214.53 327.051 214.547 327.078 214.594L340.969 206.656L354.861 198.718C351.813 193.383 347.452 189.183 342.091 186.296L334.506 200.384ZM340.969 206.656L327.173 214.759C327.174 214.76 327.201 214.8 327.236 214.939C327.274 215.088 327.338 215.421 327.338 216H343.338H359.337C359.337 210.005 357.975 204.017 354.766 198.553L340.969 206.656ZM343.338 216H327.338V234.752H343.338H359.337V216H343.338ZM343.338 234.752H327.338C327.338 234.751 327.337 234.617 327.378 234.375C327.418 234.13 327.499 233.78 327.658 233.36C327.999 232.453 328.576 231.543 329.339 230.797L340.521 242.24L351.704 253.683C357.274 248.24 359.337 241.279 359.337 234.752H343.338ZM340.521 242.24L329.339 230.797C330.174 229.981 331.099 229.468 331.865 229.2C332.568 228.955 332.907 228.992 332.65 228.992V244.992V260.992C338.961 260.992 346.056 259.203 351.704 253.683L340.521 242.24ZM332.65 244.992V228.992H312.81V244.992V260.992H332.65V244.992ZM325.161 220.864V236.864C328.912 236.864 332.754 235.927 336.273 233.816L328.042 220.096L319.81 206.376C321.622 205.289 323.545 204.864 325.161 204.864V220.864ZM328.042 220.096L336.273 233.816C339.498 231.881 342.181 229.148 344.045 225.759L330.025 218.048L316.006 210.337C316.931 208.655 318.292 207.287 319.81 206.376L328.042 220.096ZM330.025 218.048L343.917 225.986C345.8 222.692 346.794 218.999 346.794 215.168H330.794H314.794C314.794 213.385 315.275 211.612 316.134 210.11L330.025 218.048ZM330.794 215.168H346.794C346.794 211.49 345.914 207.716 343.917 204.222L330.025 212.16L316.134 220.098C315.161 218.396 314.794 216.627 314.794 215.168H330.794ZM330.025 212.16L344.199 204.736C342.389 201.28 339.691 198.379 336.273 196.328L328.042 210.048L319.81 223.768C318.098 222.741 316.724 221.248 315.852 219.584L330.025 212.16ZM328.042 210.048L336.761 196.633C333.184 194.308 329.167 193.216 325.161 193.216V209.216V225.216C323.289 225.216 321.192 224.679 319.322 223.463L328.042 210.048ZM325.161 209.216V193.216C321.408 193.216 317.676 194.151 314.279 196.092L322.217 209.984L330.156 223.876C328.551 224.793 326.782 225.216 325.161 225.216V209.216ZM322.217 209.984L313.986 196.264C310.692 198.24 308.097 200.973 306.278 204.158L320.17 212.096L334.061 220.034C333.266 221.427 332.036 222.752 330.449 223.704L322.217 209.984ZM320.17 212.096L305.996 204.672C304.214 208.074 303.465 211.664 303.465 215.104H319.465H335.465C335.465 216.325 335.186 217.91 334.343 219.52L320.17 212.096ZM319.465 215.104H303.465C303.465 218.611 304.261 222.16 305.996 225.472L320.17 218.048L334.343 210.624C335.139 212.144 335.465 213.73 335.465 215.104H319.465ZM320.17 218.048L306.45 226.28C308.313 229.385 310.88 231.953 313.986 233.816L322.217 220.096L330.449 206.376C331.848 207.215 333.05 208.417 333.889 209.816L320.17 218.048ZM322.217 220.096L314.279 233.988C317.676 235.929 321.408 236.864 325.161 236.864V220.864V204.864C326.782 204.864 328.551 205.287 330.156 206.204L322.217 220.096ZM357.329 230.08L350.871 244.719L357.329 230.08ZM350.417 224.512L337.14 233.44C337.199 233.528 337.26 233.616 337.321 233.703L350.417 224.512ZM350.417 205.824L337.002 197.104L350.417 205.824ZM356.882 200.064L363.85 214.467C363.882 214.451 363.914 214.436 363.946 214.42L356.882 200.064ZM373.458 200L365.902 214.104C366.001 214.157 366.102 214.209 366.202 214.26L373.458 200ZM379.217 205.376L365.498 213.608C365.534 213.669 365.571 213.729 365.608 213.789L379.217 205.376ZM381.266 216.64L397.21 217.969C397.212 217.951 397.213 217.934 397.215 217.916L381.266 216.64ZM380.882 219.264V235.264C388.306 235.264 394.756 230.156 396.456 222.929L380.882 219.264ZM360.529 219.264V203.264C355.642 203.264 351.022 205.498 347.987 209.33C344.952 213.162 343.835 218.171 344.955 222.929L360.529 219.264ZM361.49 221.12L349.695 231.932C349.852 232.102 350.012 232.27 350.176 232.434L361.49 221.12ZM363.41 222.144L367.481 206.671H367.481L363.41 222.144ZM378.001 222.464H394.001C394.001 213.627 386.838 206.464 378.001 206.464V222.464ZM378.001 232V248C386.838 248 394.001 240.837 394.001 232H378.001ZM359.954 212.48L344.077 210.495C343.508 215.049 344.921 219.628 347.959 223.069C350.996 226.509 355.364 228.48 359.954 228.48V212.48ZM370.066 212.48V228.48C378.902 228.48 386.066 221.317 386.066 212.48H370.066ZM369.234 209.728L355.514 217.96C355.845 218.512 356.209 219.043 356.604 219.551L369.234 209.728ZM368.273 208.64L357.644 220.599C357.905 220.831 358.174 221.055 358.45 221.27L368.273 208.64ZM366.866 207.872L361.806 223.051C361.924 223.09 362.042 223.128 362.16 223.164L366.866 207.872ZM362.962 208L357.019 193.144C356.898 193.193 356.778 193.242 356.659 193.294L362.962 208ZM361.426 209.024L350.112 197.71V197.71L361.426 209.024ZM360.402 210.56L345.695 204.257C345.565 204.561 345.445 204.868 345.334 205.179L360.402 210.56ZM367.249 232V216C365.386 216 364.337 215.684 363.788 215.441L357.329 230.08L350.871 244.719C356.125 247.036 361.689 248 367.249 248V232ZM357.329 230.08L363.788 215.441C363.654 215.382 363.569 215.335 363.522 215.307C363.476 215.279 363.459 215.265 363.463 215.268C363.467 215.271 363.479 215.282 363.495 215.298C363.51 215.315 363.517 215.325 363.514 215.321L350.417 224.512L337.321 233.703C340.816 238.684 345.489 242.344 350.871 244.719L357.329 230.08ZM350.417 224.512L363.695 215.584C363.774 215.702 363.839 215.82 363.887 215.927C363.936 216.033 363.959 216.106 363.966 216.135C363.982 216.192 363.921 216.008 363.921 215.488H347.921H331.922C331.922 221.602 333.39 227.863 337.14 233.44L350.417 224.512ZM347.921 215.488H363.921C363.921 214.678 364.009 214.269 364.037 214.161C364.059 214.076 364.024 214.249 363.833 214.544L350.417 205.824L337.002 197.104C333.248 202.881 331.922 209.345 331.922 215.488H347.921ZM350.417 205.824L363.833 214.544C363.886 214.462 363.921 214.418 363.934 214.403C363.947 214.389 363.944 214.393 363.926 214.409C363.908 214.426 363.886 214.443 363.865 214.457C363.844 214.471 363.836 214.473 363.85 214.467L356.882 200.064L349.913 185.661C344.535 188.263 340.192 192.197 337.002 197.104L350.417 205.824ZM356.882 200.064L363.946 214.42C364.476 214.159 364.879 214.08 365.329 214.08V198.08V182.08C359.892 182.08 354.663 183.323 349.817 185.708L356.882 200.064ZM365.329 198.08V214.08C365.713 214.08 365.907 214.12 365.955 214.131C365.996 214.141 365.963 214.137 365.902 214.104L373.458 200L381.013 185.896C376.037 183.231 370.68 182.08 365.329 182.08V198.08ZM373.458 200L366.202 214.26C366.136 214.227 365.981 214.134 365.804 213.969C365.628 213.804 365.529 213.661 365.498 213.608L379.217 205.376L392.937 197.144C389.988 192.229 385.831 188.344 380.713 185.74L373.458 200ZM379.217 205.376L365.608 213.789C365.53 213.663 365.469 213.542 365.426 213.438C365.382 213.335 365.362 213.265 365.355 213.239C365.342 213.187 365.393 213.357 365.393 213.824H381.393H397.393C397.393 208.139 396.116 202.284 392.827 196.963L379.217 205.376ZM381.393 213.824H365.393C365.393 214.099 365.378 214.597 365.316 215.364L381.266 216.64L397.215 217.916C397.324 216.55 397.393 215.17 397.393 213.824H381.393ZM381.266 216.64L365.321 215.311C365.301 215.544 365.283 215.685 365.274 215.747C365.265 215.812 365.27 215.755 365.307 215.599L380.882 219.264L396.456 222.929C396.861 221.209 397.082 219.508 397.21 217.969L381.266 216.64ZM380.882 219.264V203.264H360.529V219.264V235.264H380.882V219.264ZM360.529 219.264L344.955 222.929C345.706 226.12 347.24 229.254 349.695 231.932L361.49 221.12L373.284 210.308C374.8 211.962 375.695 213.858 376.104 215.599L360.529 219.264ZM361.49 221.12L350.176 232.434C353.11 235.368 356.497 236.87 359.338 237.617L363.41 222.144L367.481 206.671C368.7 206.992 370.807 207.81 372.803 209.806L361.49 221.12ZM363.41 222.144L359.338 237.617C361.732 238.247 364.055 238.464 366.161 238.464V222.464V206.464C366.22 206.464 366.708 206.467 367.481 206.671L363.41 222.144ZM366.161 222.464V238.464H378.001V222.464V206.464H366.161V222.464ZM378.001 222.464H362.001V232H378.001H394.001V222.464H378.001ZM378.001 232V216H367.249V232V248H378.001V232ZM359.954 212.48V228.48H370.066V212.48V196.48H359.954V212.48ZM370.066 212.48H386.066C386.066 210.621 385.831 208.71 385.31 206.798L369.874 211.008L354.437 215.218C354.172 214.245 354.066 213.315 354.066 212.48H370.066ZM369.874 211.008L385.31 206.798C384.626 204.291 383.459 201.956 381.863 199.905L369.234 209.728L356.604 219.551C355.606 218.268 354.865 216.787 354.437 215.218L369.874 211.008ZM369.234 209.728L382.953 201.496C381.705 199.415 380.076 197.55 378.097 196.01L368.273 208.64L358.45 221.27C357.239 220.328 356.25 219.188 355.514 217.96L369.234 209.728ZM368.273 208.64L378.903 196.681C376.597 194.631 374.032 193.337 371.571 192.58L366.866 207.872L362.16 223.164C360.808 222.749 359.182 221.966 357.644 220.599L368.273 208.64ZM366.866 207.872L371.925 192.693C369.511 191.888 367.186 191.616 365.137 191.616V207.616V223.616C364.369 223.616 363.196 223.514 361.806 223.051L366.866 207.872ZM365.137 207.616V191.616C362.644 191.616 359.851 192.012 357.019 193.144L362.962 208L368.904 222.856C367.352 223.476 366.01 223.616 365.137 223.616V207.616ZM362.962 208L356.659 193.294C354.336 194.289 352.085 195.737 350.112 197.71L361.426 209.024L372.739 220.338C371.619 221.458 370.393 222.223 369.264 222.706L362.962 208ZM361.426 209.024L350.112 197.71C348.138 199.684 346.691 201.934 345.695 204.257L360.402 210.56L375.108 216.863C374.624 217.991 373.86 219.217 372.739 220.338L361.426 209.024ZM360.402 210.56L345.334 205.179C344.696 206.964 344.295 208.751 344.077 210.495L359.954 212.48L375.83 214.465C375.783 214.843 375.68 215.351 375.469 215.941L360.402 210.56ZM386.127 232H370.127C370.127 240.837 377.29 248 386.127 248V232ZM386.127 185.28V169.28C377.29 169.28 370.127 176.443 370.127 185.28H386.127ZM398.351 185.28H414.351C414.351 176.443 407.188 169.28 398.351 169.28V185.28ZM398.351 232V248C407.188 248 414.351 240.837 414.351 232H398.351ZM386.127 232H402.127V185.28H386.127H370.127V232H386.127ZM386.127 185.28V201.28H398.351V185.28V169.28H386.127V185.28ZM398.351 185.28H382.351V232H398.351H414.351V185.28H398.351ZM398.351 232V216H386.127V232V248H398.351V232ZM405.43 208.32L390.403 202.827C388.609 207.734 389.324 213.207 392.318 217.488C395.311 221.77 400.206 224.32 405.43 224.32V208.32ZM408.822 199.04L423.85 204.533C426.675 196.804 423.177 188.194 415.764 184.624L408.822 199.04ZM406.007 196.608L392.53 205.233C392.61 205.358 392.692 205.482 392.776 205.605L406.007 196.608ZM406.902 188.288L395.776 176.79C395.713 176.851 395.651 176.912 395.589 176.974L406.902 188.288ZM416.374 188.416L404.519 199.16C404.579 199.227 404.64 199.293 404.702 199.359L416.374 188.416ZM417.846 196.736L402.397 192.576C402.346 192.763 402.3 192.95 402.256 193.138L417.846 196.736ZM416.695 200.32L401.839 194.378C401.798 194.481 401.757 194.585 401.718 194.689L416.695 200.32ZM413.686 208.32V224.32C420.351 224.32 426.317 220.189 428.663 213.951L413.686 208.32ZM405.43 208.32L420.458 213.813L423.85 204.533L408.822 199.04L393.795 193.547L390.403 202.827L405.43 208.32ZM408.822 199.04L415.764 184.624C417.172 185.302 418.394 186.371 419.237 187.611L406.007 196.608L392.776 205.605C395.069 208.978 398.169 211.669 401.881 213.456L408.822 199.04ZM406.007 196.608L419.483 187.983C420.344 189.329 420.982 191.167 420.982 193.216H404.982H388.982C388.982 197.655 390.303 201.753 392.53 205.233L406.007 196.608ZM404.982 193.216H420.982C420.982 193.93 420.865 195.022 420.371 196.288C419.865 197.587 419.1 198.718 418.216 199.602L406.902 188.288L395.589 176.974C390.971 181.592 388.982 187.469 388.982 193.216H404.982ZM406.902 188.288L418.029 199.786C417.405 200.39 416.466 201.09 415.2 201.617C413.919 202.151 412.638 202.368 411.51 202.368V186.368V170.368C405.375 170.368 399.91 172.789 395.776 176.79L406.902 188.288ZM411.51 186.368V202.368C410.677 202.368 409.432 202.22 408.022 201.626C406.578 201.019 405.392 200.124 404.519 199.16L416.374 188.416L428.23 177.672C423.672 172.642 417.586 170.368 411.51 170.368V186.368ZM416.374 188.416L404.702 199.359C404.033 198.645 403.372 197.677 402.906 196.48C402.443 195.292 402.294 194.193 402.294 193.344H418.294H434.294C434.294 187.476 432.186 181.888 428.047 177.473L416.374 188.416ZM418.294 193.344H402.294C402.294 193.095 402.329 192.827 402.397 192.576L417.846 196.736L433.296 200.896C433.961 198.426 434.294 195.897 434.294 193.344H418.294ZM417.846 196.736L402.256 193.138C402.218 193.303 402.107 193.706 401.839 194.378L416.695 200.32L431.55 206.262C432.306 204.374 432.963 202.388 433.437 200.334L417.846 196.736ZM416.695 200.32L401.718 194.689L398.71 202.689L413.686 208.32L428.663 213.951L431.671 205.951L416.695 200.32ZM413.686 208.32V192.32H405.43V208.32V224.32H413.686V208.32Z" fill="#672E13" mask="url(#path-3-outside-1_169_37)"/>
</svg>
