<svg width="3232" height="1432" viewBox="0 0 3232 1432" fill="none" xmlns="http://www.w3.org/2000/svg">
<g clip-path="url(#clip0_183_63)">
<rect width="3232" height="1432" fill="white"/>
<rect width="1536" height="1379" fill="#FFFDF6"/>
<rect width="3232" height="1432" fill="#FFFDF6"/>
<path d="M1474.84 708V682.8H1485.5C1487.04 682.8 1488.44 683.148 1489.71 683.844C1490.98 684.54 1491.99 685.512 1492.74 686.76C1493.5 687.984 1493.89 689.412 1493.89 691.044C1493.89 692.628 1493.52 694.044 1492.77 695.292C1492.05 696.54 1491.04 697.512 1489.75 698.208C1488.48 698.904 1487.01 699.252 1485.36 699.252H1477.44V708H1474.84ZM1477.44 696.948H1485.07C1486.22 696.948 1487.26 696.72 1488.2 696.264C1489.14 695.784 1489.88 695.112 1490.43 694.248C1491.01 693.36 1491.3 692.292 1491.3 691.044C1491.3 689.796 1491.01 688.74 1490.43 687.876C1489.88 686.988 1489.14 686.304 1488.2 685.824C1487.29 685.344 1486.28 685.104 1485.18 685.104H1477.44V696.948ZM1498.25 708V694.86C1498.25 693.228 1498.71 691.956 1499.62 691.044C1500.56 690.108 1501.84 689.64 1503.47 689.64H1506.64V691.836H1503.98C1502.92 691.836 1502.12 692.124 1501.57 692.7C1501.04 693.276 1500.77 694.092 1500.77 695.148V708H1498.25ZM1519.22 708C1517.25 708 1515.49 707.64 1513.93 706.92C1512.39 706.176 1511.17 705.12 1510.25 703.752C1509.37 702.384 1508.92 700.74 1508.92 698.82C1508.92 697.044 1509.28 695.436 1510 693.996C1510.72 692.532 1511.73 691.368 1513.03 690.504C1514.35 689.64 1515.88 689.208 1517.63 689.208C1519.43 689.208 1520.96 689.604 1522.21 690.396C1523.45 691.188 1524.4 692.256 1525.05 693.6C1525.7 694.944 1526.02 696.456 1526.02 698.136C1526.02 698.376 1526.01 698.64 1525.99 698.928C1525.96 699.216 1525.93 699.468 1525.88 699.684H1511.59C1511.66 701.028 1512.04 702.156 1512.74 703.068C1513.43 703.98 1514.33 704.664 1515.44 705.12C1516.57 705.576 1517.78 705.804 1519.07 705.804H1523.72V708H1519.22ZM1511.59 697.884H1523.47C1523.47 697.404 1523.42 696.876 1523.32 696.3C1523.23 695.7 1523.05 695.112 1522.78 694.536C1522.54 693.96 1522.19 693.432 1521.74 692.952C1521.31 692.472 1520.74 692.088 1520.05 691.8C1519.37 691.488 1518.55 691.332 1517.56 691.332C1516.65 691.332 1515.82 691.524 1515.08 691.908C1514.33 692.292 1513.71 692.808 1513.21 693.456C1512.7 694.08 1512.31 694.776 1512.02 695.544C1511.75 696.312 1511.61 697.092 1511.59 697.884ZM1530.53 708V696.912C1530.53 695.496 1530.84 694.212 1531.47 693.06C1532.11 691.884 1533.03 690.948 1534.2 690.252C1535.38 689.556 1536.78 689.208 1538.41 689.208C1539.25 689.208 1540.11 689.34 1540.97 689.604C1541.86 689.844 1542.67 690.276 1543.42 690.9C1544.19 691.5 1544.79 692.34 1545.22 693.42H1545.25C1545.69 692.34 1546.29 691.5 1547.05 690.9C1547.82 690.276 1548.65 689.844 1549.54 689.604C1550.43 689.34 1551.28 689.208 1552.09 689.208C1553.75 689.208 1555.17 689.556 1556.34 690.252C1557.52 690.948 1558.42 691.884 1559.04 693.06C1559.67 694.212 1559.98 695.496 1559.98 696.912V708H1557.49V696.912C1557.49 695.832 1557.25 694.884 1556.77 694.068C1556.29 693.252 1555.65 692.604 1554.83 692.124C1554.04 691.62 1553.13 691.368 1552.09 691.368C1551.04 691.368 1550.09 691.62 1549.25 692.124C1548.41 692.604 1547.74 693.264 1547.23 694.104C1546.75 694.944 1546.51 695.88 1546.51 696.912V708H1543.99V696.912C1543.99 695.88 1543.74 694.944 1543.24 694.104C1542.73 693.264 1542.06 692.604 1541.22 692.124C1540.41 691.62 1539.47 691.368 1538.41 691.368C1537.41 691.368 1536.48 691.62 1535.64 692.124C1534.83 692.604 1534.18 693.252 1533.7 694.068C1533.24 694.884 1533.01 695.832 1533.01 696.912V708H1530.53ZM1565.51 708V689.64H1568.03V708H1565.51ZM1566.77 686.328C1566.29 686.328 1565.87 686.148 1565.51 685.788C1565.15 685.428 1564.97 685.008 1564.97 684.528C1564.97 684.024 1565.15 683.604 1565.51 683.268C1565.87 682.908 1566.29 682.728 1566.77 682.728C1567.27 682.728 1567.69 682.908 1568.03 683.268C1568.39 683.604 1568.57 684.024 1568.57 684.528C1568.57 685.008 1568.39 685.428 1568.03 685.788C1567.69 686.148 1567.27 686.328 1566.77 686.328ZM1581.95 708.468C1580.41 708.468 1579.01 708.144 1577.74 707.496C1576.47 706.824 1575.45 705.876 1574.68 704.652C1573.93 703.428 1573.56 701.988 1573.56 700.332V689.64H1576.08V700.224C1576.08 701.496 1576.36 702.588 1576.91 703.5C1577.49 704.412 1578.22 705.108 1579.11 705.588C1579.99 706.044 1580.94 706.272 1581.95 706.272C1582.98 706.272 1583.94 706.032 1584.83 705.552C1585.74 705.072 1586.47 704.388 1587.03 703.5C1587.58 702.588 1587.85 701.496 1587.85 700.224V689.64H1590.37V700.332C1590.37 701.988 1590 703.428 1589.26 704.652C1588.51 705.876 1587.51 706.824 1586.23 707.496C1584.96 708.144 1583.53 708.468 1581.95 708.468ZM1595.92 708V696.912C1595.92 695.496 1596.23 694.212 1596.86 693.06C1597.5 691.884 1598.42 690.948 1599.59 690.252C1600.77 689.556 1602.17 689.208 1603.8 689.208C1604.64 689.208 1605.5 689.34 1606.36 689.604C1607.25 689.844 1608.06 690.276 1608.81 690.9C1609.58 691.5 1610.18 692.34 1610.61 693.42H1610.64C1611.08 692.34 1611.68 691.5 1612.44 690.9C1613.21 690.276 1614.04 689.844 1614.93 689.604C1615.82 689.34 1616.67 689.208 1617.48 689.208C1619.14 689.208 1620.56 689.556 1621.73 690.252C1622.91 690.948 1623.81 691.884 1624.43 693.06C1625.06 694.212 1625.37 695.496 1625.37 696.912V708H1622.88V696.912C1622.88 695.832 1622.64 694.884 1622.16 694.068C1621.68 693.252 1621.04 692.604 1620.22 692.124C1619.43 691.62 1618.52 691.368 1617.48 691.368C1616.43 691.368 1615.48 691.62 1614.64 692.124C1613.8 692.604 1613.13 693.264 1612.62 694.104C1612.14 694.944 1611.9 695.88 1611.9 696.912V708H1609.38V696.912C1609.38 695.88 1609.13 694.944 1608.63 694.104C1608.12 693.264 1607.45 692.604 1606.61 692.124C1605.8 691.62 1604.86 691.368 1603.8 691.368C1602.8 691.368 1601.87 691.62 1601.03 692.124C1600.22 692.604 1599.57 693.252 1599.09 694.068C1598.63 694.884 1598.4 695.832 1598.4 696.912V708H1595.92ZM1649.64 708.468C1647.96 708.468 1646.42 708.096 1645 707.352C1643.58 706.608 1642.46 705.516 1641.62 704.076C1640.78 702.636 1640.36 700.896 1640.36 698.856V681.72H1642.88V693.42H1642.95C1643.36 692.604 1643.92 691.884 1644.64 691.26C1645.36 690.612 1646.18 690.108 1647.09 689.748C1648 689.388 1648.96 689.208 1649.97 689.208C1651.62 689.208 1653.12 689.592 1654.47 690.36C1655.84 691.128 1656.93 692.22 1657.74 693.636C1658.56 695.028 1658.97 696.708 1658.97 698.676C1658.97 700.212 1658.73 701.592 1658.25 702.816C1657.77 704.016 1657.1 705.036 1656.23 705.876C1655.39 706.716 1654.41 707.364 1653.28 707.82C1652.15 708.252 1650.94 708.468 1649.64 708.468ZM1649.61 706.272C1650.83 706.272 1651.96 705.984 1652.99 705.408C1654.02 704.808 1654.85 703.956 1655.48 702.852C1656.1 701.724 1656.41 700.38 1656.41 698.82C1656.41 697.308 1656.1 696 1655.48 694.896C1654.85 693.768 1654.02 692.904 1652.99 692.304C1651.98 691.704 1650.88 691.404 1649.68 691.404C1648.48 691.404 1647.36 691.704 1646.33 692.304C1645.3 692.88 1644.47 693.72 1643.85 694.824C1643.22 695.928 1642.91 697.272 1642.91 698.856C1642.91 700.44 1643.21 701.784 1643.81 702.888C1644.44 703.992 1645.25 704.832 1646.26 705.408C1647.29 705.984 1648.41 706.272 1649.61 706.272ZM1671.37 708.468C1669.53 708.468 1667.94 708.036 1666.62 707.172C1665.3 706.308 1664.29 705.156 1663.6 703.716C1662.9 702.252 1662.55 700.62 1662.55 698.82C1662.55 696.996 1662.94 695.364 1663.71 693.924C1664.47 692.46 1665.57 691.308 1666.98 690.468C1668.42 689.628 1670.13 689.208 1672.09 689.208C1673.99 689.208 1675.62 689.628 1676.99 690.468C1678.38 691.308 1679.45 692.436 1680.19 693.852C1680.96 695.268 1681.35 696.864 1681.35 698.64V708H1678.86V703.896H1678.75C1678.42 704.616 1677.91 705.336 1677.24 706.056C1676.57 706.752 1675.74 707.328 1674.76 707.784C1673.8 708.24 1672.67 708.468 1671.37 708.468ZM1671.91 706.308C1673.26 706.308 1674.45 705.984 1675.48 705.336C1676.51 704.664 1677.31 703.764 1677.89 702.636C1678.49 701.484 1678.79 700.188 1678.79 698.748C1678.79 697.332 1678.51 696.072 1677.96 694.968C1677.41 693.864 1676.63 692.988 1675.62 692.34C1674.61 691.692 1673.41 691.368 1672.02 691.368C1670.58 691.368 1669.35 691.704 1668.31 692.376C1667.28 693.024 1666.49 693.924 1665.94 695.076C1665.39 696.204 1665.11 697.488 1665.11 698.928C1665.11 700.272 1665.37 701.508 1665.9 702.636C1666.43 703.764 1667.2 704.664 1668.21 705.336C1669.24 705.984 1670.47 706.308 1671.91 706.308ZM1686.9 708V681.72H1689.42V697.668H1695.51L1700.51 689.64H1703.36L1698.03 698.028C1699.85 698.484 1701.27 699.408 1702.28 700.8C1703.28 702.192 1703.79 703.848 1703.79 705.768V708H1701.3V705.768C1701.3 704.64 1701.05 703.632 1700.55 702.744C1700.04 701.856 1699.35 701.16 1698.46 700.656C1697.6 700.128 1696.58 699.864 1695.4 699.864H1689.42V708H1686.9ZM1718.24 708C1716.27 708 1714.5 707.64 1712.94 706.92C1711.41 706.176 1710.18 705.12 1709.27 703.752C1708.38 702.384 1707.94 700.74 1707.94 698.82C1707.94 697.044 1708.3 695.436 1709.02 693.996C1709.74 692.532 1710.75 691.368 1712.04 690.504C1713.36 689.64 1714.9 689.208 1716.65 689.208C1718.45 689.208 1719.98 689.604 1721.22 690.396C1722.47 691.188 1723.42 692.256 1724.07 693.6C1724.72 694.944 1725.04 696.456 1725.04 698.136C1725.04 698.376 1725.03 698.64 1725 698.928C1724.98 699.216 1724.94 699.468 1724.9 699.684H1710.6C1710.68 701.028 1711.06 702.156 1711.76 703.068C1712.45 703.98 1713.35 704.664 1714.46 705.12C1715.58 705.576 1716.8 705.804 1718.09 705.804H1722.74V708H1718.24ZM1710.6 697.884H1722.48C1722.48 697.404 1722.44 696.876 1722.34 696.3C1722.24 695.7 1722.06 695.112 1721.8 694.536C1721.56 693.96 1721.21 693.432 1720.76 692.952C1720.32 692.472 1719.76 692.088 1719.06 691.8C1718.39 691.488 1717.56 691.332 1716.58 691.332C1715.67 691.332 1714.84 691.524 1714.1 691.908C1713.35 692.292 1712.73 692.808 1712.22 693.456C1711.72 694.08 1711.32 694.776 1711.04 695.544C1710.77 696.312 1710.63 697.092 1710.6 697.884ZM1729.48 708V694.86C1729.48 693.228 1729.93 691.956 1730.85 691.044C1731.78 690.108 1733.07 689.64 1734.7 689.64H1737.87V691.836H1735.2C1734.15 691.836 1733.34 692.124 1732.79 692.7C1732.26 693.276 1732 694.092 1732 695.148V708H1729.48ZM1748.28 715.308V708.36C1746.94 708.192 1745.72 707.772 1744.64 707.1C1743.56 706.404 1742.7 705.48 1742.05 704.328C1741.43 703.176 1741.12 701.844 1741.12 700.332V689.64H1743.64V700.224C1743.64 701.496 1743.91 702.588 1744.46 703.5C1745.04 704.412 1745.77 705.108 1746.66 705.588C1747.55 706.044 1748.5 706.272 1749.5 706.272C1750.54 706.272 1751.5 706.032 1752.38 705.552C1753.3 705.072 1754.03 704.388 1754.58 703.5C1755.16 702.588 1755.44 701.496 1755.44 700.224V689.64H1757.93V700.332C1757.93 701.868 1757.6 703.212 1756.96 704.364C1756.33 705.492 1755.48 706.404 1754.4 707.1C1753.32 707.772 1752.12 708.18 1750.8 708.324V715.308H1748.28Z" fill="#672E13"/>
<path d="M1232.58 818V750.8H1268.39C1271.91 750.8 1274.95 751.568 1277.51 753.104C1280.07 754.64 1282.06 756.688 1283.46 759.248C1284.94 761.744 1285.67 764.56 1285.67 767.696C1285.67 769.936 1285.16 772.144 1284.14 774.32C1283.18 776.432 1281.83 778.288 1280.1 779.888C1278.38 781.488 1276.33 782.64 1273.96 783.344C1276.65 783.92 1278.98 785.04 1280.97 786.704C1283.02 788.368 1284.58 790.352 1285.67 792.656C1286.76 794.96 1287.3 797.424 1287.3 800.048C1287.3 803.248 1286.57 806.224 1285.1 808.976C1283.69 811.728 1281.58 813.936 1278.76 815.6C1276.01 817.2 1272.68 818 1268.78 818H1232.58ZM1239.5 811.76H1267.53C1270.28 811.76 1272.62 811.184 1274.54 810.032C1276.46 808.816 1277.9 807.248 1278.86 805.328C1279.88 803.344 1280.39 801.264 1280.39 799.088C1280.39 796.976 1279.85 794.992 1278.76 793.136C1277.74 791.216 1276.23 789.68 1274.25 788.528C1272.33 787.376 1269.93 786.8 1267.05 786.8H1239.5V811.76ZM1239.5 780.752H1265.7C1268.33 780.752 1270.6 780.176 1272.52 779.024C1274.5 777.872 1276.01 776.4 1277.03 774.608C1278.12 772.752 1278.66 770.768 1278.66 768.656C1278.66 766.608 1278.18 764.688 1277.22 762.896C1276.26 761.104 1274.86 759.664 1273 758.576C1271.21 757.488 1269.06 756.944 1266.57 756.944H1239.5V780.752ZM1291.76 818L1315.18 756.656C1316.14 754.16 1317.36 752.368 1318.83 751.28C1320.36 750.128 1322.16 749.552 1324.2 749.552C1326.32 749.552 1328.14 750.096 1329.68 751.184C1331.21 752.272 1332.43 754.064 1333.32 756.56L1356.94 818H1349.36L1342.64 800.336H1305.77L1299.05 818H1291.76ZM1307.88 794.192H1340.52L1327.47 758.96C1327.08 757.936 1326.64 757.136 1326.12 756.56C1325.68 755.984 1325.07 755.696 1324.3 755.696C1323.47 755.696 1322.83 755.984 1322.38 756.56C1322 757.136 1321.58 757.936 1321.13 758.96L1307.88 794.192ZM1412.46 839.312C1409.51 839.312 1406.83 838.672 1404.39 837.392C1402.03 836.176 1400.14 834.352 1398.73 831.92C1397.39 829.552 1396.71 826.64 1396.71 823.184C1396.71 822.416 1396.75 821.584 1396.81 820.688C1396.87 819.856 1396.97 819.024 1397.1 818.192C1391.85 818.64 1386.92 818.16 1382.31 816.752C1377.71 815.344 1373.64 813.104 1370.12 810.032C1366.6 806.96 1363.85 803.248 1361.87 798.896C1359.88 794.48 1358.89 789.52 1358.89 784.016C1358.89 779.28 1359.69 774.832 1361.29 770.672C1362.95 766.512 1365.29 762.864 1368.3 759.728C1371.31 756.528 1374.92 754.032 1379.15 752.24C1383.37 750.448 1388.07 749.552 1393.26 749.552C1398.51 749.552 1403.24 750.448 1407.47 752.24C1411.69 753.968 1415.31 756.4 1418.31 759.536C1421.32 762.672 1423.63 766.32 1425.23 770.48C1426.83 774.576 1427.63 778.96 1427.63 783.632V822.512C1427.63 826.032 1426.99 829.04 1425.71 831.536C1424.49 834.032 1422.73 835.952 1420.43 837.296C1418.12 838.64 1415.47 839.312 1412.46 839.312ZM1411.98 832.88C1414.41 832.88 1416.46 832.048 1418.12 830.384C1419.85 828.72 1420.71 826.192 1420.71 822.8V796.88C1417.19 798.864 1414.28 800.944 1411.98 803.12C1409.74 805.232 1407.98 807.408 1406.7 809.648C1405.48 811.888 1404.62 814.128 1404.11 816.368C1403.59 818.544 1403.34 820.592 1403.34 822.512C1403.34 824.752 1403.72 826.64 1404.49 828.176C1405.32 829.776 1406.41 830.96 1407.75 831.728C1409.1 832.496 1410.51 832.88 1411.98 832.88ZM1393.26 812.24C1394.41 812.24 1395.43 812.208 1396.33 812.144C1397.23 812.016 1398.22 811.856 1399.31 811.664C1400.2 809.232 1401.48 806.736 1403.15 804.176C1404.87 801.616 1407.15 799.12 1409.96 796.688C1412.84 794.192 1416.43 791.824 1420.71 789.584V783.632C1420.71 779.664 1420.01 775.984 1418.6 772.592C1417.26 769.2 1415.34 766.256 1412.84 763.76C1410.41 761.2 1407.53 759.248 1404.2 757.904C1400.87 756.496 1397.23 755.792 1393.26 755.792C1389.35 755.792 1385.71 756.496 1382.31 757.904C1378.99 759.312 1376.07 761.296 1373.58 763.856C1371.15 766.352 1369.23 769.328 1367.82 772.784C1366.47 776.24 1365.8 779.984 1365.8 784.016C1365.8 788.048 1366.47 791.792 1367.82 795.248C1369.23 798.704 1371.15 801.712 1373.58 804.272C1376.07 806.768 1378.99 808.72 1382.31 810.128C1385.71 811.536 1389.35 812.24 1393.26 812.24ZM1457.67 818C1453.96 818 1450.73 817.136 1447.97 815.408C1445.22 813.68 1443.08 811.408 1441.54 808.592C1440.07 805.712 1439.33 802.672 1439.33 799.472C1439.33 796.272 1440.13 793.264 1441.73 790.448C1443.4 787.568 1445.8 785.392 1448.93 783.92C1445.8 782.32 1443.46 780.208 1441.93 777.584C1440.45 774.896 1439.72 772.08 1439.72 769.136C1439.72 765.744 1440.52 762.672 1442.12 759.92C1443.72 757.168 1445.86 754.992 1448.55 753.392C1451.24 751.728 1454.25 750.896 1457.57 750.896H1483.59V757.04H1458.34C1456.1 757.04 1454.09 757.584 1452.29 758.672C1450.57 759.696 1449.19 761.136 1448.17 762.992C1447.14 764.848 1446.63 766.896 1446.63 769.136C1446.63 771.184 1447.17 773.104 1448.26 774.896C1449.35 776.688 1450.79 778.128 1452.58 779.216C1454.37 780.24 1456.42 780.752 1458.73 780.752H1480.04V786.896H1459.3C1456.55 786.896 1454.18 787.504 1452.2 788.72C1450.28 789.936 1448.81 791.504 1447.78 793.424C1446.82 795.344 1446.34 797.392 1446.34 799.568C1446.34 801.68 1446.82 803.664 1447.78 805.52C1448.74 807.376 1450.15 808.912 1452.01 810.128C1453.86 811.28 1456.1 811.856 1458.73 811.856H1483.59V818H1457.67ZM1511.68 818C1508.29 818 1505.34 817.296 1502.85 815.888C1500.35 814.416 1498.43 812.4 1497.09 809.84C1495.74 807.28 1495.07 804.368 1495.07 801.104V750.896H1501.98V802.064C1501.98 804.88 1502.85 807.216 1504.58 809.072C1506.37 810.928 1508.8 811.856 1511.87 811.856H1529.92V818H1511.68ZM1542.08 745.328L1532.87 733.52H1539.39L1548.61 745.328H1542.08ZM1637.04 838.736C1634.48 838.736 1632.15 838.192 1630.03 837.104C1627.92 836.016 1626.23 834.448 1624.95 832.4C1623.73 830.416 1623.12 828.08 1623.12 825.392C1623.12 822.704 1623.83 820.336 1625.23 818.288C1626.64 816.304 1628.47 814.736 1630.71 813.584C1632.95 812.368 1635.31 811.632 1637.81 811.376C1637.55 811.184 1637.01 810.736 1636.18 810.032C1635.41 809.264 1634.07 808.112 1632.15 806.576L1626.19 801.68C1624.15 805.52 1621.81 808.752 1619.19 811.376C1616.63 814 1613.75 815.984 1610.55 817.328C1607.35 818.608 1603.7 819.248 1599.6 819.248C1594.99 819.248 1590.9 818.32 1587.31 816.464C1583.79 814.544 1581.04 811.92 1579.06 808.592C1577.14 805.2 1576.18 801.36 1576.18 797.072C1576.18 794.064 1576.75 791.152 1577.91 788.336C1579.12 785.456 1580.98 782.8 1583.47 780.368C1585.97 777.936 1589.14 775.92 1592.98 774.32C1591.89 773.424 1590.8 772.4 1589.71 771.248C1588.69 770.032 1587.79 768.688 1587.03 767.216C1586.32 765.744 1585.97 764.208 1585.97 762.608C1585.97 760.24 1586.55 758.096 1587.7 756.176C1588.91 754.192 1590.58 752.592 1592.69 751.376C1594.87 750.16 1597.36 749.552 1600.18 749.552C1602.87 749.552 1605.23 750.096 1607.28 751.184C1609.39 752.272 1611.03 753.776 1612.18 755.696C1613.33 757.616 1613.91 759.824 1613.91 762.32C1613.91 765.2 1612.98 767.76 1611.12 770C1609.27 772.176 1606.64 774 1603.25 775.472L1623.99 792.368L1624.47 791.216C1626.19 787.376 1627.76 784.24 1629.17 781.808C1630.58 779.376 1631.92 777.52 1633.2 776.24C1634.48 774.96 1635.89 774.096 1637.43 773.648C1639.03 773.136 1640.88 772.88 1642.99 772.88H1646.93V778.352H1643.38C1641.84 778.352 1640.5 778.576 1639.35 779.024C1638.26 779.408 1637.23 780.208 1636.27 781.424C1635.31 782.576 1634.26 784.24 1633.11 786.416C1632.02 788.592 1630.71 791.472 1629.17 795.056L1628.69 796.208L1635.51 801.776C1639.6 804.912 1642.8 807.76 1645.11 810.32C1647.47 812.816 1649.14 815.184 1650.1 817.424C1651.06 819.664 1651.54 821.936 1651.54 824.24C1651.54 826.928 1650.93 829.36 1649.71 831.536C1648.56 833.712 1646.9 835.44 1644.72 836.72C1642.55 838.064 1639.99 838.736 1637.04 838.736ZM1600.18 813.2C1603.31 813.2 1606.13 812.688 1608.63 811.664C1611.12 810.576 1613.39 808.912 1615.44 806.672C1617.55 804.368 1619.57 801.424 1621.49 797.84L1597.39 778.064C1594.07 779.408 1591.31 781.072 1589.14 783.056C1587.03 784.976 1585.46 787.12 1584.43 789.488C1583.41 791.792 1582.9 794.16 1582.9 796.592C1582.9 799.664 1583.6 802.448 1585.01 804.944C1586.48 807.44 1588.53 809.456 1591.15 810.992C1593.78 812.464 1596.79 813.2 1600.18 813.2ZM1637.23 833.36C1639.6 833.36 1641.55 832.528 1643.09 830.864C1644.63 829.264 1645.39 827.088 1645.39 824.336C1645.39 822.928 1645.14 821.488 1644.63 820.016C1644.11 818.608 1643.15 817.232 1641.75 815.888C1639.44 816.016 1637.33 816.464 1635.41 817.232C1633.55 818 1632.05 819.088 1630.9 820.496C1629.81 821.904 1629.27 823.664 1629.27 825.776C1629.27 827.888 1630 829.68 1631.47 831.152C1632.95 832.624 1634.87 833.36 1637.23 833.36ZM1598.93 771.92C1600.47 771.216 1601.91 770.416 1603.25 769.52C1604.59 768.56 1605.68 767.504 1606.51 766.352C1607.35 765.136 1607.76 763.824 1607.76 762.416C1607.76 760.368 1607.06 758.64 1605.65 757.232C1604.31 755.76 1602.35 755.024 1599.79 755.024C1598.13 755.024 1596.72 755.408 1595.57 756.176C1594.48 756.88 1593.62 757.808 1592.98 758.96C1592.4 760.048 1592.11 761.2 1592.11 762.416C1592.11 763.824 1592.47 765.104 1593.17 766.256C1593.94 767.344 1594.83 768.368 1595.86 769.328C1596.95 770.224 1597.97 771.088 1598.93 771.92ZM1709.34 818C1704.22 818 1699.55 817.136 1695.33 815.408C1691.17 813.616 1687.55 811.184 1684.48 808.112C1681.47 804.976 1679.13 801.392 1677.47 797.36C1675.81 793.264 1674.97 788.912 1674.97 784.304C1674.97 779.696 1675.81 775.376 1677.47 771.344C1679.13 767.312 1681.47 763.76 1684.48 760.688C1687.55 757.616 1691.17 755.216 1695.33 753.488C1699.55 751.696 1704.22 750.8 1709.34 750.8H1717.12V756.944H1709.63C1705.73 756.944 1702.08 757.648 1698.69 759.056C1695.36 760.464 1692.45 762.416 1689.95 764.912C1687.45 767.344 1685.5 770.224 1684.09 773.552C1682.75 776.88 1682.08 780.464 1682.08 784.304C1682.08 788.272 1682.75 791.92 1684.09 795.248C1685.5 798.576 1687.45 801.488 1689.95 803.984C1692.45 806.416 1695.36 808.336 1698.69 809.744C1702.08 811.088 1705.73 811.76 1709.63 811.76H1717.12V818H1709.34ZM1759.74 819.248C1754.49 819.248 1749.72 818.352 1745.43 816.56C1741.14 814.768 1737.46 812.272 1734.39 809.072C1731.38 805.872 1729.05 802.16 1727.38 797.936C1725.78 793.712 1724.98 789.2 1724.98 784.4C1724.98 779.6 1725.78 775.088 1727.38 770.864C1729.05 766.64 1731.38 762.928 1734.39 759.728C1737.46 756.528 1741.14 754.032 1745.43 752.24C1749.72 750.448 1754.49 749.552 1759.74 749.552C1765.05 749.552 1769.82 750.448 1774.04 752.24C1778.33 754.032 1781.98 756.528 1784.98 759.728C1788.06 762.928 1790.39 766.64 1791.99 770.864C1793.66 775.088 1794.49 779.6 1794.49 784.4C1794.49 789.2 1793.66 793.712 1791.99 797.936C1790.39 802.16 1788.06 805.872 1784.98 809.072C1781.98 812.272 1778.33 814.768 1774.04 816.56C1769.82 818.352 1765.05 819.248 1759.74 819.248ZM1759.74 813.008C1763.77 813.008 1767.48 812.304 1770.87 810.896C1774.26 809.488 1777.21 807.504 1779.7 804.944C1782.2 802.32 1784.12 799.28 1785.46 795.824C1786.87 792.304 1787.58 788.496 1787.58 784.4C1787.58 780.24 1786.87 776.432 1785.46 772.976C1784.12 769.52 1782.2 766.512 1779.7 763.952C1777.21 761.328 1774.26 759.312 1770.87 757.904C1767.48 756.432 1763.77 755.696 1759.74 755.696C1755.77 755.696 1752.09 756.432 1748.7 757.904C1745.3 759.312 1742.33 761.328 1739.77 763.952C1737.27 766.512 1735.32 769.552 1733.91 773.072C1732.57 776.528 1731.9 780.304 1731.9 784.4C1731.9 788.496 1732.57 792.304 1733.91 795.824C1735.32 799.28 1737.27 802.32 1739.77 804.944C1742.33 807.504 1745.3 809.488 1748.7 810.896C1752.09 812.304 1755.77 813.008 1759.74 813.008ZM1806.23 818V767.216C1806.23 764.016 1806.93 761.2 1808.34 758.768C1809.75 756.272 1811.67 754.32 1814.1 752.912C1816.6 751.504 1819.48 750.8 1822.74 750.8H1846.36V756.944H1823.41C1820.28 756.944 1817.78 757.936 1815.93 759.92C1814.07 761.84 1813.14 764.272 1813.14 767.216V782.288H1842.81V788.432H1813.14V818H1806.23ZM1856.85 818V767.216C1856.85 764.016 1857.56 761.2 1858.97 758.768C1860.37 756.272 1862.29 754.32 1864.73 752.912C1867.22 751.504 1870.1 750.8 1873.37 750.8H1896.98V756.944H1874.04C1870.9 756.944 1868.41 757.936 1866.55 759.92C1864.69 761.84 1863.77 764.272 1863.77 767.216V782.288H1893.43V788.432H1863.77V818H1856.85ZM1923.61 818C1919.9 818 1916.66 817.136 1913.91 815.408C1911.16 813.68 1909.02 811.408 1907.48 808.592C1906.01 805.712 1905.27 802.672 1905.27 799.472C1905.27 796.272 1906.07 793.264 1907.67 790.448C1909.34 787.568 1911.74 785.392 1914.87 783.92C1911.74 782.32 1909.4 780.208 1907.86 777.584C1906.39 774.896 1905.66 772.08 1905.66 769.136C1905.66 765.744 1906.46 762.672 1908.06 759.92C1909.66 757.168 1911.8 754.992 1914.49 753.392C1917.18 751.728 1920.18 750.896 1923.51 750.896H1949.53V757.04H1924.28C1922.04 757.04 1920.02 757.584 1918.23 758.672C1916.5 759.696 1915.13 761.136 1914.1 762.992C1913.08 764.848 1912.57 766.896 1912.57 769.136C1912.57 771.184 1913.11 773.104 1914.2 774.896C1915.29 776.688 1916.73 778.128 1918.52 779.216C1920.31 780.24 1922.36 780.752 1924.66 780.752H1945.98V786.896H1925.24C1922.49 786.896 1920.12 787.504 1918.14 788.72C1916.22 789.936 1914.74 791.504 1913.72 793.424C1912.76 795.344 1912.28 797.392 1912.28 799.568C1912.28 801.68 1912.76 803.664 1913.72 805.52C1914.68 807.376 1916.09 808.912 1917.94 810.128C1919.8 811.28 1922.04 811.856 1924.66 811.856H1949.53V818H1923.61ZM1977.14 818C1973.43 818 1970.19 817.136 1967.44 815.408C1964.69 813.68 1962.55 811.408 1961.01 808.592C1959.54 805.712 1958.8 802.672 1958.8 799.472C1958.8 796.272 1959.6 793.264 1961.2 790.448C1962.87 787.568 1965.27 785.392 1968.4 783.92C1965.27 782.32 1962.93 780.208 1961.39 777.584C1959.92 774.896 1959.19 772.08 1959.19 769.136C1959.19 765.744 1959.99 762.672 1961.59 759.92C1963.19 757.168 1965.33 754.992 1968.02 753.392C1970.71 751.728 1973.71 750.896 1977.04 750.896H2003.06V757.04H1977.81C1975.57 757.04 1973.55 757.584 1971.76 758.672C1970.03 759.696 1968.66 761.136 1967.63 762.992C1966.61 764.848 1966.1 766.896 1966.1 769.136C1966.1 771.184 1966.64 773.104 1967.73 774.896C1968.82 776.688 1970.26 778.128 1972.05 779.216C1973.84 780.24 1975.89 780.752 1978.19 780.752H1999.51V786.896H1978.77C1976.02 786.896 1973.65 787.504 1971.67 788.72C1969.75 789.936 1968.27 791.504 1967.25 793.424C1966.29 795.344 1965.81 797.392 1965.81 799.568C1965.81 801.68 1966.29 803.664 1967.25 805.52C1968.21 807.376 1969.62 808.912 1971.47 810.128C1973.33 811.28 1975.57 811.856 1978.19 811.856H2003.06V818H1977.14Z" fill="#672E13"/>
<mask id="path-5-outside-1_183_63" maskUnits="userSpaceOnUse" x="1501" y="580" width="232" height="92" fill="black">
<rect fill="white" x="1501" y="580" width="232" height="92"/>
<path d="M1517.82 643V598.2H1545.34C1547.77 598.2 1549.97 598.712 1551.93 599.736C1553.93 600.76 1555.53 602.189 1556.73 604.024C1557.92 605.859 1558.52 608.013 1558.52 610.488C1558.52 611.725 1558.29 612.92 1557.82 614.072C1557.39 615.224 1556.77 616.291 1555.96 617.272C1555.19 618.211 1554.27 619.043 1553.21 619.768C1554.49 620.493 1555.6 621.411 1556.54 622.52C1557.52 623.587 1558.26 624.803 1558.78 626.168C1559.33 627.491 1559.61 628.899 1559.61 630.392C1559.61 632.909 1558.99 635.128 1557.75 637.048C1556.56 638.925 1554.94 640.397 1552.89 641.464C1550.84 642.488 1548.58 643 1546.1 643H1517.82ZM1531.64 632.504H1542.97C1543.65 632.504 1544.23 632.355 1544.7 632.056C1545.17 631.757 1545.53 631.352 1545.78 630.84C1546.08 630.285 1546.23 629.688 1546.23 629.048C1546.23 628.408 1546.08 627.853 1545.78 627.384C1545.53 626.872 1545.17 626.467 1544.7 626.168C1544.23 625.869 1543.65 625.72 1542.97 625.72H1531.64V632.504ZM1531.64 615.48H1541.37C1542.01 615.48 1542.56 615.331 1543.03 615.032C1543.5 614.691 1543.86 614.285 1544.12 613.816C1544.38 613.304 1544.5 612.771 1544.5 612.216C1544.5 611.619 1544.38 611.085 1544.12 610.616C1543.86 610.147 1543.5 609.763 1543.03 609.464C1542.61 609.165 1542.05 609.016 1541.37 609.016H1531.64V615.48ZM1578.08 643.832C1575.3 643.832 1572.81 643.128 1570.59 641.72C1568.37 640.312 1566.62 638.371 1565.34 635.896C1564.06 633.379 1563.42 630.456 1563.42 627.128C1563.42 623.587 1564.21 620.472 1565.79 617.784C1567.37 615.053 1569.54 612.92 1572.32 611.384C1575.13 609.848 1578.4 609.08 1582.11 609.08C1585.74 609.08 1588.89 609.827 1591.58 611.32C1594.27 612.771 1596.36 614.819 1597.85 617.464C1599.39 620.067 1600.16 623.096 1600.16 626.552V643H1588.51V638.072H1588.13C1587.57 639.224 1586.82 640.248 1585.89 641.144C1584.99 641.997 1583.9 642.659 1582.62 643.128C1581.34 643.597 1579.83 643.832 1578.08 643.832ZM1581.85 633.08C1583.01 633.08 1584.01 632.803 1584.86 632.248C1585.76 631.693 1586.44 630.925 1586.91 629.944C1587.42 628.92 1587.68 627.768 1587.68 626.488C1587.68 625.251 1587.42 624.163 1586.91 623.224C1586.44 622.285 1585.76 621.539 1584.86 620.984C1584.01 620.429 1583.01 620.152 1581.85 620.152C1580.74 620.152 1579.74 620.429 1578.85 620.984C1577.95 621.539 1577.25 622.285 1576.73 623.224C1576.26 624.163 1576.03 625.251 1576.03 626.488C1576.03 627.768 1576.26 628.92 1576.73 629.944C1577.25 630.925 1577.95 631.693 1578.85 632.248C1579.74 632.803 1580.74 633.08 1581.85 633.08ZM1610.81 655.992V645.496H1626.49C1627.26 645.496 1627.88 645.283 1628.35 644.856C1628.81 644.472 1629.05 643.939 1629.05 643.256V637.496H1628.67C1628.11 638.221 1627.41 638.925 1626.55 639.608C1625.74 640.248 1624.74 640.76 1623.55 641.144C1622.39 641.528 1621.01 641.72 1619.39 641.72C1616.48 641.72 1613.95 641.037 1611.77 639.672C1609.59 638.264 1607.91 636.387 1606.71 634.04C1605.52 631.693 1604.92 629.112 1604.92 626.296C1604.92 623.267 1605.6 620.451 1606.97 617.848C1608.33 615.203 1610.36 613.091 1613.05 611.512C1615.74 609.891 1619.02 609.08 1622.91 609.08C1626.57 609.08 1629.77 609.848 1632.51 611.384C1635.28 612.877 1637.43 614.968 1638.97 617.656C1640.55 620.344 1641.34 623.459 1641.34 627V645.752C1641.34 648.909 1640.4 651.405 1638.52 653.24C1636.64 655.075 1634.02 655.992 1630.65 655.992H1610.81ZM1623.16 631.864C1624.23 631.864 1625.19 631.608 1626.04 631.096C1626.89 630.584 1627.56 629.901 1628.03 629.048C1628.54 628.152 1628.79 627.192 1628.79 626.168C1628.79 625.059 1628.54 624.056 1628.03 623.16C1627.56 622.264 1626.89 621.56 1626.04 621.048C1625.19 620.493 1624.23 620.216 1623.16 620.216C1622.09 620.216 1621.11 620.472 1620.22 620.984C1619.36 621.496 1618.68 622.2 1618.17 623.096C1617.7 623.992 1617.47 624.995 1617.47 626.104C1617.47 627.171 1617.7 628.152 1618.17 629.048C1618.68 629.901 1619.36 630.584 1620.22 631.096C1621.11 631.608 1622.09 631.864 1623.16 631.864ZM1665.25 643C1661.54 643 1658.23 642.36 1655.33 641.08C1652.43 639.8 1650.12 637.944 1648.42 635.512C1646.75 633.037 1645.92 630.029 1645.92 626.488C1645.92 622.605 1646.75 619.384 1648.42 616.824C1650.08 614.264 1652.24 612.344 1654.88 611.064C1657.57 609.741 1660.39 609.08 1663.33 609.08C1666.36 609.08 1669.07 609.72 1671.46 611C1673.89 612.237 1675.81 614.029 1677.22 616.376C1678.67 618.723 1679.39 621.539 1679.39 624.824C1679.39 625.635 1679.35 626.573 1679.27 627.64C1679.18 628.664 1679.05 629.539 1678.88 630.264H1658.53C1658.7 630.989 1659.02 631.608 1659.49 632.12C1659.96 632.589 1660.6 632.931 1661.41 633.144C1662.22 633.357 1663.14 633.464 1664.16 633.464H1676V643H1665.25ZM1657.95 623.48H1668.07C1668.07 622.968 1668 622.477 1667.87 622.008C1667.75 621.539 1667.53 621.112 1667.23 620.728C1666.98 620.301 1666.66 619.939 1666.27 619.64C1665.89 619.299 1665.42 619.043 1664.87 618.872C1664.35 618.701 1663.78 618.616 1663.14 618.616C1662.33 618.616 1661.6 618.744 1660.96 619C1660.36 619.256 1659.85 619.597 1659.43 620.024C1659 620.451 1658.66 620.963 1658.4 621.56C1658.19 622.157 1658.04 622.797 1657.95 623.48ZM1684.13 643V596.28H1696.35V643H1684.13ZM1703.43 619.32L1706.82 610.04C1705.67 609.485 1704.73 608.675 1704.01 607.608C1703.32 606.541 1702.98 605.411 1702.98 604.216C1702.98 602.211 1703.62 600.568 1704.9 599.288C1706.23 598.008 1707.76 597.368 1709.51 597.368C1711.52 597.368 1713.14 598.051 1714.37 599.416C1715.65 600.781 1716.29 602.424 1716.29 604.344C1716.29 605.496 1716.15 606.627 1715.85 607.736C1715.59 608.845 1715.21 610.04 1714.69 611.32L1711.69 619.32H1703.43Z"/>
</mask>
<path d="M1517.82 643V598.2H1545.34C1547.77 598.2 1549.97 598.712 1551.93 599.736C1553.93 600.76 1555.53 602.189 1556.73 604.024C1557.92 605.859 1558.52 608.013 1558.52 610.488C1558.52 611.725 1558.29 612.92 1557.82 614.072C1557.39 615.224 1556.77 616.291 1555.96 617.272C1555.19 618.211 1554.27 619.043 1553.21 619.768C1554.49 620.493 1555.6 621.411 1556.54 622.52C1557.52 623.587 1558.26 624.803 1558.78 626.168C1559.33 627.491 1559.61 628.899 1559.61 630.392C1559.61 632.909 1558.99 635.128 1557.75 637.048C1556.56 638.925 1554.94 640.397 1552.89 641.464C1550.84 642.488 1548.58 643 1546.1 643H1517.82ZM1531.64 632.504H1542.97C1543.65 632.504 1544.23 632.355 1544.7 632.056C1545.17 631.757 1545.53 631.352 1545.78 630.84C1546.08 630.285 1546.23 629.688 1546.23 629.048C1546.23 628.408 1546.08 627.853 1545.78 627.384C1545.53 626.872 1545.17 626.467 1544.7 626.168C1544.23 625.869 1543.65 625.72 1542.97 625.72H1531.64V632.504ZM1531.64 615.48H1541.37C1542.01 615.48 1542.56 615.331 1543.03 615.032C1543.5 614.691 1543.86 614.285 1544.12 613.816C1544.38 613.304 1544.5 612.771 1544.5 612.216C1544.5 611.619 1544.38 611.085 1544.12 610.616C1543.86 610.147 1543.5 609.763 1543.03 609.464C1542.61 609.165 1542.05 609.016 1541.37 609.016H1531.64V615.48ZM1578.08 643.832C1575.3 643.832 1572.81 643.128 1570.59 641.72C1568.37 640.312 1566.62 638.371 1565.34 635.896C1564.06 633.379 1563.42 630.456 1563.42 627.128C1563.42 623.587 1564.21 620.472 1565.79 617.784C1567.37 615.053 1569.54 612.92 1572.32 611.384C1575.13 609.848 1578.4 609.08 1582.11 609.08C1585.74 609.08 1588.89 609.827 1591.58 611.32C1594.27 612.771 1596.36 614.819 1597.85 617.464C1599.39 620.067 1600.16 623.096 1600.16 626.552V643H1588.51V638.072H1588.13C1587.57 639.224 1586.82 640.248 1585.89 641.144C1584.99 641.997 1583.9 642.659 1582.62 643.128C1581.34 643.597 1579.83 643.832 1578.08 643.832ZM1581.85 633.08C1583.01 633.08 1584.01 632.803 1584.86 632.248C1585.76 631.693 1586.44 630.925 1586.91 629.944C1587.42 628.92 1587.68 627.768 1587.68 626.488C1587.68 625.251 1587.42 624.163 1586.91 623.224C1586.44 622.285 1585.76 621.539 1584.86 620.984C1584.01 620.429 1583.01 620.152 1581.85 620.152C1580.74 620.152 1579.74 620.429 1578.85 620.984C1577.95 621.539 1577.25 622.285 1576.73 623.224C1576.26 624.163 1576.03 625.251 1576.03 626.488C1576.03 627.768 1576.26 628.92 1576.73 629.944C1577.25 630.925 1577.95 631.693 1578.85 632.248C1579.74 632.803 1580.74 633.08 1581.85 633.08ZM1610.81 655.992V645.496H1626.49C1627.26 645.496 1627.88 645.283 1628.35 644.856C1628.81 644.472 1629.05 643.939 1629.05 643.256V637.496H1628.67C1628.11 638.221 1627.41 638.925 1626.55 639.608C1625.74 640.248 1624.74 640.76 1623.55 641.144C1622.39 641.528 1621.01 641.72 1619.39 641.72C1616.48 641.72 1613.95 641.037 1611.77 639.672C1609.59 638.264 1607.91 636.387 1606.71 634.04C1605.52 631.693 1604.92 629.112 1604.92 626.296C1604.92 623.267 1605.6 620.451 1606.97 617.848C1608.33 615.203 1610.36 613.091 1613.05 611.512C1615.74 609.891 1619.02 609.08 1622.91 609.08C1626.57 609.08 1629.77 609.848 1632.51 611.384C1635.28 612.877 1637.43 614.968 1638.97 617.656C1640.55 620.344 1641.34 623.459 1641.34 627V645.752C1641.34 648.909 1640.4 651.405 1638.52 653.24C1636.64 655.075 1634.02 655.992 1630.65 655.992H1610.81ZM1623.16 631.864C1624.23 631.864 1625.19 631.608 1626.04 631.096C1626.89 630.584 1627.56 629.901 1628.03 629.048C1628.54 628.152 1628.79 627.192 1628.79 626.168C1628.79 625.059 1628.54 624.056 1628.03 623.16C1627.56 622.264 1626.89 621.56 1626.04 621.048C1625.19 620.493 1624.23 620.216 1623.16 620.216C1622.09 620.216 1621.11 620.472 1620.22 620.984C1619.36 621.496 1618.68 622.2 1618.17 623.096C1617.7 623.992 1617.47 624.995 1617.47 626.104C1617.47 627.171 1617.7 628.152 1618.17 629.048C1618.68 629.901 1619.36 630.584 1620.22 631.096C1621.11 631.608 1622.09 631.864 1623.16 631.864ZM1665.25 643C1661.54 643 1658.23 642.36 1655.33 641.08C1652.43 639.8 1650.12 637.944 1648.42 635.512C1646.75 633.037 1645.92 630.029 1645.92 626.488C1645.92 622.605 1646.75 619.384 1648.42 616.824C1650.08 614.264 1652.24 612.344 1654.88 611.064C1657.57 609.741 1660.39 609.08 1663.33 609.08C1666.36 609.08 1669.07 609.72 1671.46 611C1673.89 612.237 1675.81 614.029 1677.22 616.376C1678.67 618.723 1679.39 621.539 1679.39 624.824C1679.39 625.635 1679.35 626.573 1679.27 627.64C1679.18 628.664 1679.05 629.539 1678.88 630.264H1658.53C1658.7 630.989 1659.02 631.608 1659.49 632.12C1659.96 632.589 1660.6 632.931 1661.41 633.144C1662.22 633.357 1663.14 633.464 1664.16 633.464H1676V643H1665.25ZM1657.95 623.48H1668.07C1668.07 622.968 1668 622.477 1667.87 622.008C1667.75 621.539 1667.53 621.112 1667.23 620.728C1666.98 620.301 1666.66 619.939 1666.27 619.64C1665.89 619.299 1665.42 619.043 1664.87 618.872C1664.35 618.701 1663.78 618.616 1663.14 618.616C1662.33 618.616 1661.6 618.744 1660.96 619C1660.36 619.256 1659.85 619.597 1659.43 620.024C1659 620.451 1658.66 620.963 1658.4 621.56C1658.19 622.157 1658.04 622.797 1657.95 623.48ZM1684.13 643V596.28H1696.35V643H1684.13ZM1703.43 619.32L1706.82 610.04C1705.67 609.485 1704.73 608.675 1704.01 607.608C1703.32 606.541 1702.98 605.411 1702.98 604.216C1702.98 602.211 1703.62 600.568 1704.9 599.288C1706.23 598.008 1707.76 597.368 1709.51 597.368C1711.52 597.368 1713.14 598.051 1714.37 599.416C1715.65 600.781 1716.29 602.424 1716.29 604.344C1716.29 605.496 1716.15 606.627 1715.85 607.736C1715.59 608.845 1715.21 610.04 1714.69 611.32L1711.69 619.32H1703.43Z" fill="#F0B66C"/>
<path d="M1517.82 643H1501.82C1501.82 651.837 1508.98 659 1517.82 659V643ZM1517.82 598.2V582.2C1508.98 582.2 1501.82 589.363 1501.82 598.2H1517.82ZM1551.93 599.736L1544.53 613.921C1544.57 613.943 1544.61 613.964 1544.65 613.986L1551.93 599.736ZM1557.82 614.072L1543 608.035C1542.93 608.194 1542.87 608.354 1542.81 608.515L1557.82 614.072ZM1555.96 617.272L1543.62 607.082C1543.61 607.101 1543.59 607.121 1543.58 607.14L1555.96 617.272ZM1553.21 619.768L1544.21 606.537C1539.64 609.646 1537 614.896 1537.22 620.421C1537.45 625.946 1540.51 630.962 1545.32 633.688L1553.21 619.768ZM1556.54 622.52L1544.32 632.855C1544.46 633.024 1544.61 633.19 1544.76 633.353L1556.54 622.52ZM1558.78 626.168L1543.79 631.786C1543.87 631.977 1543.94 632.167 1544.02 632.356L1558.78 626.168ZM1557.75 637.048L1544.3 628.381C1544.29 628.406 1544.27 628.432 1544.25 628.458L1557.75 637.048ZM1552.89 641.464L1560.04 655.775C1560.12 655.735 1560.2 655.695 1560.28 655.655L1552.89 641.464ZM1531.64 632.504H1515.64C1515.64 641.341 1522.8 648.504 1531.64 648.504V632.504ZM1545.78 630.84L1531.7 623.254C1531.62 623.397 1531.55 623.54 1531.47 623.685L1545.78 630.84ZM1545.78 627.384L1531.47 634.539C1531.72 635.031 1531.99 635.51 1532.29 635.974L1545.78 627.384ZM1531.64 625.72V609.72C1522.8 609.72 1515.64 616.883 1515.64 625.72H1531.64ZM1531.64 615.48H1515.64C1515.64 624.317 1522.8 631.48 1531.64 631.48V615.48ZM1543.03 615.032L1551.62 628.531C1551.9 628.353 1552.18 628.166 1552.44 627.972L1543.03 615.032ZM1544.12 613.816L1558.17 621.478C1558.26 621.31 1558.35 621.142 1558.43 620.971L1544.12 613.816ZM1544.12 610.616L1530.07 618.278L1530.07 618.278L1544.12 610.616ZM1543.03 609.464L1533.86 622.572C1534.05 622.706 1534.24 622.837 1534.44 622.963L1543.03 609.464ZM1531.64 609.016V593.016C1522.8 593.016 1515.64 600.179 1515.64 609.016H1531.64ZM1517.82 643H1533.82V598.2H1517.82H1501.82V643H1517.82ZM1517.82 598.2V614.2H1545.34V598.2V582.2H1517.82V598.2ZM1545.34 598.2V614.2C1545.42 614.2 1545.36 614.209 1545.18 614.167C1544.99 614.123 1544.76 614.044 1544.53 613.921L1551.93 599.736L1559.33 585.551C1554.86 583.22 1550.09 582.2 1545.34 582.2V598.2ZM1551.93 599.736L1544.65 613.986C1544.49 613.904 1544.25 613.752 1543.97 613.508C1543.7 613.263 1543.48 612.997 1543.32 612.755L1556.73 604.024L1570.14 595.293C1567.37 591.046 1563.63 587.745 1559.2 585.486L1551.93 599.736ZM1556.73 604.024L1543.32 612.755C1543 612.269 1542.78 611.759 1542.65 611.29C1542.53 610.836 1542.52 610.543 1542.52 610.488H1558.52H1574.52C1574.52 605.33 1573.24 600.054 1570.14 595.293L1556.73 604.024ZM1558.52 610.488H1542.52C1542.52 609.644 1542.69 608.79 1543 608.035L1557.82 614.072L1572.63 620.109C1573.88 617.05 1574.52 613.806 1574.52 610.488H1558.52ZM1557.82 614.072L1542.81 608.515C1543.03 607.923 1543.33 607.434 1543.62 607.082L1555.96 617.272L1568.3 627.462C1570.21 625.148 1571.75 622.525 1572.82 619.629L1557.82 614.072ZM1555.96 617.272L1543.58 607.14C1543.84 606.815 1544.09 606.622 1544.21 606.537L1553.21 619.768L1562.2 632.999C1564.46 631.464 1566.54 629.606 1568.34 627.404L1555.96 617.272ZM1553.21 619.768L1545.32 633.688C1544.98 633.495 1544.62 633.205 1544.32 632.855L1556.54 622.52L1568.75 612.185C1566.58 609.617 1564 607.492 1561.1 605.848L1553.21 619.768ZM1556.54 622.52L1544.76 633.353C1544.34 632.894 1544 632.337 1543.79 631.786L1558.78 626.168L1573.76 620.55C1572.53 617.268 1570.7 614.279 1568.31 611.687L1556.54 622.52ZM1558.78 626.168L1544.02 632.356C1543.72 631.638 1543.61 630.934 1543.61 630.392H1559.61H1575.61C1575.61 626.863 1574.94 623.343 1573.53 619.98L1558.78 626.168ZM1559.61 630.392H1543.61C1543.61 630.332 1543.62 630.059 1543.73 629.646C1543.85 629.222 1544.04 628.782 1544.3 628.381L1557.75 637.048L1571.2 645.715C1574.27 640.951 1575.61 635.658 1575.61 630.392H1559.61ZM1557.75 637.048L1544.25 628.458C1544.41 628.214 1544.62 627.952 1544.89 627.714C1545.14 627.478 1545.37 627.34 1545.5 627.273L1552.89 641.464L1560.28 655.655C1564.72 653.341 1568.49 649.978 1571.25 645.638L1557.75 637.048ZM1552.89 641.464L1545.73 627.153C1545.87 627.082 1546.01 627.036 1546.12 627.011C1546.23 626.988 1546.23 627 1546.1 627V643V659C1550.86 659 1555.6 657.998 1560.04 655.775L1552.89 641.464ZM1546.1 643V627H1517.82V643V659H1546.1V643ZM1531.64 632.504V648.504H1542.97V632.504V616.504H1531.64V632.504ZM1542.97 632.504V648.504C1546 648.504 1549.72 647.823 1553.29 645.555L1544.7 632.056L1536.11 618.557C1538.73 616.886 1541.3 616.504 1542.97 616.504V632.504ZM1544.7 632.056L1553.29 645.555C1556.28 643.652 1558.58 641.022 1560.09 637.995L1545.78 630.84L1531.47 623.685C1532.47 621.682 1534.06 619.862 1536.11 618.557L1544.7 632.056ZM1545.78 630.84L1559.87 638.426C1561.45 635.501 1562.23 632.292 1562.23 629.048H1546.23H1530.23C1530.23 627.084 1530.72 625.07 1531.7 623.254L1545.78 630.84ZM1546.23 629.048H1562.23C1562.23 625.833 1561.45 622.199 1559.28 618.794L1545.78 627.384L1532.29 635.974C1530.72 633.508 1530.23 630.983 1530.23 629.048H1546.23ZM1545.78 627.384L1560.09 620.229C1558.58 617.202 1556.28 614.572 1553.29 612.669L1544.7 626.168L1536.11 639.667C1534.06 638.362 1532.47 636.542 1531.47 634.539L1545.78 627.384ZM1544.7 626.168L1553.29 612.669C1549.72 610.401 1546 609.72 1542.97 609.72V625.72V641.72C1541.3 641.72 1538.73 641.338 1536.11 639.667L1544.7 626.168ZM1542.97 625.72V609.72H1531.64V625.72V641.72H1542.97V625.72ZM1531.64 625.72H1515.64V632.504H1531.64H1547.64V625.72H1531.64ZM1531.64 615.48V631.48H1541.37V615.48V599.48H1531.64V615.48ZM1541.37 615.48V631.48C1544.58 631.48 1548.22 630.697 1551.62 628.531L1543.03 615.032L1534.44 601.533C1536.91 599.964 1539.43 599.48 1541.37 599.48V615.48ZM1543.03 615.032L1552.44 627.972C1554.66 626.357 1556.68 624.201 1558.17 621.478L1544.12 613.816L1530.07 606.154C1531.05 604.369 1532.34 603.024 1533.62 602.092L1543.03 615.032ZM1544.12 613.816L1558.43 620.971C1559.76 618.311 1560.5 615.336 1560.5 612.216H1544.5H1528.5C1528.5 610.206 1528.99 608.297 1529.81 606.661L1544.12 613.816ZM1544.5 612.216H1560.5C1560.5 609.261 1559.85 606.039 1558.17 602.954L1544.12 610.616L1530.07 618.278C1528.9 616.131 1528.5 613.976 1528.5 612.216H1544.5ZM1544.12 610.616L1558.17 602.954C1556.56 600.011 1554.28 597.656 1551.62 595.965L1543.03 609.464L1534.44 622.963C1532.72 621.87 1531.17 620.282 1530.07 618.278L1544.12 610.616ZM1543.03 609.464L1552.21 596.356C1548.37 593.668 1544.32 593.016 1541.37 593.016V609.016V625.016C1539.78 625.016 1536.84 624.662 1533.86 622.572L1543.03 609.464ZM1541.37 609.016V593.016H1531.64V609.016V625.016H1541.37V609.016ZM1531.64 609.016H1515.64V615.48H1531.64H1547.64V609.016H1531.64ZM1565.34 635.896L1551.08 643.148C1551.1 643.181 1551.11 643.214 1551.13 643.247L1565.34 635.896ZM1565.79 617.784L1579.59 625.887C1579.6 625.855 1579.62 625.824 1579.64 625.792L1565.79 617.784ZM1572.32 611.384L1564.66 597.338C1564.63 597.354 1564.6 597.371 1564.57 597.387L1572.32 611.384ZM1591.58 611.32L1583.81 625.307C1583.87 625.338 1583.93 625.369 1583.98 625.4L1591.58 611.32ZM1597.85 617.464L1583.92 625.33C1583.97 625.419 1584.02 625.508 1584.07 625.596L1597.85 617.464ZM1600.16 643V659C1608.99 659 1616.16 651.837 1616.16 643H1600.16ZM1588.51 643H1572.51C1572.51 651.837 1579.67 659 1588.51 659V643ZM1588.51 638.072H1604.51C1604.51 629.235 1597.35 622.072 1588.51 622.072V638.072ZM1588.13 638.072V622.072C1581.98 622.072 1576.38 625.593 1573.71 631.131L1588.13 638.072ZM1585.89 641.144L1596.92 652.73C1596.92 652.726 1596.93 652.722 1596.93 652.718L1585.89 641.144ZM1582.62 643.128L1588.13 658.15L1582.62 643.128ZM1584.86 632.248L1576.44 618.644C1576.34 618.706 1576.24 618.769 1576.14 618.833L1584.86 632.248ZM1586.91 629.944L1572.6 622.789C1572.56 622.872 1572.52 622.956 1572.48 623.041L1586.91 629.944ZM1586.91 623.224L1572.6 630.379C1572.68 630.55 1572.77 630.718 1572.86 630.886L1586.91 623.224ZM1584.86 620.984L1576.14 634.399C1576.24 634.463 1576.34 634.526 1576.44 634.588L1584.86 620.984ZM1578.85 620.984L1587.27 634.588L1587.27 634.588L1578.85 620.984ZM1576.73 623.224L1562.69 615.562C1562.6 615.73 1562.51 615.898 1562.42 616.069L1576.73 623.224ZM1576.73 629.944L1562.19 636.61C1562.3 636.858 1562.42 637.103 1562.55 637.345L1576.73 629.944ZM1578.85 632.248L1587.27 618.644L1587.27 618.644L1578.85 632.248ZM1578.08 643.832V627.832C1578.06 627.832 1578.21 627.832 1578.47 627.905C1578.73 627.98 1578.98 628.094 1579.16 628.211L1570.59 641.72L1562.02 655.229C1566.94 658.356 1572.44 659.832 1578.08 659.832V643.832ZM1570.59 641.72L1579.16 628.211C1579.27 628.281 1579.4 628.383 1579.5 628.497C1579.6 628.607 1579.61 628.648 1579.55 628.545L1565.34 635.896L1551.13 643.247C1553.63 648.08 1557.26 652.211 1562.02 655.229L1570.59 641.72ZM1565.34 635.896L1579.6 628.644C1579.65 628.741 1579.42 628.384 1579.42 627.128H1563.42H1547.42C1547.42 632.528 1548.47 638.016 1551.08 643.148L1565.34 635.896ZM1563.42 627.128H1579.42C1579.42 626.549 1579.49 626.216 1579.52 626.067C1579.56 625.928 1579.59 625.888 1579.59 625.887L1565.79 617.784L1551.99 609.681C1548.78 615.145 1547.42 621.133 1547.42 627.128H1563.42ZM1565.79 617.784L1579.64 625.792C1579.73 625.636 1579.79 625.579 1579.81 625.561C1579.83 625.543 1579.89 625.479 1580.07 625.381L1572.32 611.384L1564.57 597.387C1559.27 600.322 1554.98 604.519 1551.94 609.776L1565.79 617.784ZM1572.32 611.384L1579.98 625.43C1580.1 625.365 1580.65 625.08 1582.11 625.08V609.08V593.08C1576.14 593.08 1570.17 594.331 1564.66 597.338L1572.32 611.384ZM1582.11 609.08V625.08C1582.83 625.08 1583.28 625.154 1583.52 625.211C1583.64 625.239 1583.71 625.265 1583.75 625.281C1583.79 625.296 1583.81 625.305 1583.81 625.307L1591.58 611.32L1599.35 597.333C1593.89 594.301 1587.97 593.08 1582.11 593.08V609.08ZM1591.58 611.32L1583.98 625.4C1584.03 625.427 1584.04 625.438 1584.03 625.43C1584.02 625.421 1584 625.402 1583.97 625.374C1583.94 625.345 1583.92 625.319 1583.91 625.303C1583.89 625.286 1583.9 625.292 1583.92 625.33L1597.85 617.464L1611.79 609.598C1608.8 604.31 1604.51 600.115 1599.18 597.24L1591.58 611.32ZM1597.85 617.464L1584.07 625.596C1584.04 625.543 1584.05 625.53 1584.07 625.62C1584.1 625.722 1584.16 626.012 1584.16 626.552H1600.16H1616.16C1616.16 620.653 1614.82 614.735 1611.63 609.332L1597.85 617.464ZM1600.16 626.552H1584.16V643H1600.16H1616.16V626.552H1600.16ZM1600.16 643V627H1588.51V643V659H1600.16V643ZM1588.51 643H1604.51V638.072H1588.51H1572.51V643H1588.51ZM1588.51 638.072V622.072H1588.13V638.072V654.072H1588.51V638.072ZM1588.13 638.072L1573.71 631.131C1574 630.522 1574.41 629.983 1574.84 629.57L1585.89 641.144L1596.93 652.718C1599.24 650.513 1601.14 647.926 1602.54 645.013L1588.13 638.072ZM1585.89 641.144L1574.85 629.558C1575.7 628.752 1576.55 628.314 1577.11 628.106L1582.62 643.128L1588.13 658.15C1591.26 657.003 1594.28 655.243 1596.92 652.73L1585.89 641.144ZM1582.62 643.128L1577.11 628.106C1577.58 627.936 1577.92 627.869 1578.08 627.845C1578.23 627.82 1578.24 627.832 1578.08 627.832V643.832V659.832C1581.2 659.832 1584.67 659.42 1588.13 658.15L1582.62 643.128ZM1581.85 633.08V649.08C1585.68 649.08 1589.8 648.12 1593.58 645.663L1584.86 632.248L1576.14 618.833C1578.22 617.485 1580.33 617.08 1581.85 617.08V633.08ZM1584.86 632.248L1593.28 645.852C1596.87 643.631 1599.6 640.498 1601.34 636.847L1586.91 629.944L1572.48 623.041C1573.28 621.353 1574.64 619.755 1576.44 618.644L1584.86 632.248ZM1586.91 629.944L1601.22 637.099C1602.97 633.603 1603.68 629.956 1603.68 626.488H1587.68H1571.68C1571.68 625.58 1571.87 624.237 1572.6 622.789L1586.91 629.944ZM1587.68 626.488H1603.68C1603.68 622.998 1602.94 619.197 1600.96 615.562L1586.91 623.224L1572.86 630.886C1571.9 629.128 1571.68 627.504 1571.68 626.488H1587.68ZM1586.91 623.224L1601.22 616.069C1599.42 612.464 1596.69 609.49 1593.28 607.38L1584.86 620.984L1576.44 634.588C1574.82 633.588 1573.46 632.106 1572.6 630.379L1586.91 623.224ZM1584.86 620.984L1593.58 607.569C1589.8 605.112 1585.68 604.152 1581.85 604.152V620.152V636.152C1580.33 636.152 1578.22 635.747 1576.14 634.399L1584.86 620.984ZM1581.85 620.152V604.152C1577.93 604.152 1573.99 605.175 1570.42 607.38L1578.85 620.984L1587.27 634.588C1585.5 635.684 1583.56 636.152 1581.85 636.152V620.152ZM1578.85 620.984L1570.42 607.38C1567.13 609.417 1564.51 612.226 1562.69 615.562L1576.73 623.224L1590.78 630.886C1589.98 632.344 1588.77 633.661 1587.27 634.588L1578.85 620.984ZM1576.73 623.224L1562.42 616.069C1560.66 619.593 1560.03 623.209 1560.03 626.488H1576.03H1592.03C1592.03 627.292 1591.87 628.732 1591.04 630.379L1576.73 623.224ZM1576.03 626.488H1560.03C1560.03 629.755 1560.64 633.227 1562.19 636.61L1576.73 629.944L1591.28 623.278C1591.89 624.613 1592.03 625.781 1592.03 626.488H1576.03ZM1576.73 629.944L1562.55 637.345C1564.32 640.74 1566.96 643.707 1570.42 645.852L1578.85 632.248L1587.27 618.644C1588.94 619.679 1590.17 621.11 1590.92 622.543L1576.73 629.944ZM1578.85 632.248L1570.42 645.852C1573.99 648.057 1577.93 649.08 1581.85 649.08V633.08V617.08C1583.56 617.08 1585.5 617.548 1587.27 618.644L1578.85 632.248ZM1610.81 655.992H1594.81C1594.81 664.829 1601.97 671.992 1610.81 671.992V655.992ZM1610.81 645.496V629.496C1601.97 629.496 1594.81 636.659 1594.81 645.496H1610.81ZM1628.35 644.856L1618.21 632.473C1618 632.649 1617.79 632.83 1617.58 633.017L1628.35 644.856ZM1629.05 637.496H1645.05C1645.05 628.659 1637.89 621.496 1629.05 621.496V637.496ZM1628.67 637.496V621.496C1623.68 621.496 1618.98 623.818 1615.96 627.777L1628.67 637.496ZM1626.55 639.608L1636.47 652.166C1636.49 652.145 1636.52 652.123 1636.55 652.102L1626.55 639.608ZM1623.55 641.144L1618.65 625.912C1618.59 625.929 1618.54 625.947 1618.49 625.965L1623.55 641.144ZM1611.77 639.672L1603.08 653.105C1603.14 653.146 1603.2 653.185 1603.27 653.225L1611.77 639.672ZM1606.71 634.04L1592.45 641.299L1606.71 634.04ZM1606.97 617.848L1621.14 625.281C1621.15 625.249 1621.17 625.218 1621.19 625.186L1606.97 617.848ZM1613.05 611.512L1621.15 625.309C1621.21 625.277 1621.26 625.245 1621.31 625.213L1613.05 611.512ZM1632.51 611.384L1624.66 625.329C1624.75 625.377 1624.83 625.425 1624.92 625.472L1632.51 611.384ZM1638.97 617.656L1625.08 625.594C1625.11 625.649 1625.14 625.704 1625.17 625.759L1638.97 617.656ZM1638.52 653.24L1649.7 664.683L1649.7 664.683L1638.52 653.24ZM1626.04 631.096L1634.27 644.816L1634.27 644.816L1626.04 631.096ZM1628.03 629.048L1614.13 621.11C1614.09 621.185 1614.05 621.261 1614.01 621.337L1628.03 629.048ZM1628.03 623.16L1613.85 630.584C1613.94 630.757 1614.04 630.929 1614.13 631.098L1628.03 623.16ZM1626.04 621.048L1617.32 634.463C1617.48 634.568 1617.65 634.669 1617.81 634.768L1626.04 621.048ZM1620.22 620.984L1612.28 607.092C1612.18 607.148 1612.08 607.206 1611.99 607.264L1620.22 620.984ZM1618.17 623.096L1604.28 615.158C1604.18 615.327 1604.09 615.499 1604 615.672L1618.17 623.096ZM1618.17 629.048L1604 636.472C1604.14 636.746 1604.29 637.015 1604.45 637.28L1618.17 629.048ZM1620.22 631.096L1611.99 644.816C1612.08 644.874 1612.18 644.932 1612.28 644.988L1620.22 631.096ZM1610.81 655.992H1626.81V645.496H1610.81H1594.81V655.992H1610.81ZM1610.81 645.496V661.496H1626.49V645.496V629.496H1610.81V645.496ZM1626.49 645.496V661.496C1630.36 661.496 1635.1 660.339 1639.11 656.695L1628.35 644.856L1617.58 633.017C1620.65 630.226 1624.16 629.496 1626.49 629.496V645.496ZM1628.35 644.856L1638.48 657.239C1643.16 653.41 1645.05 648.056 1645.05 643.256H1629.05H1613.05C1613.05 641.755 1613.31 639.807 1614.23 637.724C1615.17 635.588 1616.58 633.81 1618.21 632.473L1628.35 644.856ZM1629.05 643.256H1645.05V637.496H1629.05H1613.05V643.256H1629.05ZM1629.05 637.496V621.496H1628.67V637.496V653.496H1629.05V637.496ZM1628.67 637.496L1615.96 627.777C1616.33 627.292 1616.59 627.089 1616.56 627.114L1626.55 639.608L1636.55 652.102C1638.22 650.761 1639.9 649.151 1641.38 647.215L1628.67 637.496ZM1626.55 639.608L1616.64 627.05C1617.61 626.282 1618.4 625.99 1618.65 625.912L1623.55 641.144L1628.44 656.376C1631.08 655.53 1633.87 654.214 1636.47 652.166L1626.55 639.608ZM1623.55 641.144L1618.49 625.965C1618.97 625.803 1619.31 625.746 1619.45 625.727C1619.58 625.708 1619.57 625.72 1619.39 625.72V641.72V657.72C1622.19 657.72 1625.38 657.398 1628.61 656.323L1623.55 641.144ZM1619.39 641.72V625.72C1619.19 625.72 1619.24 625.698 1619.46 625.757C1619.69 625.819 1619.98 625.937 1620.27 626.119L1611.77 639.672L1603.27 653.225C1608.31 656.389 1613.88 657.72 1619.39 657.72V641.72ZM1611.77 639.672L1620.46 626.239C1620.53 626.282 1620.65 626.377 1620.78 626.52C1620.91 626.661 1620.97 626.768 1620.97 626.781L1606.71 634.04L1592.45 641.299C1594.91 646.116 1598.49 650.14 1603.08 653.105L1611.77 639.672ZM1606.71 634.04L1620.97 626.781C1620.97 626.774 1620.96 626.769 1620.96 626.737C1620.95 626.701 1620.92 626.566 1620.92 626.296H1604.92H1588.92C1588.92 631.456 1590.04 636.549 1592.45 641.299L1606.71 634.04ZM1604.92 626.296H1620.92C1620.92 625.773 1621.01 625.519 1621.14 625.281L1606.97 617.848L1592.8 610.415C1590.19 615.383 1588.92 620.76 1588.92 626.296H1604.92ZM1606.97 617.848L1621.19 625.186C1621.19 625.19 1621.17 625.215 1621.15 625.253C1621.12 625.291 1621.09 625.327 1621.06 625.358C1621.03 625.388 1621.01 625.4 1621.02 625.395C1621.03 625.389 1621.07 625.358 1621.15 625.309L1613.05 611.512L1604.95 597.715C1599.78 600.75 1595.57 605.047 1592.75 610.51L1606.97 617.848ZM1613.05 611.512L1621.31 625.213C1621.18 625.294 1621.16 625.272 1621.36 625.222C1621.58 625.168 1622.07 625.08 1622.91 625.08V609.08V593.08C1616.8 593.08 1610.5 594.367 1604.79 597.811L1613.05 611.512ZM1622.91 609.08V625.08C1623.62 625.08 1624.08 625.155 1624.32 625.214C1624.56 625.27 1624.65 625.322 1624.66 625.329L1632.51 611.384L1640.35 597.439C1634.84 594.341 1628.85 593.08 1622.91 593.08V609.08ZM1632.51 611.384L1624.92 625.472C1625 625.515 1625.04 625.545 1625.06 625.556C1625.07 625.566 1625.07 625.566 1625.06 625.555C1625.05 625.544 1625.04 625.534 1625.04 625.532C1625.04 625.53 1625.05 625.547 1625.08 625.594L1638.97 617.656L1652.86 609.718C1649.81 604.383 1645.45 600.183 1640.09 597.296L1632.51 611.384ZM1638.97 617.656L1625.17 625.759C1625.17 625.76 1625.2 625.8 1625.24 625.939C1625.27 626.088 1625.34 626.421 1625.34 627H1641.34H1657.34C1657.34 621.005 1655.98 615.017 1652.77 609.553L1638.97 617.656ZM1641.34 627H1625.34V645.752H1641.34H1657.34V627H1641.34ZM1641.34 645.752H1625.34C1625.34 645.751 1625.34 645.617 1625.38 645.375C1625.42 645.13 1625.5 644.78 1625.66 644.36C1626 643.453 1626.58 642.543 1627.34 641.797L1638.52 653.24L1649.7 664.683C1655.27 659.24 1657.34 652.279 1657.34 645.752H1641.34ZM1638.52 653.24L1627.34 641.797C1628.17 640.981 1629.1 640.468 1629.87 640.2C1630.57 639.955 1630.91 639.992 1630.65 639.992V655.992V671.992C1636.96 671.992 1644.06 670.203 1649.7 664.683L1638.52 653.24ZM1630.65 655.992V639.992H1610.81V655.992V671.992H1630.65V655.992ZM1623.16 631.864V647.864C1626.91 647.864 1630.75 646.927 1634.27 644.816L1626.04 631.096L1617.81 617.376C1619.62 616.289 1621.54 615.864 1623.16 615.864V631.864ZM1626.04 631.096L1634.27 644.816C1637.5 642.881 1640.18 640.148 1642.04 636.759L1628.03 629.048L1614.01 621.337C1614.93 619.655 1616.29 618.287 1617.81 617.376L1626.04 631.096ZM1628.03 629.048L1641.92 636.986C1643.8 633.692 1644.79 629.999 1644.79 626.168H1628.79H1612.79C1612.79 624.385 1613.28 622.612 1614.13 621.11L1628.03 629.048ZM1628.79 626.168H1644.79C1644.79 622.49 1643.91 618.716 1641.92 615.222L1628.03 623.16L1614.13 631.098C1613.16 629.396 1612.79 627.627 1612.79 626.168H1628.79ZM1628.03 623.16L1642.2 615.736C1640.39 612.28 1637.69 609.379 1634.27 607.328L1626.04 621.048L1617.81 634.768C1616.1 633.741 1614.72 632.248 1613.85 630.584L1628.03 623.16ZM1626.04 621.048L1634.76 607.633C1631.18 605.308 1627.17 604.216 1623.16 604.216V620.216V636.216C1621.29 636.216 1619.19 635.679 1617.32 634.463L1626.04 621.048ZM1623.16 620.216V604.216C1619.41 604.216 1615.68 605.151 1612.28 607.092L1620.22 620.984L1628.16 634.876C1626.55 635.793 1624.78 636.216 1623.16 636.216V620.216ZM1620.22 620.984L1611.99 607.264C1608.69 609.24 1606.1 611.973 1604.28 615.158L1618.17 623.096L1632.06 631.034C1631.27 632.427 1630.04 633.752 1628.45 634.704L1620.22 620.984ZM1618.17 623.096L1604 615.672C1602.21 619.074 1601.47 622.664 1601.47 626.104H1617.47H1633.47C1633.47 627.325 1633.19 628.91 1632.34 630.52L1618.17 623.096ZM1617.47 626.104H1601.47C1601.47 629.611 1602.26 633.16 1604 636.472L1618.17 629.048L1632.34 621.624C1633.14 623.144 1633.47 624.73 1633.47 626.104H1617.47ZM1618.17 629.048L1604.45 637.28C1606.31 640.385 1608.88 642.953 1611.99 644.816L1620.22 631.096L1628.45 617.376C1629.85 618.215 1631.05 619.417 1631.89 620.816L1618.17 629.048ZM1620.22 631.096L1612.28 644.988C1615.68 646.929 1619.41 647.864 1623.16 647.864V631.864V615.864C1624.78 615.864 1626.55 616.287 1628.16 617.204L1620.22 631.096ZM1655.33 641.08L1648.87 655.719L1655.33 641.08ZM1648.42 635.512L1635.14 644.44C1635.2 644.528 1635.26 644.616 1635.32 644.703L1648.42 635.512ZM1648.42 616.824L1635 608.104L1648.42 616.824ZM1654.88 611.064L1661.85 625.467C1661.88 625.451 1661.91 625.436 1661.95 625.42L1654.88 611.064ZM1671.46 611L1663.9 625.104C1664 625.157 1664.1 625.209 1664.2 625.26L1671.46 611ZM1677.22 616.376L1663.5 624.608C1663.53 624.669 1663.57 624.729 1663.61 624.789L1677.22 616.376ZM1679.27 627.64L1695.21 628.969C1695.21 628.951 1695.21 628.934 1695.21 628.916L1679.27 627.64ZM1678.88 630.264V646.264C1686.31 646.264 1692.76 641.156 1694.46 633.929L1678.88 630.264ZM1658.53 630.264V614.264C1653.64 614.264 1649.02 616.498 1645.99 620.33C1642.95 624.162 1641.84 629.171 1642.95 633.929L1658.53 630.264ZM1659.49 632.12L1647.7 642.932C1647.85 643.102 1648.01 643.27 1648.18 643.434L1659.49 632.12ZM1661.41 633.144L1665.48 617.671H1665.48L1661.41 633.144ZM1676 633.464H1692C1692 624.627 1684.84 617.464 1676 617.464V633.464ZM1676 643V659C1684.84 659 1692 651.837 1692 643H1676ZM1657.95 623.48L1642.08 621.495C1641.51 626.049 1642.92 630.628 1645.96 634.069C1649 637.509 1653.36 639.48 1657.95 639.48V623.48ZM1668.07 623.48V639.48C1676.9 639.48 1684.07 632.317 1684.07 623.48H1668.07ZM1667.23 620.728L1653.51 628.96C1653.84 629.512 1654.21 630.043 1654.6 630.551L1667.23 620.728ZM1666.27 619.64L1655.64 631.599C1655.91 631.831 1656.17 632.055 1656.45 632.27L1666.27 619.64ZM1664.87 618.872L1659.81 634.051C1659.92 634.09 1660.04 634.128 1660.16 634.164L1664.87 618.872ZM1660.96 619L1655.02 604.144C1654.9 604.193 1654.78 604.242 1654.66 604.294L1660.96 619ZM1659.43 620.024L1648.11 608.71V608.71L1659.43 620.024ZM1658.4 621.56L1643.7 615.257C1643.57 615.561 1643.44 615.868 1643.33 616.179L1658.4 621.56ZM1665.25 643V627C1663.39 627 1662.34 626.684 1661.79 626.441L1655.33 641.08L1648.87 655.719C1654.12 658.036 1659.69 659 1665.25 659V643ZM1655.33 641.08L1661.79 626.441C1661.65 626.382 1661.57 626.335 1661.52 626.307C1661.48 626.279 1661.46 626.265 1661.46 626.268C1661.47 626.271 1661.48 626.282 1661.49 626.298C1661.51 626.315 1661.52 626.325 1661.51 626.321L1648.42 635.512L1635.32 644.703C1638.82 649.684 1643.49 653.344 1648.87 655.719L1655.33 641.08ZM1648.42 635.512L1661.69 626.584C1661.77 626.702 1661.84 626.82 1661.89 626.927C1661.94 627.033 1661.96 627.106 1661.97 627.135C1661.98 627.192 1661.92 627.008 1661.92 626.488H1645.92H1629.92C1629.92 632.602 1631.39 638.863 1635.14 644.44L1648.42 635.512ZM1645.92 626.488H1661.92C1661.92 625.678 1662.01 625.269 1662.04 625.161C1662.06 625.076 1662.02 625.249 1661.83 625.544L1648.42 616.824L1635 608.104C1631.25 613.881 1629.92 620.345 1629.92 626.488H1645.92ZM1648.42 616.824L1661.83 625.544C1661.89 625.462 1661.92 625.418 1661.93 625.403C1661.95 625.389 1661.94 625.393 1661.93 625.409C1661.91 625.426 1661.89 625.443 1661.86 625.457C1661.84 625.471 1661.84 625.473 1661.85 625.467L1654.88 611.064L1647.91 596.661C1642.54 599.263 1638.19 603.197 1635 608.104L1648.42 616.824ZM1654.88 611.064L1661.95 625.42C1662.48 625.159 1662.88 625.08 1663.33 625.08V609.08V593.08C1657.89 593.08 1652.66 594.323 1647.82 596.708L1654.88 611.064ZM1663.33 609.08V625.08C1663.71 625.08 1663.91 625.12 1663.96 625.131C1664 625.141 1663.96 625.137 1663.9 625.104L1671.46 611L1679.01 596.896C1674.04 594.231 1668.68 593.08 1663.33 593.08V609.08ZM1671.46 611L1664.2 625.26C1664.14 625.227 1663.98 625.134 1663.8 624.969C1663.63 624.804 1663.53 624.661 1663.5 624.608L1677.22 616.376L1690.94 608.144C1687.99 603.229 1683.83 599.344 1678.71 596.74L1671.46 611ZM1677.22 616.376L1663.61 624.789C1663.53 624.663 1663.47 624.542 1663.43 624.438C1663.38 624.335 1663.36 624.265 1663.36 624.239C1663.34 624.187 1663.39 624.357 1663.39 624.824H1679.39H1695.39C1695.39 619.139 1694.12 613.284 1690.83 607.963L1677.22 616.376ZM1679.39 624.824H1663.39C1663.39 625.099 1663.38 625.597 1663.32 626.364L1679.27 627.64L1695.21 628.916C1695.32 627.55 1695.39 626.17 1695.39 624.824H1679.39ZM1679.27 627.64L1663.32 626.311C1663.3 626.544 1663.28 626.685 1663.27 626.747C1663.26 626.812 1663.27 626.755 1663.31 626.599L1678.88 630.264L1694.46 633.929C1694.86 632.209 1695.08 630.508 1695.21 628.969L1679.27 627.64ZM1678.88 630.264V614.264H1658.53V630.264V646.264H1678.88V630.264ZM1658.53 630.264L1642.95 633.929C1643.71 637.12 1645.24 640.254 1647.7 642.932L1659.49 632.12L1671.28 621.308C1672.8 622.962 1673.69 624.858 1674.1 626.599L1658.53 630.264ZM1659.49 632.12L1648.18 643.434C1651.11 646.368 1654.5 647.87 1657.34 648.617L1661.41 633.144L1665.48 617.671C1666.7 617.992 1668.81 618.81 1670.8 620.806L1659.49 632.12ZM1661.41 633.144L1657.34 648.617C1659.73 649.247 1662.05 649.464 1664.16 649.464V633.464V617.464C1664.22 617.464 1664.71 617.467 1665.48 617.671L1661.41 633.144ZM1664.16 633.464V649.464H1676V633.464V617.464H1664.16V633.464ZM1676 633.464H1660V643H1676H1692V633.464H1676ZM1676 643V627H1665.25V643V659H1676V643ZM1657.95 623.48V639.48H1668.07V623.48V607.48H1657.95V623.48ZM1668.07 623.48H1684.07C1684.07 621.621 1683.83 619.71 1683.31 617.798L1667.87 622.008L1652.44 626.218C1652.17 625.245 1652.07 624.315 1652.07 623.48H1668.07ZM1667.87 622.008L1683.31 617.798C1682.63 615.291 1681.46 612.956 1679.86 610.905L1667.23 620.728L1654.6 630.551C1653.61 629.268 1652.87 627.787 1652.44 626.218L1667.87 622.008ZM1667.23 620.728L1680.95 612.496C1679.7 610.415 1678.08 608.55 1676.1 607.01L1666.27 619.64L1656.45 632.27C1655.24 631.328 1654.25 630.188 1653.51 628.96L1667.23 620.728ZM1666.27 619.64L1676.9 607.681C1674.6 605.631 1672.03 604.337 1669.57 603.58L1664.87 618.872L1660.16 634.164C1658.81 633.749 1657.18 632.966 1655.64 631.599L1666.27 619.64ZM1664.87 618.872L1669.93 603.693C1667.51 602.888 1665.19 602.616 1663.14 602.616V618.616V634.616C1662.37 634.616 1661.2 634.514 1659.81 634.051L1664.87 618.872ZM1663.14 618.616V602.616C1660.64 602.616 1657.85 603.012 1655.02 604.144L1660.96 619L1666.9 633.856C1665.35 634.476 1664.01 634.616 1663.14 634.616V618.616ZM1660.96 619L1654.66 604.294C1652.34 605.289 1650.09 606.737 1648.11 608.71L1659.43 620.024L1670.74 631.338C1669.62 632.458 1668.39 633.223 1667.26 633.706L1660.96 619ZM1659.43 620.024L1648.11 608.71C1646.14 610.684 1644.69 612.934 1643.7 615.257L1658.4 621.56L1673.11 627.863C1672.62 628.991 1671.86 630.217 1670.74 631.338L1659.43 620.024ZM1658.4 621.56L1643.33 616.179C1642.7 617.964 1642.3 619.751 1642.08 621.495L1657.95 623.48L1673.83 625.465C1673.78 625.843 1673.68 626.351 1673.47 626.941L1658.4 621.56ZM1684.13 643H1668.13C1668.13 651.837 1675.29 659 1684.13 659V643ZM1684.13 596.28V580.28C1675.29 580.28 1668.13 587.443 1668.13 596.28H1684.13ZM1696.35 596.28H1712.35C1712.35 587.443 1705.19 580.28 1696.35 580.28V596.28ZM1696.35 643V659C1705.19 659 1712.35 651.837 1712.35 643H1696.35ZM1684.13 643H1700.13V596.28H1684.13H1668.13V643H1684.13ZM1684.13 596.28V612.28H1696.35V596.28V580.28H1684.13V596.28ZM1696.35 596.28H1680.35V643H1696.35H1712.35V596.28H1696.35ZM1696.35 643V627H1684.13V643V659H1696.35V643ZM1703.43 619.32L1688.4 613.827C1686.61 618.734 1687.32 624.207 1690.32 628.488C1693.31 632.77 1698.21 635.32 1703.43 635.32V619.32ZM1706.82 610.04L1721.85 615.533C1724.67 607.804 1721.18 599.194 1713.76 595.624L1706.82 610.04ZM1704.01 607.608L1690.53 616.233C1690.61 616.358 1690.69 616.482 1690.78 616.605L1704.01 607.608ZM1704.9 599.288L1693.78 587.79C1693.71 587.851 1693.65 587.912 1693.59 587.974L1704.9 599.288ZM1714.37 599.416L1702.52 610.16C1702.58 610.227 1702.64 610.293 1702.7 610.359L1714.37 599.416ZM1715.85 607.736L1700.4 603.576C1700.35 603.763 1700.3 603.95 1700.26 604.138L1715.85 607.736ZM1714.69 611.32L1699.84 605.378C1699.8 605.481 1699.76 605.585 1699.72 605.689L1714.69 611.32ZM1711.69 619.32V635.32C1718.35 635.32 1724.32 631.189 1726.66 624.951L1711.69 619.32ZM1703.43 619.32L1718.46 624.813L1721.85 615.533L1706.82 610.04L1691.79 604.547L1688.4 613.827L1703.43 619.32ZM1706.82 610.04L1713.76 595.624C1715.17 596.302 1716.39 597.371 1717.24 598.611L1704.01 607.608L1690.78 616.605C1693.07 619.978 1696.17 622.669 1699.88 624.456L1706.82 610.04ZM1704.01 607.608L1717.48 598.983C1718.34 600.329 1718.98 602.167 1718.98 604.216H1702.98H1686.98C1686.98 608.655 1688.3 612.753 1690.53 616.233L1704.01 607.608ZM1702.98 604.216H1718.98C1718.98 604.93 1718.86 606.022 1718.37 607.288C1717.86 608.587 1717.1 609.718 1716.22 610.602L1704.9 599.288L1693.59 587.974C1688.97 592.592 1686.98 598.469 1686.98 604.216H1702.98ZM1704.9 599.288L1716.03 610.786C1715.4 611.39 1714.47 612.09 1713.2 612.617C1711.92 613.151 1710.64 613.368 1709.51 613.368V597.368V581.368C1703.37 581.368 1697.91 583.789 1693.78 587.79L1704.9 599.288ZM1709.51 597.368V613.368C1708.68 613.368 1707.43 613.22 1706.02 612.626C1704.58 612.019 1703.39 611.124 1702.52 610.16L1714.37 599.416L1726.23 588.672C1721.67 583.642 1715.59 581.368 1709.51 581.368V597.368ZM1714.37 599.416L1702.7 610.359C1702.03 609.645 1701.37 608.677 1700.91 607.48C1700.44 606.292 1700.29 605.193 1700.29 604.344H1716.29H1732.29C1732.29 598.476 1730.19 592.888 1726.05 588.473L1714.37 599.416ZM1716.29 604.344H1700.29C1700.29 604.095 1700.33 603.827 1700.4 603.576L1715.85 607.736L1731.3 611.896C1731.96 609.426 1732.29 606.897 1732.29 604.344H1716.29ZM1715.85 607.736L1700.26 604.138C1700.22 604.303 1700.11 604.706 1699.84 605.378L1714.69 611.32L1729.55 617.262C1730.31 615.374 1730.96 613.388 1731.44 611.334L1715.85 607.736ZM1714.69 611.32L1699.72 605.689L1696.71 613.689L1711.69 619.32L1726.66 624.951L1729.67 616.951L1714.69 611.32ZM1711.69 619.32V603.32H1703.43V619.32V635.32H1711.69V619.32Z" fill="#672E13" mask="url(#path-5-outside-1_183_63)"/>
</g>
<defs>
<clipPath id="clip0_183_63">
<rect width="3232" height="1432" fill="white"/>
</clipPath>
</defs>
</svg>
