<svg width="59" height="41" viewBox="0 0 59 41" fill="none" xmlns="http://www.w3.org/2000/svg">
<path d="M21.9468 27.55C25.6523 27.55 28.6567 30.5544 28.6567 34.26C28.6567 34.3789 28.6531 34.4971 28.647 34.6145H57.3491C58.1774 34.6146 58.8491 35.2861 58.8491 36.1145C58.849 36.9427 58.1774 37.6143 57.3491 37.6145H27.7563C26.5961 39.6193 24.4297 40.969 21.9468 40.969C19.4638 40.969 17.2975 39.6193 16.1372 37.6145H1.64111C0.812769 37.6145 0.141247 36.9428 0.141113 36.1145C0.141113 35.286 0.812686 34.6145 1.64111 34.6145H15.2466C15.2405 34.4971 15.2378 34.3789 15.2378 34.26C15.2378 30.5545 18.2413 27.55 21.9468 27.55ZM43.7524 14.1311C47.4578 14.1311 50.4612 17.1347 50.4614 20.8401C50.4614 20.9592 50.4588 21.078 50.4526 21.1955H57.3491C58.1774 21.1957 58.8491 21.8672 58.8491 22.6955C58.849 23.5238 58.1774 24.1954 57.3491 24.1955H49.562C48.4017 26.2003 46.2354 27.55 43.7524 27.55C41.2695 27.55 39.1031 26.2003 37.9429 24.1955H1.64111C0.812757 24.1955 0.141228 23.5239 0.141113 22.6955C0.141113 21.8671 0.812686 21.1955 1.64111 21.1955H37.0522C37.0461 21.078 37.0435 20.9592 37.0435 20.8401C37.0437 17.1347 40.0471 14.1311 43.7524 14.1311ZM13.5601 0.712128C17.2654 0.71222 20.2688 3.71585 20.269 7.42111C20.269 7.54021 20.2654 7.65901 20.2593 7.77658H57.3491C58.1774 7.77671 58.8491 8.44824 58.8491 9.27658C58.849 10.1048 58.1773 10.7764 57.3491 10.7766H19.3696C18.2094 12.7814 16.043 14.131 13.5601 14.1311C11.0771 14.1311 8.91077 12.7813 7.75049 10.7766H1.64111C0.812786 10.7766 0.141275 10.1049 0.141113 9.27658C0.141113 8.44815 0.812686 7.77658 1.64111 7.77658H6.85986C6.85373 7.65902 6.8501 7.5402 6.8501 7.42111C6.85035 3.71579 9.85468 0.712128 13.5601 0.712128Z" fill="#0E900E"/>
</svg>
