<svg width="427" height="286" viewBox="0 0 427 286" fill="none" xmlns="http://www.w3.org/2000/svg">
<circle cx="327" cy="186" r="100" fill="url(#paint0_radial_24_430)"/>
<path d="M327 148C351.853 148 372 168.147 372 193C372 204.827 367.437 215.588 359.976 223.619C354.135 229.905 352 240.419 352 249C352 262.807 340.807 274 327 274C313.193 274 302 262.807 302 249C302 240.419 299.864 229.905 294.024 223.619C286.563 215.588 282 204.827 282 193C282 168.147 302.147 148 327 148Z" fill="url(#paint1_linear_24_430)"/>
<path d="M44.16 166.472C49.28 166.472 53.0347 166.216 55.424 165.704L57.984 184.392C56.704 183.965 55.0827 183.667 53.12 183.496C51.1573 183.24 48 183.112 43.648 183.112H32.768V191.56C32.768 201.288 32.896 207.731 33.152 210.888C33.4933 213.96 34.2187 217.331 35.328 221H8.448C9.64267 217.416 10.368 214.131 10.624 211.144C10.88 208.072 11.008 201.544 11.008 191.56V158.28C11.008 152.136 10.9653 147.059 10.88 143.048C10.7947 139.037 10.5813 136.179 10.24 134.472C9.984 132.68 9.42933 130.76 8.576 128.712H20.224H25.6H43.264C47.1893 128.712 50.2613 128.669 52.48 128.584C54.6987 128.499 56.832 128.243 58.88 127.816L64.896 147.784C62.6773 146.845 60.3307 146.248 57.856 145.992C55.3813 145.651 50.816 145.48 44.16 145.48H33.152C32.896 148.979 32.768 155.976 32.768 166.472H44.16ZM73.945 148.168C73.945 142.707 73.7317 138.568 73.305 135.752C72.9637 132.936 72.2383 130.547 71.129 128.584L94.297 123.848C94.297 130.931 94.3397 137.587 94.425 143.816V196.552C94.425 204.573 94.5957 210.077 94.937 213.064C95.2783 215.965 96.0463 218.653 97.241 221.128H71.129C72.3237 218.653 73.0917 215.965 73.433 213.064C73.7743 210.077 73.945 204.573 73.945 196.552V148.168ZM139.236 222.28C132.58 222.28 126.735 220.872 121.7 218.056C116.665 215.24 112.74 211.357 109.924 206.408C107.193 201.373 105.828 195.613 105.828 189.128C105.828 182.643 107.193 176.883 109.924 171.848C112.74 166.813 116.665 162.931 121.7 160.2C126.735 157.384 132.58 155.976 139.236 155.976C145.892 155.976 151.737 157.384 156.772 160.2C161.807 162.931 165.689 166.813 168.42 171.848C171.151 176.797 172.516 182.557 172.516 189.128C172.516 195.613 171.151 201.373 168.42 206.408C165.689 211.357 161.807 215.24 156.772 218.056C151.737 220.872 145.892 222.28 139.236 222.28ZM140.132 207.176C143.716 207.176 146.575 205.597 148.708 202.44C150.927 199.283 152.036 195.229 152.036 190.28C152.036 184.307 150.799 179.613 148.324 176.2C145.935 172.787 142.692 171.08 138.596 171.08C134.841 171.08 131.855 172.573 129.636 175.56C127.417 178.547 126.308 182.6 126.308 187.72C126.308 193.608 127.588 198.344 130.148 201.928C132.708 205.427 136.036 207.176 140.132 207.176ZM268.973 157.128C267.181 161.48 265.432 167.368 263.725 174.792L259.373 194.12C256.557 206.408 254.85 215.368 254.253 221H230.445C230.018 216.733 228.61 209.181 226.221 198.344L224.429 190.024C223.576 186.269 222.765 181.875 221.997 176.84L219.693 190.024L217.773 198.728C215.725 208.285 214.488 215.709 214.061 221H188.845C188.333 215.453 186.669 206.621 183.853 194.504L179.373 174.664C178.434 170.483 177.581 167.155 176.813 164.68C176.13 162.205 175.277 159.688 174.253 157.128H196.781C196.696 158.067 196.653 159.475 196.653 161.352C196.653 164.595 197.122 169.203 198.061 175.176L199.597 184.776C200.194 188.104 200.536 190.28 200.621 191.304C201.73 197.789 202.37 202.099 202.541 204.232C203.053 200.477 204.248 193.907 206.125 184.52L208.429 173.768L209.709 167.24C210.818 161.352 211.458 157.981 211.629 157.128H232.493C233.176 161.821 234.2 167.581 235.565 174.408L237.869 184.648C239.661 193.011 240.813 199.325 241.325 203.592C242.093 197.789 243.032 191.517 244.141 184.776L245.805 174.024C246.573 168.648 246.957 164.552 246.957 161.736C246.957 159.688 246.872 158.152 246.701 157.128H268.973Z" fill="white"/>
<path d="M112.008 78.024C112.008 68.1253 111.88 61.6827 111.624 58.696C111.368 55.624 110.685 52.2533 109.576 48.584H136.456C135.603 51.2293 135.005 53.4907 134.664 55.368C134.323 57.16 134.067 59.6773 133.896 62.92C133.811 66.0773 133.768 71.112 133.768 78.024V111.56C133.768 121.288 133.896 127.731 134.152 130.888C134.493 133.96 135.219 137.331 136.328 141H109.448C110.643 137.416 111.368 134.131 111.624 131.144C111.88 128.072 112.008 121.544 112.008 111.56V78.024ZM213.099 121.16C213.099 123.891 213.398 125.896 213.995 127.176C214.592 128.456 215.744 129.096 217.451 129.096C218.219 129.096 219.371 128.883 220.907 128.456L218.475 141.128C214.379 142.237 210.368 142.792 206.443 142.792C201.75 142.792 198.251 141.555 195.947 139.08C193.728 136.52 192.619 132.893 192.619 128.2V123.848C191.083 129.907 188.651 134.515 185.323 137.672C182.08 140.744 177.558 142.28 171.755 142.28C167.488 142.28 163.563 141.085 159.979 138.696C156.395 136.307 153.536 132.765 151.403 128.072C149.27 123.293 148.203 117.533 148.203 110.792C148.203 103.368 149.654 97.0533 152.555 91.848C155.456 86.5573 159.339 82.5893 164.203 79.944C169.152 77.2987 174.656 75.976 180.715 75.976C182.678 75.976 184.555 76.1893 186.347 76.616C188.139 76.9573 190.23 77.5973 192.619 78.536L192.747 68.168C192.747 62.7067 192.534 58.568 192.107 55.752C191.766 52.936 191.083 50.5467 190.059 48.584L213.227 44.104V49.992V63.944L213.099 121.16ZM180.715 125.512C183.104 125.512 185.366 125.043 187.499 124.104C189.632 123.165 191.339 122.141 192.619 121.032V92.488C189.376 91.5493 186.304 91.08 183.403 91.08C179.307 91.08 175.851 92.488 173.035 95.304C170.219 98.12 168.811 102.771 168.811 109.256C168.811 114.547 169.92 118.6 172.139 121.416C174.358 124.147 177.216 125.512 180.715 125.512ZM246.558 109.768C246.899 115.656 248.563 120.051 251.55 122.952C254.537 125.768 258.633 127.176 263.838 127.176C266.995 127.176 269.854 126.792 272.414 126.024C275.059 125.171 277.961 123.805 281.118 121.928L278.686 138.44C275.358 139.635 272.158 140.573 269.086 141.256C266.014 141.939 262.43 142.28 258.334 142.28C252.19 142.28 246.643 140.957 241.694 138.312C236.83 135.667 232.99 131.869 230.174 126.92C227.443 121.971 226.078 116.211 226.078 109.64C226.078 102.643 227.443 96.6267 230.174 91.592C232.99 86.472 236.83 82.5893 241.694 79.944C246.643 77.2987 252.233 75.976 258.462 75.976C266.569 75.976 272.67 78.1947 276.766 82.632C280.947 86.984 283.038 92.872 283.038 100.296C283.038 101.917 282.825 103.752 282.398 105.8C282.057 107.848 281.587 109.683 280.99 111.304L246.558 109.768ZM257.822 91.08C254.75 91.08 252.105 92.5307 249.886 95.432C247.753 98.248 246.643 102.131 246.558 107.08L265.758 103.88C265.929 102.6 266.014 101.149 266.014 99.528C266.014 97.0533 265.331 95.048 263.966 93.512C262.601 91.8907 260.553 91.08 257.822 91.08ZM344.35 124.232C344.35 127.56 345.673 129.224 348.318 129.224C349.513 129.224 350.835 128.925 352.286 128.328L349.598 141C346.014 142.195 342.473 142.792 338.974 142.792C329.331 142.792 324.51 138.525 324.51 129.992V126.664C323.401 131.528 321.267 135.368 318.11 138.184C314.953 140.915 310.729 142.28 305.438 142.28C300.489 142.28 296.563 140.915 293.662 138.184C290.761 135.453 289.31 131.869 289.31 127.432C289.31 121.373 291.699 116.979 296.478 114.248C301.342 111.432 307.614 110.024 315.294 110.024C318.537 110.024 321.737 110.493 324.894 111.432C324.979 109.213 325.022 106.013 325.022 101.832C325.022 97.736 323.998 94.92 321.95 93.384C319.902 91.848 317.171 91.08 313.758 91.08C310.003 91.08 306.59 91.5067 303.518 92.36C300.531 93.2133 297.63 94.4933 294.814 96.2L298.014 78.664C305.523 76.872 312.862 75.976 320.03 75.976C329.161 75.976 335.646 77.896 339.486 81.736C343.326 85.4907 345.246 91.1653 345.246 98.76C345.246 100.637 345.203 102.813 345.118 105.288C345.033 107.763 344.947 109.64 344.862 110.92C344.521 116.552 344.35 120.989 344.35 124.232ZM315.55 128.968C317.513 128.968 319.305 128.584 320.926 127.816C322.547 127.048 323.785 125.896 324.638 124.36C324.638 122.141 324.723 118.472 324.894 113.352C319.091 113.693 315.038 114.717 312.734 116.424C310.43 118.131 309.278 120.435 309.278 123.336C309.278 125.213 309.833 126.621 310.942 127.56C312.051 128.499 313.587 128.968 315.55 128.968Z" fill="white"/>
<defs>
<radialGradient id="paint0_radial_24_430" cx="0" cy="0" r="1" gradientUnits="userSpaceOnUse" gradientTransform="translate(327 186) rotate(90) scale(100)">
<stop stop-color="#FBBB13"/>
<stop offset="1" stop-color="#FBBB13" stop-opacity="0"/>
</radialGradient>
<linearGradient id="paint1_linear_24_430" x1="327" y1="148" x2="327" y2="274" gradientUnits="userSpaceOnUse">
<stop stop-color="#FFDD83"/>
<stop offset="1" stop-color="#FBBB13"/>
</linearGradient>
</defs>
</svg>
