<svg width="200" height="116" viewBox="0 0 200 116" fill="none" xmlns="http://www.w3.org/2000/svg">
<ellipse cx="152.216" cy="67.8033" rx="47.7837" ry="47.7838" fill="url(#paint0_radial_24_208)"/>
<path d="M152.216 49.6455C164.092 49.6456 173.719 59.2729 173.719 71.1484C173.719 76.8007 171.538 81.9431 167.971 85.7807C165.18 88.7841 164.163 93.807 164.163 97.9072C164.163 104.505 158.814 109.853 152.216 109.853C145.619 109.853 140.27 104.505 140.27 97.9072C140.27 93.8071 139.252 88.7841 136.461 85.7807C132.895 81.9431 130.713 76.8006 130.713 71.1484C130.713 59.2728 140.341 49.6455 152.216 49.6455Z" fill="url(#paint1_linear_24_208)"/>
<path d="M17.0645 58.4721C19.5111 58.4721 21.3052 58.3497 22.4469 58.1051L23.6702 67.0349C23.0585 66.831 22.2838 66.6883 21.346 66.6068C20.4081 66.4845 18.8994 66.4233 16.8199 66.4233H11.621V70.4601C11.621 75.1085 11.6822 78.187 11.8045 79.6957C11.9676 81.1636 12.3142 82.7743 12.8443 84.5276H0C0.570857 82.815 0.917448 81.2452 1.03977 79.818C1.1621 78.3501 1.22326 75.2308 1.22326 70.4601V54.5576C1.22326 51.6218 1.20288 49.1956 1.1621 47.2792C1.12133 45.3627 1.01939 43.9968 0.856285 43.1813C0.733959 42.325 0.468918 41.4075 0.0611633 40.4289H16.6364C18.5121 40.4289 19.98 40.4085 21.0401 40.3677C22.1003 40.327 23.1197 40.2046 24.0983 40.0008L26.973 49.5422C25.9128 49.0937 24.7915 48.8083 23.609 48.6859C22.4265 48.5228 20.245 48.4413 17.0645 48.4413H11.8045C11.6822 50.1131 11.621 53.4567 11.621 58.4721H17.0645Z" fill="white"/>
<path d="M31.2969 49.7257C31.2969 47.1161 31.195 45.1385 30.9911 43.7929C30.828 42.4473 30.4814 41.3056 29.9513 40.3677L41.0219 38.1047C41.0219 41.4891 41.0423 44.6696 41.083 47.6462V72.8454C41.083 76.6783 41.1646 79.3083 41.3277 80.7355C41.4908 82.1219 41.8578 83.4063 42.4286 84.5888H29.9513C30.5222 83.4063 30.8892 82.1219 31.0523 80.7355C31.2154 79.3083 31.2969 76.6783 31.2969 72.8454V49.7257Z" fill="white"/>
<path d="M62.4954 85.1392C59.3149 85.1392 56.5218 84.4664 54.116 83.1208C51.7103 81.7753 49.8346 79.92 48.489 77.555C47.1842 75.1492 46.5318 72.3969 46.5318 69.298C46.5318 66.199 47.1842 63.4467 48.489 61.0409C49.8346 58.6352 51.7103 56.7799 54.116 55.4751C56.5218 54.1295 59.3149 53.4567 62.4954 53.4567C65.6759 53.4567 68.469 54.1295 70.8748 55.4751C73.2805 56.7799 75.1358 58.6352 76.4406 61.0409C77.7454 63.4059 78.3978 66.1582 78.3978 69.298C78.3978 72.3969 77.7454 75.1492 76.4406 77.555C75.1358 79.92 73.2805 81.7753 70.8748 83.1208C68.469 84.4664 65.6759 85.1392 62.4954 85.1392ZM62.9235 77.922C64.6361 77.922 66.0021 77.1676 67.0215 75.6589C68.0816 74.1502 68.6117 72.2134 68.6117 69.8484C68.6117 66.9941 68.0205 64.7515 66.838 63.1205C65.6963 61.4895 64.1468 60.6739 62.1896 60.6739C60.3955 60.6739 58.9683 61.3875 57.9082 62.8147C56.848 64.2418 56.3179 66.1786 56.3179 68.6252C56.3179 71.4387 56.9295 73.7017 58.1528 75.4143C59.3761 77.0861 60.9663 77.922 62.9235 77.922Z" fill="white"/>
<path d="M124.489 54.0071C123.632 56.0867 122.796 58.9002 121.981 62.4477L119.901 71.6833C118.556 77.555 117.74 81.8364 117.455 84.5276H106.078C105.875 82.4888 105.202 78.8802 104.06 73.7017L103.204 69.7261C102.796 67.932 102.409 65.832 102.042 63.4263L100.941 69.7261L100.023 73.8852C99.0447 78.4521 98.4535 81.9995 98.2496 84.5276H86.2004C85.9558 81.8772 85.1607 77.6569 83.8151 71.8668L81.6744 62.3865C81.2258 60.3885 80.8181 58.7983 80.4511 57.6158C80.1249 56.4333 79.7171 55.2304 79.2278 54.0071H89.9926C89.9518 54.4557 89.9314 55.1285 89.9314 56.0255C89.9314 57.575 90.1557 59.7769 90.6042 62.6312L91.3381 67.2184C91.6236 68.8086 91.7867 69.8484 91.8274 70.3377C92.3575 73.4367 92.6633 75.4958 92.7449 76.5152C92.9895 74.7211 93.5604 71.5814 94.4575 67.0961L95.5584 61.9584L96.17 58.839C96.7001 56.0255 97.0059 54.4149 97.0875 54.0071H107.057C107.383 56.2498 107.873 59.0021 108.525 62.2642L109.626 67.1572C110.482 71.1532 111.033 74.1706 111.277 76.2094C111.644 73.4367 112.093 70.4397 112.623 67.2184L113.418 62.0807C113.785 59.5118 113.969 57.5546 113.969 56.209C113.969 55.2304 113.928 54.4965 113.846 54.0071H124.489Z" fill="white"/>
<path d="M49.4848 16.2083C49.4848 11.4783 49.4237 8.39975 49.3013 6.97261C49.179 5.50469 48.8528 3.89406 48.3227 2.14071H61.167C60.7593 3.40475 60.4738 4.4853 60.3107 5.38237C60.1476 6.23865 60.0253 7.44153 59.9437 8.991C59.903 10.4997 59.8826 12.9054 59.8826 16.2083V32.233C59.8826 36.8814 59.9437 39.96 60.0661 41.4687C60.2292 42.9366 60.5758 44.5472 61.1058 46.3006H48.2616C48.8324 44.588 49.179 43.0182 49.3013 41.591C49.4237 40.1231 49.4848 37.0038 49.4848 32.233V16.2083Z" fill="white"/>
<path d="M97.7899 36.8203C97.7899 38.1251 97.9326 39.0833 98.218 39.695C98.5035 40.3066 99.0539 40.6124 99.8694 40.6124C100.236 40.6124 100.787 40.5105 101.521 40.3066L100.359 46.3617C98.4015 46.8918 96.4851 47.1569 94.6094 47.1569C92.3668 47.1569 90.695 46.5656 89.594 45.3831C88.5339 44.1599 88.0038 42.4269 88.0038 40.1843V38.1047C87.2698 40.9998 86.1077 43.2016 84.5175 44.7103C82.968 46.1782 80.8069 46.9122 78.0342 46.9122C75.9954 46.9122 74.1198 46.3414 72.4072 45.1996C70.6946 44.0579 69.3286 42.3657 68.3092 40.1231C67.2899 37.8397 66.7802 35.0873 66.7802 31.8661C66.7802 28.3186 67.4733 25.3012 68.8597 22.8139C70.2461 20.2858 72.1014 18.3897 74.4256 17.1257C76.7905 15.8617 79.4206 15.2296 82.3156 15.2296C83.2534 15.2296 84.1505 15.3316 85.0068 15.5355C85.8631 15.6986 86.8621 16.0044 88.0038 16.4529L88.0649 11.4987C88.0649 8.88906 87.963 6.91145 87.7591 5.56586C87.596 4.22026 87.2698 3.07855 86.7805 2.14071L97.8511 0V9.4803L97.7899 36.8203ZM82.3156 38.8998C83.4573 38.8998 84.5379 38.6756 85.5573 38.227C86.5766 37.7785 87.3922 37.2892 88.0038 36.7591V23.1197C86.4543 22.6712 84.9864 22.4469 83.6 22.4469C81.6428 22.4469 79.9914 23.1197 78.6458 24.4653C77.3002 25.8109 76.6274 28.0332 76.6274 31.1321C76.6274 33.6602 77.1575 35.597 78.2177 36.9426C79.2778 38.2474 80.6438 38.8998 82.3156 38.8998Z" fill="white"/>
<path d="M113.778 31.3767C113.941 34.1903 114.736 36.2902 116.163 37.6766C117.59 39.0222 119.548 39.695 122.035 39.695C123.544 39.695 124.91 39.5115 126.133 39.1445C127.397 38.7367 128.783 38.0843 130.292 37.1873L129.13 45.0773C127.54 45.6482 126.01 46.0967 124.543 46.4229C123.075 46.7491 121.362 46.9122 119.405 46.9122C116.469 46.9122 113.819 46.2802 111.454 45.0161C109.129 43.7521 107.295 41.9376 105.949 39.5726C104.644 37.2076 103.992 34.4553 103.992 31.3156C103.992 27.972 104.644 25.0973 105.949 22.6916C107.295 20.245 109.129 18.3897 111.454 17.1257C113.819 15.8617 116.489 15.2296 119.466 15.2296C123.34 15.2296 126.255 16.2898 128.212 18.4101C130.21 20.4897 131.209 23.3032 131.209 26.8507C131.209 27.6254 131.107 28.5021 130.904 29.4807C130.74 30.4593 130.516 31.336 130.231 32.1107L113.778 31.3767ZM119.16 22.4469C117.692 22.4469 116.428 23.1401 115.368 24.5265C114.349 25.8721 113.819 27.7273 113.778 30.0923L122.952 28.5632C123.034 27.9516 123.075 27.2584 123.075 26.4837C123.075 25.3012 122.748 24.343 122.096 23.609C121.444 22.8343 120.465 22.4469 119.16 22.4469Z" fill="white"/>
<path d="M160.507 38.2882C160.507 39.8784 161.139 40.6736 162.403 40.6736C162.973 40.6736 163.605 40.5308 164.299 40.2454L163.014 46.3006C161.302 46.8714 159.609 47.1569 157.938 47.1569C153.33 47.1569 151.026 45.1181 151.026 41.0405V39.4503C150.496 41.7745 149.477 43.6094 147.968 44.955C146.459 46.2598 144.441 46.9122 141.913 46.9122C139.548 46.9122 137.672 46.2598 136.286 44.955C134.9 43.6502 134.206 41.9376 134.206 39.8173C134.206 36.9222 135.348 34.8223 137.632 33.5175C139.956 32.1719 142.953 31.4991 146.622 31.4991C148.172 31.4991 149.701 31.7233 151.21 32.1719C151.251 31.1117 151.271 29.5826 151.271 27.5846C151.271 25.6274 150.782 24.2818 149.803 23.5479C148.824 22.8139 147.52 22.4469 145.889 22.4469C144.094 22.4469 142.463 22.6508 140.995 23.0585C139.568 23.4663 138.182 24.0779 136.836 24.8934L138.365 16.5141C141.954 15.6578 145.46 15.2296 148.886 15.2296C153.249 15.2296 156.347 16.1471 158.182 17.982C160.017 19.7761 160.935 22.4877 160.935 26.1167C160.935 27.0138 160.914 28.0535 160.874 29.236C160.833 30.4185 160.792 31.3156 160.751 31.9272C160.588 34.6184 160.507 36.7387 160.507 38.2882ZM146.745 40.5512C147.683 40.5512 148.539 40.3677 149.314 40.0008C150.088 39.6338 150.68 39.0833 151.087 38.3494C151.087 37.2892 151.128 35.5358 151.21 33.0893C148.437 33.2524 146.5 33.7417 145.399 34.5572C144.298 35.3727 143.748 36.4737 143.748 37.8601C143.748 38.7571 144.013 39.4299 144.543 39.8784C145.073 40.327 145.807 40.5512 146.745 40.5512Z" fill="white"/>
<defs>
<radialGradient id="paint0_radial_24_208" cx="0" cy="0" r="1" gradientUnits="userSpaceOnUse" gradientTransform="translate(152.216 67.8033) rotate(90) scale(47.7838 47.7837)">
<stop stop-color="#FBBB13"/>
<stop offset="1" stop-color="#FBBB13" stop-opacity="0"/>
</radialGradient>
<linearGradient id="paint1_linear_24_208" x1="152.216" y1="49.6455" x2="152.216" y2="109.853" gradientUnits="userSpaceOnUse">
<stop stop-color="#FFDD83"/>
<stop offset="1" stop-color="#FBBB13"/>
</linearGradient>
</defs>
</svg>
