<svg width="41" height="41" viewBox="0 0 41 41" fill="none" xmlns="http://www.w3.org/2000/svg">
<path d="M18.4912 0.718018C27.9148 0.957011 35.4805 8.67137 35.4805 18.1526L35.4746 18.6028C35.3736 22.5867 33.9354 26.2377 31.5938 29.1262L39.9727 37.5051C40.7532 38.2861 40.7532 39.5523 39.9727 40.3333C39.1917 41.1142 37.9246 41.1141 37.1436 40.3333L28.7363 31.926C25.7829 34.2228 22.0722 35.592 18.041 35.592L17.5908 35.5862C8.31658 35.3514 0.841648 27.8769 0.606445 18.6028L0.600586 18.1526C0.600586 8.52072 8.40915 0.712158 18.041 0.712158L18.4912 0.718018ZM18.041 4.71216C10.6183 4.71216 4.60059 10.7299 4.60059 18.1526C4.6008 25.5751 10.6184 31.592 18.041 31.592C25.4634 31.5918 31.4803 25.575 31.4805 18.1526C31.4805 10.73 25.4636 4.71237 18.041 4.71216Z" fill="#0E900E"/>
</svg>
