<svg width="1536" height="801" viewBox="0 0 1536 801" fill="none" xmlns="http://www.w3.org/2000/svg">
<rect width="1536" height="801" fill="#FFFDF6"/>
<rect width="1536" height="801" fill="#FFFDF6"/>
<path d="M621.844 393V367.8H632.5C634.036 367.8 635.44 368.148 636.712 368.844C637.984 369.54 638.992 370.512 639.736 371.76C640.504 372.984 640.888 374.412 640.888 376.044C640.888 377.628 640.516 379.044 639.772 380.292C639.052 381.54 638.044 382.512 636.748 383.208C635.476 383.904 634.012 384.252 632.356 384.252H624.436V393H621.844ZM624.436 381.948H632.068C633.22 381.948 634.264 381.72 635.2 381.264C636.136 380.784 636.88 380.112 637.432 379.248C638.008 378.36 638.296 377.292 638.296 376.044C638.296 374.796 638.008 373.74 637.432 372.876C636.88 371.988 636.136 371.304 635.2 370.824C634.288 370.344 633.28 370.104 632.176 370.104H624.436V381.948ZM645.255 393V379.86C645.255 378.228 645.711 376.956 646.623 376.044C647.559 375.108 648.843 374.64 650.475 374.64H653.643V376.836H650.979C649.923 376.836 649.119 377.124 648.567 377.7C648.039 378.276 647.775 379.092 647.775 380.148V393H645.255ZM666.217 393C664.249 393 662.485 392.64 660.925 391.92C659.389 391.176 658.165 390.12 657.253 388.752C656.365 387.384 655.921 385.74 655.921 383.82C655.921 382.044 656.281 380.436 657.001 378.996C657.721 377.532 658.729 376.368 660.025 375.504C661.345 374.64 662.881 374.208 664.633 374.208C666.433 374.208 667.957 374.604 669.205 375.396C670.453 376.188 671.401 377.256 672.049 378.6C672.697 379.944 673.021 381.456 673.021 383.136C673.021 383.376 673.009 383.64 672.985 383.928C672.961 384.216 672.925 384.468 672.877 384.684H658.585C658.657 386.028 659.041 387.156 659.737 388.068C660.433 388.98 661.333 389.664 662.437 390.12C663.565 390.576 664.777 390.804 666.073 390.804H670.717V393H666.217ZM658.585 382.884H670.465C670.465 382.404 670.417 381.876 670.321 381.3C670.225 380.7 670.045 380.112 669.781 379.536C669.541 378.96 669.193 378.432 668.737 377.952C668.305 377.472 667.741 377.088 667.045 376.8C666.373 376.488 665.545 376.332 664.561 376.332C663.649 376.332 662.821 376.524 662.077 376.908C661.333 377.292 660.709 377.808 660.205 378.456C659.701 379.08 659.305 379.776 659.017 380.544C658.753 381.312 658.609 382.092 658.585 382.884ZM677.53 393V381.912C677.53 380.496 677.842 379.212 678.466 378.06C679.114 376.884 680.026 375.948 681.202 375.252C682.378 374.556 683.782 374.208 685.414 374.208C686.254 374.208 687.106 374.34 687.97 374.604C688.858 374.844 689.674 375.276 690.418 375.9C691.186 376.5 691.786 377.34 692.218 378.42H692.254C692.686 377.34 693.286 376.5 694.054 375.9C694.822 375.276 695.65 374.844 696.538 374.604C697.426 374.34 698.278 374.208 699.094 374.208C700.75 374.208 702.166 374.556 703.342 375.252C704.518 375.948 705.418 376.884 706.042 378.06C706.666 379.212 706.978 380.496 706.978 381.912V393H704.494V381.912C704.494 380.832 704.254 379.884 703.774 379.068C703.294 378.252 702.646 377.604 701.83 377.124C701.038 376.62 700.126 376.368 699.094 376.368C698.038 376.368 697.09 376.62 696.25 377.124C695.41 377.604 694.738 378.264 694.234 379.104C693.754 379.944 693.514 380.88 693.514 381.912V393H690.994V381.912C690.994 380.88 690.742 379.944 690.238 379.104C689.734 378.264 689.062 377.604 688.222 377.124C687.406 376.62 686.47 376.368 685.414 376.368C684.406 376.368 683.482 376.62 682.642 377.124C681.826 377.604 681.178 378.252 680.698 379.068C680.242 379.884 680.014 380.832 680.014 381.912V393H677.53ZM712.51 393V374.64H715.03V393H712.51ZM713.77 371.328C713.29 371.328 712.87 371.148 712.51 370.788C712.15 370.428 711.97 370.008 711.97 369.528C711.97 369.024 712.15 368.604 712.51 368.268C712.87 367.908 713.29 367.728 713.77 367.728C714.274 367.728 714.694 367.908 715.03 368.268C715.39 368.604 715.57 369.024 715.57 369.528C715.57 370.008 715.39 370.428 715.03 370.788C714.694 371.148 714.274 371.328 713.77 371.328ZM728.949 393.468C727.413 393.468 726.009 393.144 724.737 392.496C723.465 391.824 722.445 390.876 721.677 389.652C720.933 388.428 720.561 386.988 720.561 385.332V374.64H723.081V385.224C723.081 386.496 723.357 387.588 723.909 388.5C724.485 389.412 725.217 390.108 726.105 390.588C726.993 391.044 727.941 391.272 728.949 391.272C729.981 391.272 730.941 391.032 731.829 390.552C732.741 390.072 733.473 389.388 734.025 388.5C734.577 387.588 734.853 386.496 734.853 385.224V374.64H737.373V385.332C737.373 386.988 737.001 388.428 736.257 389.652C735.513 390.876 734.505 391.824 733.233 392.496C731.961 393.144 730.533 393.468 728.949 393.468ZM742.92 393V381.912C742.92 380.496 743.232 379.212 743.856 378.06C744.504 376.884 745.416 375.948 746.592 375.252C747.768 374.556 749.172 374.208 750.804 374.208C751.644 374.208 752.496 374.34 753.36 374.604C754.248 374.844 755.064 375.276 755.808 375.9C756.576 376.5 757.176 377.34 757.608 378.42H757.644C758.076 377.34 758.676 376.5 759.444 375.9C760.212 375.276 761.04 374.844 761.928 374.604C762.816 374.34 763.668 374.208 764.484 374.208C766.14 374.208 767.556 374.556 768.732 375.252C769.908 375.948 770.808 376.884 771.432 378.06C772.056 379.212 772.368 380.496 772.368 381.912V393H769.884V381.912C769.884 380.832 769.644 379.884 769.164 379.068C768.684 378.252 768.036 377.604 767.22 377.124C766.428 376.62 765.516 376.368 764.484 376.368C763.428 376.368 762.48 376.62 761.64 377.124C760.8 377.604 760.128 378.264 759.624 379.104C759.144 379.944 758.904 380.88 758.904 381.912V393H756.384V381.912C756.384 380.88 756.132 379.944 755.628 379.104C755.124 378.264 754.452 377.604 753.612 377.124C752.796 376.62 751.86 376.368 750.804 376.368C749.796 376.368 748.872 376.62 748.032 377.124C747.216 377.604 746.568 378.252 746.088 379.068C745.632 379.884 745.404 380.832 745.404 381.912V393H742.92ZM796.644 393.468C794.964 393.468 793.416 393.096 792 392.352C790.584 391.608 789.456 390.516 788.616 389.076C787.776 387.636 787.356 385.896 787.356 383.856V366.72H789.876V378.42H789.948C790.356 377.604 790.92 376.884 791.64 376.26C792.36 375.612 793.176 375.108 794.088 374.748C795 374.388 795.96 374.208 796.968 374.208C798.624 374.208 800.124 374.592 801.468 375.36C802.836 376.128 803.928 377.22 804.744 378.636C805.56 380.028 805.968 381.708 805.968 383.676C805.968 385.212 805.728 386.592 805.248 387.816C804.768 389.016 804.096 390.036 803.232 390.876C802.392 391.716 801.408 392.364 800.28 392.82C799.152 393.252 797.94 393.468 796.644 393.468ZM796.608 391.272C797.832 391.272 798.96 390.984 799.992 390.408C801.024 389.808 801.852 388.956 802.476 387.852C803.1 386.724 803.412 385.38 803.412 383.82C803.412 382.308 803.1 381 802.476 379.896C801.852 378.768 801.024 377.904 799.992 377.304C798.984 376.704 797.88 376.404 796.68 376.404C795.48 376.404 794.364 376.704 793.332 377.304C792.3 377.88 791.472 378.72 790.848 379.824C790.224 380.928 789.912 382.272 789.912 383.856C789.912 385.44 790.212 386.784 790.812 387.888C791.436 388.992 792.252 389.832 793.26 390.408C794.292 390.984 795.408 391.272 796.608 391.272ZM818.374 393.468C816.526 393.468 814.942 393.036 813.622 392.172C812.302 391.308 811.294 390.156 810.598 388.716C809.902 387.252 809.554 385.62 809.554 383.82C809.554 381.996 809.938 380.364 810.706 378.924C811.474 377.46 812.566 376.308 813.982 375.468C815.422 374.628 817.126 374.208 819.094 374.208C820.99 374.208 822.622 374.628 823.99 375.468C825.382 376.308 826.45 377.436 827.194 378.852C827.962 380.268 828.346 381.864 828.346 383.64V393H825.862V388.896H825.754C825.418 389.616 824.914 390.336 824.242 391.056C823.57 391.752 822.742 392.328 821.758 392.784C820.798 393.24 819.67 393.468 818.374 393.468ZM818.914 391.308C820.258 391.308 821.446 390.984 822.478 390.336C823.51 389.664 824.314 388.764 824.89 387.636C825.49 386.484 825.79 385.188 825.79 383.748C825.79 382.332 825.514 381.072 824.962 379.968C824.41 378.864 823.63 377.988 822.622 377.34C821.614 376.692 820.414 376.368 819.022 376.368C817.582 376.368 816.346 376.704 815.314 377.376C814.282 378.024 813.49 378.924 812.938 380.076C812.386 381.204 812.11 382.488 812.11 383.928C812.11 385.272 812.374 386.508 812.902 387.636C813.43 388.764 814.198 389.664 815.206 390.336C816.238 390.984 817.474 391.308 818.914 391.308ZM833.905 393V366.72H836.425V382.668H842.509L847.513 374.64H850.357L845.029 383.028C846.853 383.484 848.269 384.408 849.277 385.8C850.285 387.192 850.789 388.848 850.789 390.768V393H848.305V390.768C848.305 389.64 848.053 388.632 847.549 387.744C847.045 386.856 846.349 386.16 845.461 385.656C844.597 385.128 843.577 384.864 842.401 384.864H836.425V393H833.905ZM865.237 393C863.269 393 861.505 392.64 859.945 391.92C858.409 391.176 857.185 390.12 856.273 388.752C855.385 387.384 854.941 385.74 854.941 383.82C854.941 382.044 855.301 380.436 856.021 378.996C856.741 377.532 857.749 376.368 859.045 375.504C860.365 374.64 861.901 374.208 863.653 374.208C865.453 374.208 866.977 374.604 868.225 375.396C869.473 376.188 870.421 377.256 871.069 378.6C871.717 379.944 872.041 381.456 872.041 383.136C872.041 383.376 872.029 383.64 872.005 383.928C871.981 384.216 871.945 384.468 871.897 384.684H857.605C857.677 386.028 858.061 387.156 858.757 388.068C859.453 388.98 860.353 389.664 861.457 390.12C862.585 390.576 863.797 390.804 865.093 390.804H869.737V393H865.237ZM857.605 382.884H869.485C869.485 382.404 869.437 381.876 869.341 381.3C869.245 380.7 869.065 380.112 868.801 379.536C868.561 378.96 868.213 378.432 867.757 377.952C867.325 377.472 866.761 377.088 866.065 376.8C865.393 376.488 864.565 376.332 863.581 376.332C862.669 376.332 861.841 376.524 861.097 376.908C860.353 377.292 859.729 377.808 859.225 378.456C858.721 379.08 858.325 379.776 858.037 380.544C857.773 381.312 857.629 382.092 857.605 382.884ZM876.477 393V379.86C876.477 378.228 876.933 376.956 877.845 376.044C878.781 375.108 880.065 374.64 881.697 374.64H884.865V376.836H882.201C881.145 376.836 880.341 377.124 879.789 377.7C879.261 378.276 878.997 379.092 878.997 380.148V393H876.477ZM895.28 400.308V393.36C893.936 393.192 892.724 392.772 891.644 392.1C890.564 391.404 889.7 390.48 889.052 389.328C888.428 388.176 888.116 386.844 888.116 385.332V374.64H890.636V385.224C890.636 386.496 890.912 387.588 891.464 388.5C892.04 389.412 892.772 390.108 893.66 390.588C894.548 391.044 895.496 391.272 896.504 391.272C897.536 391.272 898.496 391.032 899.384 390.552C900.296 390.072 901.028 389.388 901.58 388.5C902.156 387.588 902.444 386.496 902.444 385.224V374.64H904.928V385.332C904.928 386.868 904.604 388.212 903.956 389.364C903.332 390.492 902.48 391.404 901.4 392.1C900.32 392.772 899.12 393.18 897.8 393.324V400.308H895.28Z" fill="#96749A"/>
<path d="M477.24 503V489.56H505.944C507.224 489.56 508.376 489.24 509.4 488.6C510.424 487.96 511.224 487.128 511.8 486.104C512.44 485.08 512.76 483.96 512.76 482.744C512.76 481.464 512.44 480.312 511.8 479.288C511.224 478.264 510.424 477.432 509.4 476.792C508.376 476.152 507.224 475.832 505.944 475.832H495.576C491.672 475.832 488.12 475.064 484.92 473.528C481.72 471.992 479.16 469.752 477.24 466.808C475.384 463.8 474.456 460.216 474.456 456.056C474.456 451.96 475.352 448.408 477.144 445.4C478.936 442.392 481.368 440.056 484.44 438.392C487.512 436.664 490.904 435.8 494.616 435.8H524.28V449.24H496.44C495.288 449.24 494.232 449.528 493.272 450.104C492.312 450.68 491.576 451.448 491.064 452.408C490.552 453.368 490.296 454.424 490.296 455.576C490.296 456.728 490.552 457.784 491.064 458.744C491.576 459.64 492.312 460.376 493.272 460.952C494.232 461.528 495.288 461.816 496.44 461.816H507.288C511.576 461.816 515.288 462.648 518.424 464.312C521.624 465.912 524.088 468.184 525.816 471.128C527.608 474.008 528.504 477.4 528.504 481.304C528.504 485.912 527.576 489.848 525.72 493.112C523.928 496.312 521.496 498.776 518.424 500.504C515.352 502.168 511.96 503 508.248 503H477.24ZM563.819 504.152C558.507 504.152 553.803 503.096 549.707 500.984C545.675 498.808 542.507 495.704 540.203 491.672C537.899 487.64 536.747 482.872 536.747 477.368V435.8H552.587V477.944C552.587 480.248 553.035 482.328 553.931 484.184C554.827 486.04 556.107 487.512 557.771 488.6C559.499 489.688 561.515 490.232 563.819 490.232C566.123 490.232 568.107 489.688 569.771 488.6C571.435 487.512 572.715 486.04 573.611 484.184C574.571 482.328 575.051 480.248 575.051 477.944V435.8H590.891V477.944C590.891 480.248 591.339 482.328 592.235 484.184C593.131 486.04 594.411 487.512 596.075 488.6C597.803 489.688 599.819 490.232 602.123 490.232C604.427 490.232 606.411 489.688 608.075 488.6C609.803 487.512 611.115 486.04 612.011 484.184C612.907 482.328 613.355 480.248 613.355 477.944V435.8H629.195V477.368C629.195 482.872 628.043 487.64 625.739 491.672C623.435 495.704 620.235 498.808 616.139 500.984C612.107 503.096 607.435 504.152 602.123 504.152C599.499 504.152 597.003 503.832 594.635 503.192C592.331 502.616 590.187 501.72 588.203 500.504C586.283 499.288 584.523 497.816 582.923 496.088C581.387 497.816 579.627 499.288 577.643 500.504C575.659 501.656 573.515 502.552 571.211 503.192C568.907 503.832 566.443 504.152 563.819 504.152ZM658.214 503C654.438 503 651.014 502.136 647.942 500.408C644.87 498.616 642.406 496.248 640.55 493.304C638.758 490.296 637.862 486.904 637.862 483.128C637.862 480.312 638.47 477.688 639.686 475.256C640.966 472.76 642.662 470.616 644.774 468.824C642.726 467.096 641.094 465.048 639.878 462.68C638.726 460.312 638.15 457.816 638.15 455.192C638.15 451.48 639.046 448.184 640.838 445.304C642.63 442.36 645.03 440.056 648.038 438.392C651.046 436.664 654.374 435.8 658.022 435.8H686.342V449.24H660.518C659.302 449.24 658.182 449.528 657.158 450.104C656.134 450.68 655.302 451.448 654.662 452.408C654.086 453.368 653.798 454.488 653.798 455.768C653.798 456.984 654.086 458.104 654.662 459.128C655.302 460.088 656.134 460.856 657.158 461.432C658.182 461.944 659.302 462.2 660.518 462.2H683.078V475.64H660.998C659.654 475.64 658.438 475.96 657.35 476.6C656.262 477.24 655.398 478.072 654.758 479.096C654.118 480.12 653.798 481.304 653.798 482.648C653.798 483.928 654.118 485.112 654.758 486.2C655.398 487.224 656.262 488.024 657.35 488.6C658.438 489.176 659.654 489.464 660.998 489.464H686.342V503H658.214ZM713.902 503C710.126 503 706.702 502.136 703.63 500.408C700.558 498.616 698.094 496.248 696.238 493.304C694.446 490.296 693.55 486.904 693.55 483.128C693.55 480.312 694.158 477.688 695.374 475.256C696.654 472.76 698.35 470.616 700.462 468.824C698.414 467.096 696.782 465.048 695.566 462.68C694.414 460.312 693.838 457.816 693.838 455.192C693.838 451.48 694.734 448.184 696.526 445.304C698.318 442.36 700.718 440.056 703.726 438.392C706.734 436.664 710.062 435.8 713.71 435.8H742.03V449.24H716.206C714.99 449.24 713.87 449.528 712.846 450.104C711.822 450.68 710.99 451.448 710.35 452.408C709.774 453.368 709.486 454.488 709.486 455.768C709.486 456.984 709.774 458.104 710.35 459.128C710.99 460.088 711.822 460.856 712.846 461.432C713.87 461.944 714.99 462.2 716.206 462.2H738.766V475.64H716.686C715.342 475.64 714.126 475.96 713.038 476.6C711.95 477.24 711.086 478.072 710.446 479.096C709.806 480.12 709.486 481.304 709.486 482.648C709.486 483.928 709.806 485.112 710.446 486.2C711.086 487.224 711.95 488.024 713.038 488.6C714.126 489.176 715.342 489.464 716.686 489.464H742.03V503H713.902ZM786.197 503C782.101 503 778.485 502.104 775.349 500.312C772.277 498.456 769.845 495.992 768.053 492.92C766.325 489.848 765.461 486.424 765.461 482.648V449.24H747.221V435.8H799.733V449.24H781.589V484.088C781.589 485.56 782.101 486.84 783.125 487.928C784.149 489.016 785.429 489.56 786.965 489.56H792.245V503H786.197ZM826.731 503V435.8H855.627C860.107 435.8 864.203 436.824 867.915 438.872C871.691 440.92 874.699 443.768 876.939 447.416C879.179 451 880.299 455.16 880.299 459.896C880.299 464.632 879.179 468.856 876.939 472.568C874.699 476.216 871.723 479.064 868.011 481.112C864.299 483.16 860.171 484.184 855.627 484.184H842.859V503H826.731ZM842.859 470.648H853.803C855.723 470.648 857.451 470.232 858.987 469.4C860.523 468.568 861.771 467.352 862.731 465.752C863.691 464.152 864.171 462.232 864.171 459.992C864.171 457.752 863.691 455.832 862.731 454.232C861.771 452.632 860.491 451.416 858.891 450.584C857.355 449.688 855.659 449.24 853.803 449.24H842.859V470.648ZM877.875 503L899.667 443.576C900.755 440.632 902.547 438.424 905.043 436.952C907.539 435.416 910.355 434.648 913.491 434.648C916.627 434.648 919.443 435.384 921.939 436.856C924.435 438.264 926.227 440.472 927.315 443.48L949.203 503H931.827L927.603 490.04H899.091L894.675 503H877.875ZM903.219 476.696H923.475L914.931 449.912C914.803 449.528 914.611 449.272 914.355 449.144C914.163 448.952 913.907 448.856 913.587 448.856C913.267 448.856 912.979 448.952 912.723 449.144C912.531 449.336 912.403 449.592 912.339 449.912L903.219 476.696ZM984.809 503C979.305 503 974.345 502.168 969.929 500.504C965.513 498.776 961.769 496.376 958.697 493.304C955.625 490.232 953.257 486.68 951.593 482.648C949.929 478.552 949.097 474.136 949.097 469.4C949.097 464.664 949.929 460.28 951.593 456.248C953.257 452.152 955.625 448.568 958.697 445.496C961.833 442.424 965.577 440.056 969.929 438.392C974.345 436.664 979.305 435.8 984.809 435.8H995.177V449.24H985.193C982.185 449.24 979.433 449.752 976.937 450.776C974.505 451.8 972.393 453.24 970.601 455.096C968.873 456.888 967.529 459 966.569 461.432C965.673 463.864 965.225 466.52 965.225 469.4C965.225 472.28 965.673 474.936 966.569 477.368C967.529 479.8 968.873 481.944 970.601 483.8C972.393 485.592 974.505 487 976.937 488.024C979.433 489.048 982.185 489.56 985.193 489.56H995.177V503H984.809ZM1004.29 503V435.8H1020.42V462.968H1031.56C1033.41 462.968 1035.11 462.584 1036.65 461.816C1038.25 461.048 1039.49 459.896 1040.39 458.36C1041.29 456.824 1041.73 455.032 1041.73 452.984V435.8H1057.86V453.08C1057.86 457.368 1056.84 461.208 1054.79 464.6C1052.74 467.992 1050.05 470.712 1046.73 472.76L1054.02 488.12C1054.21 488.632 1054.53 489.016 1054.98 489.272C1055.49 489.528 1056.04 489.656 1056.61 489.656H1062.66V503H1053.35C1049.83 503 1046.98 502.328 1044.81 500.984C1042.63 499.64 1040.97 497.784 1039.81 495.416L1030.69 476.408C1030.18 476.408 1029.7 476.408 1029.25 476.408C1028.81 476.408 1028.33 476.408 1027.81 476.408H1020.42V503H1004.29Z" fill="#96749A"/>
<mask id="path-3-outside-1_171_73" maskUnits="userSpaceOnUse" x="648" y="265" width="232" height="92" fill="black">
<rect fill="white" x="648" y="265" width="232" height="92"/>
<path d="M664.816 328V283.2H692.336C694.768 283.2 696.965 283.712 698.928 284.736C700.933 285.76 702.533 287.189 703.728 289.024C704.923 290.859 705.52 293.013 705.52 295.488C705.52 296.725 705.285 297.92 704.816 299.072C704.389 300.224 703.771 301.291 702.96 302.272C702.192 303.211 701.275 304.043 700.208 304.768C701.488 305.493 702.597 306.411 703.536 307.52C704.517 308.587 705.264 309.803 705.776 311.168C706.331 312.491 706.608 313.899 706.608 315.392C706.608 317.909 705.989 320.128 704.752 322.048C703.557 323.925 701.936 325.397 699.888 326.464C697.84 327.488 695.579 328 693.104 328H664.816ZM678.64 317.504H689.968C690.651 317.504 691.227 317.355 691.696 317.056C692.165 316.757 692.528 316.352 692.784 315.84C693.083 315.285 693.232 314.688 693.232 314.048C693.232 313.408 693.083 312.853 692.784 312.384C692.528 311.872 692.165 311.467 691.696 311.168C691.227 310.869 690.651 310.72 689.968 310.72H678.64V317.504ZM678.64 300.48H688.368C689.008 300.48 689.563 300.331 690.032 300.032C690.501 299.691 690.864 299.285 691.12 298.816C691.376 298.304 691.504 297.771 691.504 297.216C691.504 296.619 691.376 296.085 691.12 295.616C690.864 295.147 690.501 294.763 690.032 294.464C689.605 294.165 689.051 294.016 688.368 294.016H678.64V300.48ZM725.078 328.832C722.304 328.832 719.808 328.128 717.59 326.72C715.371 325.312 713.622 323.371 712.342 320.896C711.062 318.379 710.422 315.456 710.422 312.128C710.422 308.587 711.211 305.472 712.79 302.784C714.368 300.053 716.544 297.92 719.318 296.384C722.134 294.848 725.398 294.08 729.11 294.08C732.736 294.08 735.894 294.827 738.582 296.32C741.27 297.771 743.36 299.819 744.854 302.464C746.39 305.067 747.158 308.096 747.158 311.552V328H735.51V323.072H735.126C734.571 324.224 733.824 325.248 732.886 326.144C731.99 326.997 730.902 327.659 729.622 328.128C728.342 328.597 726.827 328.832 725.078 328.832ZM728.854 318.08C730.006 318.08 731.008 317.803 731.862 317.248C732.758 316.693 733.44 315.925 733.91 314.944C734.422 313.92 734.678 312.768 734.678 311.488C734.678 310.251 734.422 309.163 733.91 308.224C733.44 307.285 732.758 306.539 731.862 305.984C731.008 305.429 730.006 305.152 728.854 305.152C727.744 305.152 726.742 305.429 725.846 305.984C724.95 306.539 724.246 307.285 723.734 308.224C723.264 309.163 723.03 310.251 723.03 311.488C723.03 312.768 723.264 313.92 723.734 314.944C724.246 315.925 724.95 316.693 725.846 317.248C726.742 317.803 727.744 318.08 728.854 318.08ZM757.81 340.992V330.496H773.49C774.258 330.496 774.876 330.283 775.346 329.856C775.815 329.472 776.05 328.939 776.05 328.256V322.496H775.666C775.111 323.221 774.407 323.925 773.554 324.608C772.743 325.248 771.74 325.76 770.546 326.144C769.394 326.528 768.007 326.72 766.385 326.72C763.484 326.72 760.946 326.037 758.77 324.672C756.594 323.264 754.908 321.387 753.714 319.04C752.519 316.693 751.922 314.112 751.922 311.296C751.922 308.267 752.604 305.451 753.97 302.848C755.335 300.203 757.362 298.091 760.05 296.512C762.738 294.891 766.023 294.08 769.906 294.08C773.575 294.08 776.775 294.848 779.506 296.384C782.279 297.877 784.434 299.968 785.97 302.656C787.548 305.344 788.338 308.459 788.338 312V330.752C788.338 333.909 787.399 336.405 785.522 338.24C783.644 340.075 781.02 340.992 777.65 340.992H757.81ZM770.162 316.864C771.228 316.864 772.188 316.608 773.042 316.096C773.895 315.584 774.556 314.901 775.026 314.048C775.538 313.152 775.794 312.192 775.794 311.168C775.794 310.059 775.538 309.056 775.026 308.16C774.556 307.264 773.895 306.56 773.042 306.048C772.188 305.493 771.228 305.216 770.162 305.216C769.095 305.216 768.114 305.472 767.218 305.984C766.364 306.496 765.682 307.2 765.17 308.096C764.7 308.992 764.466 309.995 764.466 311.104C764.466 312.171 764.7 313.152 765.17 314.048C765.682 314.901 766.364 315.584 767.218 316.096C768.114 316.608 769.095 316.864 770.162 316.864ZM812.25 328C808.538 328 805.231 327.36 802.33 326.08C799.428 324.8 797.124 322.944 795.418 320.512C793.754 318.037 792.922 315.029 792.922 311.488C792.922 307.605 793.754 304.384 795.418 301.824C797.082 299.264 799.236 297.344 801.882 296.064C804.57 294.741 807.386 294.08 810.33 294.08C813.359 294.08 816.068 294.72 818.458 296C820.89 297.237 822.81 299.029 824.218 301.376C825.668 303.723 826.394 306.539 826.394 309.824C826.394 310.635 826.351 311.573 826.266 312.64C826.18 313.664 826.052 314.539 825.882 315.264H805.53C805.7 315.989 806.02 316.608 806.49 317.12C806.959 317.589 807.599 317.931 808.41 318.144C809.22 318.357 810.138 318.464 811.162 318.464H823.002V328H812.25ZM804.954 308.48H815.066C815.066 307.968 815.002 307.477 814.874 307.008C814.746 306.539 814.532 306.112 814.234 305.728C813.978 305.301 813.658 304.939 813.274 304.64C812.89 304.299 812.42 304.043 811.866 303.872C811.354 303.701 810.778 303.616 810.138 303.616C809.327 303.616 808.602 303.744 807.962 304C807.364 304.256 806.852 304.597 806.426 305.024C805.999 305.451 805.658 305.963 805.402 306.56C805.188 307.157 805.039 307.797 804.954 308.48ZM831.127 328V281.28H843.351V328H831.127ZM850.431 304.32L853.823 295.04C852.671 294.485 851.732 293.675 851.007 292.608C850.324 291.541 849.983 290.411 849.983 289.216C849.983 287.211 850.623 285.568 851.903 284.288C853.225 283.008 854.761 282.368 856.51 282.368C858.516 282.368 860.137 283.051 861.375 284.416C862.655 285.781 863.295 287.424 863.295 289.344C863.295 290.496 863.145 291.627 862.847 292.736C862.591 293.845 862.207 295.04 861.695 296.32L858.687 304.32H850.431Z"/>
</mask>
<path d="M664.816 328V283.2H692.336C694.768 283.2 696.965 283.712 698.928 284.736C700.933 285.76 702.533 287.189 703.728 289.024C704.923 290.859 705.52 293.013 705.52 295.488C705.52 296.725 705.285 297.92 704.816 299.072C704.389 300.224 703.771 301.291 702.96 302.272C702.192 303.211 701.275 304.043 700.208 304.768C701.488 305.493 702.597 306.411 703.536 307.52C704.517 308.587 705.264 309.803 705.776 311.168C706.331 312.491 706.608 313.899 706.608 315.392C706.608 317.909 705.989 320.128 704.752 322.048C703.557 323.925 701.936 325.397 699.888 326.464C697.84 327.488 695.579 328 693.104 328H664.816ZM678.64 317.504H689.968C690.651 317.504 691.227 317.355 691.696 317.056C692.165 316.757 692.528 316.352 692.784 315.84C693.083 315.285 693.232 314.688 693.232 314.048C693.232 313.408 693.083 312.853 692.784 312.384C692.528 311.872 692.165 311.467 691.696 311.168C691.227 310.869 690.651 310.72 689.968 310.72H678.64V317.504ZM678.64 300.48H688.368C689.008 300.48 689.563 300.331 690.032 300.032C690.501 299.691 690.864 299.285 691.12 298.816C691.376 298.304 691.504 297.771 691.504 297.216C691.504 296.619 691.376 296.085 691.12 295.616C690.864 295.147 690.501 294.763 690.032 294.464C689.605 294.165 689.051 294.016 688.368 294.016H678.64V300.48ZM725.078 328.832C722.304 328.832 719.808 328.128 717.59 326.72C715.371 325.312 713.622 323.371 712.342 320.896C711.062 318.379 710.422 315.456 710.422 312.128C710.422 308.587 711.211 305.472 712.79 302.784C714.368 300.053 716.544 297.92 719.318 296.384C722.134 294.848 725.398 294.08 729.11 294.08C732.736 294.08 735.894 294.827 738.582 296.32C741.27 297.771 743.36 299.819 744.854 302.464C746.39 305.067 747.158 308.096 747.158 311.552V328H735.51V323.072H735.126C734.571 324.224 733.824 325.248 732.886 326.144C731.99 326.997 730.902 327.659 729.622 328.128C728.342 328.597 726.827 328.832 725.078 328.832ZM728.854 318.08C730.006 318.08 731.008 317.803 731.862 317.248C732.758 316.693 733.44 315.925 733.91 314.944C734.422 313.92 734.678 312.768 734.678 311.488C734.678 310.251 734.422 309.163 733.91 308.224C733.44 307.285 732.758 306.539 731.862 305.984C731.008 305.429 730.006 305.152 728.854 305.152C727.744 305.152 726.742 305.429 725.846 305.984C724.95 306.539 724.246 307.285 723.734 308.224C723.264 309.163 723.03 310.251 723.03 311.488C723.03 312.768 723.264 313.92 723.734 314.944C724.246 315.925 724.95 316.693 725.846 317.248C726.742 317.803 727.744 318.08 728.854 318.08ZM757.81 340.992V330.496H773.49C774.258 330.496 774.876 330.283 775.346 329.856C775.815 329.472 776.05 328.939 776.05 328.256V322.496H775.666C775.111 323.221 774.407 323.925 773.554 324.608C772.743 325.248 771.74 325.76 770.546 326.144C769.394 326.528 768.007 326.72 766.385 326.72C763.484 326.72 760.946 326.037 758.77 324.672C756.594 323.264 754.908 321.387 753.714 319.04C752.519 316.693 751.922 314.112 751.922 311.296C751.922 308.267 752.604 305.451 753.97 302.848C755.335 300.203 757.362 298.091 760.05 296.512C762.738 294.891 766.023 294.08 769.906 294.08C773.575 294.08 776.775 294.848 779.506 296.384C782.279 297.877 784.434 299.968 785.97 302.656C787.548 305.344 788.338 308.459 788.338 312V330.752C788.338 333.909 787.399 336.405 785.522 338.24C783.644 340.075 781.02 340.992 777.65 340.992H757.81ZM770.162 316.864C771.228 316.864 772.188 316.608 773.042 316.096C773.895 315.584 774.556 314.901 775.026 314.048C775.538 313.152 775.794 312.192 775.794 311.168C775.794 310.059 775.538 309.056 775.026 308.16C774.556 307.264 773.895 306.56 773.042 306.048C772.188 305.493 771.228 305.216 770.162 305.216C769.095 305.216 768.114 305.472 767.218 305.984C766.364 306.496 765.682 307.2 765.17 308.096C764.7 308.992 764.466 309.995 764.466 311.104C764.466 312.171 764.7 313.152 765.17 314.048C765.682 314.901 766.364 315.584 767.218 316.096C768.114 316.608 769.095 316.864 770.162 316.864ZM812.25 328C808.538 328 805.231 327.36 802.33 326.08C799.428 324.8 797.124 322.944 795.418 320.512C793.754 318.037 792.922 315.029 792.922 311.488C792.922 307.605 793.754 304.384 795.418 301.824C797.082 299.264 799.236 297.344 801.882 296.064C804.57 294.741 807.386 294.08 810.33 294.08C813.359 294.08 816.068 294.72 818.458 296C820.89 297.237 822.81 299.029 824.218 301.376C825.668 303.723 826.394 306.539 826.394 309.824C826.394 310.635 826.351 311.573 826.266 312.64C826.18 313.664 826.052 314.539 825.882 315.264H805.53C805.7 315.989 806.02 316.608 806.49 317.12C806.959 317.589 807.599 317.931 808.41 318.144C809.22 318.357 810.138 318.464 811.162 318.464H823.002V328H812.25ZM804.954 308.48H815.066C815.066 307.968 815.002 307.477 814.874 307.008C814.746 306.539 814.532 306.112 814.234 305.728C813.978 305.301 813.658 304.939 813.274 304.64C812.89 304.299 812.42 304.043 811.866 303.872C811.354 303.701 810.778 303.616 810.138 303.616C809.327 303.616 808.602 303.744 807.962 304C807.364 304.256 806.852 304.597 806.426 305.024C805.999 305.451 805.658 305.963 805.402 306.56C805.188 307.157 805.039 307.797 804.954 308.48ZM831.127 328V281.28H843.351V328H831.127ZM850.431 304.32L853.823 295.04C852.671 294.485 851.732 293.675 851.007 292.608C850.324 291.541 849.983 290.411 849.983 289.216C849.983 287.211 850.623 285.568 851.903 284.288C853.225 283.008 854.761 282.368 856.51 282.368C858.516 282.368 860.137 283.051 861.375 284.416C862.655 285.781 863.295 287.424 863.295 289.344C863.295 290.496 863.145 291.627 862.847 292.736C862.591 293.845 862.207 295.04 861.695 296.32L858.687 304.32H850.431Z" fill="#FFFDF6"/>
<path d="M664.816 328H648.816C648.816 336.837 655.979 344 664.816 344V328ZM664.816 283.2V267.2C655.979 267.2 648.816 274.363 648.816 283.2H664.816ZM698.928 284.736L691.527 298.921C691.568 298.943 691.61 298.964 691.652 298.986L698.928 284.736ZM704.816 299.072L689.999 293.035C689.934 293.194 689.872 293.354 689.812 293.515L704.816 299.072ZM702.96 302.272L690.625 292.082C690.609 292.101 690.593 292.121 690.577 292.14L702.96 302.272ZM700.208 304.768L691.211 291.537C686.639 294.646 683.996 299.896 684.221 305.421C684.447 310.946 687.509 315.962 692.32 318.688L700.208 304.768ZM703.536 307.52L691.322 317.855C691.465 318.024 691.611 318.19 691.761 318.353L703.536 307.52ZM705.776 311.168L690.795 316.786C690.866 316.977 690.942 317.167 691.021 317.356L705.776 311.168ZM704.752 322.048L691.303 313.381C691.286 313.406 691.27 313.432 691.253 313.458L704.752 322.048ZM699.888 326.464L707.043 340.775C707.122 340.735 707.201 340.695 707.279 340.655L699.888 326.464ZM678.64 317.504H662.64C662.64 326.341 669.803 333.504 678.64 333.504V317.504ZM692.784 315.84L678.696 308.254C678.62 308.397 678.545 308.54 678.473 308.685L692.784 315.84ZM692.784 312.384L678.473 319.539C678.719 320.031 678.99 320.51 679.285 320.974L692.784 312.384ZM678.64 310.72V294.72C669.803 294.72 662.64 301.883 662.64 310.72H678.64ZM678.64 300.48H662.64C662.64 309.317 669.803 316.48 678.64 316.48V300.48ZM690.032 300.032L698.622 313.531C698.901 313.353 699.175 313.166 699.443 312.972L690.032 300.032ZM691.12 298.816L705.166 306.478C705.258 306.31 705.346 306.142 705.431 305.971L691.12 298.816ZM691.12 295.616L677.074 303.278L677.074 303.278L691.12 295.616ZM690.032 294.464L680.857 307.572C681.049 307.706 681.244 307.837 681.442 307.963L690.032 294.464ZM678.64 294.016V278.016C669.803 278.016 662.64 285.179 662.64 294.016H678.64ZM664.816 328H680.816V283.2H664.816H648.816V328H664.816ZM664.816 283.2V299.2H692.336V283.2V267.2H664.816V283.2ZM692.336 283.2V299.2C692.424 299.2 692.357 299.209 692.177 299.167C691.991 299.123 691.761 299.044 691.527 298.921L698.928 284.736L706.329 270.551C701.862 268.22 697.086 267.2 692.336 267.2V283.2ZM698.928 284.736L691.652 298.986C691.492 298.904 691.246 298.752 690.973 298.508C690.698 298.263 690.478 297.997 690.32 297.755L703.728 289.024L717.136 280.293C714.37 276.046 710.627 272.745 706.204 270.486L698.928 284.736ZM703.728 289.024L690.32 297.755C690.004 297.269 689.783 296.759 689.654 296.29C689.528 295.836 689.52 295.543 689.52 295.488H705.52H721.52C721.52 290.33 720.236 285.054 717.136 280.293L703.728 289.024ZM705.52 295.488H689.52C689.52 294.644 689.691 293.79 689.999 293.035L704.816 299.072L719.633 305.109C720.879 302.05 721.52 298.806 721.52 295.488H705.52ZM704.816 299.072L689.812 293.515C690.031 292.923 690.334 292.434 690.625 292.082L702.96 302.272L715.295 312.462C717.207 310.148 718.748 307.525 719.82 304.629L704.816 299.072ZM702.96 302.272L690.577 292.14C690.843 291.815 691.087 291.622 691.211 291.537L700.208 304.768L709.205 317.999C711.463 316.464 713.541 314.606 715.343 312.404L702.96 302.272ZM700.208 304.768L692.32 318.688C691.978 318.495 691.618 318.205 691.322 317.855L703.536 307.52L715.75 297.185C713.577 294.617 710.998 292.492 708.096 290.848L700.208 304.768ZM703.536 307.52L691.761 318.353C691.339 317.894 691.001 317.337 690.795 316.786L705.776 311.168L720.757 305.55C719.527 302.268 717.695 299.279 715.311 296.687L703.536 307.52ZM705.776 311.168L691.021 317.356C690.72 316.638 690.608 315.934 690.608 315.392H706.608H722.608C722.608 311.863 721.941 308.343 720.531 304.98L705.776 311.168ZM706.608 315.392H690.608C690.608 315.332 690.617 315.059 690.732 314.646C690.85 314.222 691.044 313.782 691.303 313.381L704.752 322.048L718.201 330.715C721.272 325.951 722.608 320.658 722.608 315.392H706.608ZM704.752 322.048L691.253 313.458C691.409 313.214 691.623 312.952 691.885 312.714C692.144 312.478 692.37 312.34 692.497 312.273L699.888 326.464L707.279 340.655C711.721 338.341 715.489 334.978 718.251 330.638L704.752 322.048ZM699.888 326.464L692.733 312.153C692.874 312.082 693.014 312.036 693.123 312.011C693.227 311.988 693.232 312 693.104 312V328V344C697.858 344 702.598 342.998 707.043 340.775L699.888 326.464ZM693.104 328V312H664.816V328V344H693.104V328ZM678.64 317.504V333.504H689.968V317.504V301.504H678.64V317.504ZM689.968 317.504V333.504C693 333.504 696.721 332.823 700.286 330.555L691.696 317.056L683.106 303.557C685.732 301.886 688.301 301.504 689.968 301.504V317.504ZM691.696 317.056L700.286 330.555C703.275 328.652 705.581 326.022 707.095 322.995L692.784 315.84L678.473 308.685C679.475 306.682 681.055 304.862 683.106 303.557L691.696 317.056ZM692.784 315.84L706.872 323.426C708.446 320.501 709.232 317.292 709.232 314.048H693.232H677.232C677.232 312.084 677.719 310.07 678.696 308.254L692.784 315.84ZM693.232 314.048H709.232C709.232 310.833 708.449 307.199 706.283 303.794L692.784 312.384L679.285 320.974C677.716 318.508 677.232 315.983 677.232 314.048H693.232ZM692.784 312.384L707.095 305.229C705.581 302.202 703.275 299.572 700.286 297.669L691.696 311.168L683.106 324.667C681.055 323.362 679.475 321.542 678.473 319.539L692.784 312.384ZM691.696 311.168L700.286 297.669C696.721 295.401 693 294.72 689.968 294.72V310.72V326.72C688.301 326.72 685.732 326.338 683.106 324.667L691.696 311.168ZM689.968 310.72V294.72H678.64V310.72V326.72H689.968V310.72ZM678.64 310.72H662.64V317.504H678.64H694.64V310.72H678.64ZM678.64 300.48V316.48H688.368V300.48V284.48H678.64V300.48ZM688.368 300.48V316.48C691.583 316.48 695.217 315.697 698.622 313.531L690.032 300.032L681.442 286.533C683.908 284.964 686.433 284.48 688.368 284.48V300.48ZM690.032 300.032L699.443 312.972C701.663 311.357 703.681 309.201 705.166 306.478L691.12 298.816L677.074 291.154C678.047 289.369 679.34 288.024 680.621 287.092L690.032 300.032ZM691.12 298.816L705.431 305.971C706.761 303.311 707.504 300.336 707.504 297.216H691.504H675.504C675.504 295.206 675.991 293.297 676.809 291.661L691.12 298.816ZM691.504 297.216H707.504C707.504 294.261 706.849 291.039 705.166 287.954L691.12 295.616L677.074 303.278C675.903 301.131 675.504 298.976 675.504 297.216H691.504ZM691.12 295.616L705.166 287.954C703.561 285.011 701.278 282.656 698.622 280.965L690.032 294.464L681.442 307.963C679.724 306.87 678.167 305.282 677.074 303.278L691.12 295.616ZM690.032 294.464L699.207 281.356C695.367 278.668 691.322 278.016 688.368 278.016V294.016V310.016C686.779 310.016 683.843 309.662 680.857 307.572L690.032 294.464ZM688.368 294.016V278.016H678.64V294.016V310.016H688.368V294.016ZM678.64 294.016H662.64V300.48H678.64H694.64V294.016H678.64ZM712.341 320.896L698.079 328.148C698.096 328.181 698.113 328.214 698.13 328.247L712.341 320.896ZM712.79 302.784L726.586 310.887C726.605 310.855 726.623 310.824 726.641 310.792L712.79 302.784ZM719.318 296.384L711.656 282.338C711.626 282.354 711.596 282.371 711.566 282.387L719.318 296.384ZM738.581 296.32L730.811 310.307C730.868 310.338 730.925 310.369 730.983 310.4L738.581 296.32ZM744.854 302.464L730.92 310.33C730.971 310.419 731.022 310.508 731.074 310.596L744.854 302.464ZM747.158 328V344C755.994 344 763.158 336.837 763.158 328H747.158ZM735.509 328H719.509C719.509 336.837 726.673 344 735.509 344V328ZM735.509 323.072H751.509C751.509 314.235 744.346 307.072 735.509 307.072V323.072ZM735.126 323.072V307.072C728.979 307.072 723.376 310.593 720.709 316.131L735.126 323.072ZM732.885 326.144L743.92 337.73C743.924 337.726 743.929 337.722 743.933 337.718L732.885 326.144ZM729.622 328.128L735.13 343.15L729.622 328.128ZM731.862 317.248L723.44 303.644C723.34 303.706 723.24 303.769 723.142 303.833L731.862 317.248ZM733.91 314.944L719.599 307.789C719.557 307.872 719.516 307.956 719.475 308.041L733.91 314.944ZM733.91 308.224L719.599 315.379C719.684 315.55 719.772 315.718 719.863 315.886L733.91 308.224ZM731.862 305.984L723.142 319.399C723.24 319.463 723.34 319.526 723.44 319.588L731.862 305.984ZM725.846 305.984L734.267 319.588L734.267 319.588L725.846 305.984ZM723.734 308.224L709.687 300.562C709.596 300.73 709.508 300.898 709.423 301.069L723.734 308.224ZM723.734 314.944L709.188 321.61C709.302 321.858 709.422 322.103 709.548 322.345L723.734 314.944ZM725.846 317.248L734.267 303.644L734.267 303.644L725.846 317.248ZM725.077 328.832V312.832C725.058 312.832 725.209 312.832 725.469 312.905C725.735 312.98 725.979 313.094 726.163 313.211L717.59 326.72L709.016 340.229C713.943 343.356 719.444 344.832 725.077 344.832V328.832ZM717.59 326.72L726.163 313.211C726.273 313.281 726.397 313.383 726.5 313.497C726.599 313.607 726.606 313.648 726.553 313.545L712.341 320.896L698.13 328.247C700.63 333.08 704.261 337.211 709.016 340.229L717.59 326.72ZM712.341 320.896L726.604 313.644C726.653 313.741 726.422 313.384 726.422 312.128H710.422H694.422C694.422 317.528 695.47 323.016 698.079 328.148L712.341 320.896ZM710.422 312.128H726.422C726.422 311.549 726.485 311.216 726.523 311.067C726.558 310.928 726.585 310.888 726.586 310.887L712.79 302.784L698.993 294.681C695.784 300.145 694.422 306.133 694.422 312.128H710.422ZM712.79 302.784L726.641 310.792C726.731 310.636 726.789 310.579 726.807 310.561C726.825 310.543 726.892 310.479 727.069 310.381L719.318 296.384L711.566 282.387C706.267 285.322 701.977 289.519 698.938 294.776L712.79 302.784ZM719.318 296.384L726.979 310.43C727.099 310.365 727.651 310.08 729.109 310.08V294.08V278.08C723.144 278.08 717.168 279.331 711.656 282.338L719.318 296.384ZM729.109 294.08V310.08C729.826 310.08 730.275 310.154 730.515 310.211C730.636 310.239 730.711 310.265 730.752 310.281C730.792 310.296 730.809 310.305 730.811 310.307L738.581 296.32L746.352 282.333C740.893 279.301 734.966 278.08 729.109 278.08V294.08ZM738.581 296.32L730.983 310.4C731.031 310.427 731.045 310.438 731.034 310.43C731.022 310.421 730.998 310.402 730.969 310.374C730.94 310.345 730.918 310.319 730.905 310.303C730.893 310.286 730.899 310.292 730.92 310.33L744.854 302.464L758.787 294.598C755.801 289.31 751.508 285.115 746.18 282.24L738.581 296.32ZM744.854 302.464L731.074 310.596C731.043 310.543 731.049 310.53 731.072 310.62C731.098 310.722 731.158 311.012 731.158 311.552H747.158H763.158C763.158 305.653 761.821 299.735 758.633 294.332L744.854 302.464ZM747.158 311.552H731.158V328H747.158H763.158V311.552H747.158ZM747.158 328V312H735.509V328V344H747.158V328ZM735.509 328H751.509V323.072H735.509H719.509V328H735.509ZM735.509 323.072V307.072H735.126V323.072V339.072H735.509V323.072ZM735.126 323.072L720.709 316.131C721.002 315.522 721.405 314.983 721.838 314.57L732.885 326.144L743.933 337.718C746.243 335.513 748.139 332.926 749.542 330.013L735.126 323.072ZM732.885 326.144L721.851 314.558C722.697 313.752 723.546 313.314 724.113 313.106L729.622 328.128L735.13 343.15C738.257 342.003 741.282 340.243 743.92 337.73L732.885 326.144ZM729.622 328.128L724.113 313.106C724.578 312.936 724.917 312.869 725.076 312.845C725.233 312.82 725.244 312.832 725.077 312.832V328.832V344.832C728.2 344.832 731.665 344.42 735.13 343.15L729.622 328.128ZM728.854 318.08V334.08C732.68 334.08 736.801 333.12 740.581 330.663L731.862 317.248L723.142 303.833C725.215 302.485 727.331 302.08 728.854 302.08V318.08ZM731.862 317.248L740.283 330.852C743.871 328.631 746.598 325.498 748.344 321.847L733.91 314.944L719.475 308.041C720.282 306.353 721.644 304.755 723.44 303.644L731.862 317.248ZM733.91 314.944L748.22 322.099C749.969 318.603 750.678 314.956 750.678 311.488H734.678H718.678C718.678 310.58 718.874 309.237 719.599 307.789L733.91 314.944ZM734.678 311.488H750.678C750.678 307.998 749.939 304.197 747.956 300.562L733.91 308.224L719.863 315.886C718.904 314.128 718.678 312.504 718.678 311.488H734.678ZM733.91 308.224L748.22 301.069C746.418 297.464 743.691 294.49 740.283 292.38L731.862 305.984L723.44 319.588C721.824 318.588 720.462 317.106 719.599 315.379L733.91 308.224ZM731.862 305.984L740.581 292.569C736.801 290.112 732.68 289.152 728.854 289.152V305.152V321.152C727.331 321.152 725.215 320.747 723.142 319.399L731.862 305.984ZM728.854 305.152V289.152C724.933 289.152 720.986 290.175 717.424 292.38L725.846 305.984L734.267 319.588C732.497 320.684 730.555 321.152 728.854 321.152V305.152ZM725.846 305.984L717.424 292.38C714.134 294.417 711.507 297.226 709.687 300.562L723.734 308.224L737.78 315.886C736.984 317.344 735.765 318.661 734.267 319.588L725.846 305.984ZM723.734 308.224L709.423 301.069C707.66 304.593 707.03 308.209 707.03 311.488H723.03H739.03C739.03 312.292 738.868 313.732 738.044 315.379L723.734 308.224ZM723.03 311.488H707.03C707.03 314.755 707.638 318.227 709.188 321.61L723.734 314.944L738.279 308.278C738.891 309.613 739.03 310.781 739.03 311.488H723.03ZM723.734 314.944L709.548 322.345C711.32 325.74 713.959 328.707 717.424 330.852L725.846 317.248L734.267 303.644C735.94 304.679 737.171 306.11 737.919 307.543L723.734 314.944ZM725.846 317.248L717.424 330.852C720.986 333.057 724.933 334.08 728.854 334.08V318.08V302.08C730.555 302.08 732.497 302.548 734.267 303.644L725.846 317.248ZM757.81 340.992H741.81C741.81 349.829 748.973 356.992 757.81 356.992V340.992ZM757.81 330.496V314.496C748.973 314.496 741.81 321.659 741.81 330.496H757.81ZM775.346 329.856L765.214 317.473C764.999 317.649 764.788 317.83 764.583 318.017L775.346 329.856ZM776.049 322.496H792.049C792.049 313.659 784.886 306.496 776.049 306.496V322.496ZM775.665 322.496V306.496C770.682 306.496 765.983 308.818 762.956 312.777L775.665 322.496ZM773.553 324.608L783.468 337.166C783.495 337.145 783.522 337.123 783.549 337.102L773.553 324.608ZM770.546 326.144L765.649 310.912C765.595 310.929 765.54 310.947 765.486 310.965L770.546 326.144ZM758.77 324.672L750.077 338.105C750.14 338.146 750.203 338.185 750.266 338.225L758.77 324.672ZM753.714 319.04L739.455 326.299L753.714 319.04ZM753.969 302.848L768.138 310.281C768.155 310.249 768.171 310.218 768.187 310.186L753.969 302.848ZM760.049 296.512L768.152 310.309C768.206 310.277 768.26 310.245 768.313 310.213L760.049 296.512ZM779.506 296.384L771.661 310.329C771.747 310.377 771.833 310.425 771.92 310.472L779.506 296.384ZM785.969 302.656L772.078 310.594C772.109 310.649 772.141 310.704 772.173 310.759L785.969 302.656ZM785.521 338.24L796.704 349.683L796.704 349.683L785.521 338.24ZM773.042 316.096L781.273 329.816L781.273 329.816L773.042 316.096ZM775.025 314.048L761.134 306.11C761.09 306.185 761.048 306.261 761.006 306.337L775.025 314.048ZM775.025 308.16L760.852 315.584C760.943 315.757 761.037 315.929 761.134 316.098L775.025 308.16ZM773.042 306.048L764.322 319.463C764.482 319.568 764.645 319.669 764.81 319.768L773.042 306.048ZM767.217 305.984L759.279 292.092C759.181 292.148 759.083 292.206 758.986 292.264L767.217 305.984ZM765.17 308.096L751.278 300.158C751.181 300.327 751.087 300.499 750.996 300.672L765.17 308.096ZM765.17 314.048L750.996 321.472C751.14 321.746 751.291 322.015 751.45 322.28L765.17 314.048ZM767.217 316.096L758.986 329.816C759.083 329.874 759.181 329.932 759.279 329.988L767.217 316.096ZM757.81 340.992H773.81V330.496H757.81H741.81V340.992H757.81ZM757.81 330.496V346.496H773.49V330.496V314.496H757.81V330.496ZM773.49 330.496V346.496C777.355 346.496 782.1 345.339 786.108 341.695L775.346 329.856L764.583 318.017C767.652 315.226 771.16 314.496 773.49 314.496V330.496ZM775.346 329.856L785.477 342.239C790.158 338.41 792.049 333.056 792.049 328.256H776.049H760.049C760.049 326.755 760.312 324.807 761.228 322.724C762.168 320.588 763.579 318.81 765.214 317.473L775.346 329.856ZM776.049 328.256H792.049V322.496H776.049H760.049V328.256H776.049ZM776.049 322.496V306.496H775.665V322.496V338.496H776.049V322.496ZM775.665 322.496L762.956 312.777C763.327 312.292 763.59 312.089 763.558 312.114L773.553 324.608L783.549 337.102C785.224 335.761 786.895 334.151 788.375 332.215L775.665 322.496ZM773.553 324.608L763.639 312.05C764.612 311.282 765.404 310.99 765.649 310.912L770.546 326.144L775.442 341.376C778.076 340.53 780.874 339.214 783.468 337.166L773.553 324.608ZM770.546 326.144L765.486 310.965C765.971 310.803 766.311 310.746 766.447 310.727C766.584 310.708 766.574 310.72 766.385 310.72V326.72V342.72C769.187 342.72 772.378 342.398 775.605 341.323L770.546 326.144ZM766.385 326.72V310.72C766.194 310.72 766.243 310.698 766.46 310.757C766.691 310.819 766.983 310.937 767.273 311.119L758.77 324.672L750.266 338.225C755.309 341.389 760.876 342.72 766.385 342.72V326.72ZM758.77 324.672L767.462 311.239C767.529 311.282 767.651 311.377 767.78 311.52C767.907 311.661 767.966 311.768 767.972 311.781L753.714 319.04L739.455 326.299C741.907 331.116 745.495 335.14 750.077 338.105L758.77 324.672ZM753.714 319.04L767.972 311.781C767.968 311.774 767.965 311.769 767.958 311.737C767.949 311.701 767.922 311.566 767.922 311.296H751.922H735.922C735.922 316.456 737.037 321.549 739.455 326.299L753.714 319.04ZM751.922 311.296H767.922C767.922 310.773 768.014 310.519 768.138 310.281L753.969 302.848L739.801 295.415C737.195 300.383 735.922 305.76 735.922 311.296H751.922ZM753.969 302.848L768.187 310.186C768.186 310.19 768.172 310.215 768.145 310.253C768.118 310.291 768.087 310.327 768.058 310.358C768.029 310.388 768.013 310.4 768.02 310.395C768.027 310.389 768.068 310.358 768.152 310.309L760.049 296.512L751.947 282.715C746.78 285.75 742.571 290.047 739.752 295.51L753.969 302.848ZM760.049 296.512L768.313 310.213C768.178 310.294 768.159 310.272 768.363 310.222C768.583 310.168 769.071 310.08 769.906 310.08V294.08V278.08C763.797 278.08 757.496 279.367 751.786 282.811L760.049 296.512ZM769.906 294.08V310.08C770.624 310.08 771.077 310.155 771.324 310.214C771.558 310.27 771.648 310.322 771.661 310.329L779.506 296.384L787.35 282.439C781.843 279.341 775.849 278.08 769.906 278.08V294.08ZM779.506 296.384L771.92 310.472C772.001 310.515 772.044 310.545 772.059 310.556C772.073 310.566 772.071 310.566 772.06 310.555C772.048 310.544 772.04 310.534 772.038 310.532C772.037 310.53 772.051 310.547 772.078 310.594L785.969 302.656L799.861 294.718C796.813 289.383 792.452 285.183 787.091 282.296L779.506 296.384ZM785.969 302.656L772.173 310.759C772.174 310.76 772.201 310.8 772.236 310.939C772.274 311.088 772.338 311.421 772.338 312H788.338H804.337C804.337 306.005 802.975 300.017 799.766 294.553L785.969 302.656ZM788.338 312H772.338V330.752H788.338H804.337V312H788.338ZM788.338 330.752H772.338C772.338 330.751 772.337 330.617 772.378 330.375C772.418 330.13 772.499 329.78 772.658 329.36C772.999 328.453 773.576 327.543 774.339 326.797L785.521 338.24L796.704 349.683C802.274 344.24 804.337 337.279 804.337 330.752H788.338ZM785.521 338.24L774.339 326.797C775.174 325.981 776.099 325.468 776.865 325.2C777.568 324.955 777.907 324.992 777.65 324.992V340.992V356.992C783.961 356.992 791.056 355.203 796.704 349.683L785.521 338.24ZM777.65 340.992V324.992H757.81V340.992V356.992H777.65V340.992ZM770.161 316.864V332.864C773.912 332.864 777.754 331.927 781.273 329.816L773.042 316.096L764.81 302.376C766.622 301.289 768.545 300.864 770.161 300.864V316.864ZM773.042 316.096L781.273 329.816C784.498 327.881 787.181 325.148 789.045 321.759L775.025 314.048L761.006 306.337C761.931 304.655 763.292 303.287 764.81 302.376L773.042 316.096ZM775.025 314.048L788.917 321.986C790.8 318.692 791.794 314.999 791.794 311.168H775.794H759.794C759.794 309.385 760.275 307.612 761.134 306.11L775.025 314.048ZM775.794 311.168H791.794C791.794 307.49 790.914 303.716 788.917 300.222L775.025 308.16L761.134 316.098C760.161 314.396 759.794 312.627 759.794 311.168H775.794ZM775.025 308.16L789.199 300.736C787.389 297.28 784.691 294.379 781.273 292.328L773.042 306.048L764.81 319.768C763.098 318.741 761.724 317.248 760.852 315.584L775.025 308.16ZM773.042 306.048L781.761 292.633C778.184 290.308 774.167 289.216 770.161 289.216V305.216V321.216C768.289 321.216 766.192 320.679 764.322 319.463L773.042 306.048ZM770.161 305.216V289.216C766.408 289.216 762.676 290.151 759.279 292.092L767.217 305.984L775.156 319.876C773.551 320.793 771.782 321.216 770.161 321.216V305.216ZM767.217 305.984L758.986 292.264C755.692 294.24 753.097 296.973 751.278 300.158L765.17 308.096L779.061 316.034C778.266 317.427 777.036 318.752 775.449 319.704L767.217 305.984ZM765.17 308.096L750.996 300.672C749.214 304.074 748.465 307.664 748.465 311.104H764.465H780.465C780.465 312.325 780.186 313.91 779.343 315.52L765.17 308.096ZM764.465 311.104H748.465C748.465 314.611 749.261 318.16 750.996 321.472L765.17 314.048L779.343 306.624C780.139 308.144 780.465 309.73 780.465 311.104H764.465ZM765.17 314.048L751.45 322.28C753.313 325.385 755.88 327.953 758.986 329.816L767.217 316.096L775.449 302.376C776.848 303.215 778.05 304.417 778.889 305.816L765.17 314.048ZM767.217 316.096L759.279 329.988C762.676 331.929 766.408 332.864 770.161 332.864V316.864V300.864C771.782 300.864 773.551 301.287 775.156 302.204L767.217 316.096ZM802.329 326.08L795.871 340.719L802.329 326.08ZM795.417 320.512L782.14 329.44C782.199 329.528 782.26 329.616 782.321 329.703L795.417 320.512ZM795.417 301.824L782.002 293.104L795.417 301.824ZM801.882 296.064L808.85 310.467C808.882 310.451 808.914 310.436 808.946 310.42L801.882 296.064ZM818.458 296L810.902 310.104C811.001 310.157 811.102 310.209 811.202 310.26L818.458 296ZM824.217 301.376L810.498 309.608C810.534 309.669 810.571 309.729 810.608 309.789L824.217 301.376ZM826.266 312.64L842.21 313.969C842.212 313.951 842.213 313.934 842.215 313.916L826.266 312.64ZM825.882 315.264V331.264C833.306 331.264 839.756 326.156 841.456 318.929L825.882 315.264ZM805.529 315.264V299.264C800.642 299.264 796.022 301.498 792.987 305.33C789.952 309.162 788.835 314.171 789.955 318.929L805.529 315.264ZM806.49 317.12L794.695 327.932C794.852 328.102 795.012 328.27 795.176 328.434L806.49 317.12ZM808.41 318.144L812.481 302.671H812.481L808.41 318.144ZM823.001 318.464H839.001C839.001 309.627 831.838 302.464 823.001 302.464V318.464ZM823.001 328V344C831.838 344 839.001 336.837 839.001 328H823.001ZM804.954 308.48L789.077 306.495C788.508 311.049 789.921 315.628 792.959 319.069C795.996 322.509 800.364 324.48 804.954 324.48V308.48ZM815.066 308.48V324.48C823.902 324.48 831.066 317.317 831.066 308.48H815.066ZM814.234 305.728L800.514 313.96C800.845 314.512 801.209 315.043 801.604 315.551L814.234 305.728ZM813.273 304.64L802.644 316.599C802.905 316.831 803.174 317.055 803.45 317.27L813.273 304.64ZM811.866 303.872L806.806 319.051C806.924 319.09 807.042 319.128 807.16 319.164L811.866 303.872ZM807.962 304L802.019 289.144C801.898 289.193 801.778 289.242 801.659 289.294L807.962 304ZM806.426 305.024L795.112 293.71V293.71L806.426 305.024ZM805.402 306.56L790.695 300.257C790.565 300.561 790.445 300.868 790.334 301.179L805.402 306.56ZM812.249 328V312C810.386 312 809.337 311.684 808.788 311.441L802.329 326.08L795.871 340.719C801.125 343.036 806.689 344 812.249 344V328ZM802.329 326.08L808.788 311.441C808.654 311.382 808.569 311.335 808.522 311.307C808.476 311.279 808.459 311.265 808.463 311.268C808.467 311.271 808.479 311.282 808.495 311.298C808.51 311.315 808.517 311.325 808.514 311.321L795.417 320.512L782.321 329.703C785.816 334.684 790.489 338.344 795.871 340.719L802.329 326.08ZM795.417 320.512L808.695 311.584C808.774 311.702 808.839 311.82 808.887 311.927C808.936 312.033 808.959 312.106 808.966 312.135C808.982 312.192 808.921 312.008 808.921 311.488H792.921H776.922C776.922 317.602 778.39 323.863 782.14 329.44L795.417 320.512ZM792.921 311.488H808.921C808.921 310.678 809.009 310.269 809.037 310.161C809.059 310.076 809.024 310.249 808.833 310.544L795.417 301.824L782.002 293.104C778.248 298.881 776.922 305.345 776.922 311.488H792.921ZM795.417 301.824L808.833 310.544C808.886 310.462 808.921 310.418 808.934 310.403C808.947 310.389 808.944 310.393 808.926 310.409C808.908 310.426 808.886 310.443 808.865 310.457C808.844 310.471 808.836 310.473 808.85 310.467L801.882 296.064L794.913 281.661C789.535 284.263 785.192 288.197 782.002 293.104L795.417 301.824ZM801.882 296.064L808.946 310.42C809.476 310.159 809.879 310.08 810.329 310.08V294.08V278.08C804.892 278.08 799.663 279.323 794.817 281.708L801.882 296.064ZM810.329 294.08V310.08C810.713 310.08 810.907 310.12 810.955 310.131C810.996 310.141 810.963 310.137 810.902 310.104L818.458 296L826.013 281.896C821.037 279.231 815.68 278.08 810.329 278.08V294.08ZM818.458 296L811.202 310.26C811.136 310.227 810.981 310.134 810.804 309.969C810.628 309.804 810.529 309.661 810.498 309.608L824.217 301.376L837.937 293.144C834.988 288.229 830.831 284.344 825.713 281.74L818.458 296ZM824.217 301.376L810.608 309.789C810.53 309.663 810.469 309.542 810.426 309.438C810.382 309.335 810.362 309.265 810.355 309.239C810.342 309.187 810.393 309.357 810.393 309.824H826.393H842.393C842.393 304.139 841.116 298.284 837.827 292.963L824.217 301.376ZM826.393 309.824H810.393C810.393 310.099 810.378 310.597 810.316 311.364L826.266 312.64L842.215 313.916C842.324 312.55 842.393 311.17 842.393 309.824H826.393ZM826.266 312.64L810.321 311.311C810.301 311.544 810.283 311.685 810.274 311.747C810.265 311.812 810.27 311.755 810.307 311.599L825.882 315.264L841.456 318.929C841.861 317.209 842.082 315.508 842.21 313.969L826.266 312.64ZM825.882 315.264V299.264H805.529V315.264V331.264H825.882V315.264ZM805.529 315.264L789.955 318.929C790.706 322.12 792.24 325.254 794.695 327.932L806.49 317.12L818.284 306.308C819.8 307.962 820.695 309.858 821.104 311.599L805.529 315.264ZM806.49 317.12L795.176 328.434C798.11 331.368 801.497 332.87 804.338 333.617L808.41 318.144L812.481 302.671C813.7 302.992 815.807 303.81 817.803 305.806L806.49 317.12ZM808.41 318.144L804.338 333.617C806.732 334.247 809.055 334.464 811.161 334.464V318.464V302.464C811.22 302.464 811.708 302.467 812.481 302.671L808.41 318.144ZM811.161 318.464V334.464H823.001V318.464V302.464H811.161V318.464ZM823.001 318.464H807.001V328H823.001H839.001V318.464H823.001ZM823.001 328V312H812.249V328V344H823.001V328ZM804.954 308.48V324.48H815.066V308.48V292.48H804.954V308.48ZM815.066 308.48H831.066C831.066 306.621 830.831 304.71 830.31 302.798L814.874 307.008L799.437 311.218C799.172 310.245 799.066 309.315 799.066 308.48H815.066ZM814.874 307.008L830.31 302.798C829.626 300.291 828.459 297.956 826.863 295.905L814.234 305.728L801.604 315.551C800.606 314.268 799.865 312.787 799.437 311.218L814.874 307.008ZM814.234 305.728L827.953 297.496C826.705 295.415 825.076 293.55 823.097 292.01L813.273 304.64L803.45 317.27C802.239 316.328 801.25 315.188 800.514 313.96L814.234 305.728ZM813.273 304.64L823.903 292.681C821.597 290.631 819.032 289.337 816.571 288.58L811.866 303.872L807.16 319.164C805.808 318.749 804.182 317.966 802.644 316.599L813.273 304.64ZM811.866 303.872L816.925 288.693C814.511 287.888 812.186 287.616 810.137 287.616V303.616V319.616C809.369 319.616 808.196 319.514 806.806 319.051L811.866 303.872ZM810.137 303.616V287.616C807.644 287.616 804.851 288.012 802.019 289.144L807.962 304L813.904 318.856C812.352 319.476 811.01 319.616 810.137 319.616V303.616ZM807.962 304L801.659 289.294C799.336 290.289 797.085 291.737 795.112 293.71L806.426 305.024L817.739 316.338C816.619 317.458 815.393 318.223 814.264 318.706L807.962 304ZM806.426 305.024L795.112 293.71C793.138 295.684 791.691 297.934 790.695 300.257L805.402 306.56L820.108 312.863C819.624 313.991 818.86 315.217 817.739 316.338L806.426 305.024ZM805.402 306.56L790.334 301.179C789.696 302.964 789.295 304.751 789.077 306.495L804.954 308.48L820.83 310.465C820.783 310.843 820.68 311.351 820.469 311.941L805.402 306.56ZM831.127 328H815.127C815.127 336.837 822.29 344 831.127 344V328ZM831.127 281.28V265.28C822.29 265.28 815.127 272.443 815.127 281.28H831.127ZM843.351 281.28H859.351C859.351 272.443 852.188 265.28 843.351 265.28V281.28ZM843.351 328V344C852.188 344 859.351 336.837 859.351 328H843.351ZM831.127 328H847.127V281.28H831.127H815.127V328H831.127ZM831.127 281.28V297.28H843.351V281.28V265.28H831.127V281.28ZM843.351 281.28H827.351V328H843.351H859.351V281.28H843.351ZM843.351 328V312H831.127V328V344H843.351V328ZM850.43 304.32L835.403 298.827C833.609 303.734 834.324 309.207 837.318 313.488C840.311 317.77 845.206 320.32 850.43 320.32V304.32ZM853.822 295.04L868.85 300.533C871.675 292.804 868.177 284.194 860.764 280.624L853.822 295.04ZM851.007 292.608L837.53 301.233C837.61 301.358 837.692 301.482 837.776 301.605L851.007 292.608ZM851.902 284.288L840.776 272.79C840.713 272.851 840.651 272.912 840.589 272.974L851.902 284.288ZM861.374 284.416L849.519 295.16C849.579 295.227 849.64 295.293 849.702 295.359L861.374 284.416ZM862.846 292.736L847.397 288.576C847.346 288.763 847.3 288.95 847.256 289.138L862.846 292.736ZM861.695 296.32L846.839 290.378C846.798 290.481 846.757 290.585 846.718 290.689L861.695 296.32ZM858.686 304.32V320.32C865.351 320.32 871.317 316.189 873.663 309.951L858.686 304.32ZM850.43 304.32L865.458 309.813L868.85 300.533L853.822 295.04L838.795 289.547L835.403 298.827L850.43 304.32ZM853.822 295.04L860.764 280.624C862.172 281.302 863.394 282.371 864.237 283.611L851.007 292.608L837.776 301.605C840.069 304.978 843.169 307.669 846.881 309.456L853.822 295.04ZM851.007 292.608L864.483 283.983C865.344 285.329 865.982 287.167 865.982 289.216H849.982H833.982C833.982 293.655 835.303 297.753 837.53 301.233L851.007 292.608ZM849.982 289.216H865.982C865.982 289.93 865.865 291.022 865.371 292.288C864.865 293.587 864.1 294.718 863.216 295.602L851.902 284.288L840.589 272.974C835.971 277.592 833.982 283.469 833.982 289.216H849.982ZM851.902 284.288L863.029 295.786C862.405 296.39 861.466 297.09 860.2 297.617C858.919 298.151 857.638 298.368 856.51 298.368V282.368V266.368C850.375 266.368 844.91 268.789 840.776 272.79L851.902 284.288ZM856.51 282.368V298.368C855.677 298.368 854.432 298.22 853.022 297.626C851.578 297.019 850.392 296.124 849.519 295.16L861.374 284.416L873.23 273.672C868.672 268.642 862.586 266.368 856.51 266.368V282.368ZM861.374 284.416L849.702 295.359C849.033 294.645 848.372 293.677 847.906 292.48C847.443 291.292 847.294 290.193 847.294 289.344H863.294H879.294C879.294 283.476 877.186 277.888 873.047 273.473L861.374 284.416ZM863.294 289.344H847.294C847.294 289.095 847.329 288.827 847.397 288.576L862.846 292.736L878.296 296.896C878.961 294.426 879.294 291.897 879.294 289.344H863.294ZM862.846 292.736L847.256 289.138C847.218 289.303 847.107 289.706 846.839 290.378L861.695 296.32L876.55 302.262C877.306 300.374 877.963 298.388 878.437 296.334L862.846 292.736ZM861.695 296.32L846.718 290.689L843.71 298.689L858.686 304.32L873.663 309.951L876.671 301.951L861.695 296.32ZM858.686 304.32V288.32H850.43V304.32V320.32H858.686V304.32Z" fill="#96749A" mask="url(#path-3-outside-1_171_73)"/>
</svg>
