<svg width="144" height="107" viewBox="0 0 144 107" fill="none" xmlns="http://www.w3.org/2000/svg">
<rect width="144" height="107" fill="#B3C9A2"/>
<path d="M70.8644 50.7075C74.9778 50.7531 80.0315 52.881 84.0151 54.9602C86.0159 56.0044 87.7635 57.0455 89.0112 57.8256C89.6352 58.2158 90.1346 58.541 90.4786 58.7691C90.6507 58.8831 90.7839 58.9728 90.8744 59.0343C90.9197 59.0651 90.9543 59.0888 90.9778 59.1049C90.9895 59.113 90.9984 59.1191 91.0045 59.1234C91.0076 59.1255 91.0099 59.1271 91.0115 59.1282C91.0123 59.1288 91.013 59.1292 91.0134 59.1295C91.0136 59.1297 91.0138 59.1298 91.0139 59.1299C91.0141 59.13 91.0142 59.1301 90.7628 59.9546L91.0917 60.5583C91.1384 60.6442 91.1385 60.6447 91.1384 60.6449C91.1383 60.645 91.138 60.6454 91.1378 60.6457C91.1373 60.6463 91.1367 60.647 91.136 60.6479C91.1346 60.6497 91.1328 60.652 91.1305 60.6549C91.126 60.6606 91.1197 60.6686 91.1116 60.6786C91.0955 60.6987 91.0724 60.7272 91.0424 60.7636C90.9823 60.8364 90.8945 60.9406 90.7795 61.0718C90.5495 61.3342 90.2107 61.7044 89.7672 62.1455C88.8805 63.0277 87.5746 64.195 85.8841 65.3525C82.5027 67.668 77.5801 69.9459 71.3996 69.82C65.2192 69.6941 60.3789 67.2173 57.08 64.766C55.4308 63.5405 54.1661 62.321 53.3106 61.4034C52.8827 60.9445 52.5569 60.5609 52.3362 60.2894C52.2258 60.1537 52.1417 60.0459 52.0842 59.9708C52.0555 59.9332 52.0334 59.9038 52.018 59.8831C52.0103 59.8728 52.0043 59.8646 52 59.8587C51.9978 59.8557 51.996 59.8533 51.9947 59.8515C51.994 59.8506 51.9935 59.8498 51.993 59.8492C51.9928 59.8489 51.9925 59.8485 51.9924 59.8483C51.9923 59.8481 51.9933 59.8462 52.0422 59.7636L52.3926 59.1729C52.1465 58.369 52.1434 58.3584 52.1435 58.3582C52.1436 58.3581 52.1439 58.3579 52.1441 58.3578C52.1445 58.3575 52.1451 58.357 52.1458 58.3565C52.1473 58.3554 52.1494 58.3539 52.1522 58.3519C52.1576 58.3479 52.1656 58.342 52.1761 58.3345C52.197 58.3194 52.2277 58.2972 52.2678 58.2686C52.3481 58.2112 52.466 58.1277 52.6186 58.0217C52.9237 57.8099 53.3673 57.5083 53.9241 57.1471C55.0374 56.425 56.6057 55.4634 58.4274 54.5043C62.0564 52.5939 66.7488 50.6619 70.8644 50.7075ZM70.8381 52.5166C66.9288 52.4733 62.3919 54.3218 58.7978 56.2139C57.008 57.1562 55.4662 58.1015 54.3725 58.8109C54.044 59.024 53.7561 59.2157 53.5142 59.3794C53.6558 59.5414 53.8178 59.7217 54.0001 59.9172C54.8118 60.7877 56.0234 61.9574 57.6103 63.1366C60.7838 65.4947 65.4553 67.8892 71.4332 68.011C77.4111 68.1328 82.1617 65.9303 85.4138 63.7033C87.0402 62.5897 88.2912 61.4704 89.1321 60.6337C89.3014 60.4652 89.4541 60.3082 89.5898 60.1651C89.3016 59.9776 88.9518 59.7534 88.549 59.5016C87.3172 58.7314 85.5916 57.7035 83.6176 56.6732C79.6517 54.6033 74.7496 52.56 70.8381 52.5166ZM52.3926 59.1729L51.992 59.8477L51.3406 58.9469L52.1433 58.3584L52.3926 59.1729ZM91.8616 59.7184L91.1389 60.6443L90.7628 59.9546L91.0142 59.1301L91.8616 59.7184Z" fill="#38442C"/>
<path d="M67.5754 54.4336C70.7623 54.4336 73.345 57.0165 73.345 60.2012C73.3448 63.3856 70.7621 65.9677 67.5754 65.9678C64.3887 65.9678 61.8061 63.3857 61.8059 60.2012C61.8059 57.0165 64.3886 54.4336 67.5754 54.4336Z" fill="#38442C" stroke="#38442C" stroke-width="3"/>
<ellipse cx="69.8293" cy="58.0138" rx="1.81784" ry="1.01769" fill="#B3C9A2"/>
<path d="M110.094 47.4535C110.094 47.6799 110.016 47.8764 109.861 48.0432C109.706 48.1981 109.516 48.2755 109.289 48.2755H108.788C108.562 48.2755 108.371 48.1981 108.216 48.0432C108.061 47.8764 107.984 47.6799 107.984 47.4535V41.3961C107.984 41.3246 107.954 41.265 107.895 41.2174C107.847 41.1697 107.793 41.1459 107.734 41.1459H105.999C105.94 41.1459 105.88 41.1697 105.821 41.2174C105.773 41.265 105.749 41.3246 105.749 41.3961V47.4535C105.749 47.6799 105.672 47.8764 105.517 48.0432C105.362 48.1981 105.171 48.2755 104.945 48.2755H104.444C104.218 48.2755 104.021 48.1981 103.854 48.0432C103.699 47.8764 103.622 47.6799 103.622 47.4535V41.0208C103.622 40.6515 103.711 40.318 103.89 40.0202C104.081 39.7105 104.325 39.4662 104.623 39.2876C104.921 39.1089 105.255 39.0195 105.624 39.0195H108.109C108.479 39.0195 108.812 39.1089 109.11 39.2876C109.408 39.4662 109.647 39.7105 109.825 40.0202C110.004 40.318 110.094 40.6515 110.094 41.0208V47.4535Z" fill="#38442C"/>
<path d="M102.167 46.2742C102.167 46.8341 101.971 47.3106 101.577 47.7037C101.196 48.0849 100.731 48.2755 100.183 48.2755H97.6977C97.1494 48.2755 96.6786 48.0849 96.2853 47.7037C95.892 47.3106 95.6953 46.8341 95.6953 46.2742V41.0208C95.6953 40.6515 95.7847 40.318 95.9635 40.0202C96.1542 39.7105 96.3985 39.4662 96.6965 39.2876C96.9945 39.1089 97.3282 39.0195 97.6977 39.0195H100.183C100.552 39.0195 100.886 39.1089 101.184 39.2876C101.482 39.4662 101.72 39.7105 101.899 40.0202C102.078 40.318 102.167 40.6515 102.167 41.0208V46.2742ZM100.058 45.9347V41.3961C100.058 41.3246 100.028 41.265 99.9682 41.2174C99.9205 41.1697 99.8669 41.1459 99.8073 41.1459H98.0731C98.0135 41.1459 97.9539 41.1697 97.8943 41.2174C97.8466 41.265 97.8228 41.3246 97.8228 41.3961V45.9347C97.8228 45.9943 97.8466 46.0479 97.8943 46.0955C97.9539 46.1432 98.0135 46.167 98.0731 46.167H99.8073C99.8669 46.167 99.9205 46.1432 99.9682 46.0955C100.028 46.0479 100.058 45.9943 100.058 45.9347Z" fill="#38442C"/>
<path d="M94.2572 37.3401C94.2572 37.7094 94.1201 38.0311 93.846 38.3051C93.5838 38.5671 93.2739 38.6982 92.9163 38.6982C92.5469 38.6982 92.2251 38.5671 91.9509 38.3051C91.6887 38.0311 91.5576 37.7094 91.5576 37.3401C91.5576 36.9828 91.6887 36.6731 91.9509 36.411C92.2251 36.137 92.5469 36 92.9163 36C93.2739 36 93.5838 36.137 93.846 36.411C94.1201 36.6731 94.2572 36.9828 94.2572 37.3401ZM93.9712 47.4538C93.9712 47.6801 93.8877 47.8767 93.7209 48.0435C93.5659 48.1983 93.3752 48.2758 93.1488 48.2758H92.6661C92.4396 48.2758 92.2429 48.1983 92.0761 48.0435C91.9211 47.8767 91.8437 47.6801 91.8437 47.4538V40.0383C91.8437 39.812 91.9211 39.6214 92.0761 39.4665C92.2429 39.2997 92.4396 39.2164 92.6661 39.2164H93.1488C93.3752 39.2164 93.5659 39.2997 93.7209 39.4665C93.8877 39.6214 93.9712 39.812 93.9712 40.0383V47.4538Z" fill="#38442C"/>
<path d="M90.103 46.2742C90.103 46.8341 89.9063 47.3106 89.513 47.7037C89.1316 48.0849 88.6668 48.2755 88.1185 48.2755H85.6334C85.0852 48.2755 84.6144 48.0849 84.2211 47.7037C83.8278 47.3106 83.6311 46.8341 83.6311 46.2742V45.5416C83.6311 45.3152 83.7086 45.1246 83.8635 44.9698C84.0304 44.803 84.227 44.7196 84.4535 44.7196H84.9541C85.1805 44.7196 85.3712 44.803 85.5262 44.9698C85.6811 45.1246 85.7586 45.3152 85.7586 45.5416V45.9347C85.7586 46.0896 85.842 46.167 86.0089 46.167H87.7431C87.8027 46.167 87.8563 46.1432 87.904 46.0955C87.9636 46.0479 87.9933 45.9943 87.9933 45.9347V45.2736C87.9933 45.1783 87.9457 45.1127 87.8503 45.077L85.258 44.255C84.7813 44.0883 84.3879 43.8024 84.0781 43.3973C83.7801 42.9923 83.6311 42.5337 83.6311 42.0215V41.0208C83.6311 40.6515 83.7205 40.318 83.8993 40.0202C84.09 39.7224 84.3343 39.4841 84.6323 39.3054C84.9302 39.1148 85.264 39.0195 85.6334 39.0195H88.1185C88.488 39.0195 88.8217 39.1148 89.1197 39.3054C89.4176 39.4841 89.656 39.7224 89.8348 40.0202C90.0136 40.318 90.103 40.6515 90.103 41.0208V41.7356C90.103 41.9619 90.0255 42.1585 89.8705 42.3252C89.7156 42.4801 89.5249 42.5575 89.2984 42.5575H88.7979C88.5714 42.5575 88.3807 42.4801 88.2258 42.3252C88.0708 42.1585 87.9933 41.9619 87.9933 41.7356V41.3961C87.9933 41.3246 87.9636 41.265 87.904 41.2174C87.8563 41.1697 87.8027 41.1459 87.7431 41.1459H86.0089C85.842 41.1459 85.7586 41.2293 85.7586 41.3961V42.0215C85.7586 42.1406 85.8063 42.2121 85.9016 42.2359L88.4939 43.0578C88.9826 43.2127 89.37 43.4926 89.656 43.8977C89.954 44.3027 90.103 44.7613 90.103 45.2736V46.2742Z" fill="#38442C"/>
<path d="M82.193 37.3401C82.193 37.7094 82.0559 38.0311 81.7818 38.3051C81.5196 38.5671 81.2097 38.6982 80.8521 38.6982C80.4827 38.6982 80.1609 38.5671 79.8867 38.3051C79.6245 38.0311 79.4934 37.7094 79.4934 37.3401C79.4934 36.9828 79.6245 36.6731 79.8867 36.411C80.1609 36.137 80.4827 36 80.8521 36C81.2097 36 81.5196 36.137 81.7818 36.411C82.0559 36.6731 82.193 36.9828 82.193 37.3401ZM81.9069 47.4538C81.9069 47.6801 81.8235 47.8767 81.6567 48.0435C81.5017 48.1983 81.311 48.2758 81.0846 48.2758H80.6018C80.3754 48.2758 80.1787 48.1983 80.0119 48.0435C79.8569 47.8767 79.7795 47.6801 79.7795 47.4538V40.0383C79.7795 39.812 79.8569 39.6214 80.0119 39.4665C80.1787 39.2997 80.3754 39.2164 80.6018 39.2164H81.0846C81.311 39.2164 81.5017 39.2997 81.6567 39.4665C81.8235 39.6214 81.9069 39.812 81.9069 40.0383V47.4538Z" fill="#38442C"/>
<path d="M78.0339 37.2674L74.5656 47.7206C74.5179 47.8754 74.4166 48.0065 74.2617 48.1137C74.1186 48.2209 73.9637 48.2745 73.7968 48.2745H73.0638C72.897 48.2745 72.742 48.2209 72.599 48.1137C72.4679 48.0065 72.3725 47.8754 72.313 47.7206L68.8446 37.2674C68.7493 37.0054 68.785 36.7612 68.9519 36.5348C69.1068 36.3085 69.3273 36.1953 69.6134 36.1953H70.1318C70.5251 36.1953 70.7874 36.38 70.9185 36.7492L73.332 44.1111C73.4035 44.1945 73.4691 44.1945 73.5287 44.1111C73.779 43.3368 74.0352 42.5446 74.2974 41.7346C74.5715 40.9126 74.8278 40.1443 75.0662 39.4295C75.3045 38.7029 75.5012 38.1013 75.6561 37.6248L75.9422 36.7492C76.0018 36.5825 76.1031 36.4514 76.2461 36.3561C76.4011 36.2489 76.562 36.1953 76.7288 36.1953H77.2473C77.5333 36.1953 77.7538 36.3085 77.9088 36.5348C78.0756 36.7492 78.1174 36.9934 78.0339 37.2674Z" fill="#38442C"/>
<path d="M68.2345 40.3418C68.2345 40.5681 68.1571 40.7587 68.0021 40.9136C67.8472 41.0685 67.6565 41.1459 67.43 41.1459H65.3025C65.1476 41.1459 65.0701 41.2293 65.0701 41.3961V47.4535C65.0701 47.6799 64.9867 47.8764 64.8198 48.0432C64.6649 48.1981 64.4742 48.2755 64.2477 48.2755H63.7471C63.5207 48.2755 63.33 48.1981 63.175 48.0432C63.0201 47.8764 62.9426 47.6799 62.9426 47.4535V41.0208C62.9426 40.6515 63.032 40.318 63.2108 40.0202C63.3896 39.7105 63.628 39.4662 63.9259 39.2876C64.2239 39.1089 64.5576 39.0195 64.9271 39.0195H67.43C67.6565 39.0195 67.8472 39.1029 68.0021 39.2697C68.1571 39.4246 68.2345 39.6211 68.2345 39.8594V40.3418Z" fill="#38442C"/>
<path d="M61.4703 46.2742C61.4703 46.8341 61.2736 47.3106 60.8803 47.7037C60.4989 48.0849 60.0341 48.2755 59.4858 48.2755H57.0008C56.4525 48.2755 55.9817 48.0849 55.5884 47.7037C55.1951 47.3106 54.9984 46.8341 54.9984 46.2742V44.3265C54.9984 43.9572 55.0878 43.6296 55.2666 43.3437C55.4573 43.0459 55.7016 42.8077 55.9996 42.629C56.2976 42.4503 56.6313 42.361 57.0008 42.361H59.1104C59.17 42.361 59.2236 42.3371 59.2713 42.2895C59.3309 42.2418 59.3607 42.1823 59.3607 42.1108V41.3961C59.3607 41.3246 59.3309 41.265 59.2713 41.2174C59.2236 41.1697 59.17 41.1459 59.1104 41.1459H57.0008C56.7743 41.1459 56.5776 41.0685 56.4108 40.9136C56.2558 40.7587 56.1784 40.5681 56.1784 40.3418V39.8594C56.1784 39.6211 56.2558 39.4246 56.4108 39.2697C56.5776 39.1029 56.7743 39.0195 57.0008 39.0195H59.4858C59.8553 39.0195 60.189 39.1089 60.487 39.2876C60.7849 39.4662 61.0233 39.7105 61.2021 40.0202C61.3809 40.318 61.4703 40.6515 61.4703 41.0208V46.2742ZM59.3607 45.9347V44.7018C59.3607 44.6422 59.3309 44.5886 59.2713 44.5409C59.2236 44.4933 59.17 44.4695 59.1104 44.4695H57.3762C57.3166 44.4695 57.257 44.4933 57.1974 44.5409C57.1497 44.5886 57.1259 44.6422 57.1259 44.7018V45.9347C57.1259 45.9943 57.1497 46.0479 57.1974 46.0955C57.257 46.1432 57.3166 46.167 57.3762 46.167H59.1104C59.17 46.167 59.2236 46.1432 59.2713 46.0955C59.3309 46.0479 59.3607 45.9943 59.3607 45.9347Z" fill="#38442C"/>
<path d="M53.5439 42.9685C53.5439 43.3259 53.4545 43.6594 53.2757 43.9691C53.0969 44.267 52.8585 44.5112 52.5606 44.7018C52.2626 44.8804 51.9289 44.9698 51.5594 44.9698H49.4498C49.3902 44.9698 49.3306 44.9936 49.271 45.0413C49.2233 45.077 49.1995 45.1246 49.1995 45.1842V45.9347C49.1995 45.9943 49.2233 46.0479 49.271 46.0955C49.3306 46.1432 49.3902 46.167 49.4498 46.167H51.5594C51.7859 46.167 51.9766 46.2444 52.1315 46.3993C52.2984 46.5541 52.3818 46.7507 52.3818 46.9889V47.4535C52.3818 47.6799 52.2984 47.8764 52.1315 48.0432C51.9766 48.1981 51.7859 48.2755 51.5594 48.2755H49.0744C48.5261 48.2755 48.0553 48.0849 47.662 47.7037C47.2687 47.3106 47.072 46.8341 47.072 46.2742V41.0208C47.072 40.6515 47.1614 40.318 47.3402 40.0202C47.5309 39.7224 47.7752 39.4841 48.0732 39.3054C48.3712 39.1148 48.7049 39.0195 49.0744 39.0195H51.5594C51.9289 39.0195 52.2626 39.1148 52.5606 39.3054C52.8585 39.4841 53.0969 39.7224 53.2757 40.0202C53.4545 40.318 53.5439 40.6515 53.5439 41.0208V42.9685ZM51.4343 42.6111V41.3961C51.4343 41.3246 51.4045 41.265 51.3449 41.2174C51.2972 41.1697 51.2436 41.1459 51.184 41.1459H49.4498C49.3902 41.1459 49.3306 41.1697 49.271 41.2174C49.2233 41.265 49.1995 41.3246 49.1995 41.3961V42.6111C49.1995 42.6588 49.2233 42.7064 49.271 42.7541C49.3306 42.8017 49.3902 42.8256 49.4498 42.8256H51.184C51.2436 42.8256 51.2972 42.8017 51.3449 42.7541C51.4045 42.7064 51.4343 42.6588 51.4343 42.6111Z" fill="#38442C"/>
<path d="M45.6641 47.4526C45.6641 47.6789 45.5807 47.8754 45.4138 48.0422C45.2589 48.1971 45.0682 48.2745 44.8417 48.2745H44.3948C43.8465 48.2745 43.3757 48.0839 42.9824 47.7027C42.5891 47.3096 42.3925 46.8331 42.3925 46.2732V37.0173C42.3925 36.779 42.4699 36.5825 42.6249 36.4276C42.7917 36.2727 42.9884 36.1953 43.2148 36.1953H43.7154C43.9419 36.1953 44.1326 36.2727 44.2875 36.4276C44.4544 36.5825 44.5378 36.779 44.5378 37.0173V45.9337C44.5378 46.0886 44.6093 46.166 44.7524 46.166H44.8417C45.0682 46.166 45.2589 46.2434 45.4138 46.3983C45.5807 46.5532 45.6641 46.7497 45.6641 46.988V47.4526Z" fill="#38442C"/>
<path d="M40.9557 45.9159C40.9557 46.3447 40.8485 46.7378 40.6339 47.0952C40.4194 47.4526 40.1333 47.7385 39.7758 47.9529C39.4182 48.1673 39.0249 48.2745 38.5958 48.2745H35.3778C34.9487 48.2745 34.5494 48.1673 34.18 47.9529C33.8224 47.7385 33.5363 47.4526 33.3218 47.0952C33.1073 46.7378 33 46.3447 33 45.9159V38.5718C33 38.1311 33.1073 37.732 33.3218 37.3746C33.5363 37.0173 33.8224 36.7314 34.18 36.5169C34.5494 36.3025 34.9487 36.1953 35.3778 36.1953H38.5958C39.0249 36.1953 39.4182 36.3025 39.7758 36.5169C40.1333 36.7314 40.4194 37.0173 40.6339 37.3746C40.8485 37.732 40.9557 38.1311 40.9557 38.5718V39.0543C40.9557 39.2806 40.8783 39.4712 40.7233 39.6261C40.5684 39.781 40.3717 39.8584 40.1333 39.8584H39.6506C39.4242 39.8584 39.2275 39.781 39.0607 39.6261C38.9057 39.4712 38.8282 39.2806 38.8282 39.0543V38.5718C38.8282 38.4051 38.7508 38.3217 38.5958 38.3217H35.3778C35.2228 38.3217 35.1454 38.4051 35.1454 38.5718V45.9159C35.1454 45.9754 35.1692 46.035 35.2169 46.0945C35.2646 46.1422 35.3182 46.166 35.3778 46.166H38.5958C38.6554 46.166 38.7091 46.1422 38.7567 46.0945C38.8044 46.035 38.8282 45.9754 38.8282 45.9159V45.3798C38.8282 45.1535 38.9057 44.9629 39.0607 44.808C39.2275 44.6412 39.4242 44.5578 39.6506 44.5578H40.1333C40.3717 44.5578 40.5684 44.6412 40.7233 44.808C40.8783 44.9629 40.9557 45.1535 40.9557 45.3798V45.9159Z" fill="#38442C"/>
</svg>
