<svg width="2160" height="2269" viewBox="0 0 2160 2269" fill="none" xmlns="http://www.w3.org/2000/svg">
<rect width="2160" height="2269" fill="#F4EFEB"/>
<path d="M377.6 222.8C377.6 227.867 375.733 232.267 372 236C368.533 239.467 364.4 241.2 359.6 241.2H256.4C253.2 241.2 251.6 242.933 251.6 246.4V299.6C251.6 303.333 253.2 305.2 256.4 305.2H345.2C350.533 305.2 354.933 306.933 358.4 310.4C361.867 313.867 363.6 318.133 363.6 323.2V334.4C363.6 339.467 361.867 343.867 358.4 347.6C354.933 351.067 350.533 352.8 345.2 352.8H256.4C253.2 352.8 251.6 354.4 251.6 357.6V445.6C251.6 450.667 249.733 455.067 246 458.8C242.533 462.267 238.267 464 233.2 464H222C217.2 464 212.933 462.267 209.2 458.8C205.733 455.067 204 450.667 204 445.6V212C204 206.667 205.733 202.267 209.2 198.8C212.933 195.333 217.2 193.6 222 193.6H359.6C364.4 193.6 368.533 195.333 372 198.8C375.733 202.267 377.6 206.667 377.6 212V222.8ZM592.669 411.2C592.669 420.8 590.269 429.6 585.469 437.6C580.669 445.6 574.269 452 566.269 456.8C558.269 461.6 549.469 464 539.869 464H463.069C453.469 464 444.535 461.6 436.269 456.8C428.269 452 421.869 445.6 417.069 437.6C412.269 429.6 409.869 420.8 409.869 411.2V246.8C409.869 236.933 412.269 228 417.069 220C421.869 212 428.269 205.6 436.269 200.8C444.535 196 453.469 193.6 463.069 193.6H539.869C549.469 193.6 558.269 196 566.269 200.8C574.269 205.6 580.669 212 585.469 220C590.269 228 592.669 236.933 592.669 246.8V411.2ZM545.069 411.2V246.8C545.069 243.067 543.335 241.2 539.869 241.2H463.069C461.735 241.2 460.402 241.733 459.069 242.8C458.002 243.867 457.469 245.2 457.469 246.8V411.2C457.469 412.533 458.002 413.867 459.069 415.2C460.402 416.267 461.735 416.8 463.069 416.8H539.869C541.202 416.8 542.402 416.267 543.469 415.2C544.535 413.867 545.069 412.533 545.069 411.2ZM808.294 445.6C808.294 450.667 806.427 455.067 802.694 458.8C799.227 462.267 794.96 464 789.894 464H778.294C771.094 464 765.76 460.933 762.294 454.8L677.094 307.2C676.56 306.133 675.76 305.867 674.694 306.4C673.627 306.667 673.094 307.2 673.094 308V445.6C673.094 450.667 671.227 455.067 667.494 458.8C664.027 462.267 659.894 464 655.094 464H643.894C638.827 464 634.427 462.267 630.694 458.8C627.227 455.067 625.494 450.667 625.494 445.6V212C625.494 206.667 627.227 202.267 630.694 198.8C634.427 195.333 638.827 193.6 643.894 193.6H655.494C662.694 193.6 668.027 196.667 671.494 202.8L756.694 350.4C757.494 351.467 758.294 351.867 759.094 351.6C760.16 351.333 760.694 350.667 760.694 349.6V212C760.694 206.667 762.427 202.267 765.894 198.8C769.627 195.333 774.027 193.6 779.094 193.6H789.894C794.96 193.6 799.227 195.333 802.694 198.8C806.427 202.267 808.294 206.667 808.294 212V445.6ZM1019.12 222.8C1019.12 227.867 1017.39 232.267 1013.92 236C1010.45 239.467 1006.05 241.2 1000.72 241.2H958.719C955.252 241.2 953.519 242.933 953.519 246.4V445.6C953.519 450.667 951.652 455.067 947.919 458.8C944.452 462.267 940.185 464 935.119 464H924.719C919.652 464 915.252 462.267 911.519 458.8C908.052 455.067 906.319 450.667 906.319 445.6V246.4C906.319 242.933 904.585 241.2 901.119 241.2H858.719C853.652 241.2 849.252 239.467 845.519 236C842.052 232.267 840.319 227.867 840.319 222.8V212C840.319 206.667 842.052 202.267 845.519 198.8C849.252 195.333 853.652 193.6 858.719 193.6H1000.72C1006.05 193.6 1010.45 195.333 1013.92 198.8C1017.39 202.267 1019.12 206.667 1019.12 212V222.8Z" fill="#38442C"/>
<path d="M382 1442.2C382 1451.8 379.6 1460.6 374.8 1468.6C370 1476.6 363.6 1483 355.6 1487.8C347.6 1492.6 338.8 1495 329.2 1495H257.2C247.6 1495 238.667 1492.6 230.4 1487.8C222.4 1483 216 1476.6 211.2 1468.6C206.4 1460.6 204 1451.8 204 1442.2V1277.8C204 1267.93 206.4 1259 211.2 1251C216 1243 222.4 1236.6 230.4 1231.8C238.667 1227 247.6 1224.6 257.2 1224.6H329.2C338.8 1224.6 347.6 1227 355.6 1231.8C363.6 1236.6 370 1243 374.8 1251C379.6 1259 382 1267.93 382 1277.8V1288.6C382 1293.67 380.267 1297.93 376.8 1301.4C373.333 1304.87 368.933 1306.6 363.6 1306.6H352.8C347.733 1306.6 343.333 1304.87 339.6 1301.4C336.133 1297.93 334.4 1293.67 334.4 1288.6V1277.8C334.4 1274.07 332.667 1272.2 329.2 1272.2H257.2C253.733 1272.2 252 1274.07 252 1277.8V1442.2C252 1443.53 252.533 1444.87 253.6 1446.2C254.667 1447.27 255.867 1447.8 257.2 1447.8H329.2C330.533 1447.8 331.733 1447.27 332.8 1446.2C333.867 1444.87 334.4 1443.53 334.4 1442.2V1430.2C334.4 1425.13 336.133 1420.87 339.6 1417.4C343.333 1413.67 347.733 1411.8 352.8 1411.8H363.6C368.933 1411.8 373.333 1413.67 376.8 1417.4C380.267 1420.87 382 1425.13 382 1430.2V1442.2ZM597.747 1442.2C597.747 1451.8 595.347 1460.6 590.547 1468.6C585.747 1476.6 579.347 1483 571.347 1487.8C563.347 1492.6 554.547 1495 544.947 1495H468.147C458.547 1495 449.614 1492.6 441.347 1487.8C433.347 1483 426.947 1476.6 422.147 1468.6C417.347 1460.6 414.947 1451.8 414.947 1442.2V1277.8C414.947 1267.93 417.347 1259 422.147 1251C426.947 1243 433.347 1236.6 441.347 1231.8C449.614 1227 458.547 1224.6 468.147 1224.6H544.947C554.547 1224.6 563.347 1227 571.347 1231.8C579.347 1236.6 585.747 1243 590.547 1251C595.347 1259 597.747 1267.93 597.747 1277.8V1442.2ZM550.147 1442.2V1277.8C550.147 1274.07 548.414 1272.2 544.947 1272.2H468.147C466.814 1272.2 465.48 1272.73 464.147 1273.8C463.08 1274.87 462.547 1276.2 462.547 1277.8V1442.2C462.547 1443.53 463.08 1444.87 464.147 1446.2C465.48 1447.27 466.814 1447.8 468.147 1447.8H544.947C546.28 1447.8 547.48 1447.27 548.547 1446.2C549.614 1444.87 550.147 1443.53 550.147 1442.2ZM803.772 1476.6C803.772 1481.67 801.905 1486.07 798.172 1489.8C794.705 1493.27 790.572 1495 785.772 1495H648.172C643.372 1495 639.105 1493.27 635.372 1489.8C631.905 1486.07 630.172 1481.67 630.172 1476.6V1243C630.172 1237.67 631.905 1233.27 635.372 1229.8C639.105 1226.33 643.372 1224.6 648.172 1224.6H659.372C664.439 1224.6 668.705 1226.33 672.172 1229.8C675.905 1233.27 677.772 1237.67 677.772 1243V1442.6C677.772 1446.07 679.372 1447.8 682.572 1447.8H785.772C790.572 1447.8 794.705 1449.53 798.172 1453C801.905 1456.47 803.772 1460.87 803.772 1466.2V1476.6ZM1018.84 1442.2C1018.84 1451.8 1016.44 1460.6 1011.64 1468.6C1006.84 1476.6 1000.44 1483 992.441 1487.8C984.441 1492.6 975.641 1495 966.041 1495H889.241C879.641 1495 870.707 1492.6 862.441 1487.8C854.441 1483 848.041 1476.6 843.241 1468.6C838.441 1460.6 836.041 1451.8 836.041 1442.2V1277.8C836.041 1267.93 838.441 1259 843.241 1251C848.041 1243 854.441 1236.6 862.441 1231.8C870.707 1227 879.641 1224.6 889.241 1224.6H966.041C975.641 1224.6 984.441 1227 992.441 1231.8C1000.44 1236.6 1006.84 1243 1011.64 1251C1016.44 1259 1018.84 1267.93 1018.84 1277.8V1442.2ZM971.241 1442.2V1277.8C971.241 1274.07 969.507 1272.2 966.041 1272.2H889.241C887.907 1272.2 886.574 1272.73 885.241 1273.8C884.174 1274.87 883.641 1276.2 883.641 1277.8V1442.2C883.641 1443.53 884.174 1444.87 885.241 1446.2C886.574 1447.27 887.907 1447.8 889.241 1447.8H966.041C967.374 1447.8 968.574 1447.27 969.641 1446.2C970.707 1444.87 971.241 1443.53 971.241 1442.2ZM1232.47 1469.8C1235.13 1475.93 1234.73 1481.53 1231.27 1486.6C1227.27 1492.2 1222.2 1495 1216.07 1495H1204.07C1200.6 1495 1197.13 1493.93 1193.67 1491.8C1190.47 1489.67 1188.2 1487 1186.87 1483.8L1149.27 1393.8C1147.93 1390.6 1145.53 1389 1142.07 1389H1104.87C1101.4 1389 1099.67 1390.73 1099.67 1394.2V1476.6C1099.67 1481.67 1097.8 1486.07 1094.07 1489.8C1090.6 1493.27 1086.33 1495 1081.27 1495H1070.07C1065 1495 1060.73 1493.27 1057.27 1489.8C1054.07 1486.07 1052.47 1481.67 1052.47 1476.6V1243C1052.47 1237.67 1054.07 1233.27 1057.27 1229.8C1060.73 1226.33 1065 1224.6 1070.07 1224.6H1178.47C1188.07 1224.6 1196.87 1227 1204.87 1231.8C1212.87 1236.6 1219.27 1243 1224.07 1251C1228.87 1259 1231.27 1267.93 1231.27 1277.8V1336.2C1231.27 1346.6 1228.47 1356.07 1222.87 1364.6C1217.53 1372.87 1210.47 1379.27 1201.67 1383.8C1200.6 1384.07 1199.8 1385 1199.27 1386.6C1198.73 1387.93 1198.87 1389.27 1199.67 1390.6L1232.47 1469.8ZM1183.67 1336.2V1277.8C1183.67 1274.07 1181.93 1272.2 1178.47 1272.2H1104.87C1101.4 1272.2 1099.67 1273.93 1099.67 1277.4V1336.2C1099.67 1339.67 1101.4 1341.4 1104.87 1341.4H1178.47C1181.93 1341.4 1183.67 1339.67 1183.67 1336.2Z" fill="#38442C"/>
<path d="M876 620.8C876 623.333 875.133 625.533 873.4 627.4C871.667 629.133 869.467 630 866.8 630H861.4C858.867 630 856.667 629.133 854.8 627.4C853.067 625.533 852.2 623.333 852.2 620.8V560.6C852.2 560.067 851.933 559.733 851.4 559.6C851 559.467 850.667 559.6 850.4 560L831.2 599.6C830.8 600.667 829.933 601.6 828.6 602.4C827.267 603.2 826 603.867 824.8 604.4C823.733 604.8 823.2 605 823.2 605C819.067 605 816.333 603.2 815 599.6L795.8 560C795.667 559.6 795.333 559.467 794.8 559.6C794.267 559.733 794 560.067 794 560.6V620.8C794 623.333 793.067 625.533 791.2 627.4C789.467 629.133 787.333 630 784.8 630H779.2C776.667 630 774.467 629.133 772.6 627.4C770.867 625.533 770 623.333 770 620.8V504C770 501.333 770.867 499.133 772.6 497.4C774.467 495.667 776.667 494.8 779.2 494.8H785C788.733 494.8 791.467 496.533 793.2 500C793.867 501.467 795.2 504.333 797.2 508.6C799.333 512.733 801.8 517.667 804.6 523.4C807.4 529.133 810.267 535.2 813.2 541.6C816.267 547.867 819.2 553.867 822 559.6C822.267 560.133 822.6 560.4 823 560.4C823.533 560.4 823.933 560.133 824.2 559.6L852.8 500C854.533 496.533 857.333 494.8 861.2 494.8H866.8C869.467 494.8 871.667 495.667 873.4 497.4C875.133 499.133 876 501.333 876 504V620.8ZM964.666 607.6C964.666 613.867 962.466 619.2 958.066 623.6C953.799 627.867 948.599 630 942.466 630H914.666C908.532 630 903.266 627.867 898.866 623.6C894.466 619.2 892.266 613.867 892.266 607.6V548.8C892.266 544.667 893.266 540.933 895.266 537.6C897.399 534.133 900.132 531.4 903.466 529.4C906.799 527.4 910.532 526.4 914.666 526.4H942.466C946.599 526.4 950.332 527.4 953.666 529.4C956.999 531.4 959.666 534.133 961.666 537.6C963.666 540.933 964.666 544.667 964.666 548.8V607.6ZM941.066 603.8V553C941.066 552.2 940.732 551.533 940.066 551C939.532 550.467 938.932 550.2 938.266 550.2H918.866C918.199 550.2 917.532 550.467 916.866 551C916.332 551.533 916.066 552.2 916.066 553V603.8C916.066 604.467 916.332 605.067 916.866 605.6C917.532 606.133 918.199 606.4 918.866 606.4H938.266C938.932 606.4 939.532 606.133 940.066 605.6C940.732 605.067 941.066 604.467 941.066 603.8ZM1053.34 620.8C1053.34 623.333 1052.47 625.533 1050.74 627.4C1049 629.133 1046.87 630 1044.34 630H1038.74C1036.2 630 1034.07 629.133 1032.34 627.4C1030.6 625.533 1029.74 623.333 1029.74 620.8V553C1029.74 552.2 1029.4 551.533 1028.74 551C1028.2 550.467 1027.6 550.2 1026.94 550.2H1007.54C1006.87 550.2 1006.2 550.467 1005.54 551C1005 551.533 1004.74 552.2 1004.74 553V620.8C1004.74 623.333 1003.87 625.533 1002.14 627.4C1000.4 629.133 998.271 630 995.738 630H990.138C987.604 630 985.404 629.133 983.538 627.4C981.804 625.533 980.938 623.333 980.938 620.8V548.8C980.938 544.667 981.938 540.933 983.938 537.6C986.071 534.133 988.804 531.4 992.138 529.4C995.471 527.4 999.204 526.4 1003.34 526.4H1031.14C1035.27 526.4 1039 527.4 1042.34 529.4C1045.67 531.4 1048.34 534.133 1050.34 537.6C1052.34 540.933 1053.34 544.667 1053.34 548.8V620.8ZM1142.01 607.6C1142.01 613.867 1139.81 619.2 1135.41 623.6C1131.14 627.867 1125.94 630 1119.81 630H1092.01C1085.88 630 1080.61 627.867 1076.21 623.6C1071.81 619.2 1069.61 613.867 1069.61 607.6V548.8C1069.61 544.667 1070.61 540.933 1072.61 537.6C1074.74 534.133 1077.48 531.4 1080.81 529.4C1084.14 527.4 1087.88 526.4 1092.01 526.4H1119.81C1123.94 526.4 1127.68 527.4 1131.01 529.4C1134.34 531.4 1137.01 534.133 1139.01 537.6C1141.01 540.933 1142.01 544.667 1142.01 548.8V607.6ZM1118.41 603.8V553C1118.41 552.2 1118.08 551.533 1117.41 551C1116.88 550.467 1116.28 550.2 1115.61 550.2H1096.21C1095.54 550.2 1094.88 550.467 1094.21 551C1093.68 551.533 1093.41 552.2 1093.41 553V603.8C1093.41 604.467 1093.68 605.067 1094.21 605.6C1094.88 606.133 1095.54 606.4 1096.21 606.4H1115.61C1116.28 606.4 1116.88 606.133 1117.41 605.6C1118.08 605.067 1118.41 604.467 1118.41 603.8ZM1255.68 620.8C1255.68 623.333 1254.75 625.533 1252.88 627.4C1251.15 629.133 1249.01 630 1246.48 630H1240.88C1238.35 630 1236.15 629.133 1234.28 627.4C1232.55 625.533 1231.68 623.333 1231.68 620.8V553C1231.68 551.133 1230.81 550.2 1229.08 550.2H1221.28C1219.68 550.2 1218.88 551.133 1218.88 553V620.8C1218.88 623.333 1217.95 625.533 1216.08 627.4C1214.35 629.133 1212.21 630 1209.68 630H1204.28C1201.75 630 1199.55 629.133 1197.68 627.4C1195.95 625.533 1195.08 623.333 1195.08 620.8V553C1195.08 551.133 1194.28 550.2 1192.68 550.2H1184.88C1183.15 550.2 1182.28 551.133 1182.28 553V620.8C1182.28 623.333 1181.35 625.533 1179.48 627.4C1177.75 629.133 1175.61 630 1173.08 630H1167.48C1164.95 630 1162.75 629.133 1160.88 627.4C1159.15 625.533 1158.28 623.333 1158.28 620.8V548.8C1158.28 544.667 1159.28 540.933 1161.28 537.6C1163.41 534.133 1166.15 531.4 1169.48 529.4C1172.81 527.4 1176.55 526.4 1180.68 526.4H1196.48C1199.41 526.4 1202.08 527 1204.48 528.2C1206.08 528.6 1207.75 528.6 1209.48 528.2C1211.88 527 1214.55 526.4 1217.48 526.4H1233.28C1237.41 526.4 1241.15 527.4 1244.48 529.4C1247.81 531.4 1250.48 534.133 1252.48 537.6C1254.61 540.933 1255.68 544.667 1255.68 548.8V620.8ZM1344.16 607.6C1344.16 613.867 1341.96 619.2 1337.56 623.6C1333.29 627.867 1328.09 630 1321.96 630H1294.16C1288.02 630 1282.76 627.867 1278.36 623.6C1273.96 619.2 1271.76 613.867 1271.76 607.6V585.8C1271.76 581.667 1272.76 578 1274.76 574.8C1276.89 571.467 1279.62 568.8 1282.96 566.8C1286.29 564.8 1290.02 563.8 1294.16 563.8H1317.76C1318.42 563.8 1319.02 563.533 1319.56 563C1320.22 562.467 1320.56 561.8 1320.56 561V553C1320.56 552.2 1320.22 551.533 1319.56 551C1319.02 550.467 1318.42 550.2 1317.76 550.2H1294.16C1291.62 550.2 1289.42 549.333 1287.56 547.6C1285.82 545.867 1284.96 543.733 1284.96 541.2V535.8C1284.96 533.133 1285.82 530.933 1287.56 529.2C1289.42 527.333 1291.62 526.4 1294.16 526.4H1321.96C1326.09 526.4 1329.82 527.4 1333.16 529.4C1336.49 531.4 1339.16 534.133 1341.16 537.6C1343.16 540.933 1344.16 544.667 1344.16 548.8V607.6ZM1320.56 603.8V590C1320.56 589.333 1320.22 588.733 1319.56 588.2C1319.02 587.667 1318.42 587.4 1317.76 587.4H1298.36C1297.69 587.4 1297.02 587.667 1296.36 588.2C1295.82 588.733 1295.56 589.333 1295.56 590V603.8C1295.56 604.467 1295.82 605.067 1296.36 605.6C1297.02 606.133 1297.69 606.4 1298.36 606.4H1317.76C1318.42 606.4 1319.02 606.133 1319.56 605.6C1320.22 605.067 1320.56 604.467 1320.56 603.8ZM1432.83 620.8C1432.83 623.333 1431.96 625.533 1430.23 627.4C1428.5 629.133 1426.36 630 1423.83 630H1418.23C1415.7 630 1413.56 629.133 1411.83 627.4C1410.1 625.533 1409.23 623.333 1409.23 620.8V553C1409.23 552.2 1408.9 551.533 1408.23 551C1407.7 550.467 1407.1 550.2 1406.43 550.2H1387.03C1386.36 550.2 1385.7 550.467 1385.03 551C1384.5 551.533 1384.23 552.2 1384.23 553V620.8C1384.23 623.333 1383.36 625.533 1381.63 627.4C1379.9 629.133 1377.76 630 1375.23 630H1369.63C1367.1 630 1364.9 629.133 1363.03 627.4C1361.3 625.533 1360.43 623.333 1360.43 620.8V548.8C1360.43 544.667 1361.43 540.933 1363.43 537.6C1365.56 534.133 1368.3 531.4 1371.63 529.4C1374.96 527.4 1378.7 526.4 1382.83 526.4H1410.63C1414.76 526.4 1418.5 527.4 1421.83 529.4C1425.16 531.4 1427.83 534.133 1429.83 537.6C1431.83 540.933 1432.83 544.667 1432.83 548.8V620.8ZM1479.3 507.6C1479.3 511.733 1477.77 515.333 1474.7 518.4C1471.77 521.333 1468.3 522.8 1464.3 522.8C1460.17 522.8 1456.57 521.333 1453.5 518.4C1450.57 515.333 1449.1 511.733 1449.1 507.6C1449.1 503.6 1450.57 500.133 1453.5 497.2C1456.57 494.133 1460.17 492.6 1464.3 492.6C1468.3 492.6 1471.77 494.133 1474.7 497.2C1477.77 500.133 1479.3 503.6 1479.3 507.6ZM1476.1 620.8C1476.1 623.333 1475.17 625.533 1473.3 627.4C1471.57 629.133 1469.43 630 1466.9 630H1461.5C1458.97 630 1456.77 629.133 1454.9 627.4C1453.17 625.533 1452.3 623.333 1452.3 620.8V537.8C1452.3 535.267 1453.17 533.133 1454.9 531.4C1456.77 529.533 1458.97 528.6 1461.5 528.6H1466.9C1469.43 528.6 1471.57 529.533 1473.3 531.4C1475.17 533.133 1476.1 535.267 1476.1 537.8V620.8ZM1567.79 607.6C1567.79 613.867 1565.59 619.2 1561.19 623.6C1556.92 627.867 1551.72 630 1545.59 630H1517.79C1511.66 630 1506.39 627.867 1501.99 623.6C1497.59 619.2 1495.39 613.867 1495.39 607.6V585.8C1495.39 581.667 1496.39 578 1498.39 574.8C1500.52 571.467 1503.26 568.8 1506.59 566.8C1509.92 564.8 1513.66 563.8 1517.79 563.8H1541.39C1542.06 563.8 1542.66 563.533 1543.19 563C1543.86 562.467 1544.19 561.8 1544.19 561V553C1544.19 552.2 1543.86 551.533 1543.19 551C1542.66 550.467 1542.06 550.2 1541.39 550.2H1517.79C1515.26 550.2 1513.06 549.333 1511.19 547.6C1509.46 545.867 1508.59 543.733 1508.59 541.2V535.8C1508.59 533.133 1509.46 530.933 1511.19 529.2C1513.06 527.333 1515.26 526.4 1517.79 526.4H1545.59C1549.72 526.4 1553.46 527.4 1556.79 529.4C1560.12 531.4 1562.79 534.133 1564.79 537.6C1566.79 540.933 1567.79 544.667 1567.79 548.8V607.6ZM1544.19 603.8V590C1544.19 589.333 1543.86 588.733 1543.19 588.2C1542.66 587.667 1542.06 587.4 1541.39 587.4H1521.99C1521.32 587.4 1520.66 587.667 1519.99 588.2C1519.46 588.733 1519.19 589.333 1519.19 590V603.8C1519.19 604.467 1519.46 605.067 1519.99 605.6C1520.66 606.133 1521.32 606.4 1521.99 606.4H1541.39C1542.06 606.4 1542.66 606.133 1543.19 605.6C1543.86 605.067 1544.19 604.467 1544.19 603.8ZM1656.46 607.6C1656.46 613.867 1654.26 619.2 1649.86 623.6C1645.6 627.867 1640.4 630 1634.26 630H1606.46C1600.33 630 1595.06 627.867 1590.66 623.6C1586.26 619.2 1584.06 613.867 1584.06 607.6V548.8C1584.06 544.667 1585.06 540.933 1587.06 537.6C1589.2 534.133 1591.93 531.4 1595.26 529.4C1598.6 527.4 1602.33 526.4 1606.46 526.4H1634.26C1638.4 526.4 1642.13 527.4 1645.46 529.4C1648.8 531.4 1651.46 534.133 1653.46 537.6C1655.46 540.933 1656.46 544.667 1656.46 548.8V559.2C1656.46 561.733 1655.6 563.933 1653.86 565.8C1652.13 567.533 1650 568.4 1647.46 568.4H1641.86C1639.33 568.4 1637.2 567.533 1635.46 565.8C1633.73 563.933 1632.86 561.733 1632.86 559.2V553C1632.86 552.2 1632.53 551.533 1631.86 551C1631.33 550.467 1630.73 550.2 1630.06 550.2H1610.66C1610 550.2 1609.33 550.467 1608.66 551C1608.13 551.533 1607.86 552.2 1607.86 553V603.8C1607.86 604.467 1608.13 605.067 1608.66 605.6C1609.33 606.133 1610 606.4 1610.66 606.4H1630.06C1630.73 606.4 1631.33 606.133 1631.86 605.6C1632.53 605.067 1632.86 604.467 1632.86 603.8V597.6C1632.86 595.067 1633.73 592.933 1635.46 591.2C1637.2 589.333 1639.33 588.4 1641.86 588.4H1647.46C1650 588.4 1652.13 589.333 1653.86 591.2C1655.6 592.933 1656.46 595.067 1656.46 597.6V607.6ZM1810.43 603.6C1810.43 608.4 1809.23 612.8 1806.83 616.8C1804.43 620.8 1801.23 624 1797.23 626.4C1793.23 628.8 1788.83 630 1784.03 630H1745.63C1740.83 630 1736.36 628.8 1732.23 626.4C1728.23 624 1725.03 620.8 1722.63 616.8C1720.23 612.8 1719.03 608.4 1719.03 603.6V521.4C1719.03 516.467 1720.23 512 1722.63 508C1725.03 504 1728.23 500.8 1732.23 498.4C1736.36 496 1740.83 494.8 1745.63 494.8H1784.03C1788.83 494.8 1793.23 496 1797.23 498.4C1801.23 500.8 1804.43 504 1806.83 508C1809.23 512 1810.43 516.467 1810.43 521.4V603.6ZM1786.63 603.6V521.4C1786.63 519.533 1785.76 518.6 1784.03 518.6H1745.63C1744.96 518.6 1744.29 518.867 1743.63 519.4C1743.09 519.933 1742.83 520.6 1742.83 521.4V603.6C1742.83 604.267 1743.09 604.933 1743.63 605.6C1744.29 606.133 1744.96 606.4 1745.63 606.4H1784.03C1784.69 606.4 1785.29 606.133 1785.83 605.6C1786.36 604.933 1786.63 604.267 1786.63 603.6ZM1899.04 620.8C1899.04 623.333 1898.17 625.533 1896.44 627.4C1894.71 629.133 1892.57 630 1890.04 630H1884.44C1881.91 630 1879.77 629.133 1878.04 627.4C1876.31 625.533 1875.44 623.333 1875.44 620.8V553C1875.44 552.2 1875.11 551.533 1874.44 551C1873.91 550.467 1873.31 550.2 1872.64 550.2H1853.24C1852.57 550.2 1851.91 550.467 1851.24 551C1850.71 551.533 1850.44 552.2 1850.44 553V620.8C1850.44 623.333 1849.57 625.533 1847.84 627.4C1846.11 629.133 1843.97 630 1841.44 630H1835.84C1833.31 630 1831.11 629.133 1829.24 627.4C1827.51 625.533 1826.64 623.333 1826.64 620.8V548.8C1826.64 544.667 1827.64 540.933 1829.64 537.6C1831.77 534.133 1834.51 531.4 1837.84 529.4C1841.17 527.4 1844.91 526.4 1849.04 526.4H1876.84C1880.97 526.4 1884.71 527.4 1888.04 529.4C1891.37 531.4 1894.04 534.133 1896.04 537.6C1898.04 540.933 1899.04 544.667 1899.04 548.8V620.8ZM1987.71 570.6C1987.71 574.6 1986.71 578.333 1984.71 581.8C1982.71 585.133 1980.05 587.867 1976.71 590C1973.38 592 1969.65 593 1965.51 593H1941.91C1941.25 593 1940.58 593.267 1939.91 593.8C1939.38 594.2 1939.11 594.733 1939.11 595.4V603.8C1939.11 604.467 1939.38 605.067 1939.91 605.6C1940.58 606.133 1941.25 606.4 1941.91 606.4H1965.51C1968.05 606.4 1970.18 607.267 1971.91 609C1973.78 610.733 1974.71 612.933 1974.71 615.6V620.8C1974.71 623.333 1973.78 625.533 1971.91 627.4C1970.18 629.133 1968.05 630 1965.51 630H1937.71C1931.58 630 1926.31 627.867 1921.91 623.6C1917.51 619.2 1915.31 613.867 1915.31 607.6V548.8C1915.31 544.667 1916.31 540.933 1918.31 537.6C1920.45 534.267 1923.18 531.6 1926.51 529.6C1929.85 527.467 1933.58 526.4 1937.71 526.4H1965.51C1969.65 526.4 1973.38 527.467 1976.71 529.6C1980.05 531.6 1982.71 534.267 1984.71 537.6C1986.71 540.933 1987.71 544.667 1987.71 548.8V570.6ZM1964.11 566.6V553C1964.11 552.2 1963.78 551.533 1963.11 551C1962.58 550.467 1961.98 550.2 1961.31 550.2H1941.91C1941.25 550.2 1940.58 550.467 1939.91 551C1939.38 551.533 1939.11 552.2 1939.11 553V566.6C1939.11 567.133 1939.38 567.667 1939.91 568.2C1940.58 568.733 1941.25 569 1941.91 569H1961.31C1961.98 569 1962.58 568.733 1963.11 568.2C1963.78 567.667 1964.11 567.133 1964.11 566.6Z" fill="#38442C"/>
<path d="M316.904 1014.1C316.904 1015.26 316.456 1016.28 315.56 1017.18C314.728 1018.01 313.704 1018.42 312.488 1018.42H310.28C309.384 1018.42 308.936 1018.84 308.936 1019.67V1026.58C308.936 1027.8 308.52 1028.86 307.688 1029.75C306.856 1030.58 305.832 1031 304.616 1031H302.024C300.808 1031 299.752 1030.58 298.856 1029.75C298.024 1028.86 297.608 1027.8 297.608 1026.58V1019.67C297.608 1018.84 297.192 1018.42 296.36 1018.42H277.256C276.04 1018.42 274.984 1018.01 274.088 1017.18C273.256 1016.28 272.84 1015.26 272.84 1014.1V1002.01C272.84 999.064 273.512 996.248 274.856 993.56L282.728 978.584C283.56 976.92 284.872 976.088 286.664 976.088H289.544C291.208 976.088 292.456 976.792 293.288 978.2C294.184 979.544 294.248 980.984 293.48 982.52L285.032 998.84C284.52 999.992 284.264 1001.05 284.264 1002.01V1005.85C284.264 1006.62 284.712 1007 285.608 1007H296.36C297.192 1007 297.608 1006.62 297.608 1005.85V970.52C297.608 969.24 298.024 968.184 298.856 967.352C299.752 966.52 300.808 966.104 302.024 966.104H304.616C305.832 966.104 306.856 966.52 307.688 967.352C308.52 968.184 308.936 969.24 308.936 970.52V1005.85C308.936 1006.62 309.384 1007 310.28 1007H312.488C313.704 1007 314.728 1007.45 315.56 1008.34C316.456 1009.18 316.904 1010.2 316.904 1011.42V1014.1ZM368.558 1018.33C368.558 1020.63 367.982 1022.74 366.83 1024.66C365.678 1026.58 364.142 1028.12 362.222 1029.27C360.302 1030.42 358.19 1031 355.886 1031H337.454C335.15 1031 333.006 1030.42 331.022 1029.27C329.102 1028.12 327.566 1026.58 326.414 1024.66C325.262 1022.74 324.686 1020.63 324.686 1018.33V1004.31C324.686 1003.22 324.814 1002.17 325.07 1001.14C325.326 1000.12 325.678 999.192 326.126 998.36C326.638 997.656 326.638 996.952 326.126 996.248C325.678 995.288 325.326 994.328 325.07 993.368C324.814 992.344 324.686 991.32 324.686 990.296V978.872C324.686 976.504 325.262 974.36 326.414 972.44C327.566 970.52 329.102 968.984 331.022 967.832C333.006 966.68 335.15 966.104 337.454 966.104H355.886C358.19 966.104 360.302 966.68 362.222 967.832C364.142 968.984 365.678 970.52 366.83 972.44C367.982 974.36 368.558 976.504 368.558 978.872V990.296C368.558 991.256 368.43 992.248 368.174 993.272C367.918 994.296 367.566 995.256 367.118 996.152C366.606 996.92 366.606 997.656 367.118 998.36C367.566 999.192 367.918 1000.12 368.174 1001.14C368.43 1002.17 368.558 1003.22 368.558 1004.31V1018.33ZM357.134 990.296V978.872C357.134 977.976 356.718 977.528 355.886 977.528H337.454C337.134 977.528 336.814 977.656 336.494 977.912C336.238 978.168 336.11 978.488 336.11 978.872V990.296C336.11 990.616 336.238 990.904 336.494 991.16C336.814 991.416 337.134 991.544 337.454 991.544H355.886C356.718 991.544 357.134 991.128 357.134 990.296ZM357.134 1018.33V1004.31C357.134 1003.42 356.718 1002.97 355.886 1002.97H337.454C337.134 1002.97 336.814 1003.1 336.494 1003.35C336.238 1003.61 336.11 1003.93 336.11 1004.31V1018.33C336.11 1018.65 336.238 1018.97 336.494 1019.29C336.814 1019.54 337.134 1019.67 337.454 1019.67H355.886C356.206 1019.67 356.494 1019.54 356.75 1019.29C357.006 1018.97 357.134 1018.65 357.134 1018.33ZM417.524 972.44L387.476 1028.7C386.644 1030.23 385.364 1031 383.636 1031H380.66C378.996 1031 377.748 1030.3 376.916 1028.89C376.148 1027.48 376.116 1026.01 376.82 1024.47L406.868 968.408C407.7 966.872 408.98 966.104 410.708 966.104H413.684C415.348 966.104 416.596 966.808 417.428 968.216C418.26 969.56 418.292 970.968 417.524 972.44ZM469.621 1018.33C469.621 1020.63 469.045 1022.74 467.893 1024.66C466.741 1026.58 465.205 1028.12 463.285 1029.27C461.365 1030.42 459.253 1031 456.949 1031H438.517C436.213 1031 434.069 1030.42 432.085 1029.27C430.165 1028.12 428.629 1026.58 427.477 1024.66C426.325 1022.74 425.749 1020.63 425.749 1018.33V1015.45C425.749 1014.23 426.165 1013.21 426.997 1012.38C427.893 1011.48 428.949 1011.03 430.165 1011.03H432.853C434.005 1011.03 434.997 1011.48 435.829 1012.38C436.725 1013.21 437.173 1014.23 437.173 1015.45V1018.33C437.173 1018.65 437.301 1018.97 437.557 1019.29C437.877 1019.54 438.197 1019.67 438.517 1019.67H456.949C457.269 1019.67 457.557 1019.54 457.813 1019.29C458.069 1018.97 458.197 1018.65 458.197 1018.33V1005.56C458.197 1004.73 457.781 1004.31 456.949 1004.31H438.517C437.301 1004.31 436.245 1003.9 435.349 1003.06C434.517 1002.17 434.101 1001.11 434.101 999.896V997.208C434.101 995.992 434.517 994.968 435.349 994.136C436.245 993.304 437.301 992.888 438.517 992.888H456.949C457.269 992.888 457.557 992.76 457.813 992.504C458.069 992.184 458.197 991.864 458.197 991.544V978.872C458.197 977.976 457.781 977.528 456.949 977.528H438.517C438.197 977.528 437.877 977.656 437.557 977.912C437.301 978.168 437.173 978.488 437.173 978.872V981.464C437.173 982.68 436.725 983.704 435.829 984.536C434.997 985.368 434.005 985.784 432.853 985.784H430.165C428.949 985.784 427.893 985.368 426.997 984.536C426.165 983.704 425.749 982.68 425.749 981.464V978.872C425.749 976.504 426.325 974.36 427.477 972.44C428.629 970.52 430.165 968.984 432.085 967.832C434.069 966.68 436.213 966.104 438.517 966.104H456.949C459.253 966.104 461.365 966.68 463.285 967.832C465.205 968.984 466.741 970.52 467.893 972.44C469.045 974.36 469.621 976.504 469.621 978.872V991.544C469.621 992.568 469.493 993.592 469.237 994.616C468.981 995.64 468.629 996.632 468.181 997.592C467.669 998.232 467.669 998.904 468.181 999.608C468.629 1000.5 468.981 1001.46 469.237 1002.49C469.493 1003.51 469.621 1004.54 469.621 1005.56V1018.33ZM521.371 1018.33C521.371 1020.63 520.795 1022.74 519.643 1024.66C518.491 1026.58 516.955 1028.12 515.035 1029.27C513.115 1030.42 511.003 1031 508.699 1031H490.267C487.963 1031 485.819 1030.42 483.835 1029.27C481.915 1028.12 480.379 1026.58 479.227 1024.66C478.075 1022.74 477.499 1020.63 477.499 1018.33V978.872C477.499 976.504 478.075 974.36 479.227 972.44C480.379 970.52 481.915 968.984 483.835 967.832C485.819 966.68 487.963 966.104 490.267 966.104H508.699C511.003 966.104 513.115 966.68 515.035 967.832C516.955 968.984 518.491 970.52 519.643 972.44C520.795 974.36 521.371 976.504 521.371 978.872V981.272C521.371 982.488 520.923 983.544 520.027 984.44C519.195 985.336 518.171 985.784 516.955 985.784H514.363C513.147 985.784 512.091 985.336 511.195 984.44C510.363 983.544 509.947 982.488 509.947 981.272V978.872C509.947 977.976 509.531 977.528 508.699 977.528H490.267C489.947 977.528 489.627 977.656 489.307 977.912C489.051 978.168 488.923 978.488 488.923 978.872V989.048C488.923 989.88 489.339 990.296 490.171 990.296H508.699C511.003 990.296 513.115 990.872 515.035 992.024C516.955 993.112 518.491 994.616 519.643 996.536C520.795 998.456 521.371 1000.6 521.371 1002.97V1018.33ZM509.947 1018.33V1002.97C509.947 1002.07 509.531 1001.62 508.699 1001.62H490.171C489.339 1001.62 488.923 1002.04 488.923 1002.87V1018.33C488.923 1018.65 489.051 1018.97 489.307 1019.29C489.627 1019.54 489.947 1019.67 490.267 1019.67H508.699C509.019 1019.67 509.307 1019.54 509.563 1019.29C509.819 1018.97 509.947 1018.65 509.947 1018.33ZM570.337 972.44L540.289 1028.7C539.457 1030.23 538.177 1031 536.449 1031H533.473C531.809 1031 530.561 1030.3 529.729 1028.89C528.961 1027.48 528.929 1026.01 529.633 1024.47L559.681 968.408C560.513 966.872 561.793 966.104 563.521 966.104H566.497C568.161 966.104 569.409 966.808 570.241 968.216C571.073 969.56 571.105 970.968 570.337 972.44ZM622.433 1018.33C622.433 1020.63 621.857 1022.74 620.705 1024.66C619.553 1026.58 618.017 1028.12 616.097 1029.27C614.177 1030.42 612.065 1031 609.761 1031H591.329C589.025 1031 586.881 1030.42 584.897 1029.27C582.977 1028.12 581.441 1026.58 580.289 1024.66C579.137 1022.74 578.561 1020.63 578.561 1018.33V1015.45C578.561 1014.23 578.977 1013.21 579.809 1012.38C580.705 1011.48 581.761 1011.03 582.977 1011.03H585.665C586.817 1011.03 587.809 1011.48 588.641 1012.38C589.537 1013.21 589.985 1014.23 589.985 1015.45V1018.33C589.985 1018.65 590.113 1018.97 590.369 1019.29C590.689 1019.54 591.009 1019.67 591.329 1019.67H609.761C610.081 1019.67 610.369 1019.54 610.625 1019.29C610.881 1018.97 611.009 1018.65 611.009 1018.33V1005.56C611.009 1004.73 610.593 1004.31 609.761 1004.31H591.329C590.113 1004.31 589.057 1003.9 588.161 1003.06C587.329 1002.17 586.913 1001.11 586.913 999.896V997.208C586.913 995.992 587.329 994.968 588.161 994.136C589.057 993.304 590.113 992.888 591.329 992.888H609.761C610.081 992.888 610.369 992.76 610.625 992.504C610.881 992.184 611.009 991.864 611.009 991.544V978.872C611.009 977.976 610.593 977.528 609.761 977.528H591.329C591.009 977.528 590.689 977.656 590.369 977.912C590.113 978.168 589.985 978.488 589.985 978.872V981.464C589.985 982.68 589.537 983.704 588.641 984.536C587.809 985.368 586.817 985.784 585.665 985.784H582.977C581.761 985.784 580.705 985.368 579.809 984.536C578.977 983.704 578.561 982.68 578.561 981.464V978.872C578.561 976.504 579.137 974.36 580.289 972.44C581.441 970.52 582.977 968.984 584.897 967.832C586.881 966.68 589.025 966.104 591.329 966.104H609.761C612.065 966.104 614.177 966.68 616.097 967.832C618.017 968.984 619.553 970.52 620.705 972.44C621.857 974.36 622.433 976.504 622.433 978.872V991.544C622.433 992.568 622.305 993.592 622.049 994.616C621.793 995.64 621.441 996.632 620.993 997.592C620.481 998.232 620.481 998.904 620.993 999.608C621.441 1000.5 621.793 1001.46 622.049 1002.49C622.305 1003.51 622.433 1004.54 622.433 1005.56V1018.33ZM674.183 1026.58C674.183 1027.8 673.735 1028.86 672.839 1029.75C672.007 1030.58 670.983 1031 669.767 1031H643.079C640.775 1031 638.631 1030.42 636.647 1029.27C634.727 1028.12 633.191 1026.58 632.039 1024.66C630.887 1022.74 630.311 1020.63 630.311 1018.33V1009.59C630.311 1006.97 631.079 1004.54 632.615 1002.3C634.151 1000.06 636.199 998.488 638.759 997.592L661.799 988.952C662.439 988.76 662.759 988.28 662.759 987.512V978.872C662.759 977.976 662.343 977.528 661.511 977.528H643.079C642.759 977.528 642.439 977.656 642.119 977.912C641.863 978.168 641.735 978.488 641.735 978.872V981.464C641.735 982.68 641.287 983.704 640.391 984.536C639.559 985.368 638.535 985.784 637.319 985.784H634.727C633.511 985.784 632.455 985.368 631.559 984.536C630.727 983.704 630.311 982.68 630.311 981.464V978.872C630.311 976.504 630.887 974.36 632.039 972.44C633.191 970.52 634.727 968.984 636.647 967.832C638.631 966.68 640.775 966.104 643.079 966.104H661.511C663.815 966.104 665.927 966.68 667.847 967.832C669.767 968.984 671.303 970.52 672.455 972.44C673.607 974.36 674.183 976.504 674.183 978.872V987.512C674.183 990.2 673.415 992.664 671.879 994.904C670.343 997.144 668.327 998.712 665.831 999.608L642.695 1008.25C642.055 1008.44 641.735 1008.89 641.735 1009.59V1018.33C641.735 1018.65 641.863 1018.97 642.119 1019.29C642.439 1019.54 642.759 1019.67 643.079 1019.67H669.767C670.983 1019.67 672.007 1020.09 672.839 1020.92C673.735 1021.75 674.183 1022.81 674.183 1024.09V1026.58ZM723.149 972.44L693.101 1028.7C692.269 1030.23 690.989 1031 689.261 1031H686.285C684.621 1031 683.373 1030.3 682.541 1028.89C681.773 1027.48 681.741 1026.01 682.445 1024.47L712.493 968.408C713.325 966.872 714.605 966.104 716.333 966.104H719.309C720.973 966.104 722.221 966.808 723.053 968.216C723.885 969.56 723.917 970.968 723.149 972.44ZM775.246 1026.58C775.246 1027.8 774.798 1028.86 773.902 1029.75C773.07 1030.58 772.046 1031 770.83 1031H744.142C741.838 1031 739.694 1030.42 737.71 1029.27C735.79 1028.12 734.254 1026.58 733.102 1024.66C731.95 1022.74 731.374 1020.63 731.374 1018.33V1009.59C731.374 1006.97 732.142 1004.54 733.678 1002.3C735.214 1000.06 737.262 998.488 739.822 997.592L762.862 988.952C763.502 988.76 763.822 988.28 763.822 987.512V978.872C763.822 977.976 763.406 977.528 762.574 977.528H744.142C743.822 977.528 743.502 977.656 743.182 977.912C742.926 978.168 742.798 978.488 742.798 978.872V981.464C742.798 982.68 742.35 983.704 741.454 984.536C740.622 985.368 739.598 985.784 738.382 985.784H735.79C734.574 985.784 733.518 985.368 732.622 984.536C731.79 983.704 731.374 982.68 731.374 981.464V978.872C731.374 976.504 731.95 974.36 733.102 972.44C734.254 970.52 735.79 968.984 737.71 967.832C739.694 966.68 741.838 966.104 744.142 966.104H762.574C764.878 966.104 766.99 966.68 768.91 967.832C770.83 968.984 772.366 970.52 773.518 972.44C774.67 974.36 775.246 976.504 775.246 978.872V987.512C775.246 990.2 774.478 992.664 772.942 994.904C771.406 997.144 769.39 998.712 766.894 999.608L743.758 1008.25C743.118 1008.44 742.798 1008.89 742.798 1009.59V1018.33C742.798 1018.65 742.926 1018.97 743.182 1019.29C743.502 1019.54 743.822 1019.67 744.142 1019.67H770.83C772.046 1019.67 773.07 1020.09 773.902 1020.92C774.798 1021.75 775.246 1022.81 775.246 1024.09V1026.58ZM826.996 1018.33C826.996 1020.63 826.42 1022.74 825.268 1024.66C824.116 1026.58 822.58 1028.12 820.66 1029.27C818.74 1030.42 816.628 1031 814.324 1031H795.892C793.844 1031 791.892 1030.52 790.036 1029.56L789.94 1029.46C787.828 1028.38 786.164 1026.84 784.948 1024.86C783.732 1022.81 783.124 1020.63 783.124 1018.33V978.872C783.124 976.504 783.7 974.36 784.852 972.44C786.004 970.52 787.54 968.984 789.46 967.832C791.444 966.68 793.588 966.104 795.892 966.104H814.324C814.9 966.104 815.668 966.2 816.628 966.392C817.652 966.52 818.708 966.872 819.796 967.448H819.892C822.068 968.536 823.796 970.104 825.076 972.152C826.356 974.136 826.996 976.376 826.996 978.872V1018.33ZM809.14 978.68C809.268 978.36 809.268 978.104 809.14 977.912C809.012 977.656 808.788 977.528 808.468 977.528H795.892C795.572 977.528 795.252 977.656 794.932 977.912C794.676 978.168 794.548 978.488 794.548 978.872V1003.83C794.548 1004.09 794.676 1004.25 794.932 1004.31C795.188 1004.38 795.38 1004.28 795.508 1004.02L809.14 978.68ZM815.572 1018.33V992.696C815.572 992.376 815.444 992.184 815.188 992.12C814.996 992.056 814.804 992.152 814.612 992.408L800.692 1018.52C800.628 1018.78 800.66 1019.03 800.788 1019.29C800.916 1019.54 801.108 1019.67 801.364 1019.67H814.324C814.644 1019.67 814.932 1019.54 815.188 1019.29C815.444 1018.97 815.572 1018.65 815.572 1018.33Z" fill="#38442C"/>
<path d="M1512.81 1026.58C1512.81 1027.8 1512.36 1028.86 1511.46 1029.75C1510.63 1030.58 1509.61 1031 1508.39 1031H1481.7C1479.4 1031 1477.26 1030.42 1475.27 1029.27C1473.35 1028.12 1471.82 1026.58 1470.66 1024.66C1469.51 1022.74 1468.94 1020.63 1468.94 1018.33V1009.59C1468.94 1006.97 1469.7 1004.54 1471.24 1002.3C1472.78 1000.06 1474.82 998.488 1477.38 997.592L1500.42 988.952C1501.06 988.76 1501.38 988.28 1501.38 987.512V978.872C1501.38 977.976 1500.97 977.528 1500.14 977.528H1481.7C1481.38 977.528 1481.06 977.656 1480.74 977.912C1480.49 978.168 1480.36 978.488 1480.36 978.872V981.464C1480.36 982.68 1479.91 983.704 1479.02 984.536C1478.18 985.368 1477.16 985.784 1475.94 985.784H1473.35C1472.14 985.784 1471.08 985.368 1470.18 984.536C1469.35 983.704 1468.94 982.68 1468.94 981.464V978.872C1468.94 976.504 1469.51 974.36 1470.66 972.44C1471.82 970.52 1473.35 968.984 1475.27 967.832C1477.26 966.68 1479.4 966.104 1481.7 966.104H1500.14C1502.44 966.104 1504.55 966.68 1506.47 967.832C1508.39 968.984 1509.93 970.52 1511.08 972.44C1512.23 974.36 1512.81 976.504 1512.81 978.872V987.512C1512.81 990.2 1512.04 992.664 1510.5 994.904C1508.97 997.144 1506.95 998.712 1504.46 999.608L1481.32 1008.25C1480.68 1008.44 1480.36 1008.89 1480.36 1009.59V1018.33C1480.36 1018.65 1480.49 1018.97 1480.74 1019.29C1481.06 1019.54 1481.38 1019.67 1481.7 1019.67H1508.39C1509.61 1019.67 1510.63 1020.09 1511.46 1020.92C1512.36 1021.75 1512.81 1022.81 1512.81 1024.09V1026.58ZM1564.65 1014.1C1564.65 1015.26 1564.21 1016.28 1563.31 1017.18C1562.48 1018.01 1561.45 1018.42 1560.24 1018.42H1558.03C1557.13 1018.42 1556.69 1018.84 1556.69 1019.67V1026.58C1556.69 1027.8 1556.27 1028.86 1555.44 1029.75C1554.61 1030.58 1553.58 1031 1552.37 1031H1549.77C1548.56 1031 1547.5 1030.58 1546.61 1029.75C1545.77 1028.86 1545.36 1027.8 1545.36 1026.58V1019.67C1545.36 1018.84 1544.94 1018.42 1544.11 1018.42H1525.01C1523.79 1018.42 1522.73 1018.01 1521.84 1017.18C1521.01 1016.28 1520.59 1015.26 1520.59 1014.1V1002.01C1520.59 999.064 1521.26 996.248 1522.61 993.56L1530.48 978.584C1531.31 976.92 1532.62 976.088 1534.41 976.088H1537.29C1538.96 976.088 1540.21 976.792 1541.04 978.2C1541.93 979.544 1542 980.984 1541.23 982.52L1532.78 998.84C1532.27 999.992 1532.01 1001.05 1532.01 1002.01V1005.85C1532.01 1006.62 1532.46 1007 1533.36 1007H1544.11C1544.94 1007 1545.36 1006.62 1545.36 1005.85V970.52C1545.36 969.24 1545.77 968.184 1546.61 967.352C1547.5 966.52 1548.56 966.104 1549.77 966.104H1552.37C1553.58 966.104 1554.61 966.52 1555.44 967.352C1556.27 968.184 1556.69 969.24 1556.69 970.52V1005.85C1556.69 1006.62 1557.13 1007 1558.03 1007H1560.24C1561.45 1007 1562.48 1007.45 1563.31 1008.34C1564.21 1009.18 1564.65 1010.2 1564.65 1011.42V1014.1ZM1613.52 972.44L1583.48 1028.7C1582.64 1030.23 1581.36 1031 1579.64 1031H1576.66C1575 1031 1573.75 1030.3 1572.92 1028.89C1572.15 1027.48 1572.12 1026.01 1572.82 1024.47L1602.87 968.408C1603.7 966.872 1604.98 966.104 1606.71 966.104H1609.68C1611.35 966.104 1612.6 966.808 1613.43 968.216C1614.26 969.56 1614.29 970.968 1613.52 972.44ZM1665.62 1026.58C1665.62 1027.8 1665.17 1028.86 1664.28 1029.75C1663.44 1030.58 1662.42 1031 1661.2 1031H1634.52C1632.21 1031 1630.07 1030.42 1628.08 1029.27C1626.16 1028.12 1624.63 1026.58 1623.48 1024.66C1622.32 1022.74 1621.75 1020.63 1621.75 1018.33V1009.59C1621.75 1006.97 1622.52 1004.54 1624.05 1002.3C1625.59 1000.06 1627.64 998.488 1630.2 997.592L1653.24 988.952C1653.88 988.76 1654.2 988.28 1654.2 987.512V978.872C1654.2 977.976 1653.78 977.528 1652.95 977.528H1634.52C1634.2 977.528 1633.88 977.656 1633.56 977.912C1633.3 978.168 1633.17 978.488 1633.17 978.872V981.464C1633.17 982.68 1632.72 983.704 1631.83 984.536C1631 985.368 1629.97 985.784 1628.76 985.784H1626.16C1624.95 985.784 1623.89 985.368 1623 984.536C1622.16 983.704 1621.75 982.68 1621.75 981.464V978.872C1621.75 976.504 1622.32 974.36 1623.48 972.44C1624.63 970.52 1626.16 968.984 1628.08 967.832C1630.07 966.68 1632.21 966.104 1634.52 966.104H1652.95C1655.25 966.104 1657.36 966.68 1659.28 967.832C1661.2 968.984 1662.74 970.52 1663.89 972.44C1665.04 974.36 1665.62 976.504 1665.62 978.872V987.512C1665.62 990.2 1664.85 992.664 1663.32 994.904C1661.78 997.144 1659.76 998.712 1657.27 999.608L1634.13 1008.25C1633.49 1008.44 1633.17 1008.89 1633.17 1009.59V1018.33C1633.17 1018.65 1633.3 1018.97 1633.56 1019.29C1633.88 1019.54 1634.2 1019.67 1634.52 1019.67H1661.2C1662.42 1019.67 1663.44 1020.09 1664.28 1020.92C1665.17 1021.75 1665.62 1022.81 1665.62 1024.09V1026.58ZM1717.37 1018.33C1717.37 1020.63 1716.79 1022.74 1715.64 1024.66C1714.49 1026.58 1712.95 1028.12 1711.03 1029.27C1709.11 1030.42 1707 1031 1704.7 1031H1686.27C1684.22 1031 1682.27 1030.52 1680.41 1029.56L1680.31 1029.46C1678.2 1028.38 1676.54 1026.84 1675.32 1024.86C1674.11 1022.81 1673.5 1020.63 1673.5 1018.33V978.872C1673.5 976.504 1674.07 974.36 1675.23 972.44C1676.38 970.52 1677.91 968.984 1679.83 967.832C1681.82 966.68 1683.96 966.104 1686.27 966.104H1704.7C1705.27 966.104 1706.04 966.2 1707 966.392C1708.03 966.52 1709.08 966.872 1710.17 967.448H1710.27C1712.44 968.536 1714.17 970.104 1715.45 972.152C1716.73 974.136 1717.37 976.376 1717.37 978.872V1018.33ZM1699.51 978.68C1699.64 978.36 1699.64 978.104 1699.51 977.912C1699.39 977.656 1699.16 977.528 1698.84 977.528H1686.27C1685.95 977.528 1685.63 977.656 1685.31 977.912C1685.05 978.168 1684.92 978.488 1684.92 978.872V1003.83C1684.92 1004.09 1685.05 1004.25 1685.31 1004.31C1685.56 1004.38 1685.75 1004.28 1685.88 1004.02L1699.51 978.68ZM1705.95 1018.33V992.696C1705.95 992.376 1705.82 992.184 1705.56 992.12C1705.37 992.056 1705.18 992.152 1704.99 992.408L1691.07 1018.52C1691 1018.78 1691.03 1019.03 1691.16 1019.29C1691.29 1019.54 1691.48 1019.67 1691.74 1019.67H1704.7C1705.02 1019.67 1705.31 1019.54 1705.56 1019.29C1705.82 1018.97 1705.95 1018.65 1705.95 1018.33ZM1766.34 972.44L1736.29 1028.7C1735.46 1030.23 1734.18 1031 1732.45 1031H1729.47C1727.81 1031 1726.56 1030.3 1725.73 1028.89C1724.96 1027.48 1724.93 1026.01 1725.63 1024.47L1755.68 968.408C1756.51 966.872 1757.79 966.104 1759.52 966.104H1762.5C1764.16 966.104 1765.41 966.808 1766.24 968.216C1767.07 969.56 1767.1 970.968 1766.34 972.44ZM1807.01 1026.58C1807.01 1027.8 1806.59 1028.86 1805.76 1029.75C1804.99 1030.58 1804 1031 1802.79 1031H1800.1C1798.88 1031 1797.83 1030.58 1796.93 1029.75C1796.1 1028.86 1795.68 1027.8 1795.68 1026.58V982.904C1795.68 982.648 1795.55 982.488 1795.3 982.424C1795.11 982.296 1794.95 982.296 1794.82 982.424L1793.38 983.864C1792.61 984.76 1791.59 985.208 1790.31 985.208C1789.67 985.208 1789.09 985.08 1788.58 984.824C1787.75 984.504 1787.11 983.96 1786.66 983.192C1786.21 982.424 1785.99 981.624 1785.99 980.792V977.048C1785.99 975.832 1786.4 974.776 1787.23 973.88L1793.76 967.448C1794.21 967.064 1794.69 966.744 1795.2 966.488C1795.71 966.232 1796.29 966.104 1796.93 966.104H1802.79C1804 966.104 1804.99 966.52 1805.76 967.352C1806.59 968.184 1807.01 969.24 1807.01 970.52V1026.58ZM1865.4 1018.33C1865.4 1020.63 1864.83 1022.74 1863.67 1024.66C1862.52 1026.58 1860.99 1028.12 1859.07 1029.27C1857.15 1030.42 1855.03 1031 1852.73 1031H1834.3C1831.99 1031 1829.85 1030.42 1827.87 1029.27C1825.95 1028.12 1824.41 1026.58 1823.26 1024.66C1822.11 1022.74 1821.53 1020.63 1821.53 1018.33V978.872C1821.53 976.504 1822.11 974.36 1823.26 972.44C1824.41 970.52 1825.95 968.984 1827.87 967.832C1829.85 966.68 1831.99 966.104 1834.3 966.104H1852.73C1855.03 966.104 1857.15 966.68 1859.07 967.832C1860.99 968.984 1862.52 970.52 1863.67 972.44C1864.83 974.36 1865.4 976.504 1865.4 978.872V981.272C1865.4 982.488 1864.95 983.544 1864.06 984.44C1863.23 985.336 1862.2 985.784 1860.99 985.784H1858.39C1857.18 985.784 1856.12 985.336 1855.23 984.44C1854.39 983.544 1853.98 982.488 1853.98 981.272V978.872C1853.98 977.976 1853.56 977.528 1852.73 977.528H1834.3C1833.98 977.528 1833.66 977.656 1833.34 977.912C1833.08 978.168 1832.95 978.488 1832.95 978.872V989.048C1832.95 989.88 1833.37 990.296 1834.2 990.296H1852.73C1855.03 990.296 1857.15 990.872 1859.07 992.024C1860.99 993.112 1862.52 994.616 1863.67 996.536C1864.83 998.456 1865.4 1000.6 1865.4 1002.97V1018.33ZM1853.98 1018.33V1002.97C1853.98 1002.07 1853.56 1001.62 1852.73 1001.62H1834.2C1833.37 1001.62 1832.95 1002.04 1832.95 1002.87V1018.33C1832.95 1018.65 1833.08 1018.97 1833.34 1019.29C1833.66 1019.54 1833.98 1019.67 1834.3 1019.67H1852.73C1853.05 1019.67 1853.34 1019.54 1853.59 1019.29C1853.85 1018.97 1853.98 1018.65 1853.98 1018.33Z" fill="#38442C"/>
<path d="M323.188 830.832C323.188 845.741 322.374 857.98 320.746 867.551C319.118 877.056 316.579 884.543 313.129 890.012C309.743 895.48 305.512 899.257 300.434 901.34C295.355 903.358 289.464 904.367 282.758 904.367C278.917 904.367 274.945 904.335 270.844 904.27C266.807 904.204 263.064 904.042 259.613 903.781C257.595 903.651 255.609 903.521 253.656 903.391C251.768 903.26 249.88 903.13 247.992 903V762.961C249.815 762.831 251.638 762.701 253.461 762.57C255.284 762.44 257.139 762.31 259.027 762.18C262.217 761.919 265.701 761.757 269.477 761.691C273.318 761.626 276.964 761.594 280.414 761.594C287.445 761.594 293.63 762.44 298.969 764.133C304.372 765.76 308.865 769.081 312.445 774.094C316.091 779.107 318.793 786.105 320.551 795.09C322.309 804.074 323.188 815.988 323.188 830.832ZM305.414 832.199C305.414 820.22 304.926 810.552 303.949 803.195C302.973 795.839 301.54 790.174 299.652 786.203C297.829 782.232 295.648 779.595 293.109 778.293C290.635 776.926 287.868 776.242 284.809 776.242C282.921 776.242 280.87 776.275 278.656 776.34C276.508 776.405 274.424 776.503 272.406 776.633C271.169 776.698 269.965 776.763 268.793 776.828C267.621 776.893 266.482 776.958 265.375 777.023V889.035C266.417 889.1 267.458 889.165 268.5 889.23C269.607 889.296 270.714 889.361 271.82 889.426C273.643 889.556 275.694 889.654 277.973 889.719C280.251 889.784 282.465 889.816 284.613 889.816C287.673 889.816 290.505 888.872 293.109 886.984C295.714 885.096 297.927 881.906 299.75 877.414C301.508 872.987 302.875 867.095 303.852 859.738C304.893 852.316 305.414 843.137 305.414 832.199ZM417.816 844.016V858.957H366.254C366.384 865.533 366.905 870.839 367.816 874.875C368.728 878.911 369.9 882.069 371.332 884.348C372.829 886.561 374.555 888.059 376.508 888.84C378.461 889.621 380.707 890.012 383.246 890.012C388.845 890.012 393.923 889.654 398.48 888.938C403.103 888.156 406.977 887.44 410.102 886.789V901.242C406.846 902.154 402.777 902.902 397.895 903.488C393.077 904.074 388.878 904.367 385.297 904.367C379.568 904.367 374.457 903.781 369.965 902.609C365.473 901.372 361.697 898.964 358.637 895.383C355.577 891.802 353.233 886.659 351.605 879.953C350.043 873.182 349.262 864.198 349.262 853C349.262 834.836 352.322 821.62 358.441 813.352C361.501 809.25 365.31 806.288 369.867 804.465C374.424 802.577 379.698 801.633 385.688 801.633C397.146 801.633 405.349 805.409 410.297 812.961C415.31 820.448 417.816 830.799 417.816 844.016ZM385.297 815.793C382.042 815.793 379.307 816.249 377.094 817.16C374.88 818.072 373.025 819.667 371.527 821.945C368.598 826.372 366.905 834.185 366.449 845.383H401.215V840.012C401.215 832.395 400.043 826.47 397.699 822.238C395.421 817.941 391.286 815.793 385.297 815.793ZM499.652 886.398V901.242C496.397 902.154 492.849 902.902 489.008 903.488C485.167 904.074 481.423 904.367 477.777 904.367C472.048 904.367 466.97 903.749 462.543 902.512C458.181 901.21 454.535 898.671 451.605 894.895C448.676 891.118 446.462 885.747 444.965 878.781C443.533 871.75 442.816 862.505 442.816 851.047C442.816 842.062 443.5 834.445 444.867 828.195C446.299 821.945 448.415 816.835 451.215 812.863C454.014 808.957 457.595 806.125 461.957 804.367C466.384 802.544 471.592 801.633 477.582 801.633C480.967 801.633 484.743 801.958 488.91 802.609C493.142 803.26 496.723 803.911 499.652 804.562V819.406C495.876 818.625 492.328 817.974 489.008 817.453C485.688 816.867 481.488 816.574 476.41 816.574C473.48 816.574 471.007 817.193 468.988 818.43C467.035 819.602 465.408 821.685 464.105 824.68C461.501 830.344 460.199 840.435 460.199 854.953C460.199 862.44 460.557 868.462 461.273 873.02C462.055 877.512 463.161 880.962 464.594 883.371C465.961 885.78 467.621 887.408 469.574 888.254C471.592 889.035 473.871 889.426 476.41 889.426C481.879 889.426 486.371 889.1 489.887 888.449C493.467 887.733 496.723 887.049 499.652 886.398ZM561.176 841.574L596.43 903H576.605L549.652 853.195L543.598 860.227V903H526.605V762.961H543.598V839.035L574.164 803H594.965L561.176 841.574ZM661.664 803V818.039H638.422V878.977C638.422 881.385 639.138 883.827 640.57 886.301C642.068 888.775 644.704 890.012 648.48 890.012C651.54 890.012 654.112 889.784 656.195 889.328C658.344 888.872 660.167 888.417 661.664 887.961V902.023C660.297 902.414 657.986 902.902 654.73 903.488C651.475 904.074 648.057 904.367 644.477 904.367C636.599 904.367 630.772 901.893 626.996 896.945C623.285 891.997 621.43 885.682 621.43 878V818.039H608.441V803H621.43V778.977H638.422V803H661.664ZM756.684 851.047C756.684 861.529 755.87 870.22 754.242 877.121C752.68 883.957 750.303 889.393 747.113 893.43C743.923 897.531 739.952 900.396 735.199 902.023C730.447 903.586 724.945 904.367 718.695 904.367C712.576 904.367 707.172 903.586 702.484 902.023C697.797 900.396 693.826 897.531 690.57 893.43C687.38 889.393 684.939 883.957 683.246 877.121C681.553 870.22 680.707 861.529 680.707 851.047C680.707 833.924 683.767 821.424 689.887 813.547C696.007 805.604 705.609 801.633 718.695 801.633C731.781 801.633 741.384 805.604 747.504 813.547C753.624 821.424 756.684 833.924 756.684 851.047ZM739.301 853.977C739.301 846.945 738.975 840.956 738.324 836.008C737.673 831.06 736.566 827.089 735.004 824.094C732.009 818.43 726.573 815.598 718.695 815.598C710.753 815.598 705.349 818.43 702.484 824.094C700.922 827.089 699.783 831.06 699.066 836.008C698.415 840.956 698.09 846.945 698.09 853.977C698.09 867.062 699.62 876.405 702.68 882.004C705.74 887.603 711.078 890.402 718.695 890.402C726.312 890.402 731.651 887.603 734.711 882.004C737.771 876.405 739.301 867.062 739.301 853.977ZM802.582 903.586V936.984H785.59V803H799.555L801.215 811.594C807.595 804.953 815.44 801.633 824.75 801.633C836.534 801.633 844.737 805.409 849.359 812.961C854.047 820.448 856.391 831.646 856.391 846.555C856.391 857.492 855.642 866.672 854.145 874.094C852.712 881.516 850.336 887.44 847.016 891.867C843.695 896.359 839.333 899.582 833.93 901.535C828.526 903.423 821.82 904.367 813.812 904.367C811.534 904.367 809.451 904.302 807.562 904.172C805.74 904.042 804.079 903.846 802.582 903.586ZM821.625 815.988C818.174 815.988 814.984 816.867 812.055 818.625C809.19 820.318 806.879 822.466 805.121 825.07C803.428 827.674 802.582 830.311 802.582 832.98V889.23C804.079 889.491 805.87 889.686 807.953 889.816C810.102 889.947 812.706 890.012 815.766 890.012C824.945 890.012 831.195 886.529 834.516 879.562C836.208 876.112 837.38 871.815 838.031 866.672C838.682 861.529 839.008 855.507 839.008 848.605C839.008 836.236 837.706 827.642 835.102 822.824C833.669 820.285 831.846 818.527 829.633 817.551C827.484 816.509 824.815 815.988 821.625 815.988Z" fill="#38442C"/>
<path d="M1514.98 762.961V903H1498.38V777.414L1477 856.027H1460.39L1439.01 777.414V903H1422.99V762.961H1451.21L1469.38 834.641L1487.35 762.961H1514.98ZM1620.94 851.047C1620.94 861.529 1620.13 870.22 1618.5 877.121C1616.94 883.957 1614.56 889.393 1611.37 893.43C1608.18 897.531 1604.21 900.396 1599.46 902.023C1594.7 903.586 1589.2 904.367 1582.95 904.367C1576.83 904.367 1571.43 903.586 1566.74 902.023C1562.05 900.396 1558.08 897.531 1554.83 893.43C1551.64 889.393 1549.2 883.957 1547.5 877.121C1545.81 870.22 1544.96 861.529 1544.96 851.047C1544.96 833.924 1548.02 821.424 1554.14 813.547C1560.26 805.604 1569.87 801.633 1582.95 801.633C1596.04 801.633 1605.64 805.604 1611.76 813.547C1617.88 821.424 1620.94 833.924 1620.94 851.047ZM1603.56 853.977C1603.56 846.945 1603.23 840.956 1602.58 836.008C1601.93 831.06 1600.82 827.089 1599.26 824.094C1596.27 818.43 1590.83 815.598 1582.95 815.598C1575.01 815.598 1569.61 818.43 1566.74 824.094C1565.18 827.089 1564.04 831.06 1563.32 836.008C1562.67 840.956 1562.35 846.945 1562.35 853.977C1562.35 867.062 1563.88 876.405 1566.94 882.004C1570 887.603 1575.34 890.402 1582.95 890.402C1590.57 890.402 1595.91 887.603 1598.97 882.004C1602.03 876.405 1603.56 867.062 1603.56 853.977ZM1720.65 846.555C1720.65 857.492 1719.9 866.672 1718.4 874.094C1716.97 881.516 1714.59 887.44 1711.27 891.867C1707.95 896.359 1703.59 899.582 1698.19 901.535C1692.78 903.423 1686.08 904.367 1678.07 904.367C1674.42 904.367 1671.27 904.302 1668.6 904.172C1665.99 904.042 1663.58 903.846 1661.37 903.586C1659.74 903.391 1657.76 903.13 1655.41 902.805C1653.07 902.479 1651.21 902.219 1649.85 902.023V762.961H1666.84V810.422C1673.09 804.562 1680.48 801.633 1689.01 801.633C1700.79 801.633 1708.99 805.409 1713.62 812.961C1718.3 820.448 1720.65 831.646 1720.65 846.555ZM1685.88 815.988C1682.43 815.988 1679.24 816.867 1676.31 818.625C1673.45 820.318 1671.14 822.466 1669.38 825.07C1667.69 827.674 1666.84 830.311 1666.84 832.98V889.23C1668.34 889.491 1670.13 889.686 1672.21 889.816C1674.36 889.947 1676.96 890.012 1680.02 890.012C1689.2 890.012 1695.45 886.529 1698.77 879.562C1700.47 876.112 1701.64 871.815 1702.29 866.672C1702.94 861.529 1703.27 855.507 1703.27 848.605C1703.27 836.236 1701.96 827.642 1699.36 822.824C1697.93 820.285 1696.1 818.527 1693.89 817.551C1691.74 816.509 1689.07 815.988 1685.88 815.988ZM1767.72 762.961V781.027H1748.68V762.961H1767.72ZM1766.64 803V903H1749.65V803H1766.64ZM1827.68 887.961V902.023C1826.96 902.154 1826.15 902.316 1825.24 902.512C1824.39 902.642 1823.51 902.805 1822.6 903C1820.65 903.391 1818.34 903.586 1815.67 903.586C1810.85 903.586 1806.81 901.796 1803.56 898.215C1800.3 894.569 1798.68 888.71 1798.68 880.637V762.961H1815.67V879.562C1815.67 883.078 1816.09 885.552 1816.94 886.984C1817.85 888.352 1819.64 889.035 1822.31 889.035C1823.22 889.035 1824.26 888.872 1825.43 888.547C1826.35 888.286 1827.09 888.091 1827.68 887.961ZM1917.23 844.016V858.957H1865.67C1865.8 865.533 1866.32 870.839 1867.23 874.875C1868.14 878.911 1869.31 882.069 1870.75 884.348C1872.24 886.561 1873.97 888.059 1875.92 888.84C1877.88 889.621 1880.12 890.012 1882.66 890.012C1888.26 890.012 1893.34 889.654 1897.89 888.938C1902.52 888.156 1906.39 887.44 1909.52 886.789V901.242C1906.26 902.154 1902.19 902.902 1897.31 903.488C1892.49 904.074 1888.29 904.367 1884.71 904.367C1878.98 904.367 1873.87 903.781 1869.38 902.609C1864.89 901.372 1861.11 898.964 1858.05 895.383C1854.99 891.802 1852.65 886.659 1851.02 879.953C1849.46 873.182 1848.68 864.198 1848.68 853C1848.68 834.836 1851.74 821.62 1857.86 813.352C1860.92 809.25 1864.72 806.288 1869.28 804.465C1873.84 802.577 1879.11 801.633 1885.1 801.633C1896.56 801.633 1904.76 805.409 1909.71 812.961C1914.72 820.448 1917.23 830.799 1917.23 844.016ZM1884.71 815.793C1881.46 815.793 1878.72 816.249 1876.51 817.16C1874.29 818.072 1872.44 819.667 1870.94 821.945C1868.01 826.372 1866.32 834.185 1865.86 845.383H1900.63V840.012C1900.63 832.395 1899.46 826.47 1897.11 822.238C1894.83 817.941 1890.7 815.793 1884.71 815.793Z" fill="#38442C"/>
<g filter="url(#filter0_d_42_5052)">
<rect x="571" y="1610" width="301" height="517" fill="#38442C"/>
</g>
<g filter="url(#filter1_d_42_5052)">
<rect x="1288" y="1610" width="301" height="517" fill="#F4EFEB"/>
</g>
<g filter="url(#filter2_d_42_5052)">
<rect x="929" y="1610" width="302" height="517" fill="#B3C9A2"/>
</g>
<path d="M665.84 1868.52L665.6 1869.64C665.547 1870.07 665.347 1870.43 665 1870.72C664.653 1871.01 664.253 1871.16 663.8 1871.16H662.44C662.093 1871.16 661.893 1871.32 661.84 1871.64L661.8 1871.76C661.747 1872.08 661.88 1872.24 662.2 1872.24H662.88C663.44 1872.24 663.92 1872.48 664.32 1872.96C664.48 1873.15 664.6 1873.37 664.68 1873.64C664.76 1873.91 664.76 1874.16 664.68 1874.4L664.52 1875.52C664.413 1875.95 664.2 1876.31 663.88 1876.6C663.56 1876.89 663.173 1877.04 662.72 1877.04H661.32C660.947 1877.04 660.733 1877.21 660.68 1877.56L659.6 1883.52C659.493 1883.95 659.28 1884.31 658.96 1884.6C658.64 1884.87 658.253 1885 657.8 1885H656.64C656.08 1885 655.613 1884.79 655.24 1884.36C654.893 1883.96 654.76 1883.45 654.84 1882.84L655.84 1877.56C655.893 1877.43 655.867 1877.31 655.76 1877.2C655.68 1877.09 655.573 1877.04 655.44 1877.04H655C654.627 1877.04 654.4 1877.21 654.32 1877.56L653.24 1883.52C653.133 1883.95 652.92 1884.31 652.6 1884.6C652.28 1884.87 651.893 1885 651.44 1885H650.28C649.72 1885 649.267 1884.79 648.92 1884.36C648.547 1883.93 648.4 1883.43 648.48 1882.84L649.52 1877.56C649.573 1877.21 649.427 1877.04 649.08 1877.04H648.44C647.907 1877.04 647.453 1876.81 647.08 1876.36C646.707 1875.91 646.56 1875.41 646.64 1874.88L646.88 1873.76C646.987 1873.33 647.2 1872.97 647.52 1872.68C647.867 1872.39 648.253 1872.24 648.68 1872.24H650C650.373 1872.24 650.573 1872.08 650.6 1871.76V1871.64C650.653 1871.51 650.627 1871.4 650.52 1871.32C650.44 1871.21 650.333 1871.16 650.2 1871.16H649.6C649.333 1871.16 649.08 1871.09 648.84 1870.96C648.6 1870.83 648.373 1870.67 648.16 1870.48C647.813 1869.97 647.693 1869.47 647.8 1868.96L648 1867.88C648.08 1867.43 648.293 1867.07 648.64 1866.8C648.987 1866.51 649.373 1866.36 649.8 1866.36H651.12C651.493 1866.36 651.693 1866.2 651.72 1865.88L652.96 1859.48C653.013 1859.03 653.213 1858.67 653.56 1858.4C653.933 1858.11 654.333 1857.96 654.76 1857.96H655.84C656.4 1857.96 656.867 1858.19 657.24 1858.64C657.64 1859.07 657.773 1859.56 657.64 1860.12L656.56 1865.88C656.533 1866.01 656.56 1866.13 656.64 1866.24C656.747 1866.32 656.853 1866.36 656.96 1866.36H657.48C657.8 1866.36 658 1866.2 658.08 1865.88L659.32 1859.48C659.373 1859.03 659.573 1858.67 659.92 1858.4C660.267 1858.11 660.653 1857.96 661.08 1857.96H662.2C662.76 1857.96 663.227 1858.19 663.6 1858.64C663.947 1859.04 664.08 1859.53 664 1860.12L662.88 1865.88C662.853 1866.01 662.893 1866.13 663 1866.24C663.107 1866.32 663.213 1866.36 663.32 1866.36H664.04C664.6 1866.36 665.067 1866.59 665.44 1867.04C665.787 1867.47 665.92 1867.96 665.84 1868.52ZM656.96 1871.64C657.013 1871.32 656.88 1871.16 656.56 1871.16H656.08C655.733 1871.16 655.533 1871.32 655.48 1871.64L655.44 1871.76C655.387 1872.08 655.52 1872.24 655.84 1872.24H656.36C656.733 1872.24 656.933 1872.08 656.96 1871.76V1871.64ZM687.381 1879.72C687.381 1880.68 687.141 1881.56 686.661 1882.36C686.181 1883.16 685.541 1883.8 684.741 1884.28C683.941 1884.76 683.061 1885 682.101 1885H674.421C673.461 1885 672.568 1884.76 671.741 1884.28C670.941 1883.8 670.301 1883.16 669.821 1882.36C669.341 1881.56 669.101 1880.68 669.101 1879.72V1878.52C669.101 1878.01 669.274 1877.59 669.621 1877.24C669.994 1876.87 670.434 1876.68 670.941 1876.68H672.061C672.541 1876.68 672.954 1876.87 673.301 1877.24C673.674 1877.59 673.861 1878.01 673.861 1878.52V1879.72C673.861 1879.85 673.914 1879.99 674.021 1880.12C674.154 1880.23 674.288 1880.28 674.421 1880.28H682.101C682.234 1880.28 682.354 1880.23 682.461 1880.12C682.568 1879.99 682.621 1879.85 682.621 1879.72V1874.4C682.621 1874.05 682.448 1873.88 682.101 1873.88H674.421C673.914 1873.88 673.474 1873.71 673.101 1873.36C672.754 1872.99 672.581 1872.55 672.581 1872.04V1870.92C672.581 1870.41 672.754 1869.99 673.101 1869.64C673.474 1869.29 673.914 1869.12 674.421 1869.12H682.101C682.234 1869.12 682.354 1869.07 682.461 1868.96C682.568 1868.83 682.621 1868.69 682.621 1868.56V1863.28C682.621 1862.91 682.448 1862.72 682.101 1862.72H674.421C674.288 1862.72 674.154 1862.77 674.021 1862.88C673.914 1862.99 673.861 1863.12 673.861 1863.28V1864.36C673.861 1864.87 673.674 1865.29 673.301 1865.64C672.954 1865.99 672.541 1866.16 672.061 1866.16H670.941C670.434 1866.16 669.994 1865.99 669.621 1865.64C669.274 1865.29 669.101 1864.87 669.101 1864.36V1863.28C669.101 1862.29 669.341 1861.4 669.821 1860.6C670.301 1859.8 670.941 1859.16 671.741 1858.68C672.568 1858.2 673.461 1857.96 674.421 1857.96H682.101C683.061 1857.96 683.941 1858.2 684.741 1858.68C685.541 1859.16 686.181 1859.8 686.661 1860.6C687.141 1861.4 687.381 1862.29 687.381 1863.28V1868.56C687.381 1868.99 687.328 1869.41 687.221 1869.84C687.114 1870.27 686.968 1870.68 686.781 1871.08C686.568 1871.35 686.568 1871.63 686.781 1871.92C686.968 1872.29 687.114 1872.69 687.221 1873.12C687.328 1873.55 687.381 1873.97 687.381 1874.4V1879.72ZM708.943 1879.72C708.943 1880.68 708.703 1881.56 708.223 1882.36C707.743 1883.16 707.103 1883.8 706.303 1884.28C705.503 1884.76 704.623 1885 703.663 1885H695.983C695.023 1885 694.13 1884.76 693.303 1884.28C692.503 1883.8 691.863 1883.16 691.383 1882.36C690.903 1881.56 690.663 1880.68 690.663 1879.72V1873.88C690.663 1873.43 690.717 1872.99 690.823 1872.56C690.93 1872.13 691.077 1871.75 691.263 1871.4C691.477 1871.11 691.477 1870.81 691.263 1870.52C691.077 1870.12 690.93 1869.72 690.823 1869.32C690.717 1868.89 690.663 1868.47 690.663 1868.04V1863.28C690.663 1862.29 690.903 1861.4 691.383 1860.6C691.863 1859.8 692.503 1859.16 693.303 1858.68C694.13 1858.2 695.023 1857.96 695.983 1857.96H703.663C704.623 1857.96 705.503 1858.2 706.303 1858.68C707.103 1859.16 707.743 1859.8 708.223 1860.6C708.703 1861.4 708.943 1862.29 708.943 1863.28V1868.04C708.943 1868.44 708.89 1868.85 708.783 1869.28C708.677 1869.71 708.53 1870.11 708.343 1870.48C708.13 1870.8 708.13 1871.11 708.343 1871.4C708.53 1871.75 708.677 1872.13 708.783 1872.56C708.89 1872.99 708.943 1873.43 708.943 1873.88V1879.72ZM704.183 1868.04V1863.28C704.183 1862.91 704.01 1862.72 703.663 1862.72H695.983C695.85 1862.72 695.717 1862.77 695.583 1862.88C695.477 1862.99 695.423 1863.12 695.423 1863.28V1868.04C695.423 1868.17 695.477 1868.29 695.583 1868.4C695.717 1868.51 695.85 1868.56 695.983 1868.56H703.663C704.01 1868.56 704.183 1868.39 704.183 1868.04ZM704.183 1879.72V1873.88C704.183 1873.51 704.01 1873.32 703.663 1873.32H695.983C695.85 1873.32 695.717 1873.37 695.583 1873.48C695.477 1873.59 695.423 1873.72 695.423 1873.88V1879.72C695.423 1879.85 695.477 1879.99 695.583 1880.12C695.717 1880.23 695.85 1880.28 695.983 1880.28H703.663C703.797 1880.28 703.917 1880.23 704.023 1880.12C704.13 1879.99 704.183 1879.85 704.183 1879.72ZM730.546 1877.96C730.546 1878.44 730.359 1878.87 729.986 1879.24C729.639 1879.59 729.213 1879.76 728.706 1879.76H727.786C727.413 1879.76 727.226 1879.93 727.226 1880.28V1883.16C727.226 1883.67 727.053 1884.11 726.706 1884.48C726.359 1884.83 725.933 1885 725.426 1885H724.346C723.839 1885 723.399 1884.83 723.026 1884.48C722.679 1884.11 722.506 1883.67 722.506 1883.16V1880.28C722.506 1879.93 722.333 1879.76 721.986 1879.76H714.026C713.519 1879.76 713.079 1879.59 712.706 1879.24C712.359 1878.87 712.186 1878.44 712.186 1877.96V1872.92C712.186 1871.69 712.466 1870.52 713.026 1869.4L716.306 1863.16C716.653 1862.47 717.199 1862.12 717.946 1862.12H719.146C719.839 1862.12 720.359 1862.41 720.706 1863C721.079 1863.56 721.106 1864.16 720.786 1864.8L717.266 1871.6C717.053 1872.08 716.946 1872.52 716.946 1872.92V1874.52C716.946 1874.84 717.133 1875 717.506 1875H721.986C722.333 1875 722.506 1874.84 722.506 1874.52V1859.8C722.506 1859.27 722.679 1858.83 723.026 1858.48C723.399 1858.13 723.839 1857.96 724.346 1857.96H725.426C725.933 1857.96 726.359 1858.13 726.706 1858.48C727.053 1858.83 727.226 1859.27 727.226 1859.8V1874.52C727.226 1874.84 727.413 1875 727.786 1875H728.706C729.213 1875 729.639 1875.19 729.986 1875.56C730.359 1875.91 730.546 1876.33 730.546 1876.84V1877.96ZM752.108 1877.96C752.108 1878.44 751.922 1878.87 751.548 1879.24C751.202 1879.59 750.775 1879.76 750.268 1879.76H749.348C748.975 1879.76 748.788 1879.93 748.788 1880.28V1883.16C748.788 1883.67 748.615 1884.11 748.268 1884.48C747.922 1884.83 747.495 1885 746.988 1885H745.908C745.402 1885 744.962 1884.83 744.588 1884.48C744.242 1884.11 744.068 1883.67 744.068 1883.16V1880.28C744.068 1879.93 743.895 1879.76 743.548 1879.76H735.588C735.082 1879.76 734.642 1879.59 734.268 1879.24C733.922 1878.87 733.748 1878.44 733.748 1877.96V1872.92C733.748 1871.69 734.028 1870.52 734.588 1869.4L737.868 1863.16C738.215 1862.47 738.762 1862.12 739.508 1862.12H740.708C741.402 1862.12 741.922 1862.41 742.268 1863C742.642 1863.56 742.668 1864.16 742.348 1864.8L738.828 1871.6C738.615 1872.08 738.508 1872.52 738.508 1872.92V1874.52C738.508 1874.84 738.695 1875 739.068 1875H743.548C743.895 1875 744.068 1874.84 744.068 1874.52V1859.8C744.068 1859.27 744.242 1858.83 744.588 1858.48C744.962 1858.13 745.402 1857.96 745.908 1857.96H746.988C747.495 1857.96 747.922 1858.13 748.268 1858.48C748.615 1858.83 748.788 1859.27 748.788 1859.8V1874.52C748.788 1874.84 748.975 1875 749.348 1875H750.268C750.775 1875 751.202 1875.19 751.548 1875.56C751.922 1875.91 752.108 1876.33 752.108 1876.84V1877.96ZM773.631 1883.16C773.631 1883.67 773.444 1884.11 773.071 1884.48C772.724 1884.83 772.298 1885 771.791 1885H760.671C759.711 1885 758.818 1884.76 757.991 1884.28C757.191 1883.8 756.551 1883.16 756.071 1882.36C755.591 1881.56 755.351 1880.68 755.351 1879.72V1876.08C755.351 1874.99 755.671 1873.97 756.311 1873.04C756.951 1872.11 757.804 1871.45 758.871 1871.08L768.471 1867.48C768.738 1867.4 768.871 1867.2 768.871 1866.88V1863.28C768.871 1862.91 768.698 1862.72 768.351 1862.72H760.671C760.538 1862.72 760.404 1862.77 760.271 1862.88C760.164 1862.99 760.111 1863.12 760.111 1863.28V1864.36C760.111 1864.87 759.924 1865.29 759.551 1865.64C759.204 1865.99 758.778 1866.16 758.271 1866.16H757.191C756.684 1866.16 756.244 1865.99 755.871 1865.64C755.524 1865.29 755.351 1864.87 755.351 1864.36V1863.28C755.351 1862.29 755.591 1861.4 756.071 1860.6C756.551 1859.8 757.191 1859.16 757.991 1858.68C758.818 1858.2 759.711 1857.96 760.671 1857.96H768.351C769.311 1857.96 770.191 1858.2 770.991 1858.68C771.791 1859.16 772.431 1859.8 772.911 1860.6C773.391 1861.4 773.631 1862.29 773.631 1863.28V1866.88C773.631 1868 773.311 1869.03 772.671 1869.96C772.031 1870.89 771.191 1871.55 770.151 1871.92L760.511 1875.52C760.244 1875.6 760.111 1875.79 760.111 1876.08V1879.72C760.111 1879.85 760.164 1879.99 760.271 1880.12C760.404 1880.23 760.538 1880.28 760.671 1880.28H771.791C772.298 1880.28 772.724 1880.45 773.071 1880.8C773.444 1881.15 773.631 1881.59 773.631 1882.12V1883.16ZM794.673 1879.72C794.673 1880.68 794.433 1881.56 793.953 1882.36C793.473 1883.16 792.833 1883.8 792.033 1884.28C791.233 1884.76 790.353 1885 789.393 1885H782.193C781.233 1885 780.34 1884.76 779.513 1884.28C778.713 1883.8 778.073 1883.16 777.593 1882.36C777.113 1881.56 776.873 1880.68 776.873 1879.72V1863.28C776.873 1862.29 777.113 1861.4 777.593 1860.6C778.073 1859.8 778.713 1859.16 779.513 1858.68C780.34 1858.2 781.233 1857.96 782.193 1857.96H789.393C790.353 1857.96 791.233 1858.2 792.033 1858.68C792.833 1859.16 793.473 1859.8 793.953 1860.6C794.433 1861.4 794.673 1862.29 794.673 1863.28V1864.36C794.673 1864.87 794.5 1865.29 794.153 1865.64C793.807 1865.99 793.367 1866.16 792.833 1866.16H791.753C791.247 1866.16 790.807 1865.99 790.433 1865.64C790.087 1865.29 789.913 1864.87 789.913 1864.36V1863.28C789.913 1862.91 789.74 1862.72 789.393 1862.72H782.193C781.847 1862.72 781.673 1862.91 781.673 1863.28V1879.72C781.673 1879.85 781.727 1879.99 781.833 1880.12C781.94 1880.23 782.06 1880.28 782.193 1880.28H789.393C789.527 1880.28 789.647 1880.23 789.753 1880.12C789.86 1879.99 789.913 1879.85 789.913 1879.72V1878.52C789.913 1878.01 790.087 1877.59 790.433 1877.24C790.807 1876.87 791.247 1876.68 791.753 1876.68H792.833C793.367 1876.68 793.807 1876.87 794.153 1877.24C794.5 1877.59 794.673 1878.01 794.673 1878.52V1879.72Z" fill="#F4EFEB"/>
<path d="M1023.84 1868.52L1023.6 1869.64C1023.55 1870.07 1023.35 1870.43 1023 1870.72C1022.65 1871.01 1022.25 1871.16 1021.8 1871.16H1020.44C1020.09 1871.16 1019.89 1871.32 1019.84 1871.64L1019.8 1871.76C1019.75 1872.08 1019.88 1872.24 1020.2 1872.24H1020.88C1021.44 1872.24 1021.92 1872.48 1022.32 1872.96C1022.48 1873.15 1022.6 1873.37 1022.68 1873.64C1022.76 1873.91 1022.76 1874.16 1022.68 1874.4L1022.52 1875.52C1022.41 1875.95 1022.2 1876.31 1021.88 1876.6C1021.56 1876.89 1021.17 1877.04 1020.72 1877.04H1019.32C1018.95 1877.04 1018.73 1877.21 1018.68 1877.56L1017.6 1883.52C1017.49 1883.95 1017.28 1884.31 1016.96 1884.6C1016.64 1884.87 1016.25 1885 1015.8 1885H1014.64C1014.08 1885 1013.61 1884.79 1013.24 1884.36C1012.89 1883.96 1012.76 1883.45 1012.84 1882.84L1013.84 1877.56C1013.89 1877.43 1013.87 1877.31 1013.76 1877.2C1013.68 1877.09 1013.57 1877.04 1013.44 1877.04H1013C1012.63 1877.04 1012.4 1877.21 1012.32 1877.56L1011.24 1883.52C1011.13 1883.95 1010.92 1884.31 1010.6 1884.6C1010.28 1884.87 1009.89 1885 1009.44 1885H1008.28C1007.72 1885 1007.27 1884.79 1006.92 1884.36C1006.55 1883.93 1006.4 1883.43 1006.48 1882.84L1007.52 1877.56C1007.57 1877.21 1007.43 1877.04 1007.08 1877.04H1006.44C1005.91 1877.04 1005.45 1876.81 1005.08 1876.36C1004.71 1875.91 1004.56 1875.41 1004.64 1874.88L1004.88 1873.76C1004.99 1873.33 1005.2 1872.97 1005.52 1872.68C1005.87 1872.39 1006.25 1872.24 1006.68 1872.24H1008C1008.37 1872.24 1008.57 1872.08 1008.6 1871.76V1871.64C1008.65 1871.51 1008.63 1871.4 1008.52 1871.32C1008.44 1871.21 1008.33 1871.16 1008.2 1871.16H1007.6C1007.33 1871.16 1007.08 1871.09 1006.84 1870.96C1006.6 1870.83 1006.37 1870.67 1006.16 1870.48C1005.81 1869.97 1005.69 1869.47 1005.8 1868.96L1006 1867.88C1006.08 1867.43 1006.29 1867.07 1006.64 1866.8C1006.99 1866.51 1007.37 1866.36 1007.8 1866.36H1009.12C1009.49 1866.36 1009.69 1866.2 1009.72 1865.88L1010.96 1859.48C1011.01 1859.03 1011.21 1858.67 1011.56 1858.4C1011.93 1858.11 1012.33 1857.96 1012.76 1857.96H1013.84C1014.4 1857.96 1014.87 1858.19 1015.24 1858.64C1015.64 1859.07 1015.77 1859.56 1015.64 1860.12L1014.56 1865.88C1014.53 1866.01 1014.56 1866.13 1014.64 1866.24C1014.75 1866.32 1014.85 1866.36 1014.96 1866.36H1015.48C1015.8 1866.36 1016 1866.2 1016.08 1865.88L1017.32 1859.48C1017.37 1859.03 1017.57 1858.67 1017.92 1858.4C1018.27 1858.11 1018.65 1857.96 1019.08 1857.96H1020.2C1020.76 1857.96 1021.23 1858.19 1021.6 1858.64C1021.95 1859.04 1022.08 1859.53 1022 1860.12L1020.88 1865.88C1020.85 1866.01 1020.89 1866.13 1021 1866.24C1021.11 1866.32 1021.21 1866.36 1021.32 1866.36H1022.04C1022.6 1866.36 1023.07 1866.59 1023.44 1867.04C1023.79 1867.47 1023.92 1867.96 1023.84 1868.52ZM1014.96 1871.64C1015.01 1871.32 1014.88 1871.16 1014.56 1871.16H1014.08C1013.73 1871.16 1013.53 1871.32 1013.48 1871.64L1013.44 1871.76C1013.39 1872.08 1013.52 1872.24 1013.84 1872.24H1014.36C1014.73 1872.24 1014.93 1872.08 1014.96 1871.76V1871.64ZM1044.86 1879.72C1044.86 1880.68 1044.62 1881.56 1044.14 1882.36C1043.66 1883.16 1043.02 1883.8 1042.22 1884.28C1041.42 1884.76 1040.54 1885 1039.58 1885H1028.9C1028.39 1885 1027.95 1884.83 1027.58 1884.48C1027.23 1884.11 1027.06 1883.67 1027.06 1883.16V1859.8C1027.06 1859.27 1027.23 1858.83 1027.58 1858.48C1027.95 1858.13 1028.39 1857.96 1028.9 1857.96H1039.02C1040.01 1857.96 1040.89 1858.2 1041.66 1858.68C1042.46 1859.16 1043.1 1859.8 1043.58 1860.6C1044.06 1861.4 1044.3 1862.29 1044.3 1863.28V1868.04C1044.3 1868.76 1044.17 1869.43 1043.9 1870.04C1043.77 1870.33 1043.79 1870.63 1043.98 1870.92C1044.57 1871.8 1044.86 1872.79 1044.86 1873.88V1879.72ZM1039.58 1868.04V1863.28C1039.58 1863.12 1039.51 1862.99 1039.38 1862.88C1039.27 1862.77 1039.15 1862.72 1039.02 1862.72H1032.38C1032.03 1862.72 1031.86 1862.89 1031.86 1863.24V1868.04C1031.86 1868.39 1032.03 1868.56 1032.38 1868.56H1039.02C1039.15 1868.56 1039.27 1868.51 1039.38 1868.4C1039.51 1868.29 1039.58 1868.17 1039.58 1868.04ZM1040.1 1879.72V1873.88C1040.1 1873.51 1039.93 1873.32 1039.58 1873.32H1032.38C1032.03 1873.32 1031.86 1873.49 1031.86 1873.84V1879.76C1031.86 1880.11 1032.03 1880.28 1032.38 1880.28H1039.58C1039.71 1880.28 1039.83 1880.23 1039.94 1880.12C1040.05 1879.99 1040.1 1879.85 1040.1 1879.72ZM1066.44 1879.72C1066.44 1880.68 1066.2 1881.56 1065.72 1882.36C1065.24 1883.16 1064.6 1883.8 1063.8 1884.28C1063 1884.76 1062.12 1885 1061.16 1885H1053.48C1052.52 1885 1051.62 1884.76 1050.8 1884.28C1050 1883.8 1049.36 1883.16 1048.88 1882.36C1048.4 1881.56 1048.16 1880.68 1048.16 1879.72V1878.52C1048.16 1878.01 1048.33 1877.59 1048.68 1877.24C1049.05 1876.87 1049.49 1876.68 1050 1876.68H1051.12C1051.6 1876.68 1052.01 1876.87 1052.36 1877.24C1052.73 1877.59 1052.92 1878.01 1052.92 1878.52V1879.72C1052.92 1879.85 1052.97 1879.99 1053.08 1880.12C1053.21 1880.23 1053.34 1880.28 1053.48 1880.28H1061.16C1061.29 1880.28 1061.41 1880.23 1061.52 1880.12C1061.62 1879.99 1061.68 1879.85 1061.68 1879.72V1874.4C1061.68 1874.05 1061.5 1873.88 1061.16 1873.88H1053.48C1052.97 1873.88 1052.53 1873.71 1052.16 1873.36C1051.81 1872.99 1051.64 1872.55 1051.64 1872.04V1870.92C1051.64 1870.41 1051.81 1869.99 1052.16 1869.64C1052.53 1869.29 1052.97 1869.12 1053.48 1869.12H1061.16C1061.29 1869.12 1061.41 1869.07 1061.52 1868.96C1061.62 1868.83 1061.68 1868.69 1061.68 1868.56V1863.28C1061.68 1862.91 1061.5 1862.72 1061.16 1862.72H1053.48C1053.34 1862.72 1053.21 1862.77 1053.08 1862.88C1052.97 1862.99 1052.92 1863.12 1052.92 1863.28V1864.36C1052.92 1864.87 1052.73 1865.29 1052.36 1865.64C1052.01 1865.99 1051.6 1866.16 1051.12 1866.16H1050C1049.49 1866.16 1049.05 1865.99 1048.68 1865.64C1048.33 1865.29 1048.16 1864.87 1048.16 1864.36V1863.28C1048.16 1862.29 1048.4 1861.4 1048.88 1860.6C1049.36 1859.8 1050 1859.16 1050.8 1858.68C1051.62 1858.2 1052.52 1857.96 1053.48 1857.96H1061.16C1062.12 1857.96 1063 1858.2 1063.8 1858.68C1064.6 1859.16 1065.24 1859.8 1065.72 1860.6C1066.2 1861.4 1066.44 1862.29 1066.44 1863.28V1868.56C1066.44 1868.99 1066.38 1869.41 1066.28 1869.84C1066.17 1870.27 1066.02 1870.68 1065.84 1871.08C1065.62 1871.35 1065.62 1871.63 1065.84 1871.92C1066.02 1872.29 1066.17 1872.69 1066.28 1873.12C1066.38 1873.55 1066.44 1873.97 1066.44 1874.4V1879.72ZM1087.48 1879.72C1087.48 1880.68 1087.24 1881.56 1086.76 1882.36C1086.28 1883.16 1085.64 1883.8 1084.84 1884.28C1084.04 1884.76 1083.16 1885 1082.2 1885H1075C1074.04 1885 1073.14 1884.76 1072.32 1884.28C1071.52 1883.8 1070.88 1883.16 1070.4 1882.36C1069.92 1881.56 1069.68 1880.68 1069.68 1879.72V1863.28C1069.68 1862.29 1069.92 1861.4 1070.4 1860.6C1070.88 1859.8 1071.52 1859.16 1072.32 1858.68C1073.14 1858.2 1074.04 1857.96 1075 1857.96H1082.2C1083.16 1857.96 1084.04 1858.2 1084.84 1858.68C1085.64 1859.16 1086.28 1859.8 1086.76 1860.6C1087.24 1861.4 1087.48 1862.29 1087.48 1863.28V1864.36C1087.48 1864.87 1087.3 1865.29 1086.96 1865.64C1086.61 1865.99 1086.17 1866.16 1085.64 1866.16H1084.56C1084.05 1866.16 1083.61 1865.99 1083.24 1865.64C1082.89 1865.29 1082.72 1864.87 1082.72 1864.36V1863.28C1082.72 1862.91 1082.54 1862.72 1082.2 1862.72H1075C1074.65 1862.72 1074.48 1862.91 1074.48 1863.28V1879.72C1074.48 1879.85 1074.53 1879.99 1074.64 1880.12C1074.74 1880.23 1074.86 1880.28 1075 1880.28H1082.2C1082.33 1880.28 1082.45 1880.23 1082.56 1880.12C1082.66 1879.99 1082.72 1879.85 1082.72 1879.72V1878.52C1082.72 1878.01 1082.89 1877.59 1083.24 1877.24C1083.61 1876.87 1084.05 1876.68 1084.56 1876.68H1085.64C1086.17 1876.68 1086.61 1876.87 1086.96 1877.24C1087.3 1877.59 1087.48 1878.01 1087.48 1878.52V1879.72ZM1109.05 1879.72C1109.05 1880.68 1108.81 1881.56 1108.33 1882.36C1107.85 1883.16 1107.21 1883.8 1106.41 1884.28C1105.61 1884.76 1104.73 1885 1103.77 1885H1096.09C1095.13 1885 1094.24 1884.76 1093.41 1884.28C1092.61 1883.8 1091.97 1883.16 1091.49 1882.36C1091.01 1881.56 1090.77 1880.68 1090.77 1879.72V1878.52C1090.77 1878.01 1090.95 1877.59 1091.29 1877.24C1091.67 1876.87 1092.11 1876.68 1092.61 1876.68H1093.73C1094.21 1876.68 1094.63 1876.87 1094.97 1877.24C1095.35 1877.59 1095.53 1878.01 1095.53 1878.52V1879.72C1095.53 1879.85 1095.59 1879.99 1095.69 1880.12C1095.83 1880.23 1095.96 1880.28 1096.09 1880.28H1103.77C1103.91 1880.28 1104.03 1880.23 1104.13 1880.12C1104.24 1879.99 1104.29 1879.85 1104.29 1879.72V1875.48C1104.29 1875.13 1104.13 1874.96 1103.81 1874.96H1096.09C1095.13 1874.96 1094.24 1874.72 1093.41 1874.24C1092.61 1873.76 1091.97 1873.12 1091.49 1872.32C1091.01 1871.49 1090.77 1870.6 1090.77 1869.64V1863.28C1090.77 1862.29 1091.01 1861.4 1091.49 1860.6C1091.97 1859.8 1092.61 1859.16 1093.41 1858.68C1094.24 1858.2 1095.13 1857.96 1096.09 1857.96H1103.77C1104.73 1857.96 1105.61 1858.2 1106.41 1858.68C1107.21 1859.16 1107.85 1859.8 1108.33 1860.6C1108.81 1861.4 1109.05 1862.29 1109.05 1863.28V1879.72ZM1104.29 1869.68V1863.28C1104.29 1862.91 1104.12 1862.72 1103.77 1862.72H1096.09C1095.96 1862.72 1095.83 1862.77 1095.69 1862.88C1095.59 1862.99 1095.53 1863.12 1095.53 1863.28V1869.64C1095.53 1869.8 1095.59 1869.93 1095.69 1870.04C1095.83 1870.15 1095.96 1870.2 1096.09 1870.2H1103.81C1104.13 1870.2 1104.29 1870.03 1104.29 1869.68ZM1132.98 1882.6C1133.14 1883.21 1133.04 1883.77 1132.7 1884.28C1132.35 1884.76 1131.86 1885 1131.22 1885H1130.06C1129.68 1885 1129.32 1884.88 1128.98 1884.64C1128.66 1884.4 1128.43 1884.11 1128.3 1883.76L1126.78 1879.16C1126.67 1878.81 1126.44 1878.64 1126.1 1878.64H1119.26C1118.91 1878.64 1118.68 1878.81 1118.58 1879.16L1117.06 1883.76C1116.92 1884.11 1116.7 1884.4 1116.38 1884.64C1116.06 1884.88 1115.7 1885 1115.3 1885H1114.14C1113.5 1885 1113 1884.76 1112.66 1884.28C1112.28 1883.75 1112.2 1883.19 1112.42 1882.6L1120.18 1859.2C1120.31 1858.83 1120.52 1858.53 1120.82 1858.32C1121.14 1858.08 1121.48 1857.96 1121.86 1857.96H1123.5C1123.87 1857.96 1124.22 1858.08 1124.54 1858.32C1124.86 1858.53 1125.07 1858.83 1125.18 1859.2L1132.98 1882.6ZM1124.9 1873.4L1122.9 1867.28C1122.76 1867.09 1122.62 1867.09 1122.46 1867.28L1120.46 1873.4C1120.4 1873.53 1120.42 1873.65 1120.5 1873.76C1120.58 1873.87 1120.68 1873.92 1120.82 1873.92H1124.54C1124.67 1873.92 1124.78 1873.87 1124.86 1873.76C1124.94 1873.65 1124.95 1873.53 1124.9 1873.4ZM1154.56 1883.16C1154.56 1883.67 1154.37 1884.11 1154 1884.48C1153.65 1884.83 1153.23 1885 1152.72 1885H1141.6C1140.64 1885 1139.75 1884.76 1138.92 1884.28C1138.12 1883.8 1137.48 1883.16 1137 1882.36C1136.52 1881.56 1136.28 1880.68 1136.28 1879.72V1876.08C1136.28 1874.99 1136.6 1873.97 1137.24 1873.04C1137.88 1872.11 1138.73 1871.45 1139.8 1871.08L1149.4 1867.48C1149.67 1867.4 1149.8 1867.2 1149.8 1866.88V1863.28C1149.8 1862.91 1149.63 1862.72 1149.28 1862.72H1141.6C1141.47 1862.72 1141.33 1862.77 1141.2 1862.88C1141.09 1862.99 1141.04 1863.12 1141.04 1863.28V1864.36C1141.04 1864.87 1140.85 1865.29 1140.48 1865.64C1140.13 1865.99 1139.71 1866.16 1139.2 1866.16H1138.12C1137.61 1866.16 1137.17 1865.99 1136.8 1865.64C1136.45 1865.29 1136.28 1864.87 1136.28 1864.36V1863.28C1136.28 1862.29 1136.52 1861.4 1137 1860.6C1137.48 1859.8 1138.12 1859.16 1138.92 1858.68C1139.75 1858.2 1140.64 1857.96 1141.6 1857.96H1149.28C1150.24 1857.96 1151.12 1858.2 1151.92 1858.68C1152.72 1859.16 1153.36 1859.8 1153.84 1860.6C1154.32 1861.4 1154.56 1862.29 1154.56 1863.28V1866.88C1154.56 1868 1154.24 1869.03 1153.6 1869.96C1152.96 1870.89 1152.12 1871.55 1151.08 1871.92L1141.44 1875.52C1141.17 1875.6 1141.04 1875.79 1141.04 1876.08V1879.72C1141.04 1879.85 1141.09 1879.99 1141.2 1880.12C1141.33 1880.23 1141.47 1880.28 1141.6 1880.28H1152.72C1153.23 1880.28 1153.65 1880.45 1154 1880.8C1154.37 1881.15 1154.56 1881.59 1154.56 1882.12V1883.16Z" fill="#38442C"/>
<path d="M1384.84 1868.52L1384.6 1869.64C1384.55 1870.07 1384.35 1870.43 1384 1870.72C1383.65 1871.01 1383.25 1871.16 1382.8 1871.16H1381.44C1381.09 1871.16 1380.89 1871.32 1380.84 1871.64L1380.8 1871.76C1380.75 1872.08 1380.88 1872.24 1381.2 1872.24H1381.88C1382.44 1872.24 1382.92 1872.48 1383.32 1872.96C1383.48 1873.15 1383.6 1873.37 1383.68 1873.64C1383.76 1873.91 1383.76 1874.16 1383.68 1874.4L1383.52 1875.52C1383.41 1875.95 1383.2 1876.31 1382.88 1876.6C1382.56 1876.89 1382.17 1877.04 1381.72 1877.04H1380.32C1379.95 1877.04 1379.73 1877.21 1379.68 1877.56L1378.6 1883.52C1378.49 1883.95 1378.28 1884.31 1377.96 1884.6C1377.64 1884.87 1377.25 1885 1376.8 1885H1375.64C1375.08 1885 1374.61 1884.79 1374.24 1884.36C1373.89 1883.96 1373.76 1883.45 1373.84 1882.84L1374.84 1877.56C1374.89 1877.43 1374.87 1877.31 1374.76 1877.2C1374.68 1877.09 1374.57 1877.04 1374.44 1877.04H1374C1373.63 1877.04 1373.4 1877.21 1373.32 1877.56L1372.24 1883.52C1372.13 1883.95 1371.92 1884.31 1371.6 1884.6C1371.28 1884.87 1370.89 1885 1370.44 1885H1369.28C1368.72 1885 1368.27 1884.79 1367.92 1884.36C1367.55 1883.93 1367.4 1883.43 1367.48 1882.84L1368.52 1877.56C1368.57 1877.21 1368.43 1877.04 1368.08 1877.04H1367.44C1366.91 1877.04 1366.45 1876.81 1366.08 1876.36C1365.71 1875.91 1365.56 1875.41 1365.64 1874.88L1365.88 1873.76C1365.99 1873.33 1366.2 1872.97 1366.52 1872.68C1366.87 1872.39 1367.25 1872.24 1367.68 1872.24H1369C1369.37 1872.24 1369.57 1872.08 1369.6 1871.76V1871.64C1369.65 1871.51 1369.63 1871.4 1369.52 1871.32C1369.44 1871.21 1369.33 1871.16 1369.2 1871.16H1368.6C1368.33 1871.16 1368.08 1871.09 1367.84 1870.96C1367.6 1870.83 1367.37 1870.67 1367.16 1870.48C1366.81 1869.97 1366.69 1869.47 1366.8 1868.96L1367 1867.88C1367.08 1867.43 1367.29 1867.07 1367.64 1866.8C1367.99 1866.51 1368.37 1866.36 1368.8 1866.36H1370.12C1370.49 1866.36 1370.69 1866.2 1370.72 1865.88L1371.96 1859.48C1372.01 1859.03 1372.21 1858.67 1372.56 1858.4C1372.93 1858.11 1373.33 1857.96 1373.76 1857.96H1374.84C1375.4 1857.96 1375.87 1858.19 1376.24 1858.64C1376.64 1859.07 1376.77 1859.56 1376.64 1860.12L1375.56 1865.88C1375.53 1866.01 1375.56 1866.13 1375.64 1866.24C1375.75 1866.32 1375.85 1866.36 1375.96 1866.36H1376.48C1376.8 1866.36 1377 1866.2 1377.08 1865.88L1378.32 1859.48C1378.37 1859.03 1378.57 1858.67 1378.92 1858.4C1379.27 1858.11 1379.65 1857.96 1380.08 1857.96H1381.2C1381.76 1857.96 1382.23 1858.19 1382.6 1858.64C1382.95 1859.04 1383.08 1859.53 1383 1860.12L1381.88 1865.88C1381.85 1866.01 1381.89 1866.13 1382 1866.24C1382.11 1866.32 1382.21 1866.36 1382.32 1866.36H1383.04C1383.6 1866.36 1384.07 1866.59 1384.44 1867.04C1384.79 1867.47 1384.92 1867.96 1384.84 1868.52ZM1375.96 1871.64C1376.01 1871.32 1375.88 1871.16 1375.56 1871.16H1375.08C1374.73 1871.16 1374.53 1871.32 1374.48 1871.64L1374.44 1871.76C1374.39 1872.08 1374.52 1872.24 1374.84 1872.24H1375.36C1375.73 1872.24 1375.93 1872.08 1375.96 1871.76V1871.64ZM1405.42 1860.88C1405.42 1861.39 1405.23 1861.83 1404.86 1862.2C1404.51 1862.55 1404.1 1862.72 1403.62 1862.72H1393.3C1392.98 1862.72 1392.82 1862.89 1392.82 1863.24V1868.56C1392.82 1868.93 1392.98 1869.12 1393.3 1869.12H1402.18C1402.71 1869.12 1403.15 1869.29 1403.5 1869.64C1403.85 1869.99 1404.02 1870.41 1404.02 1870.92V1872.04C1404.02 1872.55 1403.85 1872.99 1403.5 1873.36C1403.15 1873.71 1402.71 1873.88 1402.18 1873.88H1393.3C1392.98 1873.88 1392.82 1874.04 1392.82 1874.36V1883.16C1392.82 1883.67 1392.63 1884.11 1392.26 1884.48C1391.91 1884.83 1391.49 1885 1390.98 1885H1389.86C1389.38 1885 1388.95 1884.83 1388.58 1884.48C1388.23 1884.11 1388.06 1883.67 1388.06 1883.16V1859.8C1388.06 1859.27 1388.23 1858.83 1388.58 1858.48C1388.95 1858.13 1389.38 1857.96 1389.86 1857.96H1403.62C1404.1 1857.96 1404.51 1858.13 1404.86 1858.48C1405.23 1858.83 1405.42 1859.27 1405.42 1859.8V1860.88ZM1426.97 1877.96C1426.97 1878.44 1426.78 1878.87 1426.41 1879.24C1426.06 1879.59 1425.63 1879.76 1425.13 1879.76H1424.21C1423.83 1879.76 1423.65 1879.93 1423.65 1880.28V1883.16C1423.65 1883.67 1423.47 1884.11 1423.13 1884.48C1422.78 1884.83 1422.35 1885 1421.85 1885H1420.77C1420.26 1885 1419.82 1884.83 1419.45 1884.48C1419.1 1884.11 1418.93 1883.67 1418.93 1883.16V1880.28C1418.93 1879.93 1418.75 1879.76 1418.41 1879.76H1410.45C1409.94 1879.76 1409.5 1879.59 1409.13 1879.24C1408.78 1878.87 1408.61 1878.44 1408.61 1877.96V1872.92C1408.61 1871.69 1408.89 1870.52 1409.45 1869.4L1412.73 1863.16C1413.07 1862.47 1413.62 1862.12 1414.37 1862.12H1415.57C1416.26 1862.12 1416.78 1862.41 1417.13 1863C1417.5 1863.56 1417.53 1864.16 1417.21 1864.8L1413.69 1871.6C1413.47 1872.08 1413.37 1872.52 1413.37 1872.92V1874.52C1413.37 1874.84 1413.55 1875 1413.93 1875H1418.41C1418.75 1875 1418.93 1874.84 1418.93 1874.52V1859.8C1418.93 1859.27 1419.1 1858.83 1419.45 1858.48C1419.82 1858.13 1420.26 1857.96 1420.77 1857.96H1421.85C1422.35 1857.96 1422.78 1858.13 1423.13 1858.48C1423.47 1858.83 1423.65 1859.27 1423.65 1859.8V1874.52C1423.65 1874.84 1423.83 1875 1424.21 1875H1425.13C1425.63 1875 1426.06 1875.19 1426.41 1875.56C1426.78 1875.91 1426.97 1876.33 1426.97 1876.84V1877.96ZM1447.53 1883.16C1447.53 1883.67 1447.34 1884.11 1446.97 1884.48C1446.62 1884.83 1446.21 1885 1445.73 1885H1431.97C1431.49 1885 1431.06 1884.83 1430.69 1884.48C1430.34 1884.11 1430.17 1883.67 1430.17 1883.16V1859.8C1430.17 1859.27 1430.34 1858.83 1430.69 1858.48C1431.06 1858.13 1431.49 1857.96 1431.97 1857.96H1445.73C1446.21 1857.96 1446.62 1858.13 1446.97 1858.48C1447.34 1858.83 1447.53 1859.27 1447.53 1859.8V1860.88C1447.53 1861.39 1447.34 1861.83 1446.97 1862.2C1446.62 1862.55 1446.21 1862.72 1445.73 1862.72H1435.41C1435.09 1862.72 1434.93 1862.89 1434.93 1863.24V1868.56C1434.93 1868.93 1435.09 1869.12 1435.41 1869.12H1444.29C1444.82 1869.12 1445.26 1869.29 1445.61 1869.64C1445.96 1869.99 1446.13 1870.41 1446.13 1870.92V1872.04C1446.13 1872.55 1445.96 1872.99 1445.61 1873.36C1445.26 1873.71 1444.82 1873.88 1444.29 1873.88H1435.41C1435.09 1873.88 1434.93 1874.04 1434.93 1874.36V1879.76C1434.93 1880.11 1435.09 1880.28 1435.41 1880.28H1445.73C1446.21 1880.28 1446.62 1880.45 1446.97 1880.8C1447.34 1881.15 1447.53 1881.59 1447.53 1882.12V1883.16ZM1468.08 1860.88C1468.08 1861.39 1467.89 1861.83 1467.52 1862.2C1467.17 1862.55 1466.76 1862.72 1466.28 1862.72H1455.96C1455.64 1862.72 1455.48 1862.89 1455.48 1863.24V1868.56C1455.48 1868.93 1455.64 1869.12 1455.96 1869.12H1464.84C1465.37 1869.12 1465.81 1869.29 1466.16 1869.64C1466.5 1869.99 1466.68 1870.41 1466.68 1870.92V1872.04C1466.68 1872.55 1466.5 1872.99 1466.16 1873.36C1465.81 1873.71 1465.37 1873.88 1464.84 1873.88H1455.96C1455.64 1873.88 1455.48 1874.04 1455.48 1874.36V1883.16C1455.48 1883.67 1455.29 1884.11 1454.92 1884.48C1454.57 1884.83 1454.14 1885 1453.64 1885H1452.52C1452.04 1885 1451.61 1884.83 1451.24 1884.48C1450.89 1884.11 1450.72 1883.67 1450.72 1883.16V1859.8C1450.72 1859.27 1450.89 1858.83 1451.24 1858.48C1451.61 1858.13 1452.04 1857.96 1452.52 1857.96H1466.28C1466.76 1857.96 1467.17 1858.13 1467.52 1858.48C1467.89 1858.83 1468.08 1859.27 1468.08 1859.8V1860.88ZM1488.62 1883.16C1488.62 1883.67 1488.44 1884.11 1488.06 1884.48C1487.72 1884.83 1487.3 1885 1486.82 1885H1473.06C1472.58 1885 1472.16 1884.83 1471.78 1884.48C1471.44 1884.11 1471.26 1883.67 1471.26 1883.16V1859.8C1471.26 1859.27 1471.44 1858.83 1471.78 1858.48C1472.16 1858.13 1472.58 1857.96 1473.06 1857.96H1486.82C1487.3 1857.96 1487.72 1858.13 1488.06 1858.48C1488.44 1858.83 1488.62 1859.27 1488.62 1859.8V1860.88C1488.62 1861.39 1488.44 1861.83 1488.06 1862.2C1487.72 1862.55 1487.3 1862.72 1486.82 1862.72H1476.5C1476.18 1862.72 1476.02 1862.89 1476.02 1863.24V1868.56C1476.02 1868.93 1476.18 1869.12 1476.5 1869.12H1485.38C1485.92 1869.12 1486.36 1869.29 1486.7 1869.64C1487.05 1869.99 1487.22 1870.41 1487.22 1870.92V1872.04C1487.22 1872.55 1487.05 1872.99 1486.7 1873.36C1486.36 1873.71 1485.92 1873.88 1485.38 1873.88H1476.5C1476.18 1873.88 1476.02 1874.04 1476.02 1874.36V1879.76C1476.02 1880.11 1476.18 1880.28 1476.5 1880.28H1486.82C1487.3 1880.28 1487.72 1880.45 1488.06 1880.8C1488.44 1881.15 1488.62 1881.59 1488.62 1882.12V1883.16ZM1509.61 1879.72C1509.61 1880.68 1509.37 1881.56 1508.89 1882.36C1508.41 1883.16 1507.77 1883.8 1506.97 1884.28C1506.17 1884.76 1505.29 1885 1504.33 1885H1493.65C1493.14 1885 1492.7 1884.83 1492.33 1884.48C1491.98 1884.11 1491.81 1883.67 1491.81 1883.16V1859.8C1491.81 1859.27 1491.98 1858.83 1492.33 1858.48C1492.7 1858.13 1493.14 1857.96 1493.65 1857.96H1503.77C1504.76 1857.96 1505.64 1858.2 1506.41 1858.68C1507.21 1859.16 1507.85 1859.8 1508.33 1860.6C1508.81 1861.4 1509.05 1862.29 1509.05 1863.28V1868.04C1509.05 1868.76 1508.92 1869.43 1508.65 1870.04C1508.52 1870.33 1508.54 1870.63 1508.73 1870.92C1509.32 1871.8 1509.61 1872.79 1509.61 1873.88V1879.72ZM1504.33 1868.04V1863.28C1504.33 1863.12 1504.26 1862.99 1504.13 1862.88C1504.02 1862.77 1503.9 1862.72 1503.77 1862.72H1497.13C1496.78 1862.72 1496.61 1862.89 1496.61 1863.24V1868.04C1496.61 1868.39 1496.78 1868.56 1497.13 1868.56H1503.77C1503.9 1868.56 1504.02 1868.51 1504.13 1868.4C1504.26 1868.29 1504.33 1868.17 1504.33 1868.04ZM1504.85 1879.72V1873.88C1504.85 1873.51 1504.68 1873.32 1504.33 1873.32H1497.13C1496.78 1873.32 1496.61 1873.49 1496.61 1873.84V1879.76C1496.61 1880.11 1496.78 1880.28 1497.13 1880.28H1504.33C1504.46 1880.28 1504.58 1880.23 1504.69 1880.12C1504.8 1879.99 1504.85 1879.85 1504.85 1879.72Z" fill="#38442C"/>
<defs>
<filter id="filter0_d_42_5052" x="531" y="1574" width="381" height="597" filterUnits="userSpaceOnUse" color-interpolation-filters="sRGB">
<feFlood flood-opacity="0" result="BackgroundImageFix"/>
<feColorMatrix in="SourceAlpha" type="matrix" values="0 0 0 0 0 0 0 0 0 0 0 0 0 0 0 0 0 0 127 0" result="hardAlpha"/>
<feMorphology radius="10" operator="erode" in="SourceAlpha" result="effect1_dropShadow_42_5052"/>
<feOffset dy="4"/>
<feGaussianBlur stdDeviation="25"/>
<feComposite in2="hardAlpha" operator="out"/>
<feColorMatrix type="matrix" values="0 0 0 0 0.219608 0 0 0 0 0.266667 0 0 0 0 0.172549 0 0 0 0.5 0"/>
<feBlend mode="normal" in2="BackgroundImageFix" result="effect1_dropShadow_42_5052"/>
<feBlend mode="normal" in="SourceGraphic" in2="effect1_dropShadow_42_5052" result="shape"/>
</filter>
<filter id="filter1_d_42_5052" x="1248" y="1574" width="381" height="597" filterUnits="userSpaceOnUse" color-interpolation-filters="sRGB">
<feFlood flood-opacity="0" result="BackgroundImageFix"/>
<feColorMatrix in="SourceAlpha" type="matrix" values="0 0 0 0 0 0 0 0 0 0 0 0 0 0 0 0 0 0 127 0" result="hardAlpha"/>
<feMorphology radius="10" operator="erode" in="SourceAlpha" result="effect1_dropShadow_42_5052"/>
<feOffset dy="4"/>
<feGaussianBlur stdDeviation="25"/>
<feComposite in2="hardAlpha" operator="out"/>
<feColorMatrix type="matrix" values="0 0 0 0 0.219608 0 0 0 0 0.266667 0 0 0 0 0.172549 0 0 0 0.5 0"/>
<feBlend mode="normal" in2="BackgroundImageFix" result="effect1_dropShadow_42_5052"/>
<feBlend mode="normal" in="SourceGraphic" in2="effect1_dropShadow_42_5052" result="shape"/>
</filter>
<filter id="filter2_d_42_5052" x="889" y="1574" width="382" height="597" filterUnits="userSpaceOnUse" color-interpolation-filters="sRGB">
<feFlood flood-opacity="0" result="BackgroundImageFix"/>
<feColorMatrix in="SourceAlpha" type="matrix" values="0 0 0 0 0 0 0 0 0 0 0 0 0 0 0 0 0 0 127 0" result="hardAlpha"/>
<feMorphology radius="10" operator="erode" in="SourceAlpha" result="effect1_dropShadow_42_5052"/>
<feOffset dy="4"/>
<feGaussianBlur stdDeviation="25"/>
<feComposite in2="hardAlpha" operator="out"/>
<feColorMatrix type="matrix" values="0 0 0 0 0.219608 0 0 0 0 0.266667 0 0 0 0 0.172549 0 0 0 0.5 0"/>
<feBlend mode="normal" in2="BackgroundImageFix" result="effect1_dropShadow_42_5052"/>
<feBlend mode="normal" in="SourceGraphic" in2="effect1_dropShadow_42_5052" result="shape"/>
</filter>
</defs>
</svg>
